<svg viewBox="0 0 68 68" fill="none" xmlns="http://www.w3.org/2000/svg">
<path d="M22.1022 53.6564C22.1198 54.1762 22.0202 54.6932 21.8111 55.1674C21.6019 55.6416 21.289 56.0603 20.8963 56.3912C19.9242 57.1415 18.7516 57.5715 17.5346 57.6238V59.8116H16.1021V57.6623C14.5674 57.6642 13.0477 57.3526 11.6325 56.7455V53.9258C12.3327 54.2699 13.065 54.5409 13.8183 54.7347C14.564 54.953 15.329 55.0949 16.1021 55.1584V51.846L15.4012 51.5686C14.3062 51.1912 13.3054 50.5733 12.4691 49.7583C11.8915 49.0933 11.5842 48.2281 11.6099 47.3393C11.6005 46.8497 11.7025 46.3644 11.9078 45.9219C12.1132 45.4794 12.4163 45.0917 12.7933 44.7893C13.7541 44.0589 14.9061 43.6378 16.1021 43.5798V41.9469H17.5342V43.5339C19.0239 43.5837 20.4914 43.9181 21.8607 44.5199L20.8808 47.0154C19.813 46.5662 18.6846 46.2856 17.5342 46.1834V49.3347C18.5442 49.6973 19.5163 50.1618 20.4363 50.7213C20.9473 51.0484 21.378 51.4912 21.695 52.0155C21.9738 52.5146 22.1146 53.0818 22.1022 53.6564V53.6564ZM14.7529 47.3393C14.7486 47.4841 14.7755 47.6281 14.8315 47.7612C14.8875 47.8943 14.9713 48.0132 15.0771 48.1096C15.381 48.3766 15.7278 48.5877 16.1022 48.7336V46.2299C15.2052 46.3607 14.7529 46.7307 14.7529 47.3393ZM18.9588 53.8182C18.9593 53.6723 18.927 53.5284 18.8643 53.3974C18.8015 53.2665 18.7101 53.1521 18.597 53.0631C18.2744 52.7992 17.9165 52.5839 17.5342 52.4238V55.0815C18.4839 54.9198 18.9588 54.496 18.9588 53.8182Z" fill="currentColor"/>
<path d="M23.8634 25.8694H17.5546C17.3397 25.8696 17.127 25.8265 16.9284 25.7425C16.7299 25.6586 16.5495 25.5355 16.3976 25.3802C16.2457 25.2249 16.1252 25.0405 16.0431 24.8376C15.9609 24.6347 15.9188 24.4172 15.9189 24.1976V19.0822C15.9188 18.8626 15.9609 18.6451 16.0431 18.4422C16.1252 18.2393 16.2457 18.0549 16.3976 17.8996C16.5495 17.7444 16.7299 17.6212 16.9284 17.5373C17.127 17.4533 17.3397 17.4102 17.5546 17.4104H23.8634C24.0782 17.4102 24.291 17.4533 24.4895 17.5373C24.688 17.6212 24.8684 17.7444 25.0203 17.8996C25.1723 18.0549 25.2927 18.2393 25.3748 18.4422C25.457 18.6451 25.4991 18.8626 25.4989 19.0822V24.1974C25.4992 24.417 25.457 24.6345 25.3749 24.8375C25.2928 25.0404 25.1723 25.2248 25.0204 25.3801C24.8685 25.5354 24.6881 25.6586 24.4896 25.7425C24.291 25.8265 24.0782 25.8696 23.8634 25.8694ZM17.8485 23.8972H23.5694V19.3828H17.8485V23.8972Z" fill="currentColor"/>
<path d="M35.3739 25.8694H29.0575C28.8427 25.8696 28.6299 25.8265 28.4314 25.7425C28.2328 25.6586 28.0524 25.5355 27.9005 25.3802C27.7486 25.2249 27.6281 25.0405 27.546 24.8376C27.4639 24.6347 27.4217 24.4172 27.4219 24.1976V19.0822C27.4217 18.8626 27.4639 18.6451 27.546 18.4422C27.6281 18.2393 27.7486 18.0549 27.9005 17.8996C28.0524 17.7444 28.2328 17.6212 28.4314 17.5373C28.6299 17.4533 28.8427 17.4102 29.0575 17.4104H35.3739C35.5887 17.4102 35.8015 17.4534 36 17.5373C36.1985 17.6213 36.3789 17.7444 36.5308 17.8997C36.6827 18.0549 36.8032 18.2393 36.8853 18.4422C36.9674 18.6451 37.0096 18.8626 37.0094 19.0822V24.1974C37.0096 24.417 36.9675 24.6345 36.8854 24.8374C36.8033 25.0404 36.6828 25.2248 36.5309 25.3801C36.379 25.5354 36.1986 25.6585 36 25.7425C35.8015 25.8265 35.5887 25.8696 35.3739 25.8694ZM29.3514 23.8972H35.0799V19.3828H29.3514V23.8972Z" fill="currentColor"/>
<path d="M46.8884 25.8694H40.5722C40.3573 25.8696 40.1445 25.8265 39.946 25.7425C39.7475 25.6586 39.5671 25.5355 39.4152 25.3802C39.2632 25.2249 39.1428 25.0405 39.0606 24.8376C38.9785 24.6347 38.9363 24.4172 38.9365 24.1976V19.0822C38.9363 18.8626 38.9785 18.6451 39.0606 18.4422C39.1428 18.2393 39.2632 18.0549 39.4152 17.8996C39.5671 17.7444 39.7475 17.6212 39.946 17.5373C40.1445 17.4533 40.3573 17.4102 40.5722 17.4104H46.8884C47.1033 17.4102 47.3161 17.4533 47.5146 17.5373C47.7131 17.6212 47.8935 17.7444 48.0454 17.8996C48.1974 18.0549 48.3178 18.2393 48.4 18.4422C48.4821 18.6451 48.5243 18.8626 48.5241 19.0822V24.1974C48.5243 24.417 48.4822 24.6345 48.4 24.8375C48.3179 25.0404 48.1975 25.2248 48.0455 25.3801C47.8936 25.5354 47.7132 25.6586 47.5147 25.7425C47.3161 25.8265 47.1033 25.8696 46.8884 25.8694ZM40.8661 23.8972H46.5945V19.3828H40.8661V23.8972Z" fill="currentColor"/>
<path d="M58.408 25.8694H52.0916C51.8768 25.8696 51.664 25.8265 51.4655 25.7425C51.267 25.6586 51.0866 25.5354 50.9347 25.3802C50.7828 25.2249 50.6623 25.0405 50.5802 24.8376C50.498 24.6347 50.4559 24.4172 50.4561 24.1976V19.0822C50.4559 18.8626 50.498 18.6451 50.5802 18.4422C50.6623 18.2393 50.7828 18.0549 50.9347 17.8997C51.0866 17.7444 51.267 17.6213 51.4655 17.5373C51.664 17.4534 51.8768 17.4102 52.0916 17.4104H58.408C58.6228 17.4102 58.8356 17.4533 59.0342 17.5372C59.2328 17.6211 59.4132 17.7443 59.5651 17.8996C59.7171 18.0548 59.8376 18.2392 59.9197 18.4421C60.0019 18.6451 60.044 18.8626 60.0439 19.0822V24.1974C60.0441 24.417 60.0019 24.6346 59.9198 24.8375C59.8376 25.0405 59.7172 25.2249 59.5652 25.3802C59.4133 25.5355 59.2328 25.6586 59.0343 25.7426C58.8357 25.8265 58.6229 25.8696 58.408 25.8694V25.8694ZM52.3856 23.8972H58.1143V19.3828H52.3856V23.8972Z" fill="currentColor"/>
<path d="M63.9092 3.40014e-06H12.0424C11.4985 -0.000705944 10.9599 0.10958 10.4582 0.324395C9.95656 0.53921 9.50189 0.854231 9.12089 1.25099C8.73989 1.64775 8.44022 2.11825 8.23946 2.63493C8.0387 3.1516 7.94088 3.70404 7.95174 4.25986V35.8932C5.58806 37.4136 3.62691 39.5053 2.24138 41.9837C0.855854 44.4621 0.0885584 47.251 0.00721868 50.1042C-0.0741211 52.9574 0.532996 55.7872 1.77498 58.3439C3.01697 60.9005 4.85564 63.1054 7.12869 64.7638C9.40175 66.4223 12.0393 67.4833 14.8085 67.8533C17.5778 68.2233 20.3935 67.8908 23.0073 66.8853C25.6211 65.8798 27.9525 64.2321 29.7957 62.0876C31.639 59.9432 32.9374 57.368 33.5764 54.5892H63.9092C64.4472 54.5923 64.9805 54.4862 65.4781 54.2771C65.9758 54.0681 66.4279 53.7602 66.8083 53.3714C67.1888 52.9826 67.49 52.5204 67.6945 52.0118C67.899 51.5032 68.0028 50.9582 67.9999 50.4083V4.25986C68.0087 3.14097 67.583 2.06417 66.8161 1.26562C66.0493 0.467056 65.0039 0.0119142 63.9092 3.40014e-06ZM17.0593 66.0277C14.0673 66.0277 11.1425 65.1209 8.65473 63.422C6.16698 61.723 4.22801 59.3082 3.08302 56.483C1.93804 53.6577 1.63845 50.5489 2.22216 47.5496C2.80587 44.5503 4.24666 41.7953 6.36232 39.633C8.47798 37.4706 11.1735 35.998 14.108 35.4014C17.0425 34.8048 20.0842 35.111 22.8485 36.2813C25.6127 37.4516 27.9753 39.4333 29.6376 41.976C31.2999 44.5186 32.1871 47.508 32.1871 50.566C32.1806 54.6646 30.5847 58.5934 27.7492 61.4916C24.9137 64.3898 21.0694 66.0209 17.0593 66.0277ZM17.8311 33.1322V30.1345H23.5426V34.3944C21.7212 33.6506 19.7905 33.224 17.8311 33.1322ZM31.1837 40.863H35.0429V45.3595H33.3448C32.8291 43.7668 32.1019 42.2538 31.1837 40.863ZM66.0703 50.4083C66.0773 50.7003 66.0261 50.9907 65.92 51.2619C65.8138 51.5331 65.6549 51.7794 65.4528 51.986C65.2507 52.1925 65.0097 52.355 64.7444 52.4634C64.479 52.5719 64.1949 52.6242 63.9092 52.6171H33.9623C34.0521 51.937 34.1036 51.2522 34.1167 50.566C34.1323 49.4795 34.0288 48.3946 33.8079 47.3317H35.3516C35.7807 47.3293 36.1916 47.1539 36.495 46.8438C36.7985 46.5336 36.97 46.1137 36.9724 45.6751V40.5475C36.9777 40.3285 36.9394 40.1106 36.8598 39.9072C36.7802 39.7038 36.6611 39.519 36.5095 39.364C36.3579 39.2091 36.1771 39.0873 35.9781 39.006C35.779 38.9246 35.5659 38.8855 35.3516 38.8909H29.6401C28.4611 37.461 27.0187 36.2817 25.395 35.4199C25.4579 35.2709 25.4844 35.1084 25.4722 34.9466V29.819C25.4774 29.6 25.4391 29.3822 25.3595 29.1788C25.2799 28.9753 25.1607 28.7906 25.0091 28.6357C24.8575 28.4808 24.6768 28.3589 24.4778 28.2776C24.2788 28.1962 24.0656 28.157 23.8514 28.1624H17.5224C17.0933 28.1649 16.6825 28.3403 16.379 28.6504C16.0756 28.9605 15.904 29.3804 15.9016 29.819V33.2111C13.8068 33.2858 11.7528 33.8241 9.8813 34.7888V13.174H66.5816C66.8263 13.1708 67.06 13.07 67.2331 12.8932C67.4061 12.7163 67.5047 12.4774 67.5078 12.2274C67.514 12.0976 67.4949 11.9679 67.4515 11.8457C67.4081 11.7236 67.3414 11.6115 67.2551 11.5161C67.1689 11.4206 67.065 11.3436 66.9493 11.2897C66.8337 11.2357 66.7087 11.2059 66.5816 11.2018H9.8813V4.25986C9.87291 3.96373 9.9225 3.66888 10.0272 3.39262C10.1318 3.11635 10.2895 2.86426 10.4908 2.65113C10.6921 2.43801 10.9331 2.26816 11.1995 2.15156C11.466 2.03496 11.7526 1.97397 12.0424 1.97216H63.9092C64.199 1.97398 64.4856 2.03498 64.752 2.15158C65.0185 2.26819 65.2595 2.43804 65.4608 2.65116C65.6621 2.86428 65.8197 3.11637 65.9244 3.39263C66.0291 3.66888 66.0787 3.96373 66.0703 4.25986V50.4083Z" fill="currentColor"/>
<path d="M35.3739 36.5927H29.0575C28.8427 36.5929 28.6299 36.5499 28.4314 36.4659C28.2328 36.382 28.0524 36.2589 27.9005 36.1036C27.7486 35.9483 27.6281 35.764 27.546 35.561C27.4639 35.3581 27.4217 35.1407 27.4219 34.9211V29.8135C27.4217 29.5939 27.4639 29.3764 27.546 29.1735C27.6281 28.9706 27.7486 28.7862 27.9005 28.631C28.0524 28.4757 28.2328 28.3526 28.4314 28.2686C28.6299 28.1847 28.8427 28.1416 29.0575 28.1418H35.3739C35.5887 28.1416 35.8015 28.1847 36 28.2686C36.1985 28.3526 36.3789 28.4757 36.5308 28.631C36.6827 28.7863 36.8032 28.9706 36.8853 29.1735C36.9674 29.3765 37.0096 29.5939 37.0094 29.8135V34.9211C37.0096 35.1407 36.9674 35.3581 36.8853 35.561C36.8032 35.7639 36.6827 35.9483 36.5308 36.1036C36.3789 36.2588 36.1985 36.382 36 36.4659C35.8015 36.5498 35.5887 36.5929 35.3739 36.5927V36.5927ZM29.3514 34.6206H35.0799V30.1139H29.3514V34.6206Z" fill="currentColor"/>
<path d="M46.8884 36.5927H40.5722C40.3573 36.5929 40.1446 36.5499 39.946 36.4659C39.7475 36.382 39.5671 36.2589 39.4152 36.1036C39.2632 35.9483 39.1428 35.764 39.0606 35.561C38.9785 35.3581 38.9363 35.1407 38.9365 34.9211V29.8135C38.9363 29.5939 38.9785 29.3764 39.0606 29.1735C39.1428 28.9706 39.2632 28.7862 39.4152 28.631C39.5671 28.4757 39.7475 28.3526 39.946 28.2686C40.1445 28.1847 40.3573 28.1416 40.5722 28.1418H46.8884C47.1033 28.1416 47.3161 28.1847 47.5146 28.2686C47.7131 28.3526 47.8935 28.4757 48.0454 28.631C48.1974 28.7862 48.3178 28.9706 48.4 29.1735C48.4821 29.3764 48.5243 29.5939 48.5241 29.8135V34.9211C48.5243 35.1407 48.4821 35.3581 48.4 35.561C48.3178 35.764 48.1974 35.9483 48.0454 36.1036C47.8935 36.2589 47.7131 36.382 47.5146 36.4659C47.3161 36.5499 47.1033 36.5929 46.8884 36.5927ZM40.8661 34.6206H46.5945V30.1139H40.8661V34.6206Z" fill="currentColor"/>
<path d="M58.408 36.5927H52.0916C51.8768 36.5929 51.664 36.5498 51.4655 36.4659C51.267 36.382 51.0866 36.2588 50.9347 36.1036C50.7828 35.9483 50.6623 35.7639 50.5802 35.561C50.498 35.3581 50.4559 35.1407 50.4561 34.9211V29.8135C50.4559 29.5939 50.498 29.3765 50.5802 29.1735C50.6623 28.9706 50.7828 28.7863 50.9347 28.631C51.0866 28.4757 51.267 28.3526 51.4655 28.2686C51.664 28.1847 51.8768 28.1416 52.0916 28.1418H58.408C58.6228 28.1416 58.8356 28.1847 59.0341 28.2686C59.2327 28.3526 59.413 28.4757 59.565 28.631C59.7169 28.7862 59.8374 28.9706 59.9195 29.1735C60.0016 29.3764 60.0438 29.5939 60.0436 29.8135V34.9211C60.0438 35.1407 60.0016 35.3581 59.9195 35.561C59.8374 35.764 59.7169 35.9483 59.565 36.1036C59.413 36.2589 59.2326 36.382 59.0341 36.4659C58.8356 36.5499 58.6228 36.5929 58.408 36.5927ZM52.3856 34.6206H58.1143V30.1139H52.3856V34.6206Z" fill="currentColor"/>
<path d="M46.8884 47.324H40.5722C40.3573 47.3242 40.1446 47.2811 39.946 47.1972C39.7475 47.1133 39.5671 46.9901 39.4152 46.8349C39.2632 46.6796 39.1428 46.4952 39.0606 46.2923C38.9785 46.0894 38.9363 45.8719 38.9365 45.6523V40.537C38.9363 40.3174 38.9785 40.1 39.0606 39.8971C39.1428 39.6941 39.2632 39.5098 39.4152 39.3545C39.5671 39.1992 39.7475 39.0761 39.946 38.9922C40.1446 38.9082 40.3573 38.8651 40.5722 38.8654H46.8884C47.1033 38.8651 47.3161 38.9082 47.5146 38.9922C47.7131 39.0761 47.8935 39.1992 48.0454 39.3545C48.1974 39.5098 48.3178 39.6941 48.4 39.8971C48.4821 40.1 48.5243 40.3174 48.5241 40.537V45.6523C48.5243 45.8719 48.4821 46.0894 48.4 46.2923C48.3178 46.4952 48.1974 46.6796 48.0454 46.8349C47.8935 46.9901 47.7131 47.1133 47.5146 47.1972C47.3161 47.2811 47.1033 47.3242 46.8884 47.324V47.324ZM40.8661 45.3519H46.5945V40.8375H40.8661V45.3519Z" fill="currentColor"/>
<path d="M58.408 47.324H52.0916C51.8768 47.3242 51.664 47.2811 51.4655 47.1972C51.267 47.1132 51.0866 46.9901 50.9347 46.8348C50.7828 46.6796 50.6623 46.4952 50.5802 46.2923C50.498 46.0894 50.4559 45.8719 50.4561 45.6523V40.537C50.4559 40.3174 50.498 40.1 50.5802 39.8971C50.6623 39.6942 50.7828 39.5098 50.9347 39.3545C51.0866 39.1993 51.267 39.0761 51.4655 38.9922C51.664 38.9083 51.8768 38.8652 52.0916 38.8654H58.408C58.6228 38.8651 58.8356 38.9082 59.0341 38.9922C59.2326 39.0761 59.413 39.1992 59.565 39.3545C59.7169 39.5098 59.8374 39.6941 59.9195 39.8971C60.0016 40.1 60.0438 40.3174 60.0436 40.537V45.6523C60.0438 45.8719 60.0016 46.0894 59.9195 46.2923C59.8374 46.4952 59.7169 46.6796 59.565 46.8349C59.413 46.9901 59.2326 47.1133 59.0341 47.1972C58.8356 47.2811 58.6228 47.3242 58.408 47.324V47.324ZM52.3856 45.3519H58.1143V40.8375H52.3856V45.3519Z" fill="currentColor"/>
<path fill-rule="evenodd" clip-rule="evenodd" d="M27.4766 6.5519C27.4766 5.92892 27.9657 5.42389 28.5692 5.42389H46.0511C46.6545 5.42389 47.1437 5.92892 47.1437 6.5519C47.1437 7.17489 46.6545 7.67991 46.0511 7.67991H28.5692C27.9657 7.67991 27.4766 7.17489 27.4766 6.5519Z" fill="currentColor"/>
</svg>
