<svg width="126" height="79" viewBox="0 0 126 79" fill="none" xmlns="http://www.w3.org/2000/svg">
<path d="M36.0173 67.9634H60.9543C61.2378 67.9634 61.5096 67.8508 61.71 67.6504C61.9104 67.45 62.0229 67.1782 62.0229 66.8948C62.0229 66.6114 61.9104 66.3396 61.71 66.1392C61.5096 65.9388 61.2378 65.8262 60.9543 65.8262H36.0173C35.7339 65.8262 35.4621 65.9388 35.2617 66.1392C35.0613 66.3396 34.9487 66.6114 34.9487 66.8948C34.9487 67.1782 35.0613 67.45 35.2617 67.6504C35.4621 67.8508 35.7339 67.9634 36.0173 67.9634Z" fill="currentColor"/>
<path d="M27.4235 42.0686C27.3544 41.9372 27.3247 41.7886 27.338 41.6407C28.4052 37.5729 30.8215 33.9877 34.1915 31.4718C37.5615 28.956 41.6856 27.6584 45.889 27.7915C47.4278 27.9625 49.736 28.1335 52.4716 28.4754C52.8136 28.5609 53.1556 28.5609 53.4975 28.6464H53.583C63.3287 29.7578 77.1779 31.9805 78.3747 35.2291L81.5378 42.7521C81.5378 42.8376 81.6233 43.0085 81.6233 43.094L93.2498 54.2931C93.3908 54.4184 93.4907 54.5833 93.5365 54.7664C93.5822 54.9494 93.5717 55.142 93.5062 55.3189C93.5525 55.3651 93.5824 55.4251 93.5913 55.4899V63.6968C93.5913 66.0905 90.9412 67.9712 87.5216 67.9712C87.2285 67.9661 86.9488 67.8473 86.7415 67.64C86.5342 67.4327 86.4154 67.153 86.4103 66.8599C86.4336 66.5809 86.5607 66.3208 86.7664 66.1309C86.9722 65.9409 87.2416 65.835 87.5216 65.834C89.7443 65.834 91.4541 64.7227 91.4541 63.6968V59.0804H87.7781V63.3549C87.7729 63.648 87.6541 63.9276 87.4468 64.1349C87.2395 64.3422 86.9598 64.461 86.6667 64.4662C86.526 64.4618 86.3875 64.4295 86.2595 64.371C86.1314 64.3125 86.0162 64.2291 85.9207 64.1257C85.8252 64.0222 85.7513 63.9008 85.7032 63.7684C85.6552 63.6361 85.634 63.4955 85.6409 63.3549V58.7385C85.6351 58.5011 85.6775 58.2651 85.7657 58.0446C85.8539 57.8242 85.9859 57.624 86.1538 57.4561C86.3216 57.2882 86.5219 57.1562 86.7423 57.068C86.9627 56.9799 87.1988 56.9374 87.4361 56.9432H91.4541V55.4899L79.9986 44.4618L79.2292 44.1199H53.9245V64.0387C53.9299 64.1749 53.907 64.3107 53.8574 64.4376C53.8077 64.5645 53.7323 64.6798 53.636 64.7761C53.5397 64.8725 53.4244 64.948 53.2975 64.9977C53.1706 65.0474 53.0348 65.0703 52.8987 65.0651C52.758 65.0719 52.6174 65.0507 52.485 65.0026C52.3526 64.9546 52.2311 64.8806 52.1277 64.785C52.0242 64.6895 51.9408 64.5742 51.8824 64.4461C51.8239 64.318 51.7916 64.1795 51.7873 64.0387V44.1202H29.5602C14.5142 44.1202 2.28934 52.2417 2.28934 62.1584V63.5262C2.28934 64.723 4.0846 65.8344 6.22182 65.8344H9.04295C9.32294 65.8354 9.59238 65.9413 9.79811 66.1312C10.0038 66.3211 10.1309 66.5812 10.1543 66.8602C10.1491 67.1534 10.0304 67.433 9.82307 67.6403C9.61576 67.8477 9.33608 67.9664 9.04295 67.9716H6.22182C2.80228 67.9716 0.152122 66.0053 0.152122 63.5262V62.1584C0.15255 51.5577 12.2067 42.8376 27.4235 42.0686ZM78.8877 41.9831L76.4085 36.0844C69.336 32.8546 61.6953 31.0534 53.925 30.7841V38.82C53.9318 38.9606 53.9106 39.1012 53.8626 39.2336C53.8145 39.3659 53.7406 39.4874 53.6451 39.5908C53.5496 39.6943 53.4344 39.7777 53.3064 39.8362C53.1783 39.8946 53.0398 39.927 52.8991 39.9314C52.606 39.9262 52.3263 39.8074 52.119 39.6001C51.9117 39.3928 51.7929 39.1131 51.7877 38.82V30.5276C49.8215 30.2711 47.7698 30.1002 45.8035 29.9292C42.1335 29.8121 38.5316 30.9392 35.5829 33.1275C32.6343 35.3157 30.5119 38.4365 29.5607 41.9831H78.8877Z" fill="currentColor"/>
<path d="M73.9103 58.522C72.149 58.522 70.4273 59.0442 68.9629 60.0227C67.4984 61.0012 66.357 62.392 65.683 64.0192C65.009 65.6464 64.8326 67.4369 65.1762 69.1643C65.5198 70.8918 66.3679 72.4785 67.6133 73.7239C68.8587 74.9693 70.4455 75.8175 72.1729 76.1611C73.9003 76.5047 75.6908 76.3283 77.318 75.6543C78.9452 74.9803 80.336 73.8389 81.3145 72.3745C82.2931 70.9101 82.8153 69.1884 82.8153 67.4271C82.8153 65.0653 81.8771 62.8003 80.2071 61.1303C78.5371 59.4602 76.2721 58.522 73.9103 58.522ZM73.9103 56.3848C76.0943 56.3848 78.2292 57.0324 80.0451 58.2457C81.861 59.4591 83.2763 61.1837 84.1121 63.2014C84.9479 65.2191 85.1665 67.4393 84.7405 69.5813C84.3144 71.7233 83.2627 73.6909 81.7184 75.2352C80.1741 76.7795 78.2066 77.8312 76.0646 78.2572C73.9226 78.6833 71.7023 78.4646 69.6846 77.6289C67.6669 76.7931 65.9423 75.3778 64.729 73.5619C63.5156 71.746 62.868 69.6111 62.868 67.4271C62.8713 64.4995 64.0358 61.6928 66.1059 59.6227C68.176 57.5525 70.9827 56.3881 73.9103 56.3848Z" fill="currentColor"/>
<path d="M73.8554 63.3638C73.01 63.3638 72.1836 63.6145 71.4807 64.0842C70.7778 64.5538 70.2299 65.2214 69.9064 66.0025C69.5828 66.7835 69.4982 67.643 69.6631 68.4721C69.8281 69.3013 70.2352 70.0629 70.8329 70.6607C71.4307 71.2585 72.1924 71.6656 73.0215 71.8305C73.8507 71.9954 74.7101 71.9108 75.4912 71.5873C76.2722 71.2638 76.9398 70.7159 77.4095 70.013C77.8792 69.31 78.1299 68.4836 78.1299 67.6382C78.1299 66.5046 77.6795 65.4173 76.8779 64.6157C76.0763 63.8141 74.9891 63.3638 73.8554 63.3638ZM73.8554 61.2266C75.1235 61.2266 76.3632 61.6026 77.4176 62.3071C78.4719 63.0116 79.2937 64.013 79.779 65.1846C80.2643 66.3562 80.3913 67.6453 80.1439 68.8891C79.8965 70.1328 79.2858 71.2753 78.3892 72.1719C77.4925 73.0686 76.35 73.6793 75.1063 73.9267C73.8625 74.1741 72.5734 74.0471 71.4018 73.5618C70.2302 73.0765 69.2289 72.2547 68.5243 71.2003C67.8198 70.1459 67.4438 68.9063 67.4438 67.6382C67.4457 65.9383 68.1218 64.3086 69.3238 63.1066C70.5258 61.9046 72.1555 61.2285 73.8554 61.2266Z" fill="currentColor"/>
<path d="M22.4845 58.522C20.7233 58.522 19.0016 59.0443 17.5371 60.0228C16.0727 61.0013 14.9313 62.3921 14.2573 64.0193C13.5834 65.6465 13.407 67.437 13.7506 69.1644C14.0942 70.8919 14.9424 72.4786 16.1878 73.724C17.4332 74.9694 19.0199 75.8175 20.7473 76.1611C22.4748 76.5047 24.2653 76.3283 25.8925 75.6543C27.5197 74.9803 28.9104 73.8389 29.8889 72.3745C30.8674 70.9101 31.3897 69.1883 31.3897 67.4271C31.3897 66.2576 31.1594 65.0997 30.7118 64.0192C30.2643 62.9388 29.6084 61.9571 28.7814 61.1302C27.9545 60.3033 26.9728 59.6473 25.8924 59.1998C24.812 58.7523 23.654 58.522 22.4845 58.522ZM22.4845 56.3848C24.6685 56.3848 26.8034 57.0324 28.6193 58.2457C30.4352 59.4591 31.8505 61.1837 32.6863 63.2014C33.5221 65.2191 33.7407 67.4393 33.3147 69.5813C32.8886 71.7233 31.8369 73.6909 30.2926 75.2352C28.7483 76.7795 26.7808 77.8312 24.6388 78.2572C22.4968 78.6833 20.2765 78.4646 18.2588 77.6289C16.2411 76.7931 14.5165 75.3778 13.3032 73.5619C12.0898 71.746 11.4422 69.6111 11.4422 67.4271C11.4455 64.4995 12.61 61.6928 14.6801 59.6227C16.7502 57.5526 19.5569 56.3881 22.4845 56.3848Z" fill="currentColor"/>
<path d="M22.4277 63.3638C21.5823 63.3638 20.7559 63.6145 20.0529 64.0842C19.35 64.5538 18.8022 65.2214 18.4786 66.0025C18.1551 66.7835 18.0705 67.643 18.2354 68.4721C18.4003 69.3013 18.8074 70.0629 19.4052 70.6607C20.003 71.2585 20.7646 71.6656 21.5938 71.8305C22.423 71.9954 23.2824 71.9108 24.0634 71.5873C24.8445 71.2638 25.5121 70.7159 25.9818 70.013C26.4514 69.31 26.7021 68.4836 26.7021 67.6382C26.7021 66.5046 26.2518 65.4173 25.4502 64.6157C24.6486 63.8141 23.5613 63.3638 22.4277 63.3638ZM22.4277 61.2266C23.6958 61.2266 24.9354 61.6026 25.9898 62.3071C27.0442 63.0116 27.866 64.013 28.3513 65.1846C28.8366 66.3562 28.9635 67.6453 28.7162 68.8891C28.4688 70.1328 27.8581 71.2753 26.9614 72.1719C26.0647 73.0686 24.9223 73.6793 23.6785 73.9267C22.4348 74.1741 21.1456 74.0471 19.9741 73.5618C18.8025 73.0765 17.8011 72.2547 17.0966 71.2003C16.3921 70.1459 16.016 68.9063 16.016 67.6382C16.018 65.9383 16.6941 64.3086 17.8961 63.1066C19.0981 61.9046 20.7278 61.2285 22.4277 61.2266Z" fill="currentColor"/>
<path d="M52.4717 28.4771C52.8136 28.5626 53.1556 28.5626 53.4976 28.6481C53.364 28.5191 53.1944 28.4336 53.0112 28.4031C52.828 28.3726 52.6399 28.3984 52.4717 28.4771Z" fill="currentColor"/>
<path d="M124.702 27.1415L124.702 27.1412L124.695 27.1313L124.695 27.131L124.69 27.1238C123.101 24.7618 116.285 14.6303 105.408 7.91989C99.9502 4.55297 93.4416 2.02876 86.0403 1.79926C78.7427 1.57297 70.6498 3.58012 61.9199 9.09539L60.2689 6.54273C59.6741 5.62308 58.3262 5.63028 57.7413 6.55624L50.8521 17.4616C50.1856 18.5166 51.0237 19.8766 52.2657 19.7556L65.2486 18.4905C66.3781 18.3804 66.981 17.1045 66.3489 16.162L64.3436 13.1723C64.7472 12.8467 65.3928 12.4736 66.3048 12.109C67.488 11.6359 69.0215 11.2157 70.8195 10.9305C74.4149 10.3603 78.9966 10.3411 83.8252 11.4599C93.4373 13.687 104.081 20.4306 109.904 36.5041L110.844 36.1635L109.904 36.5041C110.219 37.375 111.302 37.8242 112.153 37.2607L124.271 29.2303C124.927 28.7961 125.198 27.8796 124.702 27.1415Z" stroke="currentColor" stroke-width="2"/>
</svg>
