<svg width="103" height="102" viewBox="0 0 103 102" fill="none" xmlns="http://www.w3.org/2000/svg">
<path d="M83.5536 48.0552C83.7248 48.0557 83.8889 48.1239 84.01 48.245C84.131 48.3661 84.1993 48.5301 84.1998 48.7013V51.6449C84.1993 51.8162 84.131 51.9802 84.01 52.1013C83.8889 52.2223 83.7248 52.2906 83.5536 52.2911H80.323C80.1518 52.2916 79.9877 52.3598 79.8667 52.4809C79.7456 52.6019 79.6774 52.766 79.6769 52.9372V81.1511C79.6764 81.3223 79.6081 81.4864 79.4871 81.6074C79.366 81.7285 79.202 81.7967 79.0308 81.7972H55.2681C55.0969 81.7967 54.9328 81.7285 54.8118 81.6074C54.6907 81.4864 54.6225 81.3223 54.622 81.1511V56.1679C54.6215 55.9967 54.5533 55.8326 54.4322 55.7115C54.3111 55.5904 54.1471 55.5222 53.9759 55.5217H31.9361C31.7649 55.5222 31.6009 55.5904 31.4798 55.7115C31.3588 55.8326 31.2905 55.9967 31.29 56.1679V81.1508C31.2895 81.322 31.2213 81.486 31.1002 81.6071C30.9792 81.7281 30.8151 81.7964 30.6439 81.7969H27.7007C27.5295 81.7964 27.3655 81.7281 27.2444 81.6071C27.1234 81.486 27.0551 81.322 27.0546 81.1508V52.9372C27.0541 52.766 26.9859 52.602 26.8648 52.4809C26.7438 52.3599 26.5797 52.2916 26.4085 52.2911H23.1779C23.0067 52.2906 22.8426 52.2224 22.7216 52.1013C22.6005 51.9803 22.5323 51.8162 22.5318 51.645V48.7013C22.5323 48.5301 22.6005 48.3661 22.7216 48.245C22.8426 48.124 23.0067 48.0557 23.1779 48.0552H83.5536ZM83.5536 46.1226H23.1779C22.4942 46.1233 21.8387 46.3953 21.3553 46.8787C20.8718 47.3622 20.5999 48.0176 20.5991 48.7013V51.6449C20.5999 52.3286 20.8718 52.9841 21.3553 53.4675C21.8387 53.951 22.4942 54.2229 23.1779 54.2237H25.122V81.1508C25.1228 81.8345 25.3947 82.4899 25.8781 82.9734C26.3616 83.4568 27.0171 83.7288 27.7007 83.7295H30.6439C31.3276 83.7288 31.9831 83.4568 32.4665 82.9734C32.95 82.4899 33.2219 81.8345 33.2227 81.1508V57.4543H52.6893V81.1508C52.6901 81.8345 52.962 82.4899 53.4455 82.9734C53.9289 83.4568 54.5844 83.7288 55.2681 83.7295H79.0308C79.7145 83.7288 80.3699 83.4568 80.8534 82.9734C81.3368 82.4899 81.6088 81.8345 81.6095 81.1508V54.2237H83.5536C84.2373 54.2229 84.8928 53.951 85.3762 53.4675C85.8597 52.9841 86.1316 52.3286 86.1324 51.6449V48.7013C86.1316 48.0176 85.8597 47.3622 85.3762 46.8787C84.8928 46.3953 84.2373 46.1233 83.5536 46.1226Z" fill="currentColor"/>
<path d="M75.9667 64.3803H58.9176C58.6893 64.3958 58.4601 64.3659 58.2434 64.2923C58.0268 64.2187 57.8268 64.1029 57.6552 63.9515C57.4836 63.8001 57.3437 63.6162 57.2436 63.4104C57.1436 63.2045 57.0853 62.9809 57.0723 62.7524V58.9708C57.0712 58.8429 57.0954 58.7161 57.1436 58.5977C57.1918 58.4792 57.2629 58.3715 57.3529 58.2807C57.4429 58.1899 57.5501 58.1178 57.6681 58.0686C57.7861 58.0195 57.9127 57.9941 58.0405 57.9941C58.1684 57.9941 58.295 58.0195 58.413 58.0686C58.531 58.1178 58.6381 58.1899 58.7282 58.2807C58.8182 58.3715 58.8893 58.4792 58.9375 58.5977C58.9856 58.7161 59.0099 58.8429 59.0088 58.9708V62.4368L75.8828 62.4439V58.9709C75.8817 58.843 75.9059 58.7162 75.9541 58.5978C76.0022 58.4794 76.0734 58.3716 76.1634 58.2808C76.2534 58.19 76.3605 58.118 76.4785 58.0688C76.5966 58.0196 76.7231 57.9943 76.851 57.9943C76.9789 57.9943 77.1055 58.0196 77.2235 58.0688C77.3415 58.118 77.4486 58.19 77.5386 58.2808C77.6286 58.3716 77.6998 58.4794 77.7479 58.5978C77.7961 58.7162 77.8203 58.843 77.8192 58.9709V62.7526C77.8059 62.9816 77.7472 63.2057 77.6466 63.4119C77.546 63.618 77.4055 63.8022 77.2331 63.9536C77.0608 64.105 76.8601 64.2207 76.6427 64.2939C76.4253 64.3672 76.1955 64.3965 75.9667 64.3803Z" fill="currentColor"/>
<path d="M75.9666 75.1492H58.9175C58.6892 75.1648 58.4601 75.1349 58.2434 75.0613C58.0267 74.9877 57.8268 74.8719 57.6552 74.7205C57.4836 74.5691 57.3437 74.3852 57.2436 74.1794C57.1436 73.9736 57.0853 73.75 57.0723 73.5215V69.7397C57.0745 69.4844 57.1774 69.2402 57.3588 69.0604C57.5401 68.8807 57.7851 68.7798 58.0405 68.7798C58.2959 68.7798 58.5409 68.8807 58.7222 69.0604C58.9036 69.2402 59.0065 69.4844 59.0087 69.7397V73.2057L75.8827 73.2129V69.7399C75.8849 69.4845 75.9879 69.2404 76.1692 69.0606C76.3506 68.8808 76.5956 68.7799 76.851 68.7799C77.1063 68.7799 77.3513 68.8808 77.5327 69.0606C77.714 69.2404 77.817 69.4845 77.8192 69.7399V73.5216C77.8058 73.7506 77.7472 73.9747 77.6465 74.1809C77.5459 74.3871 77.4054 74.5712 77.233 74.7226C77.0607 74.874 76.86 74.9897 76.6426 75.0629C76.4252 75.1362 76.1954 75.1655 75.9666 75.1492Z" fill="currentColor"/>
<path d="M56.6411 22.3223C56.8841 22.3223 57.1172 22.4189 57.289 22.5907C57.4608 22.7625 57.5574 22.9956 57.5574 23.2386V40.4754C57.5574 40.7184 57.4608 40.9515 57.289 41.1233C57.1172 41.2952 56.8841 41.3917 56.6411 41.3917H26.6166C26.3735 41.3917 26.1405 41.2952 25.9686 41.1233C25.7968 40.9515 25.7002 40.7184 25.7002 40.4754V23.2386C25.7002 22.9956 25.7968 22.7625 25.9686 22.5907C26.1405 22.4189 26.3735 22.3223 26.6166 22.3223H56.6411ZM56.6411 20.3896H26.6166C25.8612 20.3905 25.1371 20.691 24.603 21.2251C24.0689 21.7592 23.7685 22.4833 23.7676 23.2386V40.4754C23.7685 41.2307 24.0689 41.9549 24.603 42.489C25.1371 43.0231 25.8612 43.3235 26.6166 43.3244H56.6411C57.3964 43.3235 58.1205 43.0231 58.6546 42.489C59.1887 41.9549 59.4892 41.2307 59.49 40.4754V23.2386C59.4892 22.4833 59.1887 21.7592 58.6546 21.2251C58.1205 20.691 57.3964 20.3905 56.6411 20.3896Z" fill="currentColor"/>
<path d="M45.4575 43.647V45.8205H37.7998V43.647H45.4575ZM47.3902 41.7144H35.8672V47.7532H47.3902V41.7144Z" fill="currentColor"/>
<path d="M38.0505 38.9309C37.8492 38.9317 37.6527 38.8695 37.4885 38.7529C37.3243 38.6364 37.2007 38.4715 37.1349 38.2812C37.0692 38.0909 37.0646 37.8848 37.1219 37.6918C37.1791 37.4988 37.2953 37.3285 37.4542 37.2049L50.4131 27.1085C50.5129 27.0288 50.6275 26.9696 50.7504 26.9344C50.8732 26.8992 51.0018 26.8887 51.1287 26.9035C51.2556 26.9183 51.3784 26.9581 51.4898 27.0206C51.6013 27.0831 51.6992 27.1671 51.778 27.2677C51.8568 27.3683 51.9149 27.4835 51.9489 27.6066C51.9829 27.7298 51.9922 27.8585 51.9762 27.9853C51.9601 28.1121 51.9191 28.2344 51.8556 28.3452C51.792 28.4561 51.7071 28.5532 51.6057 28.631L38.6469 38.7274C38.4764 38.86 38.2665 38.9316 38.0505 38.9309Z" fill="currentColor"/>
<path d="M40.0294 33.168C39.8289 33.1683 39.6332 33.1062 39.4695 32.9903C39.3058 32.8744 39.1822 32.7104 39.1159 32.5211C39.0496 32.3318 39.0438 32.1266 39.0993 31.9339C39.1549 31.7411 39.269 31.5705 39.4259 31.4455L44.2882 27.5796C44.4892 27.4196 44.7455 27.3459 45.0008 27.3748C45.256 27.4037 45.4894 27.5329 45.6494 27.7338C45.8095 27.9348 45.8832 28.1911 45.8542 28.4464C45.8253 28.7017 45.6962 28.935 45.4952 29.0951L40.633 32.961C40.4604 33.0953 40.248 33.1681 40.0294 33.168Z" fill="currentColor"/>
<path d="M75.6641 20.8049C76.0376 20.8047 76.4001 20.9308 76.6929 21.1627C76.9856 21.3946 77.1913 21.7187 77.2766 22.0822C77.3618 22.4458 77.3217 22.8275 77.1626 23.1654C77.0035 23.5033 76.7348 23.7774 76.4002 23.9433L74.543 24.8635L73.0734 21.8977L74.9307 20.9774C75.1586 20.8641 75.4096 20.805 75.6641 20.8049ZM75.6641 18.8723H75.6636C75.1117 18.8734 74.5674 19.0012 74.0727 19.2459L72.2154 20.1662L70.4839 21.0243L71.3419 22.7558L72.8115 25.7217L73.6695 27.4532L75.401 26.595L77.2583 25.6747C77.9835 25.3153 78.5659 24.7212 78.9108 23.989C79.2557 23.2568 79.3429 22.4294 79.1583 21.6414C78.9736 20.8533 78.5279 20.1509 77.8936 19.6481C77.2592 19.1454 76.4735 18.8719 75.6641 18.8721V18.8723Z" fill="currentColor"/>
<path d="M67.6407 21.4574C68.413 21.4569 69.1701 21.6723 69.8264 22.0794C70.4827 22.4865 71.012 23.069 71.3547 23.7611L72.3879 25.8463C72.6294 26.3336 72.7725 26.8637 72.8091 27.4064C72.8457 27.949 72.775 28.4935 72.6012 29.0088C72.4273 29.5241 72.1537 30.0002 71.7958 30.4097C71.438 30.8193 71.003 31.1543 70.5157 31.3958L68.0995 32.593C68.0603 32.6125 68.0175 32.624 67.9738 32.627C67.9301 32.6299 67.8862 32.6243 67.8446 32.6102C67.8031 32.5962 67.7647 32.5742 67.7318 32.5453C67.6988 32.5165 67.6718 32.4814 67.6523 32.4421L63.2383 23.5332C63.2188 23.4939 63.2072 23.4512 63.2043 23.4075C63.2013 23.3637 63.207 23.3198 63.221 23.2783C63.235 23.2368 63.2571 23.1984 63.2859 23.1654C63.3148 23.1324 63.3499 23.1054 63.3891 23.086L65.8053 21.8888C66.3756 21.6054 67.0038 21.4579 67.6407 21.4578V21.4574ZM67.6407 19.5251C66.7059 19.5237 65.7836 19.7402 64.947 20.1573L62.5308 21.3545C61.9927 21.6219 61.5826 22.0918 61.3905 22.6611C61.1985 23.2305 61.2401 23.8527 61.5062 24.3914L65.9203 33.3004L66.4527 34.375L67.9514 34.5606C68.2999 34.5601 68.6436 34.4797 68.9561 34.3255L71.3734 33.1278C72.0881 32.7737 72.7261 32.2822 73.251 31.6815C73.7758 31.0808 74.1771 30.3827 74.4321 29.6269C74.6871 28.871 74.7907 28.0724 74.737 27.2766C74.6834 26.4807 74.4735 25.7032 74.1193 24.9885L73.0863 22.9033C72.5868 21.8861 71.8113 21.0299 70.8484 20.4325C69.8855 19.8351 68.7739 19.5206 67.6407 19.5249V19.5251Z" fill="currentColor"/>
<path d="M75.594 45.989C75.4766 45.9885 75.3602 45.9671 75.2502 45.9259C75.0106 45.8342 74.817 45.6513 74.7118 45.4173C74.6066 45.1832 74.5984 44.917 74.689 44.677L79.1937 32.781L73.8684 26.9327C73.7808 26.8392 73.7127 26.7291 73.668 26.609C73.6233 26.4888 73.603 26.361 73.6082 26.233C73.6134 26.1049 73.6441 25.9792 73.6984 25.8631C73.7527 25.7469 73.8295 25.6428 73.9244 25.5567C74.0194 25.4706 74.1305 25.4042 74.2513 25.3615C74.3721 25.3187 74.5003 25.3004 74.6282 25.3077C74.7562 25.315 74.8814 25.3476 74.9967 25.4037C75.1119 25.4599 75.2148 25.5384 75.2994 25.6347L80.8772 31.7598C81.0371 31.9348 81.1465 32.15 81.1934 32.3824C81.2404 32.6147 81.2232 32.8555 81.1438 33.0788L76.4991 45.3645C76.4295 45.5482 76.3056 45.7063 76.1439 45.8179C75.9822 45.9294 75.7904 45.9891 75.594 45.989ZM79.446 33.0581L79.4531 33.0653L79.446 33.0581Z" fill="currentColor"/>
<path d="M80.0283 45.9892H69.8057C69.6779 45.9904 69.5511 45.9661 69.4326 45.918C69.3142 45.8698 69.2065 45.7986 69.1157 45.7086C69.0249 45.6186 68.9528 45.5115 68.9036 45.3935C68.8544 45.2755 68.8291 45.1489 68.8291 45.021C68.8291 44.8932 68.8544 44.7666 68.9036 44.6485C68.9528 44.5305 69.0249 44.4234 69.1157 44.3334C69.2065 44.2434 69.3142 44.1722 69.4326 44.1241C69.5511 44.0759 69.6779 44.0517 69.8057 44.0528H80.0283C80.1562 44.0517 80.283 44.0759 80.4014 44.1241C80.5199 44.1722 80.6276 44.2434 80.7184 44.3334C80.8092 44.4234 80.8813 44.5305 80.9305 44.6485C80.9796 44.7666 81.005 44.8932 81.005 45.021C81.005 45.1489 80.9796 45.2755 80.9305 45.3935C80.8813 45.5115 80.8092 45.6186 80.7184 45.7086C80.6276 45.7986 80.5199 45.8698 80.4014 45.918C80.283 45.9661 80.1562 45.9904 80.0283 45.9892Z" fill="currentColor"/>
</svg>
