<svg width="18" height="19" viewBox="0 0 18 19" fill="none" xmlns="http://www.w3.org/2000/svg">
<path fill-rule="evenodd" clip-rule="evenodd" d="M16.9768 9.34485C16.9768 13.7155 13.4337 17.2587 9.06299 17.2587C4.69231 17.2587 1.14917 13.7155 1.14917 9.34485C1.14917 4.97417 4.69231 1.43103 9.06299 1.43103C13.4337 1.43103 16.9768 4.97417 16.9768 9.34485ZM17.9768 9.34485C17.9768 14.2678 13.986 18.2587 9.06299 18.2587C4.14002 18.2587 0.14917 14.2678 0.14917 9.34485C0.14917 4.42188 4.14002 0.43103 9.06299 0.43103C13.986 0.43103 17.9768 4.42188 17.9768 9.34485ZM5.90639 12.3536C5.67451 12.2036 5.36497 12.2701 5.21502 12.5019C5.06507 12.7338 5.13148 13.0434 5.36336 13.1933C6.69369 14.0536 7.85981 14.6067 9.06588 14.6429C10.2895 14.6797 11.4581 14.1838 12.7936 13.172C13.0137 13.0052 13.057 12.6916 12.8902 12.4715C12.7234 12.2514 12.4098 12.2082 12.1897 12.3749C10.946 13.3172 9.99929 13.6705 9.09593 13.6434C8.17498 13.6157 7.20233 13.1917 5.90639 12.3536ZM7.00611 7.28788C7.00611 8.04526 6.39214 8.65924 5.63476 8.65924C4.87738 8.65924 4.2634 8.04526 4.2634 7.28788C4.2634 6.5305 4.87738 5.91652 5.63476 5.91652C6.39214 5.91652 7.00611 6.5305 7.00611 7.28788ZM12.4912 8.65917C13.2486 8.65917 13.8626 8.0452 13.8626 7.28782C13.8626 6.53044 13.2486 5.91646 12.4912 5.91646C11.7338 5.91646 11.1198 6.53044 11.1198 7.28782C11.1198 8.0452 11.7338 8.65917 12.4912 8.65917Z" fill="currentColor"/>
</svg>
