<svg xmlns="http://www.w3.org/2000/svg" width="2em" height="2em" viewBox="0 0 21 26.25" fill="currentColor"><title>icon-pin</title><g id="ad393dff-21c8-45f5-b159-d69905c21136" data-name="Layer 2"><g id="e5b68934-3dd3-461e-ad81-2c5644f0e223" data-name="Layer 1"><path d="M10.5,0A10.5,10.5,0,0,0,0,10.5c0,9,10.5,15.75,10.5,15.75S21,19.5,21,10.5A10.5,10.5,0,0,0,10.5,0Zm0,24.41s-9.3-6-9.3-13.94a9.3,9.3,0,0,1,18.6,0C19.8,18.44,10.5,24.41,10.5,24.41Z" fill-rule="evenodd"/><path d="M10.5,7.5a3,3,0,1,0,3,3A3,3,0,0,0,10.5,7.5Zm0,5.1a2.1,2.1,0,1,1,2.1-2.1A2.1,2.1,0,0,1,10.5,12.6Z" fill-rule="evenodd"/></g></g></svg>
