<svg width="22" height="16" viewBox="0 0 22 16" fill="none" xmlns="http://www.w3.org/2000/svg">
<path fill-rule="evenodd" clip-rule="evenodd" d="M9.74872 4.04863C9.74872 5.94208 8.21378 7.47703 6.32033 7.47703C4.42688 7.47703 2.89194 5.94208 2.89194 4.04863C2.89194 2.15518 4.42688 0.620239 6.32033 0.620239C8.21378 0.620239 9.74872 2.15518 9.74872 4.04863ZM14.5484 15.0176L21.4052 15.0176C20.7195 12.2756 19.7207 10.1399 17.2911 9.53315C16.3769 9.30481 13.8627 8.84822 11.8057 9.53364L11.8066 9.53462C13.1777 10.9058 14.5484 12.2767 14.5484 15.0176ZM0.148926 15.0194H13.1768C13.124 14.8608 13.0711 14.694 13.0163 14.5213L13.0163 14.5211C12.3609 12.4538 11.4353 9.53396 7.00571 9.53396C1.89902 9.53396 0.952171 12.5053 0.292534 14.5753C0.243611 14.7288 0.196269 14.8774 0.148926 15.0194ZM15.9198 7.47703C17.8133 7.47703 19.3482 5.94208 19.3482 4.04863C19.3482 2.15518 17.8133 0.620239 15.9198 0.620239C14.0264 0.620239 12.4914 2.15518 12.4914 4.04863C12.4914 5.94208 14.0264 7.47703 15.9198 7.47703Z" fill="currentColor"/>
</svg>
