<svg width="83" height="92" viewBox="0 0 83 92" fill="none" xmlns="http://www.w3.org/2000/svg">
<path d="M49.3106 8.55664C49.1959 8.56012 49.0811 8.55409 48.9674 8.53861C48.6634 8.50691 48.3844 8.35602 48.1915 8.119C47.9985 7.88197 47.9074 7.57815 47.9381 7.27407C47.9467 7.12086 47.9872 6.97114 48.057 6.83446C48.1268 6.69779 48.2243 6.57715 48.3433 6.48026C48.4623 6.38336 48.6001 6.31233 48.7481 6.27171C48.8961 6.23108 49.0509 6.22174 49.2027 6.24429C49.2298 6.26279 50.0247 6.28046 50.2143 5.88299C50.2828 5.29884 50.2084 4.70681 49.9976 4.15772C47.102 5.28594 44.0909 6.09171 41.0188 6.56045C40.8687 6.58561 40.7151 6.5808 40.5669 6.54629C40.4187 6.51177 40.2787 6.44825 40.1552 6.35937C40.0317 6.2705 39.927 6.15804 39.8471 6.02848C39.7673 5.89892 39.7139 5.75484 39.69 5.60454C39.6662 5.45423 39.6723 5.30069 39.7081 5.15278C39.7439 5.00487 39.8087 4.86551 39.8986 4.74275C39.9886 4.62 40.1019 4.51627 40.2322 4.43756C40.3624 4.35885 40.507 4.30672 40.6575 4.28417C43.8849 3.84144 47.0274 2.91576 49.9795 1.53819L51.1357 0.751953L51.6867 2.03471C52.4658 3.53578 52.6806 5.26654 52.2919 6.91249C51.9962 7.43594 51.5608 7.86689 51.0344 8.15722C50.5079 8.44755 49.9111 8.58584 49.3106 8.55664Z" fill="currentColor"/>
<path d="M45.4633 19.6399C45.2036 19.64 44.9463 19.591 44.7048 19.4953C43.0969 18.863 42.7176 18.014 42.6272 17.6797C42.5861 17.5338 42.5743 17.3812 42.5925 17.2307C42.6108 17.0802 42.6586 16.9348 42.7334 16.8029C42.8081 16.671 42.9083 16.5553 43.0281 16.4623C43.1478 16.3694 43.2848 16.3011 43.4311 16.2615C43.6975 16.1789 43.9852 16.1989 44.2376 16.3175C44.49 16.4362 44.6889 16.645 44.7952 16.9029C45.0079 17.1059 45.2644 17.2574 45.5449 17.3455C46.1131 16.8246 46.5708 16.1949 46.8908 15.4937C47.0715 15.0872 47.5141 13.5512 47.6586 13.0458L47.6315 10.5707C47.6296 10.2643 47.7492 9.96952 47.9642 9.75107C48.1792 9.53262 48.472 9.40828 48.7784 9.40527H48.7877C49.0927 9.40526 49.3855 9.52581 49.602 9.74065C49.8186 9.95548 49.9415 10.2472 49.9439 10.5522L49.971 13.3525L49.9258 13.5151C49.8174 13.9036 49.2574 15.8456 49.0044 16.4328C48.4626 17.6526 47.0986 19.6399 45.4633 19.6399Z" fill="currentColor"/>
<path d="M82.4828 28.6706C79.4304 22.2883 58.9884 25.8957 50.3861 27.7457C50.1202 27.8511 49.8391 27.9135 49.5536 27.9306C49.4747 26.228 48.9655 24.5732 48.0736 23.1208C47.3596 22.0391 46.4344 21.1128 45.3536 20.3975C44.2727 19.6823 43.0585 19.1928 41.7838 18.9584L40.6738 18.7734C41.3453 18.0636 41.7674 17.1544 41.8763 16.1834C41.9879 14.768 42.0188 13.3474 41.9688 11.9285V11.1885L41.3213 10.911C40.6915 10.5535 39.9859 10.3503 39.2623 10.3181C38.5388 10.286 37.818 10.4258 37.1589 10.7261C37.0664 10.8185 36.9739 10.8185 36.9739 10.911C36.8819 10.7261 36.9739 10.5411 36.9739 10.3561C37.1375 9.54031 37.5992 8.81479 38.2689 8.32111C39.8769 9.20073 41.7404 9.49496 43.5412 9.15359C43.694 9.11251 43.8369 9.04137 43.9618 8.94435C44.0867 8.84732 44.1909 8.72635 44.2684 8.58852C44.346 8.45069 44.3952 8.29878 44.4133 8.14168C44.4314 7.98458 44.4179 7.82546 44.3737 7.67362C44.329 7.5253 44.2544 7.38768 44.1546 7.26919C44.0548 7.1507 43.9318 7.05385 43.7933 6.98456C43.6547 6.91528 43.5034 6.87502 43.3488 6.86627C43.1941 6.85751 43.0393 6.88044 42.8938 6.93364C41.4445 7.0565 39.9922 6.73378 38.7314 6.00866L38.1764 5.63867L37.5289 6.00866C36.7809 6.4343 36.1361 7.01975 35.6405 7.72326C35.1448 8.42677 34.8105 9.231 34.6615 10.0786C34.5816 10.8739 34.6633 11.6772 34.9017 12.4402C35.1402 13.2032 35.5304 13.9101 36.0489 14.5185L37.9914 16.7384L38.0839 13.7785C38.0839 13.501 38.0839 12.8535 38.3614 12.6685C38.7922 12.5652 39.2445 12.5975 39.6563 12.761C39.6563 13.501 39.6563 14.796 39.5638 15.9984C39.4713 17.0159 37.9914 17.9409 37.3439 18.3109L35.2164 17.9409C35.0314 17.8484 34.8465 17.8484 34.754 18.0329C34.7174 17.9979 34.6736 17.9715 34.6256 17.9556C34.5776 17.9397 34.5266 17.9346 34.4765 17.9409C32.0715 17.9409 24.3017 24.6007 21.0643 27.4682L20.8793 27.6532C20.6314 27.6901 20.404 27.8116 20.2354 27.997C20.0668 28.1824 19.9675 28.4204 19.9543 28.6706L19.3068 42.2678C19.2143 42.2678 19.1218 42.3598 19.0293 42.3598C13.202 46.5222 9.59454 49.7601 9.22455 50.0372C8.19437 51.3806 7.72969 53.0734 7.92958 54.7546C8.47803 56.1967 9.37208 57.4822 10.5332 58.4982C11.6944 59.5143 13.0872 60.2298 14.5894 60.5819C18.9291 60.5682 23.2604 60.197 27.5391 59.4719C27.6316 60.2119 27.7241 60.6744 27.7241 60.8594V60.9519L27.8166 67.5193L16.4394 86.5743C16.4394 86.6668 16.3469 86.7593 16.3469 86.8518C13.7865 86.2143 11.0871 86.442 8.66957 87.4993C6.38504 88.2413 3.92426 88.2413 1.63973 87.4993C1.5009 87.4409 1.3508 87.4142 1.20035 87.4211C1.0499 87.428 0.902886 87.4684 0.769996 87.5392C0.637107 87.6101 0.521684 87.7097 0.432126 87.8308C0.342567 87.9519 0.281123 88.0914 0.252264 88.2392C0.165045 88.5338 0.192946 88.8504 0.33032 89.1252C0.467694 89.3999 0.704289 89.6123 0.992249 89.7192C2.59626 90.1217 4.24113 90.3389 5.89463 90.3667C7.31207 90.4572 8.72544 90.1359 9.96453 89.4417C12.1118 88.6922 14.4388 88.6276 16.6244 89.2567C16.7702 89.3063 16.925 89.3236 17.0782 89.3072C17.2313 89.2909 17.3791 89.2414 17.5111 89.1621C17.6432 89.0829 17.7564 88.9759 17.8429 88.8484C17.9293 88.721 17.987 88.5762 18.0118 88.4242C18.0118 88.3317 18.1043 88.2392 18.1043 88.1467C18.2186 88.0414 18.3127 87.916 18.3818 87.7767L29.9441 68.4447L30.1291 68.1672L30.0366 62.1549L34.199 62.8023L33.9215 68.2597L21.3418 85.8343L22.8217 89.5342L26.7991 91.0142C26.9077 91.0877 27.0387 91.1205 27.1691 91.1067C27.4066 91.1069 27.6388 91.0368 27.8364 90.905C28.0339 90.7733 28.188 90.586 28.2791 90.3667C28.3831 90.0841 28.3737 89.7723 28.2531 89.4965C28.1324 89.2206 27.9097 89.0021 27.6316 88.8867L24.5792 87.6842L24.0242 86.1118L36.0489 69.3697L36.2339 69.0922L36.5114 63.1723L38.4539 63.4498L38.3614 62.8948L40.7663 65.0223C38.2689 68.1672 29.8516 79.0819 28.3716 81.9494C27.2616 84.0768 30.3141 87.9617 31.7015 89.5342L31.979 89.8117L38.1764 90.9217L38.5464 91.0142H38.7314C39.0047 91.0214 39.2701 90.9218 39.4713 90.7367C39.5637 90.7032 39.6417 90.639 39.6922 90.5547C39.7428 90.4705 39.7628 90.3714 39.7488 90.2742C39.8413 90.2742 39.8413 90.2742 39.8413 90.1817V90.0892C39.8962 89.9252 39.8989 89.7483 39.8492 89.5827C39.7996 89.4171 39.6999 89.2709 39.5638 89.1642L35.4014 82.6894L52.1435 65.3923C52.236 65.2998 52.421 65.1148 52.421 65.0223C52.5214 64.8501 52.5664 64.6513 52.5499 64.4527C52.5333 64.2541 52.456 64.0654 52.3285 63.9123V63.8198L52.236 63.7273L48.3511 58.9174L49.2761 58.7324L46.9637 54.4775C53.453 52.2152 59.71 49.3345 65.6482 45.8752C82.8528 36.348 83.5928 30.9831 82.4828 28.6706ZM21.2493 46.0602L21.3418 45.8752C21.4166 45.7332 21.4487 45.5726 21.4343 45.4127L22.2667 29.3181C22.3592 29.2256 22.4517 29.2256 22.5442 29.1331C26.1495 25.7035 30.156 22.7219 34.4765 20.2533C34.6068 20.2672 34.7379 20.2344 34.8464 20.1608H34.9389L37.4364 20.6233H37.5289L41.4138 21.2708C42.3773 21.433 43.2957 21.797 44.1087 22.339C44.9216 22.881 45.6109 23.5887 46.1312 24.4157C47.1806 26.028 47.5466 27.991 47.1487 29.8731L40.3038 45.4127L39.1938 45.1352L31.979 42.5453L33.9215 28.7631L37.8064 26.7282C37.94 26.6553 38.058 26.5568 38.1535 26.4383C38.2491 26.3199 38.3203 26.1837 38.3633 26.0377C38.4062 25.8917 38.42 25.7387 38.4038 25.5873C38.3876 25.436 38.3418 25.2893 38.2689 25.1557C38.196 25.0221 38.0975 24.9041 37.979 24.8086C37.8606 24.713 37.7244 24.6417 37.5784 24.5988C37.4324 24.5559 37.2794 24.5421 37.128 24.5583C36.9767 24.5745 36.83 24.6203 36.6964 24.6932L24.1167 31.2606C23.9505 31.3743 23.8135 31.5258 23.7171 31.7027C23.6206 31.8795 23.5674 32.0767 23.5617 32.278V32.3705C23.5617 32.463 23.4692 32.5555 23.4692 32.7405L22.2667 44.2103C22.2543 44.3107 22.2645 44.4127 22.2965 44.5087C22.3285 44.6047 22.3815 44.6923 22.4517 44.7652C22.4064 44.8507 22.3827 44.946 22.3827 45.0427C22.3827 45.1395 22.4064 45.2348 22.4517 45.3202L23.0992 47.9102L22.2667 49.2976L21.8968 51.4251L21.0643 51.2401L20.4168 48.2802L21.2493 46.0602ZM31.3315 30.1506L30.5915 35.3305C28.8341 36.2555 26.9841 37.2729 25.2267 38.3829L25.7817 33.1105L31.3315 30.1506ZM26.3366 51.6101C26.7066 53.8305 27.0766 55.7725 27.2616 57.2529C23.0682 57.9024 18.8327 58.2424 14.5894 58.2704C13.6065 57.9126 12.7063 57.3593 11.9432 56.6439C11.1801 55.9284 10.57 55.0658 10.1495 54.108C10.1401 53.2059 10.4332 52.3266 10.982 51.6106C13.5483 49.3021 16.2678 47.1698 19.1218 45.2282V45.4132L18.0118 48.0031L19.2143 53.2755L23.8392 54.108L24.3942 50.3156L25.5967 48.2806L24.6717 44.7657C24.6717 44.6732 24.4867 44.5807 24.4867 44.5807C24.5369 44.5308 24.5694 44.4658 24.5792 44.3957L24.9492 41.2508C26.7066 40.1408 28.4641 39.1233 30.2216 38.1984L29.6666 42.0828L29.4816 42.1753C28.0871 43.264 27.0449 44.7399 26.4855 46.4182C25.926 48.0965 25.8743 49.9025 26.3366 51.6101ZM37.9914 58.7324L34.569 55.7725L35.4939 60.6749L29.9441 59.8424C29.7591 58.3624 29.3885 55.4025 28.6491 51.1476C28.3506 50.1016 28.3126 48.9984 28.5383 47.9343C28.764 46.8702 29.2467 45.8775 29.9441 45.0427L39.0089 47.5402L40.7663 48.0952L45.7612 57.16L37.9914 58.7324ZM49.8311 64.4673L33.089 81.7644C32.9011 82.0064 32.807 82.3082 32.824 82.6142C32.841 82.9201 32.968 83.2096 33.1815 83.4293H33.274C33.2603 83.5597 33.293 83.6907 33.3665 83.7993L36.2339 88.2392L33.1815 87.6842C31.609 85.8343 30.2216 83.6143 30.4066 82.9669C32.0715 79.9144 43.1712 65.6698 43.2637 65.5773L43.9112 64.6523L39.5638 60.7674L45.8537 59.4724L49.8311 64.4673ZM64.5383 43.9328L64.2607 44.0253C58.3693 47.4001 52.176 50.2181 45.7612 52.4426L42.6163 46.6152L42.4313 46.2452L49.2761 30.6131V30.4281C49.789 30.2611 50.315 30.1373 50.8486 30.0581C63.7983 27.2832 78.6904 25.8957 80.4479 29.6881C80.5404 29.8731 82.2053 34.0355 64.5383 43.9328Z" fill="currentColor"/>
<path d="M41.6275 89.8539C41.3255 89.8537 41.0355 89.7355 40.8195 89.5244C40.6035 89.3133 40.4786 89.0261 40.4715 88.7241C40.4644 88.4221 40.5757 88.1294 40.7816 87.9084C40.9875 87.6874 41.2716 87.5557 41.5733 87.5414C44.8259 87.4094 48.0697 87.1139 51.2925 86.6559C53.987 86.3586 56.7105 86.4559 59.3769 86.945L64.7787 86.4121L72.8001 87.2973C72.951 87.3133 73.0972 87.359 73.2304 87.4318C73.3635 87.5046 73.4809 87.603 73.5758 87.7214C73.6707 87.8398 73.7412 87.9759 73.7833 88.1217C73.8253 88.2675 73.8381 88.4202 73.8208 88.5709C73.78 88.872 73.625 89.1459 73.388 89.3359C73.1509 89.5259 72.8498 89.6175 72.5471 89.5917L64.7697 88.7064L59.2867 89.2756L59.1241 89.2485C56.6921 88.7884 54.2065 88.6819 51.7441 88.9323C48.4074 89.4075 45.0489 89.715 41.6814 89.8537L41.6275 89.8539Z" fill="currentColor"/>
</svg>
