<svg xmlns="http://www.w3.org/2000/svg" viewBox="0 0 170 170"><title>icon-circle-tick</title><path d="M85,170A85,85,0,1,1,127.43,11.33a3.64,3.64,0,0,1,1.33,5,3.68,3.68,0,0,1-3.17,1.82,3.59,3.59,0,0,1-1.81-.49,77.9,77.9,0,1,0,28.58,28.58,3.64,3.64,0,1,1,6.31-3.65A85,85,0,0,1,85,170Z" fill="currentColor"/><path d="M74.15,115.76a3.62,3.62,0,0,1-2.57-1.06L49.88,93a3.65,3.65,0,0,1,2.58-6.22A3.59,3.59,0,0,1,55,87.85l17.86,17.86a1.79,1.79,0,0,0,2.52,0L115,66.15a3.66,3.66,0,0,1,5.15,0,3.65,3.65,0,0,1,0,5.15L76.73,114.7A3.65,3.65,0,0,1,74.15,115.76Z" fill="currentColor"/></svg>
