<svg viewBox="19 7 60 62" fill="none" xmlns="http://www.w3.org/2000/svg">
<path d="M41.4875 12.3478C41.497 12.6578 41.3886 12.96 41.1838 13.1946C40.9589 13.442 40.6585 13.6099 40.3284 13.6727V13.7C40.6914 13.7194 41.0379 13.8562 41.3149 14.0893C41.4271 14.198 41.5147 14.3292 41.5717 14.474C41.6288 14.6188 41.6541 14.774 41.646 14.9293C41.6567 15.1583 41.6115 15.3865 41.5143 15.5946C41.417 15.8026 41.2705 15.9844 41.0872 16.1245C40.6138 16.439 40.0488 16.5903 39.4798 16.5547C38.9481 16.5651 38.4199 16.4675 37.9277 16.268V15.3049C38.1451 15.4159 38.3741 15.5029 38.6107 15.5644C38.8543 15.6256 39.1044 15.6577 39.3557 15.66C39.6471 15.682 39.9383 15.6153 40.1904 15.4688C40.2833 15.3981 40.3567 15.3054 40.4037 15.1991C40.4507 15.0928 40.4699 14.9765 40.4594 14.861C40.466 14.7519 40.4401 14.6433 40.385 14.5486C40.3298 14.4539 40.2479 14.3773 40.1492 14.3282C39.8357 14.2059 39.4992 14.1523 39.1627 14.1712H38.7557V13.311H39.1697C39.4822 13.3319 39.7951 13.2756 40.0802 13.147C40.1762 13.0912 40.2544 13.0097 40.3056 12.9118C40.3568 12.8139 40.3791 12.7037 40.3698 12.5939C40.3698 12.191 40.1146 11.9861 39.6041 11.9861C39.4214 11.99 39.2402 12.0199 39.066 12.0748C38.8519 12.1499 38.648 12.2509 38.4589 12.3755L37.9347 11.6038C38.447 11.2478 39.0611 11.0635 39.6869 11.078C40.1505 11.0508 40.6111 11.1676 41.0045 11.412C41.1594 11.5138 41.2852 11.6534 41.3698 11.8173C41.4543 11.9812 41.4949 12.1639 41.4875 12.3478Z" fill="#32456A"/>
<path d="M45.9809 13.8193C46.0296 14.5386 45.8692 15.2567 45.5187 15.8886C45.3582 16.1116 45.1427 16.2901 44.8928 16.4073C44.6428 16.5244 44.3667 16.5763 44.0908 16.5579C43.8164 16.5719 43.5431 16.5151 43.2975 16.393C43.052 16.2708 42.8428 16.0876 42.6904 15.8613C42.3321 15.2419 42.1665 14.5315 42.2144 13.8192C42.1632 13.0975 42.3237 12.3766 42.6766 11.743C42.8465 11.532 43.0628 11.362 43.309 11.246C43.5552 11.1301 43.8249 11.0712 44.0975 11.0738C44.3701 11.0765 44.6386 11.1406 44.8825 11.2612C45.1263 11.3819 45.3392 11.5561 45.505 11.7704C45.8606 12.3933 46.026 13.1051 45.9809 13.8193ZM43.3461 13.8193C43.3202 14.2946 43.3785 14.7708 43.5185 15.2262C43.5547 15.3486 43.6301 15.4561 43.7334 15.5325C43.8367 15.6089 43.9622 15.65 44.0911 15.6496C44.2218 15.65 44.349 15.6082 44.4535 15.5305C44.5581 15.4529 44.6342 15.3436 44.6703 15.2193C44.8099 14.7662 44.8683 14.2924 44.8428 13.8193C44.8708 13.3434 44.81 12.8665 44.6635 12.4125C44.6286 12.2887 44.5538 12.1796 44.4504 12.1019C44.347 12.0242 44.2207 11.9821 44.0909 11.9821C43.9611 11.9821 43.8349 12.0242 43.7315 12.1019C43.6281 12.1796 43.5532 12.2887 43.5183 12.4125C43.3818 12.8686 43.3235 13.3441 43.3458 13.8193H43.3461Z" fill="#32456A"/>
<path d="M53.3452 13.7697C53.3698 14.1389 53.3156 14.5092 53.186 14.8563C53.0565 15.2035 52.8545 15.5197 52.5932 15.7844C51.9808 16.2844 51.1984 16.5336 50.4064 16.481H48.8818V11.154H50.572C51.3196 11.1104 52.0548 11.3579 52.6205 11.8438C52.8702 12.0971 53.0636 12.3992 53.1884 12.7309C53.3132 13.0626 53.3666 13.4164 53.3452 13.7697ZM52.1584 13.797C52.1584 12.6497 51.6479 12.0828 50.6269 12.0828H50.0201V15.5454H50.5099C51.6137 15.5454 52.1586 14.9648 52.1586 13.797H52.1584Z" fill="#32456A"/>
<path d="M57.7528 16.4826L57.3596 15.2124H55.4004L55.0072 16.4827H53.7793L55.6763 11.1353H57.0699L58.9807 16.4827L57.7528 16.4826ZM57.0836 14.2698C56.7249 13.1225 56.5249 12.4669 56.4766 12.3166C56.4352 12.1664 56.4007 12.0503 56.38 11.9615C56.2973 12.2756 56.0696 13.0405 55.6833 14.2698H57.0836Z" fill="#32456A"/>
<path d="M61.3338 13.3479L62.4582 11.1557H63.6861L61.8989 14.4133V16.4827H60.7679V14.4476L58.9814 11.1557H60.2162L61.3338 13.3479Z" fill="#32456A"/>
<path d="M67.5357 14.9973C67.5457 15.2149 67.5034 15.4317 67.4122 15.63C67.3211 15.8283 67.1837 16.0023 67.0114 16.1378C66.5882 16.4365 66.0748 16.5835 65.5558 16.5544C65.0296 16.5634 64.5082 16.4537 64.0312 16.2334V15.1817C64.3297 15.3196 64.6388 15.4338 64.9557 15.5232C65.1809 15.5823 65.4125 15.6144 65.6455 15.6188C65.8467 15.6315 66.0469 15.5814 66.2177 15.4753C66.2852 15.4279 66.3391 15.364 66.3742 15.2898C66.4093 15.2156 66.4243 15.1336 66.4178 15.0519C66.42 14.9535 66.3885 14.8572 66.3285 14.7787C66.2589 14.6842 66.1724 14.6032 66.0732 14.5397C65.9559 14.4646 65.7283 14.3485 65.3765 14.1778C65.1102 14.0685 64.8615 13.9213 64.6383 13.7407C64.4772 13.6027 64.3437 13.4359 64.2451 13.2489C64.1386 13.047 64.0863 12.8213 64.0933 12.5936C64.0846 12.384 64.1234 12.1751 64.2071 11.9824C64.2907 11.7897 64.417 11.618 64.5766 11.4801C64.9608 11.1938 65.4348 11.0511 65.9149 11.0772C66.1845 11.077 66.4532 11.1091 66.7151 11.1728C66.988 11.2479 67.2554 11.3413 67.5154 11.4525L67.1428 12.3267C66.9119 12.2308 66.6744 12.151 66.4323 12.0877C66.252 12.0418 66.0666 12.0189 65.8804 12.0193C65.703 12.0083 65.5273 12.059 65.3837 12.1628C65.3268 12.2118 65.2818 12.2728 65.2519 12.3414C65.2221 12.4099 65.2082 12.4843 65.2112 12.5589C65.2086 12.6501 65.2325 12.7402 65.2802 12.8184C65.3378 12.9037 65.4131 12.9759 65.501 13.0301C65.7346 13.1695 65.9765 13.2949 66.2253 13.4057C66.6195 13.5662 66.9728 13.8111 67.2601 14.1228C67.4491 14.3751 67.5462 14.6833 67.5357 14.9973Z" fill="#32456A"/>
<path d="M38.0809 55.7588C38.0969 56.2197 38.0058 56.678 37.8144 57.0984C37.623 57.5188 37.3365 57.89 36.9771 58.1833C36.0875 58.8485 35.0143 59.2296 33.9004 59.276V61.2155H32.5894V59.3101C31.1847 59.3119 29.7939 59.0356 28.4986 58.4974V55.9977C29.1394 56.3027 29.8097 56.5429 30.4992 56.7148C31.1816 56.9083 31.8818 57.0341 32.5894 57.0904V54.1539L31.9478 53.908C30.9457 53.5734 30.0297 53.0256 29.2643 52.3031C28.7357 51.7136 28.4544 50.9466 28.4779 50.1587C28.4693 49.7246 28.5627 49.2944 28.7506 48.9021C28.9386 48.5098 29.216 48.1661 29.561 47.8981C30.4403 47.2506 31.4947 46.8773 32.5894 46.8258V45.3782H33.9001V46.7851C35.2635 46.8292 36.6066 47.1257 37.8598 47.6592L36.963 49.8715C35.9857 49.4733 34.9529 49.2246 33.9001 49.1339V51.9276C34.8244 52.249 35.7142 52.6608 36.5561 53.1569C37.0239 53.4469 37.418 53.8394 37.7082 54.3042C37.9634 54.7466 38.0922 55.2495 38.0809 55.7588ZM31.3545 50.1587C31.3506 50.287 31.3752 50.4147 31.4264 50.5327C31.4777 50.6507 31.5544 50.7561 31.6512 50.8416C31.9294 51.0782 32.2468 51.2654 32.5895 51.3947V49.1752C31.7685 49.2911 31.3545 49.6191 31.3545 50.1587ZM35.2039 55.9023C35.2044 55.773 35.1748 55.6453 35.1174 55.5293C35.06 55.4132 34.9762 55.3118 34.8728 55.2329C34.5775 54.999 34.25 54.8081 33.9001 54.6661V57.0222C34.7693 56.8789 35.2039 56.5032 35.2039 55.9023Z" fill="#32456A"/>
<path d="M39.6929 31.1252H33.9189C33.7222 31.1254 33.5275 31.0872 33.3458 31.0128C33.1641 30.9384 32.999 30.8292 32.8599 30.6916C32.7209 30.5539 32.6106 30.3905 32.5355 30.2106C32.4603 30.0307 32.4217 29.8379 32.4219 29.6432V25.1083C32.4217 24.9136 32.4603 24.7208 32.5355 24.5409C32.6106 24.361 32.7209 24.1976 32.8599 24.0599C32.999 23.9223 33.1641 23.8131 33.3458 23.7387C33.5275 23.6643 33.7222 23.6261 33.9189 23.6263H39.6929C39.8895 23.6261 40.0842 23.6643 40.2659 23.7387C40.4476 23.8131 40.6127 23.9223 40.7518 24.0599C40.8908 24.1976 41.0011 24.361 41.0762 24.5409C41.1514 24.7208 41.19 24.9136 41.1898 25.1083V29.643C41.19 29.8377 41.1514 30.0305 41.0763 30.2104C41.0011 30.3903 40.8909 30.5538 40.7519 30.6915C40.6128 30.8292 40.4477 30.9383 40.266 31.0128C40.0843 31.0872 39.8895 31.1254 39.6929 31.1252ZM34.1879 29.3769H39.4238V25.3748H34.1879V29.3769Z" fill="#32456A"/>
<path d="M50.2281 31.1252H44.4472C44.2506 31.1254 44.0558 31.0872 43.8741 31.0128C43.6924 30.9384 43.5273 30.8292 43.3883 30.6916C43.2492 30.5539 43.139 30.3905 43.0638 30.2106C42.9886 30.0307 42.95 29.8379 42.9502 29.6432V25.1083C42.95 24.9136 42.9886 24.7208 43.0638 24.5409C43.139 24.361 43.2492 24.1976 43.3883 24.0599C43.5273 23.9223 43.6924 23.8131 43.8741 23.7387C44.0558 23.6643 44.2506 23.6261 44.4472 23.6263H50.2281C50.4247 23.6261 50.6195 23.6643 50.8012 23.7387C50.9829 23.8131 51.148 23.9223 51.287 24.06C51.426 24.1976 51.5363 24.3611 51.6115 24.5409C51.6866 24.7208 51.7252 24.9136 51.725 25.1083V29.643C51.7252 29.8377 51.6867 30.0305 51.6115 30.2104C51.5364 30.3903 51.4261 30.5538 51.2871 30.6915C51.148 30.8291 50.9829 30.9383 50.8012 31.0128C50.6195 31.0872 50.4248 31.1254 50.2281 31.1252ZM44.7162 29.3769H49.959V25.3748H44.7162V29.3769Z" fill="#32456A"/>
<path d="M60.7691 31.1252H54.9882C54.7916 31.1254 54.5968 31.0872 54.4151 31.0128C54.2334 30.9384 54.0683 30.8292 53.9293 30.6916C53.7902 30.5539 53.68 30.3905 53.6048 30.2106C53.5296 30.0307 53.491 29.8379 53.4912 29.6432V25.1083C53.491 24.9136 53.5296 24.7208 53.6048 24.5409C53.68 24.361 53.7902 24.1976 53.9293 24.0599C54.0683 23.9223 54.2334 23.8131 54.4151 23.7387C54.5968 23.6643 54.7916 23.6261 54.9882 23.6263H60.7691C60.9657 23.6261 61.1604 23.6643 61.3422 23.7387C61.5239 23.8131 61.689 23.9223 61.828 24.0599C61.967 24.1976 62.0773 24.361 62.1525 24.5409C62.2276 24.7208 62.2663 24.9136 62.2661 25.1083V29.643C62.2663 29.8377 62.2277 30.0305 62.1525 30.2104C62.0774 30.3903 61.9671 30.5538 61.8281 30.6915C61.689 30.8292 61.5239 30.9383 61.3422 31.0128C61.1605 31.0872 60.9657 31.1254 60.7691 31.1252ZM55.2572 29.3769H60.5001V25.3748H55.2572V29.3769Z" fill="#32456A"/>
<path d="M71.3091 31.1253H65.5282C65.3316 31.1254 65.1368 31.0872 64.9551 31.0128C64.7734 30.9384 64.6083 30.8292 64.4693 30.6915C64.3303 30.5539 64.22 30.3904 64.1448 30.2106C64.0697 30.0307 64.0311 29.8379 64.0313 29.6432V25.1083C64.0311 24.9136 64.0697 24.7208 64.1448 24.5409C64.22 24.3611 64.3303 24.1976 64.4693 24.06C64.6083 23.9223 64.7734 23.8131 64.9551 23.7387C65.1368 23.6643 65.3316 23.6261 65.5282 23.6263H71.3091C71.5058 23.626 71.7005 23.6642 71.8823 23.7386C72.064 23.8131 72.2291 23.9222 72.3682 24.0599C72.5072 24.1975 72.6175 24.361 72.6927 24.5409C72.7679 24.7208 72.8065 24.9136 72.8063 25.1083V29.643C72.8065 29.8377 72.7679 30.0305 72.6928 30.2105C72.6176 30.3904 72.5073 30.5539 72.3683 30.6916C72.2292 30.8292 72.0641 30.9384 71.8823 31.0128C71.7006 31.0873 71.5058 31.1255 71.3091 31.1253ZM65.7973 29.3769H71.0403V25.3748H65.7973V29.3769Z" fill="#32456A"/>
<path d="M76.3454 8.19165H28.8751C28.3773 8.19102 27.8844 8.28879 27.4252 8.47923C26.9661 8.66967 26.55 8.94894 26.2013 9.30067C25.8526 9.6524 25.5783 10.0695 25.3945 10.5276C25.2108 10.9856 25.1213 11.4753 25.1312 11.9681V40.0115C22.9679 41.3593 21.173 43.2137 19.9049 45.4108C18.6368 47.6079 17.9346 50.0803 17.8601 52.6098C17.7857 55.1392 18.3413 57.6479 19.478 59.9144C20.6148 62.1809 22.2976 64.1355 24.3779 65.6057C26.4583 67.076 28.8723 68.0166 31.4068 68.3446C33.9413 68.6726 36.5184 68.3779 38.9106 67.4865C41.3028 66.5951 43.4366 65.1343 45.1236 63.2333C46.8106 61.3322 47.9989 59.0492 48.5838 56.5858H76.3454C76.8378 56.5885 77.3258 56.4945 77.7813 56.3091C78.2368 56.1238 78.6506 55.8509 78.9987 55.5062C79.3469 55.1615 79.6226 54.7518 79.8098 54.3009C79.997 53.85 80.092 53.3668 80.0893 52.8793V11.9681C80.0973 10.9762 79.7077 10.0216 79.0059 9.31364C78.304 8.6057 77.3473 8.20221 76.3454 8.19165ZM33.4668 66.7262C30.7284 66.7262 28.0515 65.9223 25.7746 64.4162C23.4977 62.91 21.7231 60.7693 20.6752 58.2647C19.6273 55.76 19.3531 53.004 19.8873 50.3451C20.4215 47.6862 21.7402 45.2438 23.6765 43.3269C25.6128 41.4099 28.0799 40.1044 30.7656 39.5756C33.4514 39.0467 36.2353 39.3181 38.7652 40.3556C41.2951 41.393 43.4575 43.1499 44.9788 45.404C46.5002 47.6581 47.3122 50.3082 47.3122 53.0192C47.3063 56.6526 45.8457 60.1356 43.2505 62.7049C40.6554 65.2741 37.1373 66.7202 33.4671 66.7262H33.4668ZM34.1732 37.5638V34.9064H39.4005V38.6828C37.7335 38.0234 35.9666 37.6452 34.1734 37.5638H34.1732ZM46.3939 44.4174H49.9259V48.4036H48.3718C47.8998 46.9915 47.2343 45.6503 46.394 44.4174H46.3939ZM78.3233 52.8793C78.3297 53.1382 78.2828 53.3957 78.1857 53.6361C78.0886 53.8765 77.9431 54.0949 77.7581 54.278C77.5732 54.4611 77.3526 54.6051 77.1097 54.7013C76.8669 54.7975 76.6068 54.8438 76.3454 54.8375H48.937C49.0191 54.2346 49.0663 53.6275 49.0782 53.0192C49.0926 52.056 48.9978 51.0942 48.7957 50.1519H50.2085C50.6012 50.1497 50.9773 49.9943 51.255 49.7194C51.5327 49.4444 51.6897 49.0721 51.6919 48.6833V44.1376C51.6968 43.9434 51.6617 43.7503 51.5889 43.57C51.516 43.3896 51.4069 43.2258 51.2682 43.0885C51.1295 42.9511 50.964 42.8431 50.7819 42.771C50.5997 42.6989 50.4046 42.6642 50.2085 42.669H44.9811C43.902 41.4014 42.582 40.3559 41.0959 39.5919C41.1535 39.4598 41.1777 39.3158 41.1665 39.1723V34.6266C41.1713 34.4325 41.1362 34.2394 41.0634 34.0591C40.9905 33.8787 40.8814 33.7149 40.7427 33.5776C40.604 33.4403 40.4385 33.3323 40.2564 33.2602C40.0742 33.188 39.8792 33.1533 39.6831 33.158H33.8906C33.4979 33.1603 33.1219 33.3157 32.8442 33.5907C32.5665 33.8656 32.4094 34.2378 32.4072 34.6266V37.6338C30.4899 37.7 28.6101 38.1772 26.8972 39.0324V19.8706H74.7913C75.0152 19.8677 75.2291 19.7784 75.3875 19.6216C75.5458 19.4649 75.6361 19.2531 75.639 19.0314C75.6446 18.9163 75.6271 18.8013 75.5874 18.6931C75.5477 18.5848 75.4866 18.4855 75.4077 18.4008C75.3288 18.3162 75.2336 18.248 75.1278 18.2001C75.022 18.1523 74.9076 18.1258 74.7913 18.1222H26.8972V11.9681C26.8895 11.7056 26.9349 11.4442 27.0307 11.1993C27.1265 10.9543 27.2708 10.7309 27.455 10.5419C27.6393 10.353 27.8598 10.2024 28.1037 10.099C28.3476 9.99568 28.6099 9.9416 28.8751 9.94H76.3454C76.6106 9.94161 76.8729 9.99569 77.1168 10.0991C77.3606 10.2024 77.5812 10.353 77.7654 10.5419C77.9497 10.7309 78.094 10.9544 78.1898 11.1993C78.2856 11.4442 78.331 11.7056 78.3233 11.9681V52.8793Z" fill="#32456A"/>
<path d="M50.2281 40.6317H44.4472C44.2506 40.6319 44.0558 40.5936 43.8741 40.5192C43.6924 40.4448 43.5273 40.3357 43.3883 40.198C43.2492 40.0604 43.139 39.8969 43.0638 39.717C42.9886 39.5372 42.95 39.3444 42.9502 39.1497V34.6218C42.95 34.4271 42.9886 34.2343 43.0638 34.0544C43.139 33.8745 43.2492 33.7111 43.3883 33.5734C43.5273 33.4358 43.6924 33.3266 43.8741 33.2522C44.0558 33.1778 44.2506 33.1396 44.4472 33.1397H50.2281C50.4247 33.1396 50.6195 33.1778 50.8012 33.2522C50.9829 33.3266 51.148 33.4358 51.287 33.5735C51.426 33.7111 51.5363 33.8746 51.6115 34.0544C51.6866 34.2343 51.7252 34.4271 51.725 34.6218V39.1497C51.7252 39.3444 51.6866 39.5372 51.6115 39.717C51.5363 39.8969 51.426 40.0604 51.287 40.198C51.148 40.3356 50.9829 40.4448 50.8012 40.5192C50.6195 40.5936 50.4247 40.6318 50.2281 40.6317ZM44.7162 38.8833H49.959V34.8881H44.7162V38.8833Z" fill="#32456A"/>
<path d="M60.7691 40.6317H54.9882C54.7916 40.6319 54.5968 40.5936 54.4151 40.5192C54.2334 40.4448 54.0683 40.3357 53.9293 40.198C53.7902 40.0604 53.68 39.8969 53.6048 39.717C53.5296 39.5372 53.491 39.3444 53.4912 39.1497V34.6218C53.491 34.4271 53.5296 34.2343 53.6048 34.0544C53.68 33.8745 53.7902 33.7111 53.9293 33.5734C54.0683 33.4358 54.2334 33.3266 54.4151 33.2522C54.5968 33.1778 54.7916 33.1396 54.9882 33.1397H60.7691C60.9657 33.1396 61.1604 33.1778 61.3422 33.2522C61.5239 33.3266 61.689 33.4358 61.828 33.5734C61.967 33.7111 62.0773 33.8745 62.1525 34.0544C62.2276 34.2343 62.2663 34.4271 62.2661 34.6218V39.1497C62.2663 39.3444 62.2276 39.5372 62.1525 39.717C62.0773 39.8969 61.967 40.0604 61.828 40.198C61.689 40.3357 61.5239 40.4448 61.3421 40.5192C61.1604 40.5936 60.9657 40.6319 60.7691 40.6317ZM55.2572 38.8833H60.5001V34.8881H55.2572V38.8833Z" fill="#32456A"/>
<path d="M71.3091 40.6317H65.5282C65.3316 40.6318 65.1368 40.5936 64.9551 40.5192C64.7734 40.4448 64.6083 40.3356 64.4693 40.198C64.3303 40.0604 64.22 39.8969 64.1448 39.717C64.0697 39.5372 64.0311 39.3444 64.0313 39.1497V34.6218C64.0311 34.4271 64.0697 34.2343 64.1448 34.0544C64.22 33.8746 64.3303 33.7111 64.4693 33.5735C64.6083 33.4358 64.7734 33.3266 64.9551 33.2522C65.1368 33.1778 65.3315 33.1396 65.5282 33.1397H71.3091C71.5057 33.1396 71.7005 33.1778 71.8822 33.2522C72.0639 33.3266 72.229 33.4358 72.368 33.5734C72.5071 33.7111 72.6173 33.8745 72.6925 34.0544C72.7677 34.2343 72.8063 34.4271 72.8061 34.6218V39.1497C72.8063 39.3444 72.7677 39.5372 72.6925 39.717C72.6173 39.8969 72.5071 40.0604 72.368 40.198C72.229 40.3357 72.0639 40.4448 71.8822 40.5192C71.7005 40.5936 71.5057 40.6319 71.3091 40.6317ZM65.7973 38.8833H71.0403V34.8881H65.7973V38.8833Z" fill="#32456A"/>
<path d="M60.7691 50.1451H54.9882C54.7916 50.1453 54.5968 50.1071 54.4151 50.0327C54.2334 49.9582 54.0683 49.8491 53.9293 49.7114C53.7902 49.5738 53.68 49.4103 53.6048 49.2305C53.5296 49.0506 53.491 48.8578 53.4912 48.6631V44.1283C53.491 43.9337 53.5296 43.7409 53.6048 43.561C53.68 43.3811 53.7902 43.2177 53.9293 43.08C54.0683 42.9424 54.2334 42.8332 54.4151 42.7588C54.5968 42.6844 54.7916 42.6462 54.9882 42.6464H60.7691C60.9657 42.6462 61.1604 42.6844 61.3421 42.7588C61.5239 42.8332 61.689 42.9424 61.828 43.08C61.967 43.2177 62.0773 43.3811 62.1525 43.561C62.2276 43.7409 62.2663 43.9337 62.2661 44.1283V48.6631C62.2663 48.8578 62.2276 49.0506 62.1525 49.2305C62.0773 49.4103 61.967 49.5738 61.828 49.7114C61.689 49.8491 61.5239 49.9582 61.3421 50.0327C61.1604 50.1071 60.9657 50.1453 60.7691 50.1451ZM55.2572 48.3967H60.5001V44.3947H55.2572V48.3967Z" fill="#32456A"/>
<path d="M71.3091 50.1451H65.5282C65.3316 50.1453 65.1368 50.107 64.9551 50.0326C64.7734 49.9582 64.6083 49.8491 64.4693 49.7114C64.3303 49.5738 64.22 49.4103 64.1448 49.2305C64.0697 49.0506 64.0311 48.8578 64.0313 48.6631V44.1283C64.0311 43.9337 64.0697 43.7409 64.1448 43.561C64.22 43.3811 64.3303 43.2177 64.4693 43.08C64.6083 42.9424 64.7734 42.8332 64.9551 42.7588C65.1368 42.6844 65.3316 42.6462 65.5282 42.6464H71.3091C71.5057 42.6462 71.7005 42.6844 71.8822 42.7588C72.0639 42.8332 72.229 42.9424 72.368 43.08C72.5071 43.2177 72.6173 43.3811 72.6925 43.561C72.7677 43.7409 72.8063 43.9337 72.8061 44.1283V48.6631C72.8063 48.8578 72.7677 49.0506 72.6925 49.2305C72.6173 49.4103 72.5071 49.5738 72.368 49.7114C72.229 49.8491 72.0639 49.9582 71.8822 50.0327C71.7005 50.1071 71.5057 50.1453 71.3091 50.1451ZM65.7973 48.3967H71.0403V44.3947H65.7973V48.3967Z" fill="#32456A"/>
</svg>
