<svg width="83" height="53" viewBox="0 0 83 53" fill="none" xmlns="http://www.w3.org/2000/svg">
<path d="M14.6691 7.63574H17.1622L13.1967 19.2791H10.505L6.55737 7.63574H9.05047L11.2455 14.5638C11.3629 14.9704 11.4894 15.4491 11.6155 15.9911C11.751 16.5421 11.8323 16.9124 11.8594 17.1293C12.0077 16.2631 12.2069 15.4065 12.456 14.5638L14.6691 7.63574Z" fill="currentColor"/>
<path d="M18.6252 19.2791V7.63574H21.1003V19.2791H18.6252Z" fill="currentColor"/>
<path d="M30.9092 16.0446C30.9286 16.5182 30.8365 16.9896 30.6404 17.4211C30.4442 17.8525 30.1496 18.2319 29.7801 18.5287C28.8611 19.1843 27.7456 19.5062 26.6185 19.4411C25.4799 19.4639 24.3514 19.2228 23.3215 18.7364V16.4425C23.9666 16.7411 24.6341 16.9888 25.3178 17.1832C25.8032 17.3196 26.3041 17.3925 26.8082 17.3999C27.2465 17.4264 27.6822 17.3159 28.0548 17.0838C28.1992 16.9795 28.3148 16.8403 28.3906 16.6791C28.4665 16.5179 28.5001 16.3401 28.4884 16.1624C28.4921 15.9455 28.4255 15.7332 28.2987 15.5572C28.1451 15.3527 27.9553 15.1782 27.7387 15.0423C27.2514 14.7514 26.7477 14.4889 26.2301 14.2561C25.6565 14.0066 25.1188 13.6816 24.6313 13.2896C24.2795 12.9891 23.9883 12.6243 23.7731 12.2147C23.5547 11.768 23.4463 11.2755 23.4569 10.7784C23.4354 10.3204 23.5186 9.86346 23.7002 9.44242C23.8818 9.02138 24.157 8.64727 24.5049 8.34855C25.3316 7.71754 26.3571 7.40348 27.3954 7.46325C27.9804 7.46074 28.5633 7.53361 29.1297 7.68007C29.7198 7.83623 30.2967 8.0386 30.855 8.28528L30.0601 10.2092C29.5581 9.99376 29.042 9.8127 28.5154 9.66729C28.1252 9.57134 27.7248 9.5228 27.323 9.52272C26.9369 9.4955 26.5543 9.61126 26.2481 9.84794C26.1245 9.95136 26.0262 10.0816 25.9605 10.2287C25.8947 10.3758 25.8634 10.5359 25.8688 10.697C25.8658 10.8973 25.919 11.0945 26.0224 11.2661C26.1466 11.4551 26.3099 11.6152 26.5011 11.7358C27.0061 12.0391 27.5278 12.3136 28.0638 12.5578C28.9196 12.9017 29.6858 13.4361 30.304 14.1205C30.7187 14.6744 30.9322 15.3531 30.9092 16.0446Z" fill="currentColor"/>
<path d="M40.142 19.2794L39.2929 16.5066H35.0472L34.2072 19.2798H31.5425L35.6525 7.58203H38.6695L42.7976 19.2794H40.142ZM38.7058 14.4377C37.9196 11.9266 37.4863 10.4993 37.387 10.1741C37.2876 9.84888 37.2154 9.58701 37.1701 9.39712C36.9985 10.0746 36.4987 11.7547 35.6707 14.4375L38.7058 14.4377Z" fill="currentColor"/>
<path d="M78.0337 0.203125H5.23793C4.01243 0.206688 2.83814 0.695095 1.97157 1.56166C1.10501 2.42822 0.6166 3.60251 0.613037 4.82802V47.6545C0.616503 48.88 1.10488 50.0544 1.97146 50.921C2.83805 51.7876 4.0124 52.2759 5.23793 52.2794H78.0337C79.2593 52.2759 80.4336 51.7876 81.3002 50.921C82.1668 50.0544 82.6552 48.88 82.6586 47.6545V4.82802C82.6551 3.60251 82.1666 2.42822 81.3001 1.56166C80.4335 0.695095 79.2592 0.206688 78.0337 0.203125ZM80.3462 47.6545C80.3492 47.959 80.2915 48.2611 80.1763 48.543C80.0612 48.8249 79.891 49.0811 79.6756 49.2964C79.4603 49.5117 79.2042 49.682 78.9222 49.7971C78.6403 49.9122 78.3382 49.97 78.0337 49.967H5.23793C4.93341 49.97 4.63135 49.9122 4.34942 49.7971C4.0675 49.682 3.81137 49.5117 3.59603 49.2964C3.38069 49.0811 3.21048 48.8249 3.09534 48.543C2.9802 48.2611 2.92245 47.959 2.92548 47.6545V4.82802C2.93502 4.21769 3.18171 3.63504 3.61333 3.20342C4.04495 2.7718 4.6276 2.52511 5.23793 2.51557H78.0337C78.6441 2.52511 79.2267 2.7718 79.6583 3.20342C80.0899 3.63504 80.3366 4.21769 80.3462 4.82802V14.1703H46.862C46.7098 14.1629 46.5577 14.1858 46.4145 14.2378C46.2713 14.2898 46.1399 14.3698 46.0279 14.4731C45.916 14.5764 45.8258 14.701 45.7625 14.8396C45.6992 14.9782 45.6642 15.128 45.6595 15.2803C45.6651 15.5974 45.7936 15.9 46.0179 16.1243C46.2422 16.3486 46.5448 16.4771 46.862 16.4827H80.3462V47.6545Z" fill="currentColor"/>
<path d="M48.7673 32.0341H8.10984C7.80319 32.0341 7.5091 31.9123 7.29226 31.6955C7.07543 31.4786 6.95361 31.1845 6.95361 30.8779C6.95361 30.5713 7.07543 30.2772 7.29226 30.0603C7.5091 29.8435 7.80319 29.7217 8.10984 29.7217H48.7673C49.0739 29.7217 49.368 29.8435 49.5848 30.0603C49.8017 30.2772 49.9235 30.5713 49.9235 30.8779C49.9235 31.1845 49.8017 31.4786 49.5848 31.6955C49.368 31.9123 49.0739 32.0341 48.7673 32.0341Z" fill="currentColor"/>
<path d="M37.0966 38.5917H8.10984C7.80319 38.5917 7.5091 38.4699 7.29226 38.2531C7.07543 38.0363 6.95361 37.7422 6.95361 37.4355C6.95361 37.1289 7.07543 36.8348 7.29226 36.6179C7.5091 36.4011 7.80319 36.2793 8.10984 36.2793H37.0966C37.4033 36.2793 37.6974 36.4011 37.9142 36.6179C38.131 36.8348 38.2528 37.1289 38.2528 37.4355C38.2528 37.7422 38.131 38.0363 37.9142 38.2531C37.6974 38.4699 37.4033 38.5917 37.0966 38.5917Z" fill="currentColor"/>
</svg>
