<svg width="83" height="81" viewBox="0 0 83 81" fill="none" xmlns="http://www.w3.org/2000/svg">
<path d="M31.638 6.13576C31.6505 6.54575 31.5085 6.94547 31.2403 7.25581C30.9458 7.58303 30.5525 7.80507 30.1203 7.88813V7.92429C30.5956 7.94998 31.0493 8.13083 31.412 8.43914C31.5589 8.58298 31.6736 8.75645 31.7483 8.94801C31.8231 9.13958 31.8562 9.34486 31.8455 9.55022C31.8596 9.85312 31.8005 10.155 31.6731 10.4301C31.5457 10.7053 31.3539 10.9457 31.1139 11.131C30.494 11.5471 29.7542 11.7471 29.0092 11.7001C28.3129 11.7138 27.6212 11.5847 26.9768 11.3208V10.047C27.2615 10.1938 27.5613 10.3089 27.8711 10.3903C28.19 10.4711 28.5175 10.5136 28.8466 10.5167C29.2282 10.5457 29.6095 10.4575 29.9396 10.2638C30.0613 10.1703 30.1573 10.0476 30.2189 9.90705C30.2805 9.7665 30.3056 9.61268 30.2918 9.45985C30.3004 9.31555 30.2666 9.17189 30.1944 9.04665C30.1222 8.92141 30.0149 8.82008 29.8857 8.7552C29.4752 8.59338 29.0345 8.5225 28.5939 8.54745H28.061V7.40973H28.603C29.0123 7.43746 29.422 7.36295 29.7953 7.19291C29.921 7.11907 30.0233 7.01121 30.0904 6.88177C30.1575 6.75232 30.1867 6.60655 30.1745 6.46126C30.1745 5.92838 29.8404 5.65736 29.1719 5.65736C28.9326 5.66257 28.6953 5.7021 28.4673 5.77474C28.187 5.8741 27.92 6.00769 27.6724 6.17248L26.9859 5.15176C27.6568 4.68086 28.4608 4.43714 29.2803 4.45627C29.8874 4.42036 30.4905 4.57479 31.0056 4.89804C31.2084 5.03273 31.3731 5.21735 31.4839 5.43412C31.5946 5.65089 31.6477 5.89252 31.638 6.13576Z" fill="currentColor"/>
<path d="M37.5211 8.08163C37.5848 9.03304 37.3748 9.98279 36.9159 10.8186C36.7057 11.1135 36.4235 11.3496 36.0962 11.5046C35.7689 11.6595 35.4074 11.7281 35.0461 11.7038C34.6868 11.7224 34.3289 11.6472 34.0074 11.4857C33.6859 11.3241 33.4119 11.0818 33.2124 10.7825C32.7432 9.96317 32.5264 9.02358 32.5891 8.08154C32.5221 7.12699 32.7322 6.17339 33.1943 5.33546C33.4168 5.05628 33.7 4.83147 34.0224 4.67809C34.3448 4.52472 34.6979 4.44682 35.0549 4.45031C35.4119 4.45379 35.7634 4.53857 36.0827 4.69821C36.4021 4.85785 36.6808 5.08815 36.8978 5.37163C37.3635 6.19559 37.5801 7.13701 37.5211 8.08163ZM34.0709 8.08163C34.037 8.71031 34.1135 9.34007 34.2967 9.94241C34.3441 10.1044 34.4429 10.2466 34.5781 10.3476C34.7133 10.4486 34.8777 10.503 35.0465 10.5025C35.2176 10.503 35.3842 10.4477 35.5211 10.345C35.658 10.2423 35.7576 10.0978 35.805 9.93334C35.9877 9.33401 36.0642 8.70732 36.0309 8.08163C36.0675 7.45221 35.9879 6.82144 35.796 6.22085C35.7503 6.05713 35.6523 5.91285 35.5169 5.81007C35.3816 5.70728 35.2162 5.65164 35.0463 5.65164C34.8763 5.65164 34.711 5.70728 34.5756 5.81007C34.4402 5.91285 34.3422 6.05713 34.2965 6.22085C34.1178 6.82413 34.0414 7.4531 34.0706 8.08163H34.0709Z" fill="currentColor"/>
<path d="M47.1645 8.01592C47.1967 8.50434 47.1257 8.99407 46.9561 9.45322C46.7864 9.91236 46.5219 10.3306 46.1798 10.6807C45.3779 11.342 44.3535 11.6716 43.3164 11.6021H41.3201V4.55632H43.5332C44.5121 4.49862 45.4748 4.82604 46.2156 5.46862C46.5425 5.80367 46.7958 6.20334 46.9592 6.64201C47.1226 7.08067 47.1925 7.54865 47.1645 8.01592ZM45.6105 8.05208C45.6105 6.53457 44.942 5.78478 43.6051 5.78478H42.8105V10.3645H43.4519C44.8972 10.3645 45.6108 9.59671 45.6108 8.05208H45.6105Z" fill="currentColor"/>
<path d="M52.9364 11.6049L52.4216 9.92485H49.8561L49.3413 11.605H47.7334L50.2174 4.53223H52.0421L54.5443 11.6051L52.9364 11.6049ZM52.0602 8.67816C51.5905 7.16064 51.3285 6.29348 51.2653 6.0947C51.2111 5.89601 51.1659 5.74247 51.1388 5.625C51.0305 6.0405 50.7324 7.05224 50.2265 8.67816H52.0602Z" fill="currentColor"/>
<path d="M57.6246 7.45812L59.097 4.55859H60.7048L58.3646 8.86733V11.6043H56.8836V8.91265L54.5444 4.55859H56.1613L57.6246 7.45812Z" fill="currentColor"/>
<path d="M65.7453 9.64005C65.7584 9.92788 65.7029 10.2147 65.5836 10.4769C65.4642 10.7392 65.2844 10.9694 65.0588 11.1486C64.5046 11.5437 63.8323 11.738 63.1528 11.6996C62.4637 11.7116 61.781 11.5664 61.1565 11.275V9.88397C61.5473 10.0665 61.9521 10.2175 62.3669 10.3356C62.6619 10.4139 62.9652 10.4563 63.2703 10.4621C63.5337 10.479 63.7958 10.4126 64.0195 10.2724C64.1079 10.2097 64.1785 10.1251 64.2244 10.027C64.2703 9.9288 64.29 9.82041 64.2814 9.71239C64.2843 9.58219 64.2431 9.45484 64.1645 9.351C64.0734 9.22599 63.9601 9.11882 63.8302 9.03484C63.6767 8.9355 63.3787 8.78195 62.9179 8.55616C62.5693 8.41167 62.2436 8.2169 61.9514 7.97805C61.7404 7.7956 61.5657 7.57492 61.4366 7.32761C61.2971 7.0605 61.2286 6.76201 61.2378 6.46081C61.2263 6.18362 61.2772 5.90738 61.3867 5.65248C61.4962 5.39758 61.6616 5.17053 61.8706 4.98806C62.3736 4.60944 62.9943 4.42071 63.623 4.45518C63.976 4.45494 64.3279 4.49739 64.6708 4.58162C65.0281 4.68092 65.3782 4.80454 65.7187 4.95161L65.2308 6.10784C64.9284 5.98107 64.6175 5.87543 64.3005 5.79168C64.0644 5.73108 63.8216 5.70071 63.5778 5.70131C63.3455 5.68668 63.1155 5.7538 62.9275 5.89102C62.853 5.95584 62.794 6.03657 62.7549 6.12725C62.7158 6.21794 62.6976 6.31626 62.7016 6.41493C62.6981 6.53565 62.7295 6.65482 62.792 6.75819C62.8673 6.871 62.9659 6.96645 63.081 7.03818C63.387 7.22259 63.7037 7.38849 64.0295 7.53499C64.5456 7.74729 65.0083 8.0712 65.3844 8.48346C65.6319 8.81717 65.7591 9.22482 65.7453 9.64005Z" fill="currentColor"/>
<path d="M27.1774 63.5531C27.1985 64.1627 27.0791 64.7689 26.8285 65.3249C26.5779 65.8809 26.2028 66.3719 25.7322 66.7599C24.5672 67.6397 23.162 68.1438 21.7034 68.2051V70.7705H19.9868V68.2503C18.1474 68.2526 16.3262 67.8871 14.6302 67.1754V63.8691C15.4693 64.2725 16.3469 64.5903 17.2497 64.8176C18.1434 65.0735 19.0602 65.2399 19.9868 65.3144V61.4304L19.1467 61.1052C17.8345 60.6626 16.6351 59.9381 15.6328 58.9825C14.9406 58.2028 14.5723 57.1882 14.6031 56.1461C14.5918 55.572 14.7141 55.003 14.9602 54.4842C15.2063 53.9653 15.5695 53.5107 16.0213 53.1561C17.1727 52.2997 18.5533 51.806 19.9868 51.7379V49.8232H21.703V51.684C23.4883 51.7425 25.2469 52.1346 26.8879 52.8402L25.7137 55.7663C24.434 55.2396 23.0816 54.9106 21.703 54.7907V58.4858C22.9134 58.9109 24.0784 59.4556 25.1809 60.1117C25.7934 60.4952 26.3095 61.0145 26.6894 61.6292C27.0236 62.2144 27.1923 62.8794 27.1774 63.5531ZM18.3698 56.1461C18.3647 56.3159 18.3968 56.4847 18.4639 56.6408C18.531 56.7968 18.6315 56.9363 18.7583 57.0494C19.1225 57.3624 19.5381 57.6099 19.9868 57.781V54.8453C18.9118 54.9986 18.3698 55.4325 18.3698 56.1461ZM23.4102 63.7429C23.4109 63.5719 23.3721 63.4031 23.297 63.2495C23.2218 63.096 23.1122 62.9618 22.9767 62.8576C22.5901 62.5481 22.1612 62.2956 21.703 62.1079V65.2242C22.8411 65.0346 23.4102 64.5377 23.4102 63.7429Z" fill="currentColor"/>
<path d="M29.2881 30.9713H21.7275C21.4701 30.9715 21.2151 30.921 20.9771 30.8225C20.7392 30.7241 20.523 30.5797 20.341 30.3977C20.1589 30.2156 20.0145 29.9994 19.9161 29.7615C19.8176 29.5235 19.7671 29.2685 19.7673 29.0111V23.0129C19.7671 22.7555 19.8176 22.5005 19.9161 22.2625C20.0145 22.0246 20.1589 21.8084 20.341 21.6264C20.523 21.4443 20.7392 21.2999 20.9771 21.2015C21.2151 21.103 21.4701 21.0525 21.7275 21.0527H29.2881C29.5456 21.0525 29.8006 21.1031 30.0385 21.2015C30.2765 21.2999 30.4926 21.4443 30.6747 21.6264C30.8568 21.8084 31.0011 22.0246 31.0995 22.2625C31.198 22.5005 31.2485 22.7555 31.2483 23.0129V29.0108C31.2485 29.2683 31.198 29.5233 31.0996 29.7613C31.0012 29.9992 30.8569 30.2155 30.6748 30.3976C30.4927 30.5797 30.2765 30.7241 30.0386 30.8225C29.8007 30.921 29.5456 30.9715 29.2881 30.9713ZM22.0798 28.6588H28.9358V23.3655H22.0798V28.6588Z" fill="currentColor"/>
<path d="M43.0826 30.9713H35.5129C35.2555 30.9715 35.0005 30.921 34.7625 30.8225C34.5246 30.7241 34.3084 30.5797 34.1264 30.3977C33.9443 30.2156 33.7999 29.9994 33.7015 29.7615C33.603 29.5235 33.5525 29.2685 33.5527 29.0111V23.0129C33.5525 22.7555 33.603 22.5005 33.7015 22.2625C33.7999 22.0246 33.9443 21.8084 34.1264 21.6264C34.3084 21.4443 34.5246 21.2999 34.7625 21.2015C35.0005 21.103 35.2555 21.0525 35.5129 21.0527H43.0826C43.3401 21.0525 43.5951 21.1031 43.833 21.2015C44.0709 21.2999 44.2871 21.4443 44.4691 21.6264C44.6512 21.8085 44.7956 22.0246 44.894 22.2626C44.9924 22.5005 45.0429 22.7555 45.0427 23.0129V29.0108C45.043 29.2683 44.9925 29.5233 44.8941 29.7613C44.7957 29.9992 44.6513 30.2154 44.4692 30.3975C44.2872 30.5796 44.071 30.724 43.833 30.8225C43.5951 30.9209 43.3401 30.9715 43.0826 30.9713ZM35.8652 28.6588H42.7303V23.3655H35.8652V28.6588Z" fill="currentColor"/>
<path d="M56.885 30.9713H49.3154C49.058 30.9715 48.803 30.921 48.565 30.8225C48.3271 30.7241 48.1109 30.5797 47.9288 30.3977C47.7468 30.2156 47.6024 29.9994 47.504 29.7615C47.4055 29.5235 47.355 29.2685 47.3552 29.0111V23.0129C47.355 22.7555 47.4055 22.5005 47.504 22.2625C47.6024 22.0246 47.7468 21.8084 47.9288 21.6264C48.1109 21.4443 48.3271 21.2999 48.565 21.2015C48.803 21.103 49.058 21.0525 49.3154 21.0527H56.885C57.1425 21.0525 57.3975 21.103 57.6354 21.2015C57.8734 21.2999 58.0895 21.4443 58.2716 21.6264C58.4537 21.8084 58.5981 22.0246 58.6965 22.2625C58.7949 22.5005 58.8455 22.7555 58.8452 23.0129V29.0108C58.8455 29.2683 58.795 29.5233 58.6966 29.7613C58.5982 29.9992 58.4538 30.2155 58.2717 30.3976C58.0896 30.5797 57.8734 30.7241 57.6355 30.8225C57.3975 30.921 57.1425 30.9715 56.885 30.9713ZM49.6677 28.6588H56.5328V23.3655H49.6677V28.6588Z" fill="currentColor"/>
<path d="M70.6872 30.9713H63.1176C62.8601 30.9715 62.6051 30.9209 62.3672 30.8225C62.1293 30.7241 61.9131 30.5797 61.7311 30.3976C61.549 30.2156 61.4046 29.9994 61.3062 29.7615C61.2078 29.5235 61.1572 29.2685 61.1575 29.0111V23.0129C61.1572 22.7555 61.2078 22.5005 61.3062 22.2626C61.4046 22.0246 61.549 21.8085 61.7311 21.6264C61.9131 21.4443 62.1293 21.2999 62.3672 21.2015C62.6051 21.1031 62.8601 21.0525 63.1176 21.0527H70.6872C70.9448 21.0525 71.1998 21.103 71.4378 21.2014C71.6757 21.2998 71.8919 21.4442 72.074 21.6263C72.2561 21.8083 72.4005 22.0245 72.499 22.2625C72.5974 22.5004 72.648 22.7554 72.6477 23.0129V29.0108C72.648 29.2683 72.5975 29.5234 72.4991 29.7614C72.4006 29.9993 72.2562 30.2156 72.0741 30.3977C71.892 30.5798 71.6758 30.7242 71.4378 30.8226C71.1998 30.921 70.9448 30.9715 70.6872 30.9713ZM63.4699 28.6588H70.3353V23.3655H63.4699V28.6588Z" fill="currentColor"/>
<path d="M77.2817 0.638676H15.1231C14.4713 0.637844 13.8258 0.76716 13.2246 1.01904C12.6234 1.27092 12.0785 1.6403 11.6219 2.10552C11.1653 2.57073 10.8062 3.12243 10.5656 3.72825C10.325 4.33407 10.2077 4.98184 10.2207 5.63356V42.7252C7.38805 44.5079 5.03775 46.9605 3.37729 49.8665C1.71684 52.7726 0.797293 56.0427 0.699813 59.3882C0.602333 62.7338 1.32992 66.0519 2.81835 69.0497C4.30678 72.0474 6.51029 74.6327 9.23438 76.5773C11.9585 78.522 15.1194 79.7661 18.4381 80.1999C21.7568 80.6337 25.1313 80.2439 28.2638 79.0649C31.3962 77.8859 34.1902 75.9538 36.3992 73.4394C38.6082 70.9249 40.1643 67.9053 40.93 64.6472H77.2817C77.9265 64.6507 78.5655 64.5263 79.1619 64.2812C79.7583 64.0361 80.3002 63.6751 80.7561 63.2192C81.212 62.7633 81.573 62.2214 81.8181 61.625C82.0632 61.0286 82.1876 60.3896 82.1841 59.7448V5.63356C82.1946 4.32161 81.6844 3.05902 80.7654 2.12267C79.8464 1.18632 78.5936 0.652642 77.2817 0.638676ZM21.1355 78.0593C17.5498 78.0593 14.0446 76.9961 11.0632 75.004C8.08184 73.0119 5.75813 70.1804 4.38594 66.8677C3.01376 63.5549 2.65473 59.9097 3.35426 56.3929C4.0538 52.8761 5.78047 49.6457 8.31594 47.1102C10.8514 44.5748 14.0818 42.8481 17.5986 42.1486C21.1154 41.449 24.7606 41.808 28.0734 43.1802C31.3861 44.5524 34.2176 46.8761 36.2097 49.8575C38.2018 52.8389 39.2651 56.3441 39.2651 59.9298C39.2572 64.7355 37.3447 69.3423 33.9466 72.7405C30.5484 76.1388 25.9417 78.0514 21.1359 78.0593H21.1355ZM22.0605 39.4878V35.9728H28.9053V40.9677C26.7224 40.0956 24.4089 39.5954 22.0607 39.4878H22.0605ZM38.0626 48.5525H42.6875V53.8249H40.6525C40.0344 51.9573 39.163 50.1833 38.0627 48.5525H38.0626ZM79.8716 59.7448C79.88 60.0872 79.8187 60.4277 79.6915 60.7457C79.5643 61.0637 79.3738 61.3525 79.1316 61.5947C78.8894 61.8369 78.6006 62.0274 78.2826 62.1546C77.9646 62.2818 77.6241 62.3431 77.2817 62.3347H41.3925C41.5001 61.5373 41.5619 60.7343 41.5775 59.9298C41.5963 58.6558 41.4722 57.3837 41.2075 56.1374H43.0575C43.5718 56.1345 44.0642 55.9289 44.4278 55.5653C44.7915 55.2016 44.9971 54.7092 44.9999 54.1949V48.1826C45.0063 47.9257 44.9604 47.6703 44.865 47.4318C44.7696 47.1932 44.6268 46.9766 44.4451 46.7949C44.2635 46.6133 44.0468 46.4704 43.8083 46.375C43.5697 46.2797 43.3143 46.2338 43.0575 46.2401H36.2126C34.7997 44.5635 33.0712 43.1807 31.1252 42.1702C31.2006 41.9954 31.2324 41.805 31.2178 41.6152V35.6029C31.224 35.3461 31.1781 35.0907 31.0827 34.8522C30.9873 34.6137 30.8444 34.397 30.6628 34.2154C30.4811 34.0337 30.2645 33.8909 30.026 33.7955C29.7875 33.7001 29.5321 33.6541 29.2753 33.6604H21.6905C21.1762 33.6634 20.6839 33.869 20.3202 34.2326C19.9566 34.5963 19.751 35.0886 19.748 35.6029V39.5803C17.2376 39.6679 14.776 40.299 12.5332 41.4302V16.0858H75.2467C75.5399 16.082 75.8201 15.9639 76.0274 15.7565C76.2347 15.5492 76.3529 15.269 76.3567 14.9758C76.3641 14.8237 76.3412 14.6716 76.2892 14.5284C76.2372 14.3852 76.1572 14.2538 76.0539 14.1418C75.9506 14.0299 75.826 13.9396 75.6874 13.8764C75.5488 13.8131 75.399 13.7781 75.2467 13.7734H12.5332V5.63356C12.5231 5.28634 12.5826 4.94061 12.708 4.61668C12.8334 4.29275 13.0223 3.99715 13.2636 3.74725C13.5049 3.49736 13.7937 3.2982 14.113 3.16148C14.4323 3.02476 14.7758 2.95324 15.1231 2.95112H77.2817C77.629 2.95326 77.9725 3.02478 78.2918 3.16151C78.6111 3.29823 78.8999 3.49739 79.1412 3.74728C79.3824 3.99717 79.5714 4.29276 79.6968 4.61669C79.8222 4.94061 79.8817 5.28634 79.8716 5.63356V59.7448Z" fill="currentColor"/>
<path d="M43.0826 43.5449H35.5129C35.2555 43.5452 35.0005 43.4946 34.7625 43.3962C34.5246 43.2978 34.3084 43.1534 34.1264 42.9714C33.9443 42.7893 33.7999 42.5731 33.7015 42.3352C33.6031 42.0973 33.5525 41.8423 33.5527 41.5848V35.596C33.5525 35.3385 33.603 35.0835 33.7015 34.8455C33.7999 34.6076 33.9443 34.3914 34.1264 34.2094C34.3084 34.0273 34.5246 33.8829 34.7625 33.7845C35.0005 33.6861 35.2555 33.6355 35.5129 33.6357H43.0826C43.3401 33.6355 43.5951 33.6861 43.833 33.7845C44.0709 33.8829 44.2871 34.0273 44.4691 34.2094C44.6512 34.3915 44.7956 34.6076 44.894 34.8456C44.9924 35.0835 45.0429 35.3385 45.0427 35.596V41.5848C45.0429 41.8423 44.9924 42.0973 44.894 42.3352C44.7956 42.5731 44.6512 42.7893 44.4691 42.9713C44.2871 43.1534 44.0709 43.2978 43.833 43.3962C43.5951 43.4946 43.3401 43.5452 43.0826 43.5449ZM35.8652 41.2325H42.7303V35.9482H35.8652V41.2325Z" fill="currentColor"/>
<path d="M56.885 43.5449H49.3154C49.058 43.5452 48.803 43.4946 48.565 43.3962C48.3271 43.2978 48.1109 43.1534 47.9289 42.9714C47.7468 42.7893 47.6024 42.5731 47.504 42.3352C47.4055 42.0973 47.355 41.8423 47.3552 41.5848V35.596C47.355 35.3385 47.4055 35.0835 47.504 34.8455C47.6024 34.6076 47.7468 34.3914 47.9288 34.2094C48.1109 34.0273 48.3271 33.8829 48.565 33.7845C48.803 33.6861 49.058 33.6355 49.3154 33.6357H56.885C57.1425 33.6355 57.3975 33.6861 57.6354 33.7845C57.8734 33.8829 58.0895 34.0273 58.2716 34.2094C58.4537 34.3914 58.5981 34.6076 58.6965 34.8455C58.7949 35.0835 58.8455 35.3385 58.8452 35.596V41.5848C58.8455 41.8423 58.7949 42.0973 58.6965 42.3352C58.5981 42.5731 58.4537 42.7893 58.2716 42.9714C58.0895 43.1534 57.8733 43.2978 57.6354 43.3962C57.3975 43.4946 57.1425 43.5452 56.885 43.5449ZM49.6677 41.2325H56.5328V35.9482H49.6677V41.2325Z" fill="currentColor"/>
<path d="M70.6872 43.5449H63.1176C62.8601 43.5452 62.6051 43.4946 62.3672 43.3962C62.1293 43.2978 61.9131 43.1534 61.7311 42.9713C61.549 42.7893 61.4046 42.5731 61.3062 42.3352C61.2078 42.0973 61.1572 41.8423 61.1575 41.5848V35.596C61.1572 35.3385 61.2078 35.0835 61.3062 34.8456C61.4046 34.6076 61.549 34.3915 61.7311 34.2094C61.9131 34.0273 62.1293 33.8829 62.3672 33.7845C62.6051 33.6861 62.8601 33.6355 63.1176 33.6357H70.6872C70.9447 33.6355 71.1997 33.6861 71.4377 33.7845C71.6756 33.8829 71.8918 34.0273 72.0738 34.2094C72.2559 34.3914 72.4003 34.6076 72.4987 34.8455C72.5971 35.0835 72.6477 35.3385 72.6475 35.596V41.5848C72.6477 41.8423 72.5971 42.0973 72.4987 42.3352C72.4003 42.5731 72.2559 42.7893 72.0738 42.9714C71.8918 43.1534 71.6756 43.2978 71.4377 43.3962C71.1997 43.4946 70.9447 43.5452 70.6872 43.5449ZM63.4699 41.2325H70.3353V35.9482H63.4699V41.2325Z" fill="currentColor"/>
<path d="M56.885 56.1281H49.3154C49.058 56.1284 48.803 56.0779 48.565 55.9794C48.3271 55.881 48.1109 55.7366 47.9289 55.5546C47.7468 55.3725 47.6024 55.1563 47.504 54.9184C47.4055 54.6805 47.355 54.4255 47.3552 54.168V48.1701C47.355 47.9126 47.4055 47.6576 47.504 47.4197C47.6024 47.1818 47.7468 46.9656 47.9289 46.7835C48.1109 46.6015 48.3271 46.4571 48.565 46.3587C48.803 46.2603 49.058 46.2097 49.3154 46.21H56.885C57.1425 46.2097 57.3975 46.2603 57.6354 46.3587C57.8733 46.4571 58.0895 46.6015 58.2716 46.7835C58.4537 46.9656 58.5981 47.1818 58.6965 47.4197C58.7949 47.6576 58.8455 47.9126 58.8452 48.1701V54.168C58.8455 54.4255 58.7949 54.6805 58.6965 54.9184C58.5981 55.1563 58.4537 55.3725 58.2716 55.5546C58.0895 55.7366 57.8733 55.881 57.6354 55.9794C57.3975 56.0779 57.1425 56.1284 56.885 56.1281ZM49.6677 53.8157H56.5328V48.5224H49.6677V53.8157Z" fill="currentColor"/>
<path d="M70.6872 56.1281H63.1176C62.8601 56.1284 62.6051 56.0778 62.3672 55.9794C62.1293 55.881 61.9131 55.7366 61.7311 55.5545C61.549 55.3725 61.4046 55.1563 61.3062 54.9184C61.2078 54.6805 61.1572 54.4255 61.1575 54.168V48.1701C61.1572 47.9126 61.2078 47.6576 61.3062 47.4197C61.4046 47.1818 61.549 46.9656 61.7311 46.7836C61.9131 46.6015 62.1293 46.4571 62.3672 46.3587C62.6051 46.2603 62.8601 46.2097 63.1176 46.21H70.6872C70.9447 46.2097 71.1997 46.2603 71.4377 46.3587C71.6756 46.4571 71.8918 46.6015 72.0738 46.7835C72.2559 46.9656 72.4003 47.1818 72.4987 47.4197C72.5971 47.6576 72.6477 47.9126 72.6475 48.1701V54.168C72.6477 54.4255 72.5971 54.6805 72.4987 54.9184C72.4003 55.1563 72.2559 55.3725 72.0738 55.5546C71.8918 55.7366 71.6756 55.881 71.4377 55.9794C71.1997 56.0779 70.9447 56.1284 70.6872 56.1281ZM63.4699 53.8157H70.3353V48.5224H63.4699V53.8157Z" fill="currentColor"/>
</svg>
