<svg width="18" height="19" viewBox="0 0 18 19" fill="none" xmlns="http://www.w3.org/2000/svg">
<path fill-rule="evenodd" clip-rule="evenodd" d="M9.06299 17.2857C13.4337 17.2857 16.9768 13.7425 16.9768 9.37183C16.9768 5.00115 13.4337 1.45801 9.06299 1.45801C4.69231 1.45801 1.14917 5.00115 1.14917 9.37183C1.14917 13.7425 4.69231 17.2857 9.06299 17.2857ZM9.06299 18.2857C13.986 18.2857 17.9768 14.2948 17.9768 9.37183C17.9768 4.44886 13.986 0.458008 9.06299 0.458008C4.14002 0.458008 0.14917 4.44886 0.14917 9.37183C0.14917 14.2948 4.14002 18.2857 9.06299 18.2857ZM8.3555 9.37224L5.96605 6.98278L6.67315 6.27567L9.06261 8.66513L11.4521 6.27567L12.1592 6.98278L9.76972 9.37224L12.1586 11.7611L11.4515 12.4682L9.06261 10.0793L6.67374 12.4682L5.96664 11.7611L8.3555 9.37224Z" fill="currentColor"/>
</svg>
