<svg viewBox="0 0 91 92" fill="none" xmlns="http://www.w3.org/2000/svg">
<path d="M49.0879 29.7383L48.9954 29.8308V29.7383H49.0879Z" fill="currentColor"/>
<path d="M49.0879 29.7383L48.9954 29.8308V29.7383H49.0879Z" fill="currentColor"/>
<path d="M89.3241 18.1794L73.877 4.30472C73.3654 3.8499 72.7111 3.58815 72.027 3.56474H71.842C71.1018 3.61985 70.4089 3.94978 69.8995 4.48972C69.7838 4.61633 69.7181 4.78071 69.7146 4.95221L63.2397 1.0673C62.9314 0.873985 62.5874 0.744439 62.2282 0.686318C61.869 0.628196 61.5017 0.64268 61.1482 0.728911C60.7946 0.815142 60.4619 0.971371 60.1698 1.18837C59.8777 1.40536 59.632 1.67872 59.4473 1.99228L45.9426 24.6542C45.9061 24.6192 45.8623 24.5927 45.8143 24.5767C45.7663 24.5607 45.7153 24.5556 45.6651 24.5617C42.9702 24.532 40.3144 25.208 37.9616 26.5223C35.6087 27.8367 33.6407 29.7437 32.2529 32.0541L20.5057 55.086L17.8233 57.2135C17.3939 56.6399 16.7682 56.2447 16.0658 56.1035C15.253 55.9988 14.4301 56.1963 13.7534 56.6585L0.803676 65.8158C0.691257 65.8847 0.594175 65.976 0.518431 66.084C0.442687 66.1919 0.38989 66.3143 0.363304 66.4434C0.336719 66.5726 0.33691 66.7059 0.363865 66.835C0.39082 66.9641 0.443966 67.0863 0.520019 67.194C0.596072 67.3017 0.693413 67.3927 0.806029 67.4614C0.918645 67.53 1.04414 67.5748 1.17476 67.593C1.30537 67.6112 1.43834 67.6024 1.56543 67.5672C1.69252 67.532 1.81103 67.4711 1.91365 67.3882L14.8633 58.231C15.1293 58.1256 15.4103 58.0631 15.6958 58.046C15.9969 58.1442 16.2569 58.3394 16.4353 58.6009L30.2175 79.783C30.3158 79.895 30.3843 80.03 30.4166 80.1755C30.449 80.321 30.4441 80.4723 30.4025 80.6154C30.3042 80.9165 30.109 81.1767 29.8475 81.3554L16.4353 89.4027C16.2121 89.5465 16.0505 89.7684 15.9821 90.0249C15.9137 90.2815 15.9434 90.5543 16.0654 90.7902C16.1457 90.9385 16.2667 91.0609 16.4142 91.1428C16.5616 91.2247 16.7294 91.2628 16.8978 91.2527C17.0878 91.2673 17.2784 91.2356 17.4534 91.1602L30.8656 83.0204C31.2305 82.8132 31.5498 82.5343 31.8041 82.2004C32.0585 81.8666 32.2426 81.4848 32.3455 81.0779C32.4309 80.6664 32.4341 80.242 32.3547 79.8292C32.2753 79.4165 32.115 79.0235 31.883 78.673L27.6281 72.1981C28.6216 71.1839 29.6716 70.2265 30.7731 69.3307C31.6176 69.067 32.4846 68.8813 33.363 68.7757C35.5392 68.7855 37.6931 68.3377 39.685 67.4612C41.6769 66.5848 43.4622 65.2994 44.9252 63.6883C46.6703 60.8546 47.8629 57.716 48.4401 54.4385L53.5275 57.491C53.9674 57.7815 54.4804 57.9418 55.0075 57.9535C55.3663 57.9608 55.7196 57.8645 56.025 57.676V57.7685C56.1301 57.8464 56.2496 57.9029 56.3765 57.9346C56.5035 57.9664 56.6355 57.9728 56.7649 57.9535C57.0323 57.93 57.2881 57.8341 57.5049 57.676L89.5092 22.1568C89.9953 21.5971 90.2473 20.8716 90.2129 20.131C90.1784 19.3905 89.8601 18.6916 89.3241 18.1794ZM72.4895 5.78469L75.3569 8.37463L71.3795 5.87719C71.4442 5.79514 71.525 5.72728 71.6171 5.67783C71.7091 5.62837 71.8103 5.59837 71.9144 5.58969C72.0185 5.58101 72.1233 5.59385 72.2222 5.62739C72.3211 5.66094 72.4121 5.71448 72.4895 5.78469ZM46.8676 50.8311C46.6592 54.9857 45.4194 59.0229 43.2602 62.5784C41.3177 65.7233 36.3228 66.4633 33.0854 66.8333C31.899 66.8689 30.7332 67.1525 29.663 67.6657C28.5575 68.5238 27.5071 69.4507 26.5181 70.4407L18.9332 58.7859L21.8932 56.566L34.0104 32.979C35.1565 31.1129 36.742 29.5556 38.6284 28.4431C40.5149 27.3306 42.6449 26.6967 44.8326 26.5967L39.8378 35.1065L39.7453 35.199L39.4678 35.4765C35.9534 41.8588 36.7853 43.8938 37.3403 44.4488C37.8922 44.9965 38.6138 45.3406 39.3868 45.4246C40.1599 45.5086 40.9385 45.3276 41.5952 44.9113C43.9538 42.7434 45.653 39.9541 46.4976 36.864C46.8031 35.9145 47.174 34.9873 47.6076 34.089C48.1927 33.0763 48.9798 32.1947 49.92 31.4991C50.1607 31.3914 50.4079 31.2988 50.66 31.2216C51.4288 31.0113 52.2469 31.0767 52.9724 31.4066C53.4807 31.5946 53.9423 31.8903 54.3255 32.2735C54.7087 32.6567 55.0044 33.1183 55.1924 33.6265C55.448 34.3822 55.547 35.1819 55.4834 35.9771C55.4198 36.7722 55.1949 37.5461 54.8224 38.2514C53.6993 40.1725 52.4639 42.0257 51.1225 43.8013C48.0701 48.0562 46.8676 49.8137 46.8676 50.8311ZM48.995 29.8341V29.7416H49.0875L48.995 29.8341ZM57.2273 21.6943C58.1109 21.4584 59.0329 21.4024 59.9386 21.5295C60.8443 21.6566 61.7152 21.9643 62.4997 22.4343C63.3319 22.937 64.0498 23.6081 64.6073 24.4045C65.1648 25.201 65.5497 26.1052 65.7371 27.0592C66.1115 29.1316 65.7168 31.2694 64.6272 33.0715C63.9012 34.3563 62.835 35.416 61.5458 36.1341C60.2566 36.8521 58.7943 37.2007 57.3198 37.1414C57.6499 35.7269 57.5534 34.2463 57.0424 32.8866C56.8151 32.2705 56.4695 31.7048 56.0249 31.2216C56.2846 31.3431 56.5772 31.3756 56.8574 31.3141C57.5177 31.1023 58.1417 30.7904 58.7073 30.3891L59.0773 30.0191L60.7423 31.1291C60.4625 31.4932 60.1531 31.8335 59.8173 32.1466C59.4707 32.4819 59.0997 32.7911 58.7073 33.0715L60.1873 33.904C60.9169 33.3378 61.5429 32.6492 62.0372 31.8691L63.1472 32.5166L63.6097 31.7766L62.4997 31.1291C62.8558 30.446 63.0158 29.6776 62.9622 28.9091C62.7993 28.29 62.401 27.7589 61.8522 27.4292C61.5753 27.2534 61.2552 27.1574 60.9273 27.1517C60.57 27.1564 60.2199 27.2519 59.9098 27.4292C59.3002 27.7099 58.7384 28.0844 58.2448 28.5392L56.5799 27.5217C57.0258 26.9831 57.5213 26.4876 58.0598 26.0417L57.1348 24.7467C56.3801 25.2853 55.7493 25.9792 55.2849 26.7817L54.4524 26.2267L53.9899 26.9667L54.8224 27.5217C54.4597 28.1689 54.2987 28.9097 54.3599 29.6491C54.3536 29.6994 54.3587 29.7503 54.3747 29.7984C54.3907 29.8464 54.4173 29.8902 54.4524 29.9266C54.2578 29.7694 54.0392 29.6445 53.8049 29.5566C52.973 29.1502 52.0424 28.9898 51.1225 29.0941C51.1885 27.8601 51.5366 26.6577 52.14 25.5792C53.2871 23.6908 55.1035 22.3037 57.2273 21.6943ZM54.5449 20.5843L62.5922 7.26465L75.82 15.2195L67.8646 28.5392C67.8947 27.9167 67.8323 27.2933 67.6796 26.6892C67.4525 25.4729 66.9729 24.3176 66.2719 23.298C65.5709 22.2784 64.664 21.417 63.6097 20.7693C62.2384 19.9723 60.687 19.5372 59.1012 19.5048C57.5155 19.4724 55.9476 19.8439 54.5449 20.5843ZM62.1297 37.9739L54.1749 51.2936L50.0125 48.7962C50.845 47.5937 51.8625 46.1137 52.695 45.0038C54.1345 43.1292 55.433 41.1505 56.5799 39.0839C56.9499 39.0839 57.4123 39.1764 57.7823 39.1764C59.3144 39.1821 60.8184 38.7661 62.1297 37.9739ZM56.2099 28.3542L57.5048 29.0941C57.2273 29.2791 56.9499 29.3716 56.8574 29.4641C56.6676 29.4788 56.4771 29.447 56.3024 29.3716C56.0249 29.1866 55.9324 28.8166 56.2099 28.3542ZM59.8173 29.4641C60.0241 29.3257 60.2405 29.2021 60.4648 29.0941C60.6545 29.0795 60.845 29.1112 61.0198 29.1866C61.2972 29.3716 61.3897 29.7416 61.2048 30.2966L59.8173 29.4641ZM55.6549 55.5485C55.533 55.7191 55.3544 55.8407 55.151 55.8916C54.9476 55.9424 54.7327 55.9192 54.5449 55.826L48.7175 52.3111C48.7887 51.8522 48.8196 51.3879 48.81 50.9236C48.81 50.8311 48.9025 50.7386 48.995 50.5536L54.8224 54.0686L78.5943 14.572L61.9447 4.58222L38.9128 42.8763C39.0538 40.6572 39.7886 38.5168 41.0402 36.679H41.1327C41.2833 36.5487 41.4087 36.3919 41.5027 36.2165L61.1123 3.00975C61.2217 2.83907 61.3842 2.70907 61.5747 2.63976C61.7947 2.62489 62.0153 2.6564 62.2222 2.73226L79.9818 13.462C80.0896 13.5101 80.1816 13.5877 80.2471 13.686C80.3126 13.7842 80.3489 13.899 80.3518 14.017C80.4045 14.1055 80.4241 14.2098 80.4072 14.3114C80.3903 14.413 80.3379 14.5054 80.2593 14.572L79.6118 15.682L55.6549 55.5485ZM80.6293 17.9944L83.4967 20.5843L69.8995 35.6615L80.6293 17.9944ZM88.0291 20.8618L60.3723 51.3861L64.6272 44.3563C64.7197 44.3563 64.8122 44.3563 64.8122 44.2638L85.6242 21.2318L86.3642 20.4918L81.6468 16.1444L82.0168 15.5895C82.2047 15.3182 82.3019 14.9944 82.2943 14.6645L87.9366 19.6594C88.1041 19.8092 88.2072 20.0179 88.2244 20.242C88.2417 20.4661 88.1717 20.6881 88.0291 20.8618Z" fill="currentColor"/>
<path d="M49.0879 29.7383L48.9954 29.8308V29.7383H49.0879Z" fill="currentColor"/>
</svg>
