<svg width="81" height="105" viewBox="0 0 81 105" fill="none" xmlns="http://www.w3.org/2000/svg">
<path d="M28.4082 104.008L11.4171 91.7955C9.84843 91.842 8.28775 91.5552 6.83809 90.9541C5.38844 90.353 4.08279 89.4512 3.00737 88.3083C2.0083 87.0105 1.30273 85.5115 0.939357 83.9145C0.575987 82.3176 0.56347 80.6608 0.902669 79.0585L3.01689 63.9377C3.19136 62.4034 3.8151 60.9548 4.80984 59.7736C5.80457 58.5925 7.126 57.7314 8.60829 57.2985C11.255 56.4042 13.9197 55.5551 16.5845 54.706C19.2762 53.8569 21.9586 53.0078 24.6328 52.1045C24.9618 51.9544 25.3183 51.8743 25.6799 51.8694C26.0414 51.8644 26.4 51.9347 26.733 52.0757C27.0659 52.2167 27.3659 52.4253 27.614 52.6884C27.862 52.9515 28.0527 53.2633 28.1738 53.6039L28.3725 53.8117L28.4087 54.3537L28.4082 104.008ZM25.8067 54.2002C25.6526 54.2142 25.5009 54.2475 25.3551 54.2994C22.6904 55.2027 19.9895 56.0609 17.2887 56.9099C14.633 57.759 11.9772 58.5991 9.33958 59.4843C8.26374 59.7772 7.30233 60.3901 6.58285 61.2419C5.86336 62.0937 5.41978 63.1441 5.31093 64.2538L3.19708 79.3932C2.90937 80.669 2.90004 81.9919 3.16972 83.2716C3.4394 84.5514 3.98175 85.758 4.75983 86.8093C5.67288 87.7359 6.77473 88.4551 7.9905 88.918C9.20627 89.3809 10.5074 89.5765 11.8056 89.4917H12.1756L26.0955 99.4907L26.0502 54.5516C25.9919 54.4202 25.9093 54.3009 25.8067 54.2002Z" fill="currentColor"/>
<path d="M54.6289 103.908V53.2062L55.749 51.2461L56.6252 51.508C61.9546 53.1159 67.0041 54.5882 72.0716 56.0607C73.7596 56.4474 75.2821 57.3581 76.4211 58.6626C77.5601 59.9671 78.2572 61.5984 78.4128 63.3232C78.6657 65.2292 78.9367 67.1532 79.2077 69.0682C79.7496 72.9254 80.2916 76.7918 80.7162 80.6485C80.8866 82.0263 80.763 83.4245 80.3535 84.7511C79.944 86.0776 79.2579 87.3023 78.3405 88.3443C77.4346 89.3531 76.3335 90.1678 75.1039 90.7391C73.8743 91.3104 72.5416 91.6266 71.1864 91.6685L54.6289 103.908ZM56.9414 54.0192V99.3197L70.4008 89.3651H70.7708C71.8698 89.3733 72.9583 89.1499 73.9652 88.7095C74.9722 88.2691 75.8751 87.6214 76.6151 86.8088C77.3135 86.0058 77.8352 85.0648 78.1465 84.0471C78.4577 83.0293 78.5515 81.9575 78.4217 80.9012C77.9972 77.0625 77.4551 73.2322 76.9132 69.3931C76.6422 67.4599 76.3712 65.536 76.1183 63.612C76.0046 62.3356 75.4857 61.129 74.6374 60.1685C73.789 59.208 72.6557 58.544 71.4031 58.2736C66.6611 56.9008 61.9188 55.5187 56.9414 54.0192Z" fill="currentColor"/>
<path d="M41.1964 20.4959C36.5309 20.4659 31.8898 19.819 27.3939 18.572C26.9262 18.4031 26.4416 18.285 25.9487 18.2197C24.9539 18.229 23.9708 18.0051 23.0782 17.5659C22.1857 17.1266 21.4084 16.4843 20.8089 15.6905C20.2819 14.7729 19.9743 13.7459 19.9101 12.6897C19.8459 11.6335 20.0269 10.5768 20.4389 9.60217C21.4445 7.02763 23.4149 4.94704 25.931 3.80302C30.5731 1.56438 35.695 0.503334 40.8444 0.713595C46.3746 0.462288 51.8617 1.79396 56.6615 4.55225C58.0427 5.33967 59.1887 6.4815 59.981 7.85983C60.7734 9.23817 61.1835 10.803 61.169 12.3928C61.2449 13.1339 61.1634 13.8826 60.9298 14.59C60.6962 15.2973 60.3157 15.9473 59.8134 16.4974C59.3111 17.0475 58.6982 17.4852 58.0149 17.782C57.3316 18.0787 56.5934 18.2277 55.8485 18.2192C54.8551 18.3636 53.8759 18.5933 52.9219 18.9056C52.2986 19.0863 51.6753 19.267 51.0429 19.4205C47.8095 20.1355 44.5079 20.496 41.1964 20.4959ZM40.8264 3.02613C36.059 2.79106 31.3091 3.76026 27.015 5.84436C25.0221 6.70344 23.4481 8.31318 22.6339 10.3248C22.3621 10.9721 22.2297 11.6694 22.2453 12.3713C22.2609 13.0732 22.4241 13.764 22.7243 14.3986C23.1497 14.8954 23.6817 15.2899 24.2806 15.5526C24.8796 15.8154 25.5301 15.9396 26.1837 15.9162C26.8189 16.0034 27.4448 16.1485 28.0535 16.3498C35.362 18.4771 43.0843 18.7566 50.5275 17.163C51.1146 17.0275 51.6929 16.8558 52.2709 16.6843C53.355 16.3362 54.4672 16.0825 55.5949 15.9258C57.9887 15.6548 58.901 14.6702 58.8559 12.421C58.8701 11.2158 58.5576 10.0293 57.9517 8.98744C57.3458 7.9456 56.4689 7.08732 55.4144 6.50377C50.9785 3.98791 45.9199 2.78202 40.826 3.02613H40.8264Z" fill="currentColor"/>
<path d="M40.8452 18.3533C40.3169 18.3637 39.792 18.2686 39.301 18.0735C38.81 17.8784 38.363 17.5872 37.986 17.217C37.6091 16.8468 37.3099 16.405 37.1059 15.9177C36.902 15.4303 36.7974 14.9071 36.7984 14.3788C36.7961 13.8406 36.9016 13.3074 37.1088 12.8107C37.3159 12.3139 37.6204 11.8637 38.0043 11.4865C38.3882 11.1093 38.8438 10.8129 39.3441 10.6146C39.8444 10.4163 40.3794 10.3202 40.9175 10.332C41.8522 10.3527 42.745 10.7234 43.4196 11.3708C44.2576 12.1359 44.7606 13.2003 44.8197 14.3336C44.8243 14.8589 44.725 15.38 44.5275 15.8669C44.33 16.3537 44.0381 16.7967 43.6687 17.1703C43.2993 17.5439 42.8596 17.8407 42.3751 18.0438C41.8905 18.2468 41.3705 18.352 40.8452 18.3533ZM40.8813 12.6445C40.6462 12.6375 40.4121 12.6788 40.1935 12.7659C39.9749 12.8529 39.7766 12.9839 39.6106 13.1507C39.4447 13.3175 39.3147 13.5165 39.2287 13.7355C39.1428 13.9545 39.1026 14.1888 39.1108 14.4239C39.1318 14.864 39.3229 15.2787 39.6438 15.5806C39.9647 15.8825 40.3903 16.048 40.8308 16.0421C41.2714 16.0363 41.6924 15.8596 42.0052 15.5492C42.3179 15.2389 42.4979 14.8193 42.5072 14.3788C42.4633 13.8758 42.231 13.408 41.8569 13.0689C41.5959 12.8108 41.248 12.6595 40.8813 12.6445Z" fill="currentColor"/>
<path d="M40.4895 50.9569C40.0093 50.9583 39.5295 50.9281 39.0533 50.8665C37.0432 50.5749 35.1158 49.8677 33.3942 48.7899C31.6725 47.7121 30.1943 46.2875 29.0537 44.6067C28.286 43.504 27.5977 42.3479 26.9943 41.1473C26.6962 40.5873 26.4433 40.0182 26.1993 39.4582C25.7155 38.1127 24.9485 36.8867 23.9502 35.863C23.0143 34.7125 22.3797 33.347 22.1037 31.8898C21.8277 30.4326 21.919 28.9296 22.3694 27.5166L22.8482 24.3008L24.5102 27.1011C26.3142 29.4932 28.677 31.4068 31.3919 32.6745C34.1067 33.9421 37.0908 34.5252 40.0831 34.3726H40.7425C43.7158 34.5866 46.6969 34.0819 49.4341 32.9012C52.1713 31.7205 54.5842 29.8984 56.4689 27.5888L57.8419 25.5112L58.5465 27.896C59.0555 29.5498 59.0592 31.3179 58.5571 32.9738C58.055 34.6297 57.0699 36.098 55.7282 37.1906C55.4642 37.5448 55.271 37.9466 55.1591 38.374C54.055 41.9599 51.9677 45.1644 49.1341 47.6237C46.7452 49.735 43.6774 50.9178 40.4895 50.9569ZM24.3837 30.705C24.3089 31.3297 24.3721 31.9633 24.5688 32.561C24.7654 33.1587 25.0908 33.706 25.5219 34.1644C26.7545 35.3981 27.7066 36.8831 28.3131 38.5183C28.5389 39.0332 28.7737 39.5571 29.0357 40.063C29.5928 41.1669 30.2236 42.2322 30.9236 43.2516C31.8782 44.6726 33.118 45.8795 34.5643 46.7955C36.0105 47.7115 37.6316 48.3165 39.3243 48.572C40.822 48.7398 42.3382 48.5856 43.7714 48.1198C45.2046 47.654 46.5218 46.8873 47.6346 45.8711C50.1463 43.6756 51.9952 40.8224 52.9731 37.633C53.1829 36.7977 53.6171 36.0357 54.2287 35.4295C54.8938 34.8925 55.4455 34.2286 55.8517 33.4765C56.258 32.7245 56.5108 31.8991 56.5953 31.0485C52.2321 34.9014 46.5496 36.9207 40.7334 36.685C40.4986 36.685 40.2637 36.685 40.0289 36.6758C34.2391 36.7767 28.6341 34.6376 24.3837 30.705Z" fill="currentColor"/>
<path d="M40.6294 32.9312C35.713 33.1184 30.8777 31.6383 26.9086 28.7312C25.7704 27.9757 24.8677 26.9151 24.3038 25.6708C23.7399 24.4264 23.5376 23.0485 23.7199 21.6945C23.7392 21.3124 23.8403 20.9388 24.0164 20.5991C24.1925 20.2594 24.4395 19.9614 24.7406 19.7253C25.0407 19.5541 25.3728 19.4464 25.7162 19.4091C26.0597 19.3718 26.4071 19.4057 26.7369 19.5085C36.1504 22.0529 46.0805 21.9749 55.4529 19.2827L56.4012 19.0117L56.8168 19.9151C57.6101 21.4206 57.8051 23.1703 57.3629 24.8135C56.9206 26.4568 55.8738 27.8723 54.4321 28.7763C50.5917 31.5724 45.9389 33.0292 41.1897 32.9225C40.9997 32.9226 40.81 32.9312 40.6294 32.9312ZM26.1039 21.6585C26.0768 21.6585 26.0407 21.7758 26.0136 22.0017C25.8852 22.9516 26.0343 23.9184 26.443 24.7855C26.8516 25.6526 27.5024 26.383 28.3168 26.8886C32.0651 29.5166 36.58 30.8256 41.1527 30.6101C45.4105 30.7167 49.5859 29.4253 53.0401 26.9337C53.918 26.437 54.5978 25.6527 54.9648 24.7132C55.3319 23.7736 55.3637 22.7362 55.055 21.7759C45.5821 24.3103 35.6083 24.3009 26.1402 21.7488L26.1039 21.6585Z" fill="currentColor"/>
<path d="M35.498 65.0387H35.3986C34.1069 64.9754 33.2849 63.7741 32.7162 62.7355C32.2284 61.8593 31.7586 60.983 31.2889 60.0978C30.3856 58.3906 29.4553 56.6292 28.4164 54.9852C27.7813 54.1666 27.4464 53.1548 27.4678 52.119C27.4891 51.0831 27.8655 50.086 28.5339 49.2944C28.8537 48.8362 29.1463 48.3597 29.4101 47.8672L30.5302 45.9525L31.56 46.711C34.9112 49.1679 38.1811 51.5707 41.6136 54.0999L41.7582 53.8921L41.8847 54.0909L51.3422 45.7715L52.1099 46.6115C52.2576 46.7598 52.3963 46.9166 52.5254 47.0813C55.7683 51.5888 55.7954 52.0404 53.1306 56.882C52.5796 57.8847 52.0738 58.8423 51.5767 59.7907C51.0076 60.8747 50.4385 61.9586 49.8423 63.0246C49.6254 63.5116 49.2918 63.9377 48.8712 64.2654C48.4506 64.593 47.9559 64.8121 47.4306 64.9034C46.9021 64.8448 46.3947 64.663 45.9492 64.3728C45.5036 64.0826 45.1323 63.692 44.8651 63.2323C44.287 62.3741 43.736 61.498 43.1941 60.6217L41.6493 58.1286L38.2891 63.0064C37.6387 63.9552 36.7355 65.0387 35.498 65.0387ZM31.2344 49.3394C30.979 49.8069 30.6923 50.2565 30.3763 50.6852C29.995 51.1035 29.7829 51.6486 29.7812 52.2146C29.7795 52.7805 29.9883 53.3269 30.367 53.7475C31.451 55.4637 32.4084 57.2704 33.3389 59.0137C33.7996 59.8808 34.2603 60.7571 34.739 61.6152C34.9287 62.0386 35.2058 62.4173 35.552 62.7262C35.8553 62.4051 36.1332 62.0608 36.383 61.6965L40.2943 56.0057C37.2052 53.7294 34.2424 51.5524 31.2344 49.3394ZM43.1128 56.087L45.1632 59.4022C45.6872 60.2512 46.2201 61.1003 46.7802 61.9313C46.9293 62.1833 47.1256 62.4042 47.3583 62.5818C47.5279 62.3621 47.6848 62.1329 47.828 61.8952C48.4061 60.8474 48.9657 59.7815 49.5262 58.7156C50.032 57.749 50.5379 56.7824 51.0709 55.8251C53.0672 52.2029 53.1937 51.9864 51.098 49.0593L43.1128 56.087Z" fill="currentColor"/>
<path d="M46.8611 102.779H35.9854L36.1028 101.523C36.3377 98.8493 36.5725 93.3392 36.8074 88.0007C37.0332 82.6984 37.2681 77.2155 37.5119 74.5868L37.7197 72.1117C37.9456 69.4831 38.1714 66.8455 38.5059 64.235C38.6903 63.0049 38.9804 61.793 39.3731 60.6128C39.5177 60.134 39.6532 59.6643 39.7801 59.1855L40.0053 58.3544L42.4985 58.3184L42.8056 59.0049C42.932 59.2939 43.0856 59.5739 43.2391 59.8539C43.7164 60.6126 44.0331 61.4612 44.1696 62.3471C44.6573 67.2249 45.109 75.2191 45.5426 82.9423C45.9581 90.1777 46.3374 97.0157 46.744 101.514L46.8611 102.779ZM38.4966 100.466H44.3319C43.9619 95.9678 43.6092 89.6903 43.2388 83.0778C42.7962 75.3727 42.3446 67.4055 41.8749 62.5729C41.8104 62.2068 41.6884 61.8531 41.5136 61.5251C41.1957 62.504 40.957 63.5069 40.8 64.524C40.4658 67.1165 40.2489 69.7089 40.023 72.3104L39.8062 74.7855C39.5804 77.3689 39.3454 82.8248 39.1106 88.1001C38.9121 92.734 38.7134 97.5035 38.4966 100.466Z" fill="currentColor"/>
</svg>
