<svg fill="none" viewBox="0 0 74 86" xmlns="http://www.w3.org/2000/svg">
<path d="M59.9272 22.891C59.9202 22.5919 59.8236 22.3019 59.6497 22.0585C59.6426 21.7595 59.546 21.4695 59.3722 21.226L58.2622 18.9136C57.5546 17.5349 56.3395 16.4848 54.8728 15.9844C53.4062 15.484 51.8026 15.5725 50.3999 16.2311L47.7175 17.6186L47.07 18.0811L46.7925 19.2836L51.9724 29.7358C52.1024 29.9906 52.3014 30.2038 52.5468 30.351C52.7921 30.4981 53.0738 30.5735 53.3598 30.5683C53.5797 30.5832 53.8003 30.5517 54.0073 30.4758L56.7822 29.0883C57.9085 28.5372 58.8247 27.6343 59.3921 26.5161C59.9596 25.398 60.1474 24.1254 59.9272 22.891ZM55.7648 27.0534L53.7298 28.0709L49.3824 19.3761L51.4174 18.3586C51.8282 18.141 52.2788 18.0091 52.7421 17.9707C53.2053 17.9323 53.6716 17.9883 54.1126 18.1353C54.5536 18.2823 54.9602 18.5172 55.3077 18.8259C55.6553 19.1346 55.9367 19.5105 56.1348 19.9311L57.3372 22.336C57.7189 23.1756 57.769 24.1285 57.4773 25.0035C57.1856 25.8784 56.5739 26.6107 55.7648 27.0534Z" fill="currentColor"/>
<path d="M71.113 43.7044H68.0606C68.1759 43.4744 68.2391 43.2217 68.2456 42.9644C68.2418 42.6712 68.1236 42.3911 67.9163 42.1838C67.7089 41.9764 67.4288 41.8583 67.1356 41.8545H63.8057L68.3381 30.0147C68.4212 29.7434 68.4308 29.4548 68.3658 29.1785C68.3008 28.9022 68.1635 28.6481 67.9681 28.4423L61.6783 21.5049L63.4357 20.6725C64.1438 20.3011 64.6769 19.6655 64.9193 18.9036C65.1618 18.1416 65.094 17.3148 64.7307 16.6026C64.5916 16.2408 64.3678 15.9176 64.0782 15.6601C63.7885 15.4026 63.4413 15.2183 63.0657 15.1226C62.309 14.8737 61.4878 14.9065 60.7533 15.2151L57.6084 16.7876L59.9208 21.5974C59.8494 21.7633 59.7561 21.9189 59.6433 22.0599C59.8172 22.3033 59.9139 22.5934 59.9208 22.8924C59.9306 22.9625 59.9631 23.0275 60.0133 23.0774L65.9327 29.6448L61.4008 41.8545H55.3884C55.0952 41.8584 54.8152 41.9766 54.6079 42.1839C54.4006 42.3912 54.2824 42.6713 54.2784 42.9644C54.271 43.2378 54.3706 43.5033 54.5559 43.7044H44.8437L45.5836 30.4772L33.1889 27.1473C33.0039 27.1473 32.7264 27.1473 32.6339 27.3323V24.6499C33.7038 24.0838 34.6078 23.2486 35.2566 22.2268C35.9054 21.2049 36.2767 20.0316 36.3339 18.8225V16.9726H36.6113C37.1184 17.0193 37.6269 16.9003 38.0605 16.6334C38.4941 16.3666 38.8295 15.9663 39.0163 15.4926C39.0163 15.4926 40.3113 11.2377 38.4613 9.85022C38.1405 9.65848 37.7992 9.50335 37.4438 9.38773C37.9185 8.40052 38.0926 7.2956 37.9446 6.21025C37.7966 5.12491 37.333 4.10696 36.6113 3.28288C36.1496 2.83161 35.6187 2.45691 35.0389 2.1729C34.9464 2.1729 34.9464 2.08041 34.8539 2.1729C33.6271 1.14212 32.105 0.526822 30.5065 0.415444C30.414 0.415444 29.2115 0.230449 26.7141 0.137951C25.3047 0.0493576 23.8925 0.258943 22.5697 0.753028C21.2468 1.24711 20.043 2.01459 19.0368 3.00538C17.59 4.81148 16.8355 7.07478 16.9093 9.38773C16.5565 9.46971 16.2149 9.59394 15.8918 9.75772C14.0419 10.9602 14.8744 14.4751 15.3369 15.5851C15.5507 16.0525 15.9084 16.4392 16.3578 16.6889C16.8071 16.9385 17.3245 17.0379 17.8343 16.9726H18.1118V18.8225C18.1931 19.8763 18.4994 20.9005 19.01 21.8259C19.5206 22.7514 20.2236 23.5566 21.0717 24.1874V27.1473C20.9792 27.0548 20.7942 27.1473 20.7017 27.1473L8.39951 30.4772L9.047 43.7044H2.01716C1.7675 43.6958 1.51863 43.737 1.28512 43.8258C1.05161 43.9146 0.838152 44.049 0.657256 44.2213C0.47636 44.3936 0.331659 44.6002 0.231629 44.8291C0.131599 45.058 0.0782494 45.3046 0.074707 45.5544V48.9768C0.0782494 49.2266 0.131599 49.4731 0.231629 49.7021C0.331659 49.931 0.47636 50.1376 0.657256 50.3099C0.838152 50.4822 1.05161 50.6166 1.28512 50.7054C1.51863 50.7941 1.7675 50.8354 2.01716 50.8268H5.25459V82.7385C5.2576 83.2527 5.46321 83.7451 5.82684 84.1087C6.19047 84.4723 6.6828 84.6779 7.19704 84.6809H10.2495C10.3988 85.0198 10.6458 85.3063 10.9589 85.5041C11.2719 85.7018 11.6368 85.8016 12.0069 85.7909H45.4911C45.8734 85.8024 46.2509 85.7038 46.5788 85.5071C46.9067 85.3103 47.1713 85.0236 47.3411 84.6809H65.9332C66.4474 84.6779 66.9397 84.4723 67.3034 84.1087C67.667 83.7451 67.8726 83.2527 67.8756 82.7385V50.8268H71.113C71.3627 50.8354 71.6116 50.7941 71.8451 50.7054C72.0786 50.6166 72.2921 50.4822 72.4729 50.3099C72.6538 50.1376 72.7985 49.931 72.8986 49.7021C72.9986 49.4731 73.0519 49.2266 73.0555 48.9768V45.5544C73.0519 45.3046 72.9986 45.058 72.8986 44.8291C72.7985 44.6002 72.6538 44.3936 72.4729 44.2213C72.2921 44.049 72.0786 43.9146 71.8451 43.8258C71.6116 43.737 71.3627 43.6958 71.113 43.7044ZM60.6608 17.805L61.7708 17.3425C61.9094 17.2587 62.073 17.226 62.2332 17.25C62.4239 17.3191 62.5865 17.4491 62.6957 17.62C62.7726 17.7958 62.787 17.9926 62.7365 18.1777C62.686 18.3628 62.5737 18.5251 62.4182 18.6375L61.3083 19.1L60.6608 17.805ZM36.3339 11.7002C36.5189 11.6077 36.7963 11.4227 36.9813 11.6077C37.2159 12.5804 37.2159 13.5949 36.9813 14.5676C36.8888 14.6601 36.6114 14.6601 36.3339 14.6601V11.7002ZM18.1118 12.2552V14.6601C17.7418 14.6601 17.5568 14.6601 17.4643 14.7526C17.0755 13.8165 16.9788 12.7847 17.1868 11.7927H18.2043C18.1296 11.9347 18.0975 12.0953 18.1118 12.2552ZM34.7614 35.4721L34.0214 29.8297L43.1787 32.2347L42.5312 43.7044H30.784L31.154 36.7671L30.784 35.0096L34.7614 35.4721ZM26.9916 31.1247L23.3842 28.8123V25.5748C24.4652 26.0571 25.6248 26.3391 26.8066 26.4073C28.01 26.3486 29.1965 26.0988 30.3215 25.6673V28.9973L26.9916 31.1247ZM28.8415 36.9521L28.379 43.7044H25.6041L25.3266 37.0446L25.9741 33.8072H28.194L28.8415 36.9521ZM23.9391 31.9572L23.7542 32.6972L21.8117 32.8822L22.0892 30.7547L23.9391 31.9572ZM31.8015 30.7547L32.079 32.8822L30.3215 32.6972L30.1365 31.8647L31.8015 30.7547ZM34.6689 4.76284C34.7614 4.76284 34.8539 4.85534 34.9464 4.94784C36.2414 6.24281 35.5014 8.27776 34.8539 9.38773C33.8943 8.87355 33.0944 8.10562 32.5414 7.16778C32.9114 6.79779 33.2814 6.3353 33.6514 5.96531L34.6689 4.76284ZM20.7942 4.48535C21.5725 3.73447 22.5058 3.16317 23.5286 2.81161C24.5513 2.46004 25.6386 2.33675 26.7141 2.4504C29.0265 2.54289 30.1365 2.72789 30.229 2.72789C31.1209 2.80667 31.9949 3.02516 32.8189 3.37537L31.894 4.48535C30.3427 6.28516 28.3822 7.68651 26.1772 8.57174C23.9722 9.45697 21.5869 9.80024 19.2218 9.57273C19.1303 7.74465 19.6872 5.94297 20.7942 4.48535ZM20.4242 18.8225V12.2552C20.4381 12.1248 20.4053 11.9937 20.3317 11.8852C24.0699 11.934 27.7279 10.8009 30.784 8.64775C31.4949 9.83991 32.5628 10.7783 33.8364 11.3302V11.4227C33.8099 11.6545 33.8764 11.8874 34.0214 12.0702V18.8225C33.9316 19.6073 33.6695 20.3625 33.2537 21.0341C32.838 21.7057 32.2789 22.2771 31.6165 22.7074C30.103 23.4382 28.4767 23.9074 26.8066 24.0949C25.4256 23.9225 24.0994 23.4489 22.9217 22.7074C22.2426 22.2864 21.6661 21.7192 21.234 21.0471C20.802 20.3751 20.5253 19.6151 20.4242 18.8225ZM19.8692 29.8297L19.2218 35.4721L23.3842 35.0096L23.0142 36.6746L22.9217 36.8596L23.2917 43.7044H11.3594L10.8045 32.2347L19.8692 29.8297ZM70.743 48.5143H67.4131C67.1633 48.5178 66.9168 48.5712 66.6879 48.6712C66.459 48.7713 66.2523 48.916 66.08 49.0969C65.9078 49.2778 65.7733 49.4912 65.6845 49.7247C65.5958 49.9582 65.5545 50.2071 65.5632 50.4568V82.3685H46.9711C46.601 82.3579 46.2362 82.4579 45.9232 82.6556C45.6101 82.8533 45.3631 83.1398 45.2136 83.4785H12.3769C12.207 83.1359 11.9424 82.8493 11.6145 82.6525C11.2866 82.4558 10.9092 82.3572 10.527 82.3685H7.56703V50.4568C7.57579 50.2071 7.5346 49.9582 7.44589 49.7246C7.35718 49.491 7.22273 49.2775 7.05043 49.0966C6.87812 48.9157 6.67143 48.771 6.44247 48.671C6.21351 48.571 5.96689 48.5177 5.71708 48.5143H2.38715V46.0169H70.743V48.5143Z" fill="currentColor"/>
<path d="M43.0882 49.3486H14.2288C12.7489 49.3486 11.5464 50.1811 11.5464 51.3836V78.8554C11.6461 79.4745 11.9805 80.0313 12.48 80.4102C12.9795 80.7892 13.6058 80.9611 14.2288 80.8904H43.0882C43.7008 80.9606 44.3165 80.7863 44.8014 80.4053C45.2863 80.0243 45.6013 79.4673 45.6781 78.8554V51.3836C45.6781 50.1811 44.5681 49.3486 43.0882 49.3486ZM43.3656 78.4855C43.3656 78.578 43.1806 78.578 43.0882 78.578H14.2288C14.0438 78.578 13.9513 78.578 13.8588 78.4855V51.7536C13.9513 51.6611 14.0438 51.6611 14.2288 51.6611H43.0882C43.1806 51.6611 43.3656 51.6611 43.3656 51.7536V78.4855Z" fill="currentColor"/>
</svg>
