<svg xmlns="http://www.w3.org/2000/svg" width="170" height="170" viewBox="0 0 170 170">
  <g fill="none" fill-rule="evenodd">
    <circle cx="85" cy="85" r="85" fill="#00ADEE"/>
    <path fill="#FFFFFF" fill-rule="nonzero" d="M68.5041889,124.425486 C67.0399777,124.429778 65.6344926,123.842498 64.5990301,122.793697 L31.6255106,89.3886955 C30.0513098,87.7803702 29.584219,85.3717548 30.4408082,83.2796208 C31.2973975,81.1874868 33.3101602,79.8209525 35.5458646,79.8136212 C36.9974727,79.8205573 38.3864865,80.41335 39.4054378,81.4607803 L66.5440119,108.954482 C67.6041936,110.018893 69.3130132,110.018893 70.3731949,108.954482 L130.576459,48.0557785 C132.743734,45.8820551 136.234698,45.8820551 138.401972,48.0557785 C140.555906,50.2479536 140.555906,53.7915186 138.401972,55.9836937 L72.4245428,122.793697 C71.3825223,123.841962 69.972675,124.428781 68.5041889,124.425486 Z"/>
  </g>
</svg>
