<svg width="21" height="27" viewBox="0 0 21 27" fill="none" xmlns="http://www.w3.org/2000/svg">
<path d="M21 10.5C21 19.5 10.5 26.25 10.5 26.25C10.5 26.25 0 19.5 0 10.5C0 4.70101 4.70101 0 10.5 0C16.299 0 21 4.70101 21 10.5Z" fill="currentColor"/>
<path d="M9.25 7.25C9.25 6.55964 9.80964 6 10.5 6C11.1904 6 11.75 6.55964 11.75 7.25V14.75C11.75 15.4404 11.1904 16 10.5 16C9.80964 16 9.25 15.4404 9.25 14.75V7.25Z" fill="white"/>
<path d="M14.25 9.75C14.9404 9.75 15.5 10.3096 15.5 11C15.5 11.6904 14.9404 12.25 14.25 12.25L6.75 12.25C6.05964 12.25 5.5 11.6904 5.5 11C5.5 10.3096 6.05964 9.75 6.75 9.75L14.25 9.75Z" fill="white"/>
</svg>
