<svg width="89" height="43" viewBox="0 0 89 43" fill="none" xmlns="http://www.w3.org/2000/svg">
<path d="M58.4647 33.844H37.5144C37.2762 33.844 37.0478 33.7494 36.8794 33.581C36.711 33.4125 36.6163 33.1841 36.6163 32.9459C36.6163 32.7077 36.711 32.4793 36.8794 32.3109C37.0478 32.1425 37.2762 32.0479 37.5144 32.0479H58.4647C58.7029 32.0479 58.9314 32.1425 59.0998 32.3109C59.2682 32.4793 59.3628 32.7077 59.3628 32.9459C59.3628 33.1841 59.2682 33.4125 59.0998 33.581C58.9314 33.7494 58.7029 33.844 58.4647 33.844Z" fill="currentColor"/>
<path d="M83.4989 33.844H81.1345C80.8963 33.844 80.6679 33.7494 80.4995 33.581C80.331 33.4126 80.2364 33.1841 80.2364 32.9459C80.2364 32.7078 80.331 32.4793 80.4995 32.3109C80.6679 32.1425 80.8963 32.0479 81.1345 32.0479H83.4989C85.4775 32.0479 86.8527 31.0095 86.8527 30.0834V28.9818C86.8527 20.6046 76.5529 13.7846 63.8956 13.7846H22.121L20.8511 14.2828C20.6301 14.3682 20.3843 14.3627 20.1673 14.2676C19.9504 14.1725 19.7798 13.9955 19.6928 13.7751C19.6057 13.5548 19.6093 13.309 19.7028 13.0913C19.7962 12.8736 19.9719 12.7017 20.1915 12.613L21.9491 11.9885H63.8956C77.5422 11.9885 88.6488 19.6151 88.6488 28.9818V30.0834C88.6488 32.1952 86.3896 33.844 83.4989 33.844Z" fill="currentColor"/>
<path d="M15.2098 33.8442C12.3227 33.8442 10.0635 32.2796 10.0635 30.287V23.3898C10.0635 23.1516 10.1581 22.9232 10.3265 22.7548C10.4949 22.5863 10.7234 22.4917 10.9616 22.4917C11.1997 22.4917 11.4282 22.5863 11.5966 22.7548C11.765 22.9232 11.8596 23.1516 11.8596 23.3898V30.287C11.8596 31.1149 13.2909 32.0481 15.2098 32.0481C15.448 32.0481 15.6764 32.1427 15.8449 32.3111C16.0133 32.4795 16.1079 32.708 16.1079 32.9461C16.1079 33.1843 16.0133 33.4128 15.8449 33.5812C15.6764 33.7496 15.448 33.8442 15.2098 33.8442Z" fill="currentColor"/>
<path d="M26.6194 25.9122C28.0996 25.9122 29.5465 26.3511 30.7773 27.1734C32.008 27.9958 32.9673 29.1646 33.5337 30.5321C34.1001 31.8997 34.2484 33.4044 33.9596 34.8562C33.6708 36.308 32.958 37.6415 31.9114 38.6881C30.8647 39.7348 29.5312 40.4476 28.0794 40.7363C26.6277 41.0251 25.1229 40.8769 23.7554 40.3105C22.3879 39.744 21.219 38.7848 20.3967 37.554C19.5743 36.3233 19.1354 34.8763 19.1354 33.3961C19.1354 31.4113 19.9239 29.5077 21.3274 28.1042C22.7309 26.7006 24.6345 25.9122 26.6194 25.9122ZM26.6194 24.116C24.7839 24.116 22.9897 24.6603 21.4636 25.68C19.9375 26.6997 18.748 28.1491 18.0456 29.8448C17.3433 31.5405 17.1595 33.4064 17.5176 35.2066C17.8756 37.0068 18.7595 38.6603 20.0573 39.9582C21.3552 41.256 23.0087 42.1399 24.8089 42.498C26.6091 42.8561 28.475 42.6723 30.1707 41.9699C31.8665 41.2675 33.3158 40.078 34.3356 38.5519C35.3553 37.0258 35.8995 35.2316 35.8995 33.3961C35.8968 30.9357 34.9181 28.5769 33.1784 26.8372C31.4386 25.0974 29.0798 24.1188 26.6194 24.116Z" fill="currentColor"/>
<path d="M26.6673 29.9816C27.3778 29.9816 28.0723 30.1923 28.663 30.587C29.2538 30.9817 29.7142 31.5427 29.9861 32.1992C30.258 32.8556 30.3292 33.5779 30.1905 34.2747C30.0519 34.9715 29.7098 35.6116 29.2074 36.114C28.705 36.6164 28.0649 36.9585 27.3681 37.0972C26.6713 37.2358 25.949 37.1646 25.2926 36.8927C24.6361 36.6208 24.0751 36.1604 23.6804 35.5697C23.2856 34.9789 23.075 34.2844 23.075 33.5739C23.075 32.6211 23.4534 31.7074 24.1271 31.0337C24.8008 30.36 25.7145 29.9816 26.6673 29.9816ZM26.6673 28.1854C25.6015 28.1854 24.5597 28.5014 23.6736 29.0935C22.7875 29.6856 22.0968 30.5272 21.689 31.5118C21.2811 32.4964 21.1744 33.5799 21.3823 34.6251C21.5903 35.6704 22.1035 36.6305 22.8571 37.3841C23.6106 38.1377 24.5708 38.6509 25.616 38.8588C26.6613 39.0667 27.7447 38.96 28.7293 38.5522C29.714 38.1443 30.5555 37.4537 31.1476 36.5675C31.7397 35.6814 32.0557 34.6396 32.0557 33.5739C32.0541 32.1453 31.4859 30.7756 30.4757 29.7655C29.4655 28.7553 28.0959 28.187 26.6673 28.1854Z" fill="currentColor"/>
<path d="M69.8394 25.9122C71.3195 25.9122 72.7665 26.3511 73.9972 27.1734C75.228 27.9958 76.1872 29.1646 76.7537 30.5321C77.3201 31.8997 77.4683 33.4044 77.1795 34.8562C76.8908 36.308 76.178 37.6415 75.1313 38.6881C74.0847 39.7348 72.7512 40.4476 71.2994 40.7363C69.8477 41.0251 68.3429 40.8769 66.9753 40.3105C65.6078 39.744 64.439 38.7848 63.6166 37.554C62.7943 36.3233 62.3554 34.8763 62.3554 33.3961C62.3554 31.4113 63.1438 29.5077 64.5474 28.1042C65.9509 26.7006 67.8545 25.9122 69.8394 25.9122ZM69.8394 24.116C68.0039 24.116 66.2097 24.6603 64.6836 25.68C63.1575 26.6997 61.968 28.1491 61.2656 29.8448C60.5632 31.5405 60.3794 33.4064 60.7375 35.2066C61.0956 37.0068 61.9794 38.6603 63.2773 39.9582C64.5752 41.256 66.2287 42.1399 68.0289 42.498C69.8291 42.8561 71.695 42.6723 73.3907 41.9699C75.0864 41.2675 76.5358 40.078 77.5555 38.5519C78.5752 37.0258 79.1195 35.2316 79.1195 33.3961C79.1167 30.9357 78.1381 28.5769 76.3983 26.8372C74.6586 25.0974 72.2997 24.1188 69.8394 24.116Z" fill="currentColor"/>
<path d="M69.8872 29.9816C70.5977 29.9816 71.2923 30.1923 71.883 30.587C72.4738 30.9817 72.9342 31.5427 73.2061 32.1992C73.478 32.8556 73.5491 33.5779 73.4105 34.2747C73.2719 34.9715 72.9298 35.6116 72.4274 36.114C71.925 36.6164 71.2849 36.9585 70.5881 37.0972C69.8912 37.2358 69.1689 37.1646 68.5125 36.8927C67.8561 36.6208 67.2951 36.1604 66.9003 35.5697C66.5056 34.9789 66.2949 34.2844 66.2949 33.5739C66.2949 32.6211 66.6734 31.7074 67.3471 31.0337C68.0208 30.36 68.9345 29.9816 69.8872 29.9816ZM69.8872 28.1854C68.8215 28.1854 67.7797 28.5014 66.8936 29.0935C66.0074 29.6856 65.3168 30.5272 64.909 31.5118C64.5011 32.4964 64.3944 33.5799 64.6023 34.6251C64.8102 35.6704 65.3234 36.6305 66.077 37.3841C66.8306 38.1377 67.7907 38.6509 68.836 38.8588C69.8813 39.0667 70.9647 38.96 71.9493 38.5522C72.9339 38.1443 73.7755 37.4537 74.3676 36.5675C74.9597 35.6814 75.2757 34.6396 75.2757 33.5739C75.2741 32.1453 74.7058 30.7756 73.6957 29.7655C72.6855 28.7553 71.3159 28.187 69.8872 28.1854Z" fill="currentColor"/>
<path d="M64.8702 12.7949C64.6661 12.7948 64.4682 12.7253 64.3088 12.5978C64.1494 12.4703 64.0381 12.2924 63.9932 12.0933C63.1892 9.09339 61.3943 6.45354 58.9003 4.60269C56.4063 2.75183 53.3596 1.79876 50.2554 1.89833H32.5991C30.8947 1.85566 29.2161 2.32041 27.7764 3.2336C26.3367 4.14679 25.2008 5.46721 24.513 7.02721C24.421 7.2422 24.2488 7.41284 24.033 7.50287C23.8172 7.5929 23.5748 7.59522 23.3574 7.50932C23.1399 7.42343 22.9645 7.2561 22.8684 7.0429C22.7724 6.82971 22.7633 6.58746 22.8431 6.36766C23.6645 4.47347 25.0307 2.86635 26.7679 1.75067C28.5051 0.635 30.5349 0.0611786 32.5991 0.102181H50.2554C53.7676 0.0037764 57.2097 1.09622 60.0223 3.2019C62.8349 5.30759 64.8525 8.30271 65.7473 11.7004C65.799 11.9329 65.7565 12.1766 65.6289 12.3778C65.5013 12.579 65.2992 12.7215 65.0667 12.7739C65.0021 12.7875 64.9363 12.7945 64.8702 12.7949Z" fill="currentColor"/>
<path d="M44.292 31.4305C44.174 31.4308 44.057 31.4078 43.9479 31.3628C43.8388 31.3178 43.7396 31.2517 43.6562 31.1682C43.5727 31.0848 43.5066 30.9856 43.4616 30.8765C43.4165 30.7674 43.3936 30.6504 43.3939 30.5324V13.2163C43.3939 12.9781 43.4885 12.7497 43.657 12.5813C43.8254 12.4129 44.0538 12.3183 44.292 12.3183C44.5302 12.3183 44.7586 12.4129 44.927 12.5813C45.0955 12.7497 45.1901 12.9781 45.1901 13.2163V30.5324C45.1904 30.6504 45.1675 30.7674 45.1225 30.8765C45.0774 30.9856 45.0113 31.0848 44.9278 31.1682C44.8444 31.2517 44.7452 31.3178 44.6361 31.3628C44.527 31.4078 44.41 31.4308 44.292 31.4305Z" fill="currentColor"/>
<path d="M44.292 10.2555C44.174 10.2558 44.057 10.2329 43.9479 10.1879C43.8388 10.1429 43.7396 10.0767 43.6561 9.99326C43.5727 9.90979 43.5065 9.81064 43.4615 9.70151C43.4165 9.59239 43.3936 9.47544 43.3939 9.3574V1.49923C43.3939 1.26104 43.4885 1.03261 43.657 0.86419C43.8254 0.695768 44.0538 0.601151 44.292 0.601151C44.5302 0.601151 44.7586 0.695768 44.927 0.86419C45.0955 1.03261 45.1901 1.26104 45.1901 1.49923V9.3574C45.1904 9.47543 45.1675 9.59238 45.1225 9.7015C45.0774 9.81062 45.0113 9.90977 44.9278 9.99323C44.8444 10.0767 44.7452 10.1428 44.6361 10.1878C44.527 10.2329 44.41 10.2558 44.292 10.2555Z" fill="currentColor"/>
<path d="M15.8902 30.8762C15.7722 30.8763 15.6554 30.8531 15.5464 30.808C15.4375 30.7629 15.3384 30.6967 15.255 30.6133C15.1716 30.5299 15.1055 30.4309 15.0604 30.3219C15.0152 30.2129 14.9921 30.0961 14.9921 29.9781V26.3577H11.2633C11.0251 26.3577 10.7967 26.2631 10.6283 26.0947C10.4599 25.9263 10.3652 25.6978 10.3652 25.4596C10.3652 25.2215 10.4599 24.993 10.6283 24.8246C10.7967 24.6562 11.0251 24.5616 11.2633 24.5616H15.245C15.6553 24.5626 16.0484 24.7265 16.3378 25.0173C16.6273 25.308 16.7894 25.7019 16.7886 26.1122V29.9781C16.7886 30.0961 16.7654 30.2129 16.7203 30.322C16.6752 30.431 16.609 30.53 16.5256 30.6134C16.4421 30.6968 16.3431 30.763 16.234 30.8081C16.125 30.8531 16.0082 30.8763 15.8902 30.8762Z" fill="currentColor"/>
<path d="M34.3501 10.7957H8.98646C8.74827 10.7957 8.51984 10.7011 8.35142 10.5327C8.183 10.3643 8.08838 10.1358 8.08838 9.89765C8.08838 9.65946 8.183 9.43103 8.35142 9.26261C8.51984 9.09419 8.74827 8.99957 8.98646 8.99957H34.3501C34.5883 8.99957 34.8168 9.09419 34.9852 9.26261C35.1536 9.43103 35.2482 9.65946 35.2482 9.89765C35.2482 10.1358 35.1536 10.3643 34.9852 10.5327C34.8168 10.7011 34.5883 10.7957 34.3501 10.7957Z" fill="currentColor"/>
<path d="M25.5024 16.97H1.57728C1.33909 16.97 1.11066 16.8754 0.942239 16.707C0.773817 16.5385 0.679199 16.3101 0.679199 16.0719C0.679199 15.8337 0.773817 15.6053 0.942239 15.4369C1.11066 15.2685 1.33909 15.1739 1.57728 15.1739H25.5024C25.7406 15.1739 25.969 15.2685 26.1374 15.4369C26.3059 15.6053 26.4005 15.8337 26.4005 16.0719C26.4005 16.3101 26.3059 16.5385 26.1374 16.707C25.969 16.8754 25.7406 16.97 25.5024 16.97Z" fill="currentColor"/>
<path d="M29.3477 21.4464H6.14136C5.90318 21.4464 5.67475 21.3517 5.50633 21.1833C5.3379 21.0149 5.24329 20.7865 5.24329 20.5483C5.24329 20.3101 5.3379 20.0817 5.50633 19.9132C5.67475 19.7448 5.90318 19.6502 6.14136 19.6502H29.3477C29.5858 19.6502 29.8143 19.7448 29.9827 19.9132C30.1511 20.0817 30.2457 20.3101 30.2457 20.5483C30.2457 20.7865 30.1511 21.0149 29.9827 21.1833C29.8143 21.3517 29.5858 21.4464 29.3477 21.4464Z" fill="currentColor"/>
</svg>
