<svg width="73" height="90" viewBox="0 0 73 90" fill="none" xmlns="http://www.w3.org/2000/svg">
<path d="M70.256 63.1792C69.4817 62.3175 68.5425 61.6198 67.4939 61.1273C66.4454 60.6348 65.3087 60.3575 64.1511 60.3118L48.5192 56.7043C48.4365 56.6548 48.3434 56.625 48.2473 56.6173C48.1512 56.6097 48.0546 56.6243 47.965 56.6601C47.8755 56.6959 47.7954 56.7519 47.7311 56.8238C47.6668 56.8956 47.6199 56.9814 47.5942 57.0743C47.4092 57.0743 47.3167 57.1664 47.1317 57.2593L46.7617 57.5368V48.5645L47.3167 48.287C49.3034 47.1488 50.9822 45.5428 52.2072 43.6084C53.4322 41.6741 54.1664 39.4699 54.3461 37.1873V31.7299C55.0063 31.9255 55.6926 32.0191 56.3811 32.0074C57.0981 32.1096 57.8285 31.9635 58.4511 31.5934C59.0736 31.2232 59.5508 30.6513 59.8035 29.9725C60.3585 28.3075 61.7459 21.7406 59.2485 19.8902C58.7722 19.5091 58.2225 19.2303 57.6337 19.0711C57.0448 18.912 56.4295 18.8759 55.8261 18.9652C55.4561 19.0577 55.1786 19.1502 54.9011 19.2427C55.6881 15.8927 55.3299 12.3755 53.8836 9.25296C52.9629 7.69881 51.4678 6.56918 49.7212 6.10804V6.01554C49.8004 5.70423 49.8166 5.38025 49.769 5.06258C49.7213 4.74492 49.6107 4.43996 49.4437 4.16558C47.2206 2.0284 44.2926 0.778207 41.2114 0.650662C41.1189 0.650662 39.269 0.373169 34.5516 0.188173H33.6266C31.326 0.0314448 29.0194 0.390227 26.8751 1.23835C24.7308 2.08647 22.8028 3.40254 21.2319 5.09056C18.3048 8.97812 17.0405 13.8686 17.717 18.6877C16.5541 18.8744 15.4294 19.2493 14.387 19.7977C11.3346 21.7402 13.0921 28.4 13.7396 30.065C14.2945 31.6374 16.052 32.0074 17.6245 32.0074C18.2763 32.0055 18.9265 31.9435 19.5669 31.8224V37.1873C19.7354 39.3225 20.3896 41.3909 21.4798 43.2345C22.5699 45.0781 24.067 46.6481 25.8568 47.8246C25.6718 47.9166 25.6718 48.102 25.6718 48.287V57.3518L25.5793 57.2593C25.3778 57.1554 25.1578 57.0925 24.9318 57.0743H24.8393C24.7473 56.9195 24.6068 56.7994 24.4396 56.7325C24.2723 56.6656 24.0877 56.6557 23.9143 56.7043L8.55968 60.3118C7.37142 60.3371 6.20079 60.6044 5.11933 61.0975C4.03787 61.5905 3.0683 62.2988 2.26983 63.1792C1.48464 63.9979 0.881023 64.9731 0.498411 66.041C0.115799 67.1089 -0.0371954 68.2455 0.0494215 69.3765L0.974399 84.4537C0.974961 84.6988 1.07259 84.9338 1.24594 85.1071C1.41929 85.2805 1.65423 85.3781 1.89938 85.3787H1.99188C2.26033 85.3506 2.50721 85.2188 2.67997 85.0114C2.85273 84.804 2.93772 84.5373 2.91685 84.2682L1.99188 69.2836C1.95032 68.4053 2.08435 67.5275 2.38611 66.7016C2.68788 65.8757 3.15133 65.1183 3.74934 64.4737C4.40941 63.787 5.19861 63.2373 6.07164 62.8564C6.94467 62.4754 7.88434 62.2706 8.83671 62.2538L24.1914 58.6463L24.4688 58.9238L35.8461 66.3237C36.0064 66.4435 36.2011 66.5083 36.4013 66.5083C36.6014 66.5083 36.7962 66.4435 36.9565 66.3237L48.1488 58.9238C48.2412 58.9238 48.2412 58.8313 48.3337 58.7388L63.8734 62.3463C64.7928 62.3452 65.7026 62.5335 66.5461 62.8996C67.3895 63.2656 68.1485 63.8014 68.7758 64.4737C69.379 65.1112 69.8396 65.8698 70.1268 66.6992C70.4139 67.5285 70.5212 68.4096 70.4413 69.2836L69.6088 84.2682C69.5899 84.403 69.5994 84.5403 69.6367 84.6711C69.6741 84.802 69.7383 84.9237 69.8254 85.0282C69.9125 85.1328 70.0206 85.218 70.1426 85.2784C70.2645 85.3387 70.3978 85.3729 70.5338 85.3787H70.6263C70.8714 85.378 71.1063 85.2803 71.2796 85.107C71.4529 84.9337 71.5506 84.6988 71.5512 84.4537L72.4762 69.3765C72.5412 68.2474 72.3781 67.1167 71.9966 66.052C71.6152 64.9873 71.0232 64.0102 70.256 63.1792ZM54.3464 22.2027C54.8112 21.5869 55.4587 21.1337 56.1963 20.9077C56.5263 20.8689 56.8606 20.8981 57.1788 20.9936C57.497 21.089 57.7922 21.2487 58.0463 21.4627C59.1563 22.2952 58.6938 26.8275 57.9538 29.4175C57.6763 30.25 55.5489 30.065 54.5314 29.695H54.3464V22.2027ZM48.889 7.86549C49.5765 8.02363 50.2253 8.31787 50.7972 8.73084C51.3691 9.14381 51.8526 9.66715 52.2189 10.27C53.421 13.2364 53.6478 16.5084 52.8664 19.6123C49.6572 17.9047 46.9234 15.4252 44.9116 12.3974C44.9116 12.3049 44.8191 12.3049 44.7266 12.2124C45.4842 11.455 46.1947 10.6518 46.8541 9.80748L48.519 7.68003C48.5629 7.73664 48.6189 7.78269 48.6829 7.81479C48.747 7.84689 48.8174 7.86421 48.889 7.86549ZM19.5672 29.695C17.9947 30.065 15.8673 30.065 15.5892 29.325C14.5718 26.8275 14.1093 22.2952 15.4047 21.4627C16.234 21.0887 17.1028 20.8094 17.9946 20.6302V20.7227L18.8271 20.8152H19.5671L19.5672 29.695ZM22.7121 6.38553C24.1091 4.92598 25.8131 3.79534 27.7009 3.07544C29.5886 2.35554 31.6128 2.06441 33.6269 2.22313H34.4593C36.6228 2.22642 38.7844 2.34994 40.9342 2.59312C43.485 2.61746 45.9314 3.60925 47.779 5.36805L45.2816 8.60548C42.2944 12.3984 38.3654 15.3422 33.886 17.1437C29.4067 18.9452 24.5335 19.5413 19.752 18.8727C19.044 14.4825 20.1087 9.99084 22.7119 6.38553H22.7121ZM21.6022 37.1873V21.0002H22.4346C30.0933 21.3027 37.5759 18.6539 43.3386 13.6004C45.6163 16.9378 48.7033 19.6429 52.3109 21.4627V37.1873C52.174 39.0891 51.5708 40.928 50.5544 42.5412C49.538 44.1545 48.1399 45.4925 46.4835 46.4371C43.2029 48.0367 39.6635 49.039 36.0313 49.397C33.0215 49.064 30.119 48.0859 27.5215 46.5296C25.8772 45.5389 24.4862 44.1788 23.4588 42.5573C22.4314 40.9357 21.7957 39.0972 21.6021 37.1873H21.6022ZM36.4018 64.2892L27.7076 58.6468V48.9345C30.2617 50.377 33.106 51.2303 36.0324 51.432C39.0315 51.2288 41.973 50.509 44.7272 49.3045V58.8318L36.4018 64.2892Z" fill="currentColor"/>
<path d="M54.6027 89.028H48.8216C47.485 89.0275 46.2032 88.4962 45.2581 87.5511C44.313 86.6059 43.7818 85.3242 43.7812 83.9875V72.877H59.6432V83.9875C59.6427 85.3242 59.1115 86.6059 58.1663 87.5511C57.2212 88.4962 55.9394 89.0275 54.6027 89.028ZM45.7686 74.8643V83.9875C45.7706 84.7966 46.0929 85.572 46.665 86.1441C47.2371 86.7163 48.0125 87.0386 48.8216 87.0407H54.6027C55.4119 87.0386 56.1873 86.7163 56.7594 86.1442C57.3315 85.572 57.6539 84.7966 57.6559 83.9875V74.8643H45.7686Z" fill="currentColor"/>
</svg>
