<svg id="a746a756-b4a2-475b-8672-1da57444fad7" xmlns="http://www.w3.org/2000/svg" viewBox="0 0 65 85"><path d="M15,18a8,8,0,0,1-8-8V8A8,8,0,0,1,23,8v2A8,8,0,0,1,15,18ZM15,2A6,6,0,0,0,9,8v2a6,6,0,0,0,12,0V8A6,6,0,0,0,15,2Z" fill="currentColor"/><path d="M24.64,56a1,1,0,0,1,0-2A3.36,3.36,0,0,0,28,50.64V28a6,6,0,0,0-6-6H8a6,6,0,0,0-6,6V50.64A3.36,3.36,0,0,0,5.36,54a1,1,0,0,1,0,2A5.36,5.36,0,0,1,0,50.64V28a8,8,0,0,1,8-8H22a8,8,0,0,1,8,8V50.64A5.36,5.36,0,0,1,24.64,56Z" fill="currentColor"/><path d="M24,85H6a1,1,0,0,1-1-1V29a1,1,0,0,1,2,0V83H23V29a1,1,0,0,1,2,0V84A1,1,0,0,1,24,85Z" fill="currentColor"/><path d="M15,84.5a1,1,0,0,1-1-1V52a1,1,0,0,1,2,0V83.5A1,1,0,0,1,15,84.5Z" fill="currentColor"/><path d="M27,85H2a1,1,0,0,1,0-2H27a1,1,0,0,1,0,2Z" fill="currentColor"/><path d="M59,82H37a6,6,0,0,1-6-6V63a6,6,0,0,1,6-6H59a6,6,0,0,1,6,6V76A6,6,0,0,1,59,82ZM37,59a4,4,0,0,0-4,4V76a4,4,0,0,0,4,4H59a4,4,0,0,0,4-4V63a4,4,0,0,0-4-4Z" fill="currentColor"/><path d="M53,58a1,1,0,0,1-1-1V55a1,1,0,0,0-1-1H44a1,1,0,0,0-1,1v2a1,1,0,0,1-2,0V55a3,3,0,0,1,3-3h7a3,3,0,0,1,3,3v2A1,1,0,0,1,53,58Z" fill="currentColor"/><path d="M39.5,85A2.5,2.5,0,1,1,42,82.5,2.5,2.5,0,0,1,39.5,85Zm0-3a.5.5,0,1,0,.5.5A.5.5,0,0,0,39.5,82Z" fill="currentColor"/><path d="M56.5,85A2.5,2.5,0,1,1,59,82.5,2.5,2.5,0,0,1,56.5,85Zm0-3a.5.5,0,1,0,.5.5A.5.5,0,0,0,56.5,82Z" fill="currentColor"/></svg>
