<svg width="106" height="74" viewBox="0 0 106 74" fill="none" xmlns="http://www.w3.org/2000/svg">
<path d="M23.4242 57.9615C22.8821 56.214 21.7853 54.6907 20.2998 53.6225C18.8143 52.5543 17.0211 51.9993 15.1919 52.0416H6.58963C5.4429 52.0068 4.31317 52.3253 3.35353 52.954C2.39389 53.5828 1.65073 54.4913 1.22476 55.5566L0.947266 56.1115C1.13226 56.6665 1.31726 57.2215 1.59475 57.869L2.14974 59.2565C2.2889 59.5582 2.4124 59.867 2.51973 60.1815H11.122V67.6738H8.99458C8.7665 67.6792 8.54362 67.7429 8.34709 67.8588C8.12402 66.9839 7.65838 66.1898 7.00381 65.568C6.34923 64.9461 5.53233 64.5218 4.64718 64.3439C5.66143 66.4843 6.86891 68.5277 8.25459 70.4487C8.37054 70.2522 8.43422 70.0293 8.43959 69.8012C8.60833 69.9038 8.79803 69.9671 8.99458 69.9862H19.2618C19.4199 69.9944 19.5777 69.9652 19.7224 69.9009C19.8671 69.8366 19.9945 69.7391 20.0943 69.6162C20.2122 70.7845 20.7605 71.8671 21.6324 72.6535C22.5043 73.4399 23.6375 73.8739 24.8117 73.8711C25.9681 73.8638 27.0827 73.4384 27.9498 72.6733C28.8169 71.9082 29.3779 70.8552 29.5291 69.7087C29.7301 69.8942 29.9957 69.9938 30.2691 69.9862H31.4715C32.2432 70.0662 33.0153 69.8394 33.6211 69.3548C34.2268 68.8702 34.6176 68.1667 34.709 67.3963V66.8413C34.7093 62.3089 29.8067 58.5165 23.4242 57.9615ZM2.70472 57.869L3.35221 56.389C3.62701 55.7654 4.08222 55.2383 4.6592 54.8756C5.23618 54.513 5.90852 54.3313 6.58963 54.3541H11.122V57.314C11.1412 57.5106 11.2044 57.7003 11.307 57.869H2.70472ZM13.4345 57.314V54.3541H15.1919C16.3769 54.304 17.5494 54.6127 18.5561 55.2398C19.5628 55.867 20.3568 56.7833 20.8343 57.869H13.2495C13.3521 57.7003 13.4153 57.5106 13.4344 57.314H13.4345ZM24.8117 71.5587C24.3178 71.5587 23.8349 71.4122 23.4242 71.1378C23.0135 70.8634 22.6934 70.4733 22.5044 70.017C22.3153 69.5606 22.2659 69.0585 22.3623 68.574C22.4586 68.0896 22.6965 67.6446 23.0457 67.2953C23.395 66.946 23.84 66.7082 24.3245 66.6118C24.8089 66.5154 25.3111 66.5649 25.7674 66.7539C26.2238 66.9429 26.6138 67.263 26.8883 67.6737C27.1627 68.0844 27.3091 68.5673 27.3091 69.0613C27.3105 69.3896 27.2469 69.7149 27.1219 70.0186C26.9969 70.3222 26.813 70.598 26.5809 70.8302C26.3487 71.0624 26.0729 71.2463 25.7693 71.3713C25.4657 71.4964 25.1403 71.56 24.812 71.5587H24.8117ZM32.3965 67.3038C32.2766 67.4265 32.1324 67.5228 31.9731 67.5865C31.8139 67.6503 31.643 67.68 31.4715 67.6738H30.2691C29.9957 67.6664 29.7302 67.766 29.5291 67.9513H29.4366C29.1979 66.9023 28.6106 65.9653 27.7705 65.2933C26.9305 64.6213 25.8875 64.254 24.8117 64.2514C23.7249 64.2519 22.6697 64.6166 21.8145 65.2873C20.9594 65.958 20.3538 66.8959 20.0943 67.9513C19.8576 67.7646 19.5632 67.6665 19.2618 67.6738H13.4345V60.1815H21.8518C27.6791 60.1815 32.3965 63.1414 32.3965 66.8413V67.3038Z" fill="currentColor"/>
<path d="M42.8468 18.4623C42.3657 17.9672 41.7907 17.5731 41.1554 17.3031C40.52 17.033 39.8372 16.8926 39.1469 16.8899C38.4643 16.8688 37.7845 16.9846 37.1474 17.2305C36.5103 17.4763 35.929 17.8473 35.4376 18.3214C34.9462 18.7956 34.5547 19.3634 34.2862 19.9912C34.0178 20.6191 33.8778 21.2944 33.8745 21.9773C33.8593 22.6757 33.9822 23.3703 34.2361 24.0211C34.4901 24.6719 34.8702 25.2661 35.3544 25.7697C36.3638 26.7136 37.6743 27.2705 39.0544 27.3421C40.0863 27.3498 41.0974 27.0522 41.9606 26.4868C42.8239 25.9214 43.5007 25.1134 43.906 24.1644C44.3113 23.2154 44.427 22.1678 44.2385 21.1532C44.0501 20.1387 43.5658 19.2025 42.8468 18.4623ZM39.0544 25.0297C38.292 24.9565 37.5758 24.631 37.0194 24.1047C36.6203 23.7018 36.3492 23.1899 36.2401 22.6333C36.131 22.0768 36.1888 21.5004 36.4062 20.9766C36.6237 20.4528 36.991 20.005 37.4622 19.6893C37.9333 19.3736 38.4872 19.2042 39.0544 19.2023C39.4505 19.1485 39.8538 19.1968 40.2261 19.3424C40.5984 19.4881 40.9274 19.7264 41.1818 20.0348C41.4559 20.3156 41.6708 20.6486 41.8139 21.0141C41.9569 21.3795 42.025 21.77 42.0143 22.1622C41.9895 22.9309 41.6668 23.6598 41.1144 24.1949C40.562 24.73 39.8232 25.0294 39.0541 25.0297H39.0544ZM42.8468 18.4623C42.3657 17.9672 41.7907 17.5731 41.1554 17.3031C40.52 17.033 39.8372 16.8926 39.1469 16.8899C38.4643 16.8688 37.7845 16.9846 37.1474 17.2305C36.5103 17.4763 35.929 17.8473 35.4376 18.3214C34.9462 18.7956 34.5547 19.3634 34.2862 19.9912C34.0178 20.6191 33.8778 21.2944 33.8745 21.9773C33.8593 22.6757 33.9822 23.3703 34.2361 24.0211C34.4901 24.6719 34.8702 25.2661 35.3544 25.7697C36.3638 26.7136 37.6743 27.2705 39.0544 27.3421C40.0863 27.3498 41.0974 27.0522 41.9606 26.4868C42.8239 25.9214 43.5007 25.1134 43.906 24.1644C44.3113 23.2154 44.427 22.1678 44.2385 21.1532C44.0501 20.1387 43.5658 19.2025 42.8468 18.4623ZM39.0544 25.0297C38.292 24.9565 37.5758 24.631 37.0194 24.1047C36.6203 23.7018 36.3492 23.1899 36.2401 22.6333C36.131 22.0768 36.1888 21.5004 36.4062 20.9766C36.6237 20.4528 36.991 20.005 37.4622 19.6893C37.9333 19.3736 38.4872 19.2042 39.0544 19.2023C39.4505 19.1485 39.8538 19.1968 40.2261 19.3424C40.5984 19.4881 40.9274 19.7264 41.1818 20.0348C41.4559 20.3156 41.6708 20.6486 41.8139 21.0141C41.9569 21.3795 42.025 21.77 42.0143 22.1622C41.9895 22.9309 41.6668 23.6598 41.1144 24.1949C40.562 24.73 39.8232 25.0294 39.0541 25.0297H39.0544ZM42.8468 18.4623C42.3657 17.9672 41.7907 17.5731 41.1554 17.3031C40.52 17.033 39.8372 16.8926 39.1469 16.8899C38.4643 16.8688 37.7845 16.9846 37.1474 17.2305C36.5103 17.4763 35.929 17.8473 35.4376 18.3214C34.9462 18.7956 34.5547 19.3634 34.2862 19.9912C34.0178 20.6191 33.8778 21.2944 33.8745 21.9773C33.8593 22.6757 33.9822 23.3703 34.2361 24.0211C34.4901 24.6719 34.8702 25.2661 35.3544 25.7697C36.3638 26.7136 37.6743 27.2705 39.0544 27.3421C40.0863 27.3498 41.0974 27.0522 41.9606 26.4868C42.8239 25.9214 43.5007 25.1134 43.906 24.1644C44.3113 23.2154 44.427 22.1678 44.2385 21.1532C44.0501 20.1387 43.5658 19.2025 42.8468 18.4623ZM39.0544 25.0297C38.292 24.9565 37.5758 24.631 37.0194 24.1047C36.6203 23.7018 36.3492 23.1899 36.2401 22.6333C36.131 22.0768 36.1888 21.5004 36.4062 20.9766C36.6237 20.4528 36.991 20.005 37.4622 19.6893C37.9333 19.3736 38.4872 19.2042 39.0544 19.2023C39.4505 19.1485 39.8538 19.1968 40.2261 19.3424C40.5984 19.4881 40.9274 19.7264 41.1818 20.0348C41.4559 20.3156 41.6708 20.6486 41.8139 21.0141C41.9569 21.3795 42.025 21.77 42.0143 22.1622C41.9895 22.9309 41.6668 23.6598 41.1144 24.1949C40.562 24.73 39.8232 25.0294 39.0541 25.0297H39.0544ZM42.8468 18.4623C42.3657 17.9672 41.7907 17.5731 41.1554 17.3031C40.52 17.033 39.8372 16.8926 39.1469 16.8899C38.4643 16.8688 37.7845 16.9846 37.1474 17.2305C36.5103 17.4763 35.929 17.8473 35.4376 18.3214C34.9462 18.7956 34.5547 19.3634 34.2862 19.9912C34.0178 20.6191 33.8778 21.2944 33.8745 21.9773C33.8593 22.6757 33.9822 23.3703 34.2361 24.0211C34.4901 24.6719 34.8702 25.2661 35.3544 25.7697C36.3638 26.7136 37.6743 27.2705 39.0544 27.3421C40.0863 27.3498 41.0974 27.0522 41.9606 26.4868C42.8239 25.9214 43.5007 25.1134 43.906 24.1644C44.3113 23.2154 44.427 22.1678 44.2385 21.1532C44.0501 20.1387 43.5658 19.2025 42.8468 18.4623ZM39.0544 25.0297C38.292 24.9565 37.5758 24.631 37.0194 24.1047C36.6203 23.7018 36.3492 23.1899 36.2401 22.6333C36.131 22.0768 36.1888 21.5004 36.4062 20.9766C36.6237 20.4528 36.991 20.005 37.4622 19.6893C37.9333 19.3736 38.4872 19.2042 39.0544 19.2023C39.4505 19.1485 39.8538 19.1968 40.2261 19.3424C40.5984 19.4881 40.9274 19.7264 41.1818 20.0348C41.4559 20.3156 41.6708 20.6486 41.8139 21.0141C41.9569 21.3795 42.025 21.77 42.0143 22.1622C41.9895 22.9309 41.6668 23.6598 41.1144 24.1949C40.562 24.73 39.8232 25.0294 39.0541 25.0297H39.0544ZM42.8468 18.4623C42.3657 17.9672 41.7907 17.5731 41.1554 17.3031C40.52 17.033 39.8372 16.8926 39.1469 16.8899C38.4643 16.8688 37.7845 16.9846 37.1474 17.2305C36.5103 17.4763 35.929 17.8473 35.4376 18.3214C34.9462 18.7956 34.5547 19.3634 34.2862 19.9912C34.0178 20.6191 33.8778 21.2944 33.8745 21.9773C33.8593 22.6757 33.9822 23.3703 34.2361 24.0211C34.4901 24.6719 34.8702 25.2661 35.3544 25.7697C36.3638 26.7136 37.6743 27.2705 39.0544 27.3421C40.0863 27.3498 41.0974 27.0522 41.9606 26.4868C42.8239 25.9214 43.5007 25.1134 43.906 24.1644C44.3113 23.2154 44.427 22.1678 44.2385 21.1532C44.0501 20.1387 43.5658 19.2025 42.8468 18.4623ZM39.0544 25.0297C38.292 24.9565 37.5758 24.631 37.0194 24.1047C36.6203 23.7018 36.3492 23.1899 36.2401 22.6333C36.131 22.0768 36.1888 21.5004 36.4062 20.9766C36.6237 20.4528 36.991 20.005 37.4622 19.6893C37.9333 19.3736 38.4872 19.2042 39.0544 19.2023C39.4505 19.1485 39.8538 19.1968 40.2261 19.3424C40.5984 19.4881 40.9274 19.7264 41.1818 20.0348C41.4559 20.3156 41.6708 20.6486 41.8139 21.0141C41.9569 21.3795 42.025 21.77 42.0143 22.1622C41.9895 22.9309 41.6668 23.6598 41.1144 24.1949C40.562 24.73 39.8232 25.0294 39.0541 25.0297H39.0544ZM42.8468 18.4623C42.3657 17.9672 41.7907 17.5731 41.1554 17.3031C40.52 17.033 39.8372 16.8926 39.1469 16.8899C38.4643 16.8688 37.7845 16.9846 37.1474 17.2305C36.5103 17.4763 35.929 17.8473 35.4376 18.3214C34.9462 18.7956 34.5547 19.3634 34.2862 19.9912C34.0178 20.6191 33.8778 21.2944 33.8745 21.9773C33.8593 22.6757 33.9822 23.3703 34.2361 24.0211C34.4901 24.6719 34.8702 25.2661 35.3544 25.7697C36.3638 26.7136 37.6743 27.2705 39.0544 27.3421C40.0863 27.3498 41.0974 27.0522 41.9606 26.4868C42.8239 25.9214 43.5007 25.1134 43.906 24.1644C44.3113 23.2154 44.427 22.1678 44.2385 21.1532C44.0501 20.1387 43.5658 19.2025 42.8468 18.4623ZM39.0544 25.0297C38.292 24.9565 37.5758 24.631 37.0194 24.1047C36.6203 23.7018 36.3492 23.1899 36.2401 22.6333C36.131 22.0768 36.1888 21.5004 36.4062 20.9766C36.6237 20.4528 36.991 20.005 37.4622 19.6893C37.9333 19.3736 38.4872 19.2042 39.0544 19.2023C39.4505 19.1485 39.8538 19.1968 40.2261 19.3424C40.5984 19.4881 40.9274 19.7264 41.1818 20.0348C41.4559 20.3156 41.6708 20.6486 41.8139 21.0141C41.9569 21.3795 42.025 21.77 42.0143 22.1622C41.9895 22.9309 41.6668 23.6598 41.1144 24.1949C40.562 24.73 39.8232 25.0294 39.0541 25.0297H39.0544ZM39.0544 13.0975C38.7737 13.0823 38.4924 13.1136 38.2219 13.19C36.99 13.2788 35.7914 13.6302 34.7066 14.2205C33.6217 14.8108 32.6757 15.6263 31.932 16.6124C31.158 17.5764 30.5936 18.6913 30.2751 19.8859C29.9565 21.0804 29.8908 22.3283 30.0821 23.5497C30.3743 25.0776 30.8398 26.5672 31.4695 27.9896C32.6741 30.4099 34.1647 32.6769 35.9094 34.7419L37.2969 36.4069L38.1294 37.4244L39.2394 38.0719L40.0718 37.2394C41.6734 35.6134 43.1282 33.8491 44.4192 31.967C45.636 30.2162 46.6303 28.3209 47.3792 26.3246C47.9854 24.7017 48.2071 22.9603 48.0266 21.2373C47.8061 19.0097 46.766 16.9434 45.108 15.4393C43.4501 13.9353 41.2926 13.1007 39.0541 13.0975H39.0544ZM45.1592 25.4922C44.525 27.3415 43.6211 29.0869 42.4768 30.672C41.4214 32.157 40.2785 33.5778 39.0544 34.9269L37.6669 33.262C36.0455 31.3827 34.6772 29.2992 33.597 27.0646C32.9999 25.8388 32.5944 24.5286 32.3945 23.1797C32.2667 22.273 32.3218 21.3498 32.5565 20.4647C32.7913 19.5796 33.201 18.7505 33.7614 18.0263C34.3217 17.3021 35.0215 16.6974 35.8194 16.2481C36.6173 15.7987 37.4971 15.5137 38.4069 15.4099H39.0544C40.721 15.4107 42.3294 16.0234 43.5741 17.1317C44.8189 18.2401 45.6133 19.7669 45.8067 21.4223C45.8958 22.8101 45.6746 24.2005 45.1592 25.4922ZM39.1469 16.8899C38.4643 16.8688 37.7845 16.9846 37.1474 17.2305C36.5103 17.4763 35.929 17.8473 35.4376 18.3214C34.9462 18.7956 34.5547 19.3634 34.2862 19.9912C34.0178 20.6191 33.8778 21.2944 33.8745 21.9773C33.8593 22.6757 33.9822 23.3703 34.2361 24.0211C34.4901 24.6719 34.8702 25.2661 35.3544 25.7697C36.3638 26.7136 37.6743 27.2705 39.0544 27.3421C40.0863 27.3498 41.0974 27.0522 41.9606 26.4868C42.8239 25.9214 43.5007 25.1134 43.906 24.1644C44.3113 23.2154 44.427 22.1678 44.2385 21.1532C44.0501 20.1387 43.5658 19.2025 42.8468 18.4623C42.3657 17.9672 41.7906 17.573 41.1553 17.303C40.5199 17.033 39.837 16.8925 39.1467 16.8899H39.1469ZM39.0544 25.0297C38.292 24.9565 37.5758 24.631 37.0194 24.1047C36.6203 23.7018 36.3492 23.1899 36.2401 22.6333C36.131 22.0768 36.1888 21.5004 36.4062 20.9766C36.6237 20.4528 36.991 20.005 37.4622 19.6893C37.9333 19.3736 38.4872 19.2042 39.0544 19.2023C39.4505 19.1485 39.8538 19.1968 40.2261 19.3424C40.5984 19.4881 40.9274 19.7264 41.1818 20.0348C41.4559 20.3156 41.6708 20.6486 41.8139 21.0141C41.9569 21.3795 42.025 21.77 42.0143 22.1622C41.9895 22.9309 41.6668 23.6598 41.1144 24.1949C40.562 24.73 39.8232 25.0294 39.0541 25.0297H39.0544ZM42.8468 18.4623C42.3657 17.9672 41.7907 17.5731 41.1554 17.3031C40.52 17.033 39.8372 16.8926 39.1469 16.8899C38.4643 16.8688 37.7845 16.9846 37.1474 17.2305C36.5103 17.4763 35.929 17.8473 35.4376 18.3214C34.9462 18.7956 34.5547 19.3634 34.2862 19.9912C34.0178 20.6191 33.8778 21.2944 33.8745 21.9773C33.8593 22.6757 33.9822 23.3703 34.2361 24.0211C34.4901 24.6719 34.8702 25.2661 35.3544 25.7697C36.3638 26.7136 37.6743 27.2705 39.0544 27.3421C40.0863 27.3498 41.0974 27.0522 41.9606 26.4868C42.8239 25.9214 43.5007 25.1134 43.906 24.1644C44.3113 23.2154 44.427 22.1678 44.2385 21.1532C44.0501 20.1387 43.5658 19.2025 42.8468 18.4623ZM39.0544 25.0297C38.292 24.9565 37.5758 24.631 37.0194 24.1047C36.6203 23.7018 36.3492 23.1899 36.2401 22.6333C36.131 22.0768 36.1888 21.5004 36.4062 20.9766C36.6237 20.4528 36.991 20.005 37.4622 19.6893C37.9333 19.3736 38.4872 19.2042 39.0544 19.2023C39.4505 19.1485 39.8538 19.1968 40.2261 19.3424C40.5984 19.4881 40.9274 19.7264 41.1818 20.0348C41.4559 20.3156 41.6708 20.6486 41.8139 21.0141C41.9569 21.3795 42.025 21.77 42.0143 22.1622C41.9895 22.9309 41.6668 23.6598 41.1144 24.1949C40.562 24.73 39.8232 25.0294 39.0541 25.0297H39.0544ZM42.8468 18.4623C42.3657 17.9672 41.7907 17.5731 41.1554 17.3031C40.52 17.033 39.8372 16.8926 39.1469 16.8899C38.4643 16.8688 37.7845 16.9846 37.1474 17.2305C36.5103 17.4763 35.929 17.8473 35.4376 18.3214C34.9462 18.7956 34.5547 19.3634 34.2862 19.9912C34.0178 20.6191 33.8778 21.2944 33.8745 21.9773C33.8593 22.6757 33.9822 23.3703 34.2361 24.0211C34.4901 24.6719 34.8702 25.2661 35.3544 25.7697C36.3638 26.7136 37.6743 27.2705 39.0544 27.3421C40.0863 27.3498 41.0974 27.0522 41.9606 26.4868C42.8239 25.9214 43.5007 25.1134 43.906 24.1644C44.3113 23.2154 44.427 22.1678 44.2385 21.1532C44.0501 20.1387 43.5658 19.2025 42.8468 18.4623ZM39.0544 25.0297C38.292 24.9565 37.5758 24.631 37.0194 24.1047C36.6203 23.7018 36.3492 23.1899 36.2401 22.6333C36.131 22.0768 36.1888 21.5004 36.4062 20.9766C36.6237 20.4528 36.991 20.005 37.4622 19.6893C37.9333 19.3736 38.4872 19.2042 39.0544 19.2023C39.4505 19.1485 39.8538 19.1968 40.2261 19.3424C40.5984 19.4881 40.9274 19.7264 41.1818 20.0348C41.4559 20.3156 41.6708 20.6486 41.8139 21.0141C41.9569 21.3795 42.025 21.77 42.0143 22.1622C41.9895 22.9309 41.6668 23.6598 41.1144 24.1949C40.562 24.73 39.8232 25.0294 39.0541 25.0297H39.0544ZM42.8468 18.4623C42.3657 17.9672 41.7907 17.5731 41.1554 17.3031C40.52 17.033 39.8372 16.8926 39.1469 16.8899C38.4643 16.8688 37.7845 16.9846 37.1474 17.2305C36.5103 17.4763 35.929 17.8473 35.4376 18.3214C34.9462 18.7956 34.5547 19.3634 34.2862 19.9912C34.0178 20.6191 33.8778 21.2944 33.8745 21.9773C33.8593 22.6757 33.9822 23.3703 34.2361 24.0211C34.4901 24.6719 34.8702 25.2661 35.3544 25.7697C36.3638 26.7136 37.6743 27.2705 39.0544 27.3421C40.0863 27.3498 41.0974 27.0522 41.9606 26.4868C42.8239 25.9214 43.5007 25.1134 43.906 24.1644C44.3113 23.2154 44.427 22.1678 44.2385 21.1532C44.0501 20.1387 43.5658 19.2025 42.8468 18.4623ZM39.0544 25.0297C38.292 24.9565 37.5758 24.631 37.0194 24.1047C36.6203 23.7018 36.3492 23.1899 36.2401 22.6333C36.131 22.0768 36.1888 21.5004 36.4062 20.9766C36.6237 20.4528 36.991 20.005 37.4622 19.6893C37.9333 19.3736 38.4872 19.2042 39.0544 19.2023C39.4505 19.1485 39.8538 19.1968 40.2261 19.3424C40.5984 19.4881 40.9274 19.7264 41.1818 20.0348C41.4559 20.3156 41.6708 20.6486 41.8139 21.0141C41.9569 21.3795 42.025 21.77 42.0143 22.1622C41.9895 22.9309 41.6668 23.6598 41.1144 24.1949C40.562 24.73 39.8232 25.0294 39.0541 25.0297H39.0544ZM42.8468 18.4623C42.3657 17.9672 41.7907 17.5731 41.1554 17.3031C40.52 17.033 39.8372 16.8926 39.1469 16.8899C38.4643 16.8688 37.7845 16.9846 37.1474 17.2305C36.5103 17.4763 35.929 17.8473 35.4376 18.3214C34.9462 18.7956 34.5547 19.3634 34.2862 19.9912C34.0178 20.6191 33.8778 21.2944 33.8745 21.9773C33.8593 22.6757 33.9822 23.3703 34.2361 24.0211C34.4901 24.6719 34.8702 25.2661 35.3544 25.7697C36.3638 26.7136 37.6743 27.2705 39.0544 27.3421C40.0863 27.3498 41.0974 27.0522 41.9606 26.4868C42.8239 25.9214 43.5007 25.1134 43.906 24.1644C44.3113 23.2154 44.427 22.1678 44.2385 21.1532C44.0501 20.1387 43.5658 19.2025 42.8468 18.4623ZM39.0544 25.0297C38.292 24.9565 37.5758 24.631 37.0194 24.1047C36.6203 23.7018 36.3492 23.1899 36.2401 22.6333C36.131 22.0768 36.1888 21.5004 36.4062 20.9766C36.6237 20.4528 36.991 20.005 37.4622 19.6893C37.9333 19.3736 38.4872 19.2042 39.0544 19.2023C39.4505 19.1485 39.8538 19.1968 40.2261 19.3424C40.5984 19.4881 40.9274 19.7264 41.1818 20.0348C41.4559 20.3156 41.6708 20.6486 41.8139 21.0141C41.9569 21.3795 42.025 21.77 42.0143 22.1622C41.9895 22.9309 41.6668 23.6598 41.1144 24.1949C40.562 24.73 39.8232 25.0294 39.0541 25.0297H39.0544ZM42.8468 18.4623C42.3657 17.9672 41.7907 17.5731 41.1554 17.3031C40.52 17.033 39.8372 16.8926 39.1469 16.8899C38.4643 16.8688 37.7845 16.9846 37.1474 17.2305C36.5103 17.4763 35.929 17.8473 35.4376 18.3214C34.9462 18.7956 34.5547 19.3634 34.2862 19.9912C34.0178 20.6191 33.8778 21.2944 33.8745 21.9773C33.8593 22.6757 33.9822 23.3703 34.2361 24.0211C34.4901 24.6719 34.8702 25.2661 35.3544 25.7697C36.3638 26.7136 37.6743 27.2705 39.0544 27.3421C40.0863 27.3498 41.0974 27.0522 41.9606 26.4868C42.8239 25.9214 43.5007 25.1134 43.906 24.1644C44.3113 23.2154 44.427 22.1678 44.2385 21.1532C44.0501 20.1387 43.5658 19.2025 42.8468 18.4623ZM39.0544 25.0297C38.292 24.9565 37.5758 24.631 37.0194 24.1047C36.6203 23.7018 36.3492 23.1899 36.2401 22.6333C36.131 22.0768 36.1888 21.5004 36.4062 20.9766C36.6237 20.4528 36.991 20.005 37.4622 19.6893C37.9333 19.3736 38.4872 19.2042 39.0544 19.2023C39.4505 19.1485 39.8538 19.1968 40.2261 19.3424C40.5984 19.4881 40.9274 19.7264 41.1818 20.0348C41.4559 20.3156 41.6708 20.6486 41.8139 21.0141C41.9569 21.3795 42.025 21.77 42.0143 22.1622C41.9895 22.9309 41.6668 23.6598 41.1144 24.1949C40.562 24.73 39.8232 25.0294 39.0541 25.0297H39.0544ZM42.8468 18.4623C42.3657 17.9672 41.7907 17.5731 41.1554 17.3031C40.52 17.033 39.8372 16.8926 39.1469 16.8899C38.4643 16.8688 37.7845 16.9846 37.1474 17.2305C36.5103 17.4763 35.929 17.8473 35.4376 18.3214C34.9462 18.7956 34.5547 19.3634 34.2862 19.9912C34.0178 20.6191 33.8778 21.2944 33.8745 21.9773C33.8593 22.6757 33.9822 23.3703 34.2361 24.0211C34.4901 24.6719 34.8702 25.2661 35.3544 25.7697C36.3638 26.7136 37.6743 27.2705 39.0544 27.3421C40.0863 27.3498 41.0974 27.0522 41.9606 26.4868C42.8239 25.9214 43.5007 25.1134 43.906 24.1644C44.3113 23.2154 44.427 22.1678 44.2385 21.1532C44.0501 20.1387 43.5658 19.2025 42.8468 18.4623ZM39.0544 25.0297C38.292 24.9565 37.5758 24.631 37.0194 24.1047C36.6203 23.7018 36.3492 23.1899 36.2401 22.6333C36.131 22.0768 36.1888 21.5004 36.4062 20.9766C36.6237 20.4528 36.991 20.005 37.4622 19.6893C37.9333 19.3736 38.4872 19.2042 39.0544 19.2023C39.4505 19.1485 39.8538 19.1968 40.2261 19.3424C40.5984 19.4881 40.9274 19.7264 41.1818 20.0348C41.4559 20.3156 41.6708 20.6486 41.8139 21.0141C41.9569 21.3795 42.025 21.77 42.0143 22.1622C41.9895 22.9309 41.6668 23.6598 41.1144 24.1949C40.562 24.73 39.8232 25.0294 39.0541 25.0297H39.0544Z" fill="currentColor"/>
<path d="M82.6211 5.3278C82.1401 4.83263 81.5651 4.43848 80.9297 4.16846C80.2944 3.89844 79.6115 3.75798 78.9212 3.75533H78.8287C78.1481 3.75422 77.474 3.88746 76.845 4.14741C76.216 4.40736 75.6446 4.78891 75.1633 5.27017C74.6821 5.75144 74.3006 6.32296 74.0407 6.95197C73.7808 7.58097 73.6477 8.25509 73.6488 8.93567C73.6431 10.3197 74.184 11.6501 75.1541 12.6374C76.1241 13.6247 77.4447 14.189 78.8287 14.2076H78.9212C80.265 14.1758 81.5497 13.6487 82.5286 12.7276C83.0238 12.2466 83.4179 11.6716 83.688 11.0362C83.958 10.4009 84.0984 9.71804 84.1011 9.02771C84.1157 8.34319 83.9921 7.66275 83.7379 7.02704C83.4836 6.39134 83.1038 5.81341 82.6211 5.3278ZM80.8636 11.0627C80.6138 11.3267 80.3126 11.5367 79.9786 11.6799C79.6445 11.8231 79.2846 11.8963 78.9212 11.8951H78.8287C78.0559 11.8951 77.3148 11.5882 76.7684 11.0417C76.222 10.4953 75.915 9.75422 75.915 8.98146C75.915 8.2087 76.222 7.4676 76.7684 6.92118C77.3148 6.37476 78.0559 6.06778 78.8287 6.06778H78.9212C79.6742 6.10687 80.3916 6.40037 80.9561 6.90026C81.4812 7.48576 81.7769 8.24135 81.7886 9.02771C81.7569 9.80057 81.4251 10.5306 80.8636 11.0627ZM82.6211 5.3278C82.1401 4.83263 81.5651 4.43848 80.9297 4.16846C80.2944 3.89844 79.6115 3.75798 78.9212 3.75533H78.8287C78.1481 3.75422 77.474 3.88746 76.845 4.14741C76.216 4.40736 75.6446 4.78891 75.1633 5.27017C74.6821 5.75144 74.3006 6.32296 74.0407 6.95197C73.7808 7.58097 73.6477 8.25509 73.6488 8.93567C73.6431 10.3197 74.184 11.6501 75.1541 12.6374C76.1241 13.6247 77.4447 14.189 78.8287 14.2076H78.9212C80.265 14.1758 81.5497 13.6487 82.5286 12.7276C83.0238 12.2466 83.4179 11.6716 83.688 11.0362C83.958 10.4009 84.0984 9.71804 84.1011 9.02771C84.1157 8.34319 83.9921 7.66275 83.7379 7.02704C83.4836 6.39134 83.1038 5.81341 82.6211 5.3278ZM80.8636 11.0627C80.6138 11.3267 80.3126 11.5367 79.9786 11.6799C79.6445 11.8231 79.2846 11.8963 78.9212 11.8951H78.8287C78.0559 11.8951 77.3148 11.5882 76.7684 11.0417C76.222 10.4953 75.915 9.75422 75.915 8.98146C75.915 8.2087 76.222 7.4676 76.7684 6.92118C77.3148 6.37476 78.0559 6.06778 78.8287 6.06778H78.9212C79.6742 6.10687 80.3916 6.40037 80.9561 6.90026C81.4812 7.48576 81.7769 8.24135 81.7886 9.02771C81.7569 9.80057 81.4251 10.5306 80.8636 11.0627ZM82.6211 5.3278C82.1401 4.83263 81.5651 4.43848 80.9297 4.16846C80.2944 3.89844 79.6115 3.75798 78.9212 3.75533H78.8287C78.1481 3.75422 77.474 3.88746 76.845 4.14741C76.216 4.40736 75.6446 4.78891 75.1633 5.27017C74.6821 5.75144 74.3006 6.32296 74.0407 6.95197C73.7808 7.58097 73.6477 8.25509 73.6488 8.93567C73.6431 10.3197 74.184 11.6501 75.1541 12.6374C76.1241 13.6247 77.4447 14.189 78.8287 14.2076H78.9212C80.265 14.1758 81.5497 13.6487 82.5286 12.7276C83.0238 12.2466 83.4179 11.6716 83.688 11.0362C83.958 10.4009 84.0984 9.71804 84.1011 9.02771C84.1157 8.34319 83.9921 7.66275 83.7379 7.02704C83.4836 6.39134 83.1038 5.81341 82.6211 5.3278ZM80.8636 11.0627C80.6138 11.3267 80.3126 11.5367 79.9786 11.6799C79.6445 11.8231 79.2846 11.8963 78.9212 11.8951H78.8287C78.0559 11.8951 77.3148 11.5882 76.7684 11.0417C76.222 10.4953 75.915 9.75422 75.915 8.98146C75.915 8.2087 76.222 7.4676 76.7684 6.92118C77.3148 6.37476 78.0559 6.06778 78.8287 6.06778H78.9212C79.6742 6.10687 80.3916 6.40037 80.9561 6.90026C81.4812 7.48576 81.7769 8.24135 81.7886 9.02771C81.7569 9.80057 81.4251 10.5306 80.8636 11.0627ZM82.6211 5.3278C82.1401 4.83263 81.5651 4.43848 80.9297 4.16846C80.2944 3.89844 79.6115 3.75798 78.9212 3.75533H78.8287C78.1481 3.75422 77.474 3.88746 76.845 4.14741C76.216 4.40736 75.6446 4.78891 75.1633 5.27017C74.6821 5.75144 74.3006 6.32296 74.0407 6.95197C73.7808 7.58097 73.6477 8.25509 73.6488 8.93567C73.6431 10.3197 74.184 11.6501 75.1541 12.6374C76.1241 13.6247 77.4447 14.189 78.8287 14.2076H78.9212C80.265 14.1758 81.5497 13.6487 82.5286 12.7276C83.0238 12.2466 83.4179 11.6716 83.688 11.0362C83.958 10.4009 84.0984 9.71804 84.1011 9.02771C84.1157 8.34319 83.9921 7.66275 83.7379 7.02704C83.4836 6.39134 83.1038 5.81341 82.6211 5.3278ZM80.8636 11.0627C80.6138 11.3267 80.3126 11.5367 79.9786 11.6799C79.6445 11.8231 79.2846 11.8963 78.9212 11.8951H78.8287C78.0559 11.8951 77.3148 11.5882 76.7684 11.0417C76.222 10.4953 75.915 9.75422 75.915 8.98146C75.915 8.2087 76.222 7.4676 76.7684 6.92118C77.3148 6.37476 78.0559 6.06778 78.8287 6.06778H78.9212C79.6742 6.10687 80.3916 6.40037 80.9561 6.90026C81.4812 7.48576 81.7769 8.24135 81.7886 9.02771C81.7569 9.80057 81.4251 10.5306 80.8636 11.0627ZM82.6211 5.3278C82.1401 4.83263 81.5651 4.43848 80.9297 4.16846C80.2944 3.89844 79.6115 3.75798 78.9212 3.75533H78.8287C78.1481 3.75422 77.474 3.88746 76.845 4.14741C76.216 4.40736 75.6446 4.78891 75.1633 5.27017C74.6821 5.75144 74.3006 6.32296 74.0407 6.95197C73.7808 7.58097 73.6477 8.25509 73.6488 8.93567C73.6431 10.3197 74.184 11.6501 75.1541 12.6374C76.1241 13.6247 77.4447 14.189 78.8287 14.2076H78.9212C80.265 14.1758 81.5497 13.6487 82.5286 12.7276C83.0238 12.2466 83.4179 11.6716 83.688 11.0362C83.958 10.4009 84.0984 9.71804 84.1011 9.02771C84.1157 8.34319 83.9921 7.66275 83.7379 7.02704C83.4836 6.39134 83.1038 5.81341 82.6211 5.3278ZM80.8636 11.0627C80.6138 11.3267 80.3126 11.5367 79.9786 11.6799C79.6445 11.8231 79.2846 11.8963 78.9212 11.8951H78.8287C78.0559 11.8951 77.3148 11.5882 76.7684 11.0417C76.222 10.4953 75.915 9.75422 75.915 8.98146C75.915 8.2087 76.222 7.4676 76.7684 6.92118C77.3148 6.37476 78.0559 6.06778 78.8287 6.06778H78.9212C79.6742 6.10687 80.3916 6.40037 80.9561 6.90026C81.4812 7.48576 81.7769 8.24135 81.7886 9.02771C81.7569 9.80057 81.4251 10.5306 80.8636 11.0627ZM82.6211 5.3278C82.1401 4.83263 81.5651 4.43848 80.9297 4.16846C80.2944 3.89844 79.6115 3.75798 78.9212 3.75533H78.8287C78.1481 3.75422 77.474 3.88746 76.845 4.14741C76.216 4.40736 75.6446 4.78891 75.1633 5.27017C74.6821 5.75144 74.3006 6.32296 74.0407 6.95197C73.7808 7.58097 73.6477 8.25509 73.6488 8.93567C73.6431 10.3197 74.184 11.6501 75.1541 12.6374C76.1241 13.6247 77.4447 14.189 78.8287 14.2076H78.9212C80.265 14.1758 81.5497 13.6487 82.5286 12.7276C83.0238 12.2466 83.4179 11.6716 83.688 11.0362C83.958 10.4009 84.0984 9.71804 84.1011 9.02771C84.1157 8.34319 83.9921 7.66275 83.7379 7.02704C83.4836 6.39134 83.1038 5.81341 82.6211 5.3278ZM80.8636 11.0627C80.6138 11.3267 80.3126 11.5367 79.9786 11.6799C79.6445 11.8231 79.2846 11.8963 78.9212 11.8951H78.8287C78.0559 11.8951 77.3148 11.5882 76.7684 11.0417C76.222 10.4953 75.915 9.75422 75.915 8.98146C75.915 8.2087 76.222 7.4676 76.7684 6.92118C77.3148 6.37476 78.0559 6.06778 78.8287 6.06778H78.9212C79.6742 6.10687 80.3916 6.40037 80.9561 6.90026C81.4812 7.48576 81.7769 8.24135 81.7886 9.02771C81.7569 9.80057 81.4251 10.5306 80.8636 11.0627ZM77.9962 0.0554205C76.774 0.183471 75.5892 0.551737 74.5098 1.13906C73.4304 1.72639 72.4777 2.5212 71.7064 3.47784C70.2337 5.47267 69.5725 7.95192 69.8564 10.4152C70.1521 11.9835 70.6496 13.5069 71.3364 14.9476C72.4721 17.3854 73.9347 19.657 75.6838 21.6999C76.2388 22.2549 76.7012 22.9024 77.2562 23.5499L77.9962 24.2899L79.0137 25.1223L79.9387 24.1049C81.4844 22.4542 82.9065 20.6919 84.1936 18.8325C85.447 17.1042 86.444 15.2037 87.1535 13.1901C87.741 11.5616 87.9927 9.83109 87.8935 8.10273C87.6324 5.72982 86.4476 3.5551 84.5954 2.04908C82.7432 0.543068 80.3725 -0.173139 77.9962 0.0554205ZM84.9335 12.4501C84.2969 14.2697 83.3928 15.9843 82.2511 17.5375C81.2201 19.0698 80.0762 20.523 78.8287 21.8849L77.4412 20.2199C75.869 18.271 74.5049 16.1629 73.3713 13.9301C72.8035 12.6928 72.3992 11.3869 72.1689 10.0452C72.0514 9.14507 72.1143 8.23056 72.3541 7.35504C72.5938 6.47953 73.0056 5.66053 73.5653 4.94585C74.1249 4.23117 74.8214 3.63513 75.6139 3.19251C76.4064 2.74989 77.2792 2.46955 78.1812 2.36787H78.8287C80.4954 2.36863 82.1038 2.98133 83.3487 4.08965C84.5935 5.19798 85.388 6.72477 85.5815 8.38022C85.6568 9.76747 85.4359 11.1549 84.9335 12.4501ZM78.9212 3.75533H78.8287C78.1481 3.75422 77.474 3.88746 76.845 4.14741C76.216 4.40736 75.6446 4.78891 75.1633 5.27017C74.6821 5.75144 74.3006 6.32296 74.0407 6.95197C73.7808 7.58097 73.6477 8.25509 73.6488 8.93567C73.6431 10.3197 74.184 11.6501 75.1541 12.6374C76.1241 13.6247 77.4447 14.189 78.8287 14.2076H78.9212C80.265 14.1758 81.5497 13.6487 82.5286 12.7276C83.0238 12.2466 83.4179 11.6716 83.688 11.0362C83.958 10.4009 84.0984 9.71804 84.1011 9.02771C84.1157 8.34319 83.9921 7.66275 83.7379 7.02704C83.4836 6.39134 83.1038 5.81341 82.6211 5.3278C82.1401 4.83259 81.565 4.43842 80.9296 4.1684C80.2942 3.89838 79.6113 3.75795 78.9209 3.75533H78.9212ZM80.8636 11.0627C80.6138 11.3267 80.3126 11.5367 79.9786 11.6799C79.6445 11.8231 79.2846 11.8963 78.9212 11.8951H78.8287C78.0559 11.8951 77.3148 11.5882 76.7684 11.0417C76.222 10.4953 75.915 9.75422 75.915 8.98146C75.915 8.2087 76.222 7.4676 76.7684 6.92118C77.3148 6.37476 78.0559 6.06778 78.8287 6.06778H78.9212C79.6742 6.10687 80.3916 6.40037 80.9561 6.90026C81.4812 7.48576 81.7769 8.24135 81.7886 9.02771C81.7569 9.80057 81.4251 10.5306 80.8636 11.0627ZM82.6211 5.3278C82.1401 4.83263 81.5651 4.43848 80.9297 4.16846C80.2944 3.89844 79.6115 3.75798 78.9212 3.75533H78.8287C78.1481 3.75422 77.474 3.88746 76.845 4.14741C76.216 4.40736 75.6446 4.78891 75.1633 5.27017C74.6821 5.75144 74.3006 6.32296 74.0407 6.95197C73.7808 7.58097 73.6477 8.25509 73.6488 8.93567C73.6431 10.3197 74.184 11.6501 75.1541 12.6374C76.1241 13.6247 77.4447 14.189 78.8287 14.2076H78.9212C80.265 14.1758 81.5497 13.6487 82.5286 12.7276C83.0238 12.2466 83.4179 11.6716 83.688 11.0362C83.958 10.4009 84.0984 9.71804 84.1011 9.02771C84.1157 8.34319 83.9921 7.66275 83.7379 7.02704C83.4836 6.39134 83.1038 5.81341 82.6211 5.3278ZM80.8636 11.0627C80.6138 11.3267 80.3126 11.5367 79.9786 11.6799C79.6445 11.8231 79.2846 11.8963 78.9212 11.8951H78.8287C78.0559 11.8951 77.3148 11.5882 76.7684 11.0417C76.222 10.4953 75.915 9.75422 75.915 8.98146C75.915 8.2087 76.222 7.4676 76.7684 6.92118C77.3148 6.37476 78.0559 6.06778 78.8287 6.06778H78.9212C79.6742 6.10687 80.3916 6.40037 80.9561 6.90026C81.4812 7.48576 81.7769 8.24135 81.7886 9.02771C81.7569 9.80057 81.4251 10.5306 80.8636 11.0627ZM82.6211 5.3278C82.1401 4.83263 81.5651 4.43848 80.9297 4.16846C80.2944 3.89844 79.6115 3.75798 78.9212 3.75533H78.8287C78.1481 3.75422 77.474 3.88746 76.845 4.14741C76.216 4.40736 75.6446 4.78891 75.1633 5.27017C74.6821 5.75144 74.3006 6.32296 74.0407 6.95197C73.7808 7.58097 73.6477 8.25509 73.6488 8.93567C73.6431 10.3197 74.184 11.6501 75.1541 12.6374C76.1241 13.6247 77.4447 14.189 78.8287 14.2076H78.9212C80.265 14.1758 81.5497 13.6487 82.5286 12.7276C83.0238 12.2466 83.4179 11.6716 83.688 11.0362C83.958 10.4009 84.0984 9.71804 84.1011 9.02771C84.1157 8.34319 83.9921 7.66275 83.7379 7.02704C83.4836 6.39134 83.1038 5.81341 82.6211 5.3278ZM80.8636 11.0627C80.6138 11.3267 80.3126 11.5367 79.9786 11.6799C79.6445 11.8231 79.2846 11.8963 78.9212 11.8951H78.8287C78.0559 11.8951 77.3148 11.5882 76.7684 11.0417C76.222 10.4953 75.915 9.75422 75.915 8.98146C75.915 8.2087 76.222 7.4676 76.7684 6.92118C77.3148 6.37476 78.0559 6.06778 78.8287 6.06778H78.9212C79.6742 6.10687 80.3916 6.40037 80.9561 6.90026C81.4812 7.48576 81.7769 8.24135 81.7886 9.02771C81.7569 9.80057 81.4251 10.5306 80.8636 11.0627ZM82.6211 5.3278C82.1401 4.83263 81.5651 4.43848 80.9297 4.16846C80.2944 3.89844 79.6115 3.75798 78.9212 3.75533H78.8287C78.1481 3.75422 77.474 3.88746 76.845 4.14741C76.216 4.40736 75.6446 4.78891 75.1633 5.27017C74.6821 5.75144 74.3006 6.32296 74.0407 6.95197C73.7808 7.58097 73.6477 8.25509 73.6488 8.93567C73.6431 10.3197 74.184 11.6501 75.1541 12.6374C76.1241 13.6247 77.4447 14.189 78.8287 14.2076H78.9212C80.265 14.1758 81.5497 13.6487 82.5286 12.7276C83.0238 12.2466 83.4179 11.6716 83.688 11.0362C83.958 10.4009 84.0984 9.71804 84.1011 9.02771C84.1157 8.34319 83.9921 7.66275 83.7379 7.02704C83.4836 6.39134 83.1038 5.81341 82.6211 5.3278ZM80.8636 11.0627C80.6138 11.3267 80.3126 11.5367 79.9786 11.6799C79.6445 11.8231 79.2846 11.8963 78.9212 11.8951H78.8287C78.0559 11.8951 77.3148 11.5882 76.7684 11.0417C76.222 10.4953 75.915 9.75422 75.915 8.98146C75.915 8.2087 76.222 7.4676 76.7684 6.92118C77.3148 6.37476 78.0559 6.06778 78.8287 6.06778H78.9212C79.6742 6.10687 80.3916 6.40037 80.9561 6.90026C81.4812 7.48576 81.7769 8.24135 81.7886 9.02771C81.7569 9.80057 81.4251 10.5306 80.8636 11.0627ZM82.6211 5.3278C82.1401 4.83263 81.5651 4.43848 80.9297 4.16846C80.2944 3.89844 79.6115 3.75798 78.9212 3.75533H78.8287C78.1481 3.75422 77.474 3.88746 76.845 4.14741C76.216 4.40736 75.6446 4.78891 75.1633 5.27017C74.6821 5.75144 74.3006 6.32296 74.0407 6.95197C73.7808 7.58097 73.6477 8.25509 73.6488 8.93567C73.6431 10.3197 74.184 11.6501 75.1541 12.6374C76.1241 13.6247 77.4447 14.189 78.8287 14.2076H78.9212C80.265 14.1758 81.5497 13.6487 82.5286 12.7276C83.0238 12.2466 83.4179 11.6716 83.688 11.0362C83.958 10.4009 84.0984 9.71804 84.1011 9.02771C84.1157 8.34319 83.9921 7.66275 83.7379 7.02704C83.4836 6.39134 83.1038 5.81341 82.6211 5.3278ZM80.8636 11.0627C80.6138 11.3267 80.3126 11.5367 79.9786 11.6799C79.6445 11.8231 79.2846 11.8963 78.9212 11.8951H78.8287C78.0559 11.8951 77.3148 11.5882 76.7684 11.0417C76.222 10.4953 75.915 9.75422 75.915 8.98146C75.915 8.2087 76.222 7.4676 76.7684 6.92118C77.3148 6.37476 78.0559 6.06778 78.8287 6.06778H78.9212C79.6742 6.10687 80.3916 6.40037 80.9561 6.90026C81.4812 7.48576 81.7769 8.24135 81.7886 9.02771C81.7569 9.80057 81.4251 10.5306 80.8636 11.0627ZM82.6211 5.3278C82.1401 4.83263 81.5651 4.43848 80.9297 4.16846C80.2944 3.89844 79.6115 3.75798 78.9212 3.75533H78.8287C78.1481 3.75422 77.474 3.88746 76.845 4.14741C76.216 4.40736 75.6446 4.78891 75.1633 5.27017C74.6821 5.75144 74.3006 6.32296 74.0407 6.95197C73.7808 7.58097 73.6477 8.25509 73.6488 8.93567C73.6431 10.3197 74.184 11.6501 75.1541 12.6374C76.1241 13.6247 77.4447 14.189 78.8287 14.2076H78.9212C80.265 14.1758 81.5497 13.6487 82.5286 12.7276C83.0238 12.2466 83.4179 11.6716 83.688 11.0362C83.958 10.4009 84.0984 9.71804 84.1011 9.02771C84.1157 8.34319 83.9921 7.66275 83.7379 7.02704C83.4836 6.39134 83.1038 5.81341 82.6211 5.3278ZM80.8636 11.0627C80.6138 11.3267 80.3126 11.5367 79.9786 11.6799C79.6445 11.8231 79.2846 11.8963 78.9212 11.8951H78.8287C78.0559 11.8951 77.3148 11.5882 76.7684 11.0417C76.222 10.4953 75.915 9.75422 75.915 8.98146C75.915 8.2087 76.222 7.4676 76.7684 6.92118C77.3148 6.37476 78.0559 6.06778 78.8287 6.06778H78.9212C79.6742 6.10687 80.3916 6.40037 80.9561 6.90026C81.4812 7.48576 81.7769 8.24135 81.7886 9.02771C81.7569 9.80057 81.4251 10.5306 80.8636 11.0627ZM82.6211 5.3278C82.1401 4.83263 81.5651 4.43848 80.9297 4.16846C80.2944 3.89844 79.6115 3.75798 78.9212 3.75533H78.8287C78.1481 3.75422 77.474 3.88746 76.845 4.14741C76.216 4.40736 75.6446 4.78891 75.1633 5.27017C74.6821 5.75144 74.3006 6.32296 74.0407 6.95197C73.7808 7.58097 73.6477 8.25509 73.6488 8.93567C73.6431 10.3197 74.184 11.6501 75.1541 12.6374C76.1241 13.6247 77.4447 14.189 78.8287 14.2076H78.9212C80.265 14.1758 81.5497 13.6487 82.5286 12.7276C83.0238 12.2466 83.4179 11.6716 83.688 11.0362C83.958 10.4009 84.0984 9.71804 84.1011 9.02771C84.1157 8.34319 83.9921 7.66275 83.7379 7.02704C83.4836 6.39134 83.1038 5.81341 82.6211 5.3278ZM80.8636 11.0627C80.6138 11.3267 80.3126 11.5367 79.9786 11.6799C79.6445 11.8231 79.2846 11.8963 78.9212 11.8951H78.8287C78.0559 11.8951 77.3148 11.5882 76.7684 11.0417C76.222 10.4953 75.915 9.75422 75.915 8.98146C75.915 8.2087 76.222 7.4676 76.7684 6.92118C77.3148 6.37476 78.0559 6.06778 78.8287 6.06778H78.9212C79.6742 6.10687 80.3916 6.40037 80.9561 6.90026C81.4812 7.48576 81.7769 8.24135 81.7886 9.02771C81.7569 9.80057 81.4251 10.5306 80.8636 11.0627Z" fill="currentColor"/>
<path d="M79.6718 28.6087C73.8489 28.2078 68.0639 27.3744 62.3646 26.1156C58.9862 25.4833 55.4272 24.8238 51.8682 24.2368C51.5683 24.1843 51.3013 24.0155 51.1254 23.7671C50.9494 23.5187 50.8788 23.2108 50.9288 22.9105C50.9788 22.6102 51.1455 22.3418 51.3925 22.1639C51.6395 21.9859 51.9468 21.9128 52.2475 21.9604C55.8155 22.5476 59.3925 23.207 62.7799 23.8393C68.4844 25.1451 74.2894 25.964 80.1325 26.2873C84.3894 26.6904 88.681 26.0722 92.651 24.4839C96.621 22.8955 100.155 20.383 102.959 17.1548C103.131 16.9056 103.394 16.7342 103.692 16.6776C103.989 16.6209 104.297 16.6837 104.549 16.8522C104.8 17.0208 104.975 17.2816 105.036 17.5782C105.097 17.8749 105.039 18.1836 104.874 18.4375C101.879 21.9872 98.0744 24.7638 93.7805 26.5326C89.4867 28.3014 84.8301 29.0104 80.2044 28.5997C80.0331 28.6087 79.8524 28.6087 79.6718 28.6087Z" fill="currentColor"/>
<path d="M37.3907 66.6078C37.084 66.6138 36.7876 66.4977 36.5665 66.2851C36.3454 66.0725 36.2179 65.7808 36.2119 65.4741C36.2059 65.1675 36.322 64.871 36.5346 64.6499C36.7472 64.4289 37.0389 64.3013 37.3455 64.2953C44.6894 63.9882 63.9294 61.5944 64.7697 54.2871C65.2033 50.52 54.102 46.8075 44.31 43.5375C30.9141 39.0571 18.2683 34.8297 19.677 27.6485C20.0536 26.0384 20.8874 24.5714 22.0781 23.424C23.2688 22.2766 24.7656 21.4977 26.3885 21.1809C26.683 21.1044 26.9955 21.1419 27.2635 21.286C27.5315 21.43 27.7352 21.67 27.8338 21.9579C27.9212 22.2525 27.8885 22.5698 27.743 22.8405C27.5974 23.1113 27.3508 23.3135 27.0568 23.4031C25.841 23.6038 24.7103 24.1552 23.8036 24.9897C22.897 25.8241 22.2538 26.9053 21.9532 28.1003C20.9234 33.2762 33.7412 37.5669 45.0414 41.3426C57.2089 45.4075 67.7142 48.9214 67.0639 54.558C65.8535 65.1265 40.3443 66.4902 37.4357 66.608L37.3907 66.6078Z" fill="currentColor"/>
</svg>
