<svg viewBox="0 0 67 68" fill="none" xmlns="http://www.w3.org/2000/svg">
<path d="M62.122 2.23603C62.8358 2.2324 63.5394 2.40758 64.1697 2.74588C65.5166 3.46472 65.2208 6.90607 62.8663 10.6416C58.8549 16.3037 54.4277 21.6533 49.622 26.6453C49.0899 27.1679 48.7194 27.835 48.5552 28.5658C48.391 29.2967 48.4403 30.0599 48.697 30.763C48.8555 31.3664 53.0697 55.1719 53.2379 56.0634C53.6607 58.0193 53.4998 60.0579 52.7754 61.9215C52.0578 63.0936 51.242 64.2014 50.3368 65.2327C50.2645 65.3281 50.1724 65.4064 50.067 65.4621C49.9615 65.5177 49.8453 65.5494 49.7264 65.5549L49.6372 65.549C49.2016 65.4927 48.7995 64.32 48.7437 64.1508C48.6879 63.9817 37.7443 39.0408 37.7443 39.0408C37.7315 39.027 37.7157 39.0163 37.6982 39.0097C37.6807 39.003 37.6619 39.0005 37.6433 39.0024C37.5432 39.0024 37.3556 39.0725 37.0295 39.4017C36.4619 39.9747 23.3858 50.8632 23.3858 50.8632C23.3858 50.8632 24.2057 58.0798 24.2477 58.6316C24.1904 59.8556 23.829 61.0454 23.1966 62.0913C22.6922 62.8166 22.1372 63.5047 21.5358 64.1502C21.4511 64.1795 21.3629 64.1969 21.2735 64.2019C21.0557 64.2019 20.7375 64.0757 20.4426 63.4285C20.293 63.1001 16.7006 54.1956 16.7006 54.1956C16.3143 54.277 15.9209 54.3187 15.5263 54.3203C15.2103 54.3485 14.892 54.3105 14.5912 54.2086C14.2904 54.1068 14.0137 53.9434 13.7785 53.7285C13.5013 53.4057 13.358 52.6036 13.5051 51.0117C13.511 50.9484 4.1711 47.0851 3.89777 47.0003C3.62445 46.9154 3.54039 46.2362 3.93987 45.8966C4.43935 45.4718 6.56765 44.0075 6.94605 43.7953C7.72356 43.5059 8.55292 43.3859 9.37963 43.4432C9.57977 43.4432 9.79169 43.4474 10.0154 43.4556C11.6972 43.5193 17.037 44.0499 17.037 44.0499C17.037 44.0499 28.1579 30.5932 28.4523 30.3173C28.7466 30.0413 28.2722 29.9059 28.2722 29.9059C28.2722 29.9059 2.78352 18.2825 2.65743 18.2825C2.5738 18.2326 2.5016 18.1654 2.44559 18.0853C2.38958 18.0051 2.35103 17.9139 2.33249 17.8176C2.31395 17.7214 2.31583 17.6222 2.33803 17.5267C2.36022 17.4312 2.40221 17.3416 2.46123 17.2637C2.46123 17.2637 5.09609 15.0563 5.34833 14.8441C6.30861 14.2397 7.41538 13.9143 8.54692 13.9039L8.79609 13.9101C10.4779 13.995 36.7141 18.6646 37.3448 18.707C37.4422 18.7136 37.5678 18.7181 37.714 18.7181C38.7855 18.7689 39.8463 18.4832 40.7504 17.9004C41.7175 17.0939 45.4596 13.3158 47.6879 11.4055C50.6177 8.85004 53.6922 6.46882 56.8959 4.27391C58.4528 3.18509 60.2443 2.48644 62.122 2.23581V2.23603ZM62.122 0.431677C60.222 0.551843 58.3885 1.18347 56.8121 2.26093C56.5476 2.41644 56.3221 2.55334 56.1402 2.639C52.7904 4.90173 49.5814 7.37011 46.5314 10.0302C45.2197 11.1547 43.3914 12.9144 41.8943 14.3571C40.8654 15.3486 40.0036 16.1832 39.6125 16.5094C39.0276 16.8154 38.3714 16.9552 37.714 16.914C37.0864 16.8578 33.618 16.2542 29.2502 15.4964C18.3798 13.6105 9.97775 12.1635 8.88536 12.1083H8.85242C7.20215 12.0629 5.57845 12.5345 4.20434 13.4583L1.32017 15.8758C0.947589 16.2221 0.690878 16.6768 0.585586 17.177C0.480294 17.6771 0.53163 18.1979 0.732488 18.6673C0.855528 18.9741 1.04101 19.2515 1.27694 19.4814C1.51286 19.7112 1.79397 19.8885 2.10206 20.0018C3.39129 20.5553 16.2317 26.397 25.7489 30.7355C24.3623 32.3909 21.6449 35.6599 16.2692 42.1633C14.6385 42.0064 11.345 41.7006 10.0822 41.6528L9.37949 41.6391C8.24913 41.5658 7.11768 41.7643 6.07804 42.2182C5.61344 42.4786 3.384 44.0104 2.7886 44.5167C2.43658 44.8239 2.17168 45.2199 2.02098 45.6643C1.87028 46.1088 1.83918 46.5856 1.93087 47.0462C1.99686 47.4319 2.16596 47.7921 2.41992 48.0879C2.67387 48.3837 3.00303 48.6038 3.37185 48.7245C3.82637 48.8948 9.31587 51.1677 11.6591 52.1637C11.5725 53.1435 11.8462 54.1212 12.428 54.9103C12.8231 55.3318 13.306 55.6594 13.8418 55.8693C14.3776 56.0793 14.9529 56.1665 15.5261 56.1244H15.5496C16.5503 58.6027 18.7035 63.9288 18.819 64.1824C18.9955 64.7025 19.3251 65.1558 19.7637 65.4817C20.2023 65.8076 20.729 65.9905 21.2734 66.0061H21.5579L22.0504 65.8762L22.0483 65.8697C22.5834 65.679 23.462 65.06 24.7103 63.0499C25.5478 61.6785 26.0035 60.1044 26.0292 58.4935C25.9965 58.0642 25.4976 53.6347 25.2715 51.6318C28.2145 49.18 34.3471 44.0646 37.0235 41.7844C40.707 50.248 46.8666 64.2954 47.0892 64.8317C47.5849 66.3464 48.3574 67.2025 49.4102 67.3387L49.4781 67.3393C49.9198 67.3679 50.3616 67.2865 50.7648 67.1022C51.1679 66.918 51.5201 66.6365 51.7903 66.2827C52.7606 65.1828 53.6255 63.9926 54.3736 62.7281C55.2805 60.5119 55.4966 58.0691 54.9931 55.7257C54.9425 55.4575 54.5247 53.1089 53.9614 49.9435C51.3497 35.2672 50.5233 30.6778 50.4241 30.3005C50.2703 29.9255 50.2213 29.515 50.2826 29.1138C50.344 28.7127 50.5132 28.3362 50.7719 28.0255C55.7044 22.9032 60.251 17.416 64.374 11.61C66.1365 9.22249 66.9295 6.24556 66.5909 3.28755C66.4924 2.83791 66.3 2.41467 66.0265 2.04615C65.753 1.67763 65.4047 1.37233 65.0049 1.15066C64.1172 0.67516 63.127 0.428196 62.1221 0.431677H62.122Z" fill="currentColor"/>
<path d="M50.9534 61.1206C50.8067 61.1217 50.662 61.085 50.5325 61.0137C50.4029 60.9425 50.2926 60.839 50.2114 60.7127C49.9171 60.2633 43.8675 46.0082 40.2911 37.5533C40.2428 37.4389 40.2168 37.3158 40.2145 37.191C40.2122 37.0662 40.2338 36.9422 40.2778 36.826C40.3219 36.7098 40.3877 36.6037 40.4714 36.5138C40.5551 36.4239 40.6551 36.352 40.7657 36.302C40.8764 36.2521 40.9954 36.2252 41.1161 36.2228C41.2367 36.2205 41.3567 36.2427 41.469 36.2883C41.5814 36.3339 41.684 36.4019 41.7709 36.4885C41.8578 36.5751 41.9274 36.6785 41.9757 36.7929C45.7125 45.6211 51.408 59.0051 51.769 59.7034C51.8475 59.8493 51.8875 60.0139 51.8852 60.1809C51.8828 60.3478 51.8381 60.5112 51.7556 60.6547C51.673 60.7982 51.5554 60.9167 51.4147 60.9985C51.2739 61.0802 51.1149 61.1223 50.9534 61.1206Z" fill="currentColor"/>
<path d="M29.9153 26.8855C29.795 26.8866 29.6758 26.8633 29.5652 26.817C20.4694 23.3375 6.66463 18.079 5.90144 17.8527C5.66248 17.7833 5.45955 17.6273 5.334 17.4164C5.20845 17.2056 5.16972 16.9558 5.22572 16.718C5.25002 16.5998 5.29824 16.4875 5.36755 16.3878C5.43686 16.2881 5.52586 16.203 5.62928 16.1375C5.73271 16.072 5.84848 16.0275 5.96977 16.0065C6.09107 15.9855 6.21543 15.9885 6.33552 16.0153C6.86769 16.1181 21.5582 21.7264 30.2654 25.0618C30.4742 25.1423 30.6478 25.2916 30.7563 25.4838C30.8648 25.6761 30.9015 25.8994 30.8601 26.1153C30.8186 26.3313 30.7016 26.5263 30.5292 26.6668C30.3567 26.8074 30.1397 26.8847 29.9153 26.8855Z" fill="currentColor"/>
</svg>
