<svg width="74" height="86" viewBox="0 0 74 86" fill="none" xmlns="http://www.w3.org/2000/svg">
<path d="M53.2975 21.4697C53.2624 21.5062 53.2358 21.55 53.2198 21.598C53.2038 21.646 53.1987 21.697 53.205 21.7472V21.4697H53.2975Z" fill="currentColor"/>
<path d="M71.1582 63.0922C69.5705 61.3831 67.3825 60.3554 65.0534 60.2247L49.4212 56.6173C49.3305 56.5724 49.2317 56.5463 49.1306 56.5406C49.0296 56.535 48.9284 56.5499 48.8333 56.5845C48.7382 56.6191 48.6511 56.6726 48.5772 56.7419C48.5034 56.8111 48.4444 56.8946 48.4037 56.9873C48.2187 56.9873 48.1262 57.0793 47.9412 57.1723L47.5713 57.4498V54.6748C66.3483 54.0274 66.8108 52.1774 66.9958 51.4374C67.0883 51.1599 67.1808 50.3275 66.0708 49.7725C60.654 45.1905 57.0468 38.8287 55.8961 31.8279C56.2661 31.8279 56.7285 31.9204 57.191 31.9204C57.9188 32.0119 58.6565 31.8625 59.2913 31.495C59.926 31.1275 60.4229 30.5621 60.7059 29.8854C61.1684 28.2205 62.6484 21.6536 60.0585 19.8032C59.5997 19.4234 59.066 19.1447 58.4922 18.9853C57.9184 18.8259 57.3174 18.7894 56.7285 18.8782C56.3586 18.9707 56.0811 19.0632 55.8036 19.1557C56.4969 15.8002 56.1417 12.3127 54.7861 9.16592C53.7415 7.49179 52.0802 6.29571 50.1612 5.836C50.0463 5.81657 49.9285 5.8231 49.8165 5.85511C49.7044 5.88712 49.601 5.9438 49.5137 6.021C45.2236 3.151 40.4174 1.14057 35.3615 0.101137H34.5291C32.2138 -0.0643422 29.8909 0.290005 27.7303 1.13824C25.5697 1.98647 23.6261 3.30712 22.0419 5.00352C19.1944 8.89376 17.9373 13.7234 18.5269 18.5082C17.3833 18.7074 16.2859 19.115 15.2895 19.7107C12.1446 21.6531 13.9021 28.313 14.5495 29.9779C15.1045 31.5504 16.862 31.9204 18.4344 31.9204C18.8376 31.9394 19.2415 31.9083 19.6369 31.8279C18.4841 38.8496 14.8389 45.2204 9.36966 49.7725C8.35218 50.3275 8.35218 51.0674 8.53718 51.4374C8.62968 52.1774 9.18467 54.0274 26.5743 54.6748V57.2648L26.3893 57.1723C26.1878 57.0683 25.9677 57.0054 25.7418 56.9873C25.6432 56.8393 25.5019 56.7246 25.3368 56.6586C25.1716 56.5925 24.9903 56.5781 24.8168 56.6173L9.36966 60.2247C8.1831 60.2596 7.01546 60.5312 5.93533 61.0236C4.8552 61.516 3.88435 62.2193 3.07981 63.0922C2.31268 63.9232 1.72076 64.9002 1.33936 65.965C0.95796 67.0297 0.794885 68.1604 0.85986 69.2895L1.78484 84.3666C1.78802 84.4951 1.81722 84.6216 1.87066 84.7385C1.92411 84.8554 2.00069 84.9602 2.09579 85.0467C2.19089 85.1331 2.30253 85.1994 2.42397 85.2415C2.5454 85.2836 2.67411 85.3007 2.80231 85.2916C3.08041 85.2682 3.3395 85.141 3.52803 84.9352C3.71657 84.7295 3.82073 84.4603 3.81979 84.1812L2.89481 69.1965C2.83655 68.3242 2.95389 67.4491 3.23987 66.6229C3.52586 65.7967 3.97468 65.0363 4.55977 64.3867C5.21987 63.6999 6.00907 63.1503 6.88209 62.7694C7.75512 62.3884 8.69478 62.1836 9.64715 62.1667L23.1518 59.0218C22.313 60.1343 21.9174 61.5189 22.0419 62.9067C22.1537 64.0074 22.5109 65.069 23.0872 66.0135C23.6634 66.9579 24.4441 67.7611 25.3718 68.3641C27.1257 69.5501 29.176 70.2228 31.2916 70.3065C32.4569 70.3037 33.6075 70.0455 34.6622 69.5501C35.7169 69.0547 36.6503 68.3341 37.3965 67.4391C38.1635 68.3335 39.1139 69.0524 40.1832 69.5472C41.2525 70.0419 42.4157 70.3009 43.5939 70.3065C45.7071 70.2099 47.754 69.5382 49.5137 68.3641C50.4413 67.7611 51.222 66.9579 51.7983 66.0134C52.3745 65.069 52.7317 64.0074 52.8436 62.9067C52.9576 61.5914 52.5966 60.2788 51.8262 59.2068L64.7759 62.2592C65.6953 62.2582 66.6051 62.4466 67.4485 62.8126C68.2919 63.1786 69.051 63.7144 69.6782 64.3867C70.2632 65.0364 70.7119 65.7968 70.9979 66.623C71.2839 67.4491 71.4013 68.3242 71.3432 69.1965L70.4182 84.1812C70.3974 84.4503 70.4823 84.7169 70.6551 84.9243C70.8279 85.1317 71.0747 85.2635 71.3432 85.2916H71.4352C71.6903 85.2946 71.9371 85.2008 72.1259 85.0292C72.3147 84.8576 72.4314 84.6209 72.4527 84.3666L73.2852 69.2895C73.3668 68.1665 73.2204 67.0385 72.8549 65.9735C72.4894 64.9085 71.9122 63.9284 71.1582 63.0922ZM47.2938 46.35C44.0189 47.9646 40.4767 48.9677 36.8415 49.31C33.8359 48.9583 30.9372 47.9816 28.3317 46.4425C26.7004 45.437 25.3196 44.0731 24.2939 42.4545C23.2681 40.8358 22.6245 39.0047 22.4119 37.1003V20.9131H23.2443C30.9335 21.2317 38.4509 18.5824 44.2413 13.5133C46.5144 16.8549 49.6026 19.561 53.2136 21.3756V21.4681H53.3061C53.271 21.5046 53.2445 21.5484 53.2285 21.5964C53.2125 21.6444 53.2074 21.6954 53.2136 21.7456V37.1003C53.0583 39.0086 52.4374 40.8497 51.4054 42.4623C50.3733 44.0749 48.9615 45.4098 47.2937 46.35H47.2938ZM55.1561 22.0231C55.6658 21.4781 56.3006 21.0654 57.0056 20.8206C57.3355 20.7819 57.6699 20.8111 57.988 20.9065C58.3062 21.002 58.6015 21.1616 58.8555 21.3756C59.9655 22.2081 59.5955 26.7405 58.763 29.3304C58.4855 30.1629 56.4506 29.9779 55.3406 29.6079H55.1556L55.1561 22.0231ZM55.1561 37.1003V36.7303C56.6899 42.3476 59.9202 47.3546 64.4059 51.0674C58.8506 52.0792 53.2178 52.6053 47.5713 52.6399V48.4775C47.7723 48.3538 47.9905 48.2603 48.2188 48.2C50.1941 47.0576 51.8594 45.4485 53.0688 43.5135C54.2783 41.5784 54.995 39.3765 55.1563 37.1003H55.1561ZM23.6143 6.29849C25.0058 4.8316 26.709 3.69601 28.5982 2.97557C30.4873 2.25512 32.5142 1.96824 34.5291 2.13609H35.2691C40.1074 3.2208 44.7125 5.16307 48.8662 7.87095C49.0202 7.96217 49.196 8.0103 49.375 8.0103C49.554 8.0103 49.7297 7.96217 49.8837 7.87095C51.185 8.2199 52.3076 9.04531 53.0286 10.1834C54.2559 13.1412 54.5149 16.4116 53.7686 19.5257C50.5347 17.8177 47.7709 15.3398 45.7213 12.3108C45.6816 12.2152 45.6184 12.1312 45.5375 12.0665C45.4567 12.0019 45.3608 11.9586 45.2588 11.9409C45.3508 11.7559 45.2588 11.5709 45.0738 11.3859C44.9932 11.2822 44.8915 11.1968 44.7755 11.1353C44.6595 11.0737 44.5318 11.0373 44.4008 11.0286C44.2698 11.0199 44.1384 11.0389 44.0153 11.0846C43.8921 11.1302 43.78 11.2014 43.6864 11.2934C40.6035 14.1409 36.9393 16.2854 32.9469 17.579C28.9545 18.8725 24.7289 19.2842 20.5619 18.7857C19.944 14.3861 21.0364 9.91696 23.6142 6.29849H23.6143ZM16.3995 29.2379C15.4745 26.7405 15.012 22.2081 16.307 21.3756C17.1144 20.9474 17.9912 20.6656 18.8969 20.5432V20.6357L19.6369 20.7281H20.4694V29.7004C18.8968 29.9779 16.6769 30.0704 16.3997 29.2379H16.3995ZM11.0346 51.0674C15.679 47.346 18.9899 42.2174 20.4694 36.4528V37.1003C20.6351 39.2361 21.2883 41.3055 22.3787 43.1495C23.469 44.9936 24.9676 46.5631 26.7593 47.7375C26.5743 47.8295 26.5743 48.015 26.5743 48.2V52.6399C21.3566 52.602 16.154 52.0756 11.0346 51.0674ZM36.1015 65.9596C35.5265 66.6517 34.8183 67.2212 34.0189 67.6345C33.2196 68.0477 32.3454 68.2962 31.4482 68.3652C30.5511 68.4342 29.6492 68.3223 28.796 68.0362C27.9429 67.7501 27.1559 67.2956 26.4818 66.6996C25.8017 66.2577 25.226 65.673 24.7947 64.9861C24.3634 64.2992 24.0869 63.5267 23.9843 62.7222C23.9554 62.0544 24.0825 61.3891 24.3554 60.779C24.6283 60.1689 25.0397 59.6307 25.5568 59.2072L25.6493 59.1147L36.194 65.8671L36.1015 65.9596ZM37.304 64.2021L28.5172 58.5598V48.755C31.0511 50.2581 33.9026 51.1452 36.842 51.3449C39.8692 51.1305 42.8392 50.4115 45.6293 49.2175V58.7448L37.304 64.2021ZM48.4037 66.6996C47.7296 67.2955 46.9426 67.75 46.0895 68.0361C45.2363 68.3222 44.3344 68.4341 43.4373 68.365C42.5401 68.296 41.6659 68.0475 40.8666 67.6343C40.0673 67.2211 39.3591 66.6516 38.784 65.9596L38.599 65.7746L49.0512 58.8373C49.0526 58.9088 49.0699 58.9791 49.1019 59.0431C49.1339 59.1072 49.1798 59.1632 49.2362 59.2072C49.7855 59.602 50.2203 60.1352 50.4965 60.7526C50.7727 61.37 50.8804 62.0496 50.8087 62.7222C50.7412 63.5256 50.4891 64.3026 50.0719 64.9925C49.6547 65.6824 49.0837 66.2666 48.4036 66.6996H48.4037Z" fill="currentColor"/>
</svg>
