<svg width="3em" height="3em" viewBox="0 0 65 69" fill="none" xmlns="http://www.w3.org/2000/svg">
<path d="M32.2727 2.42297C32.4509 2.42443 32.627 2.46101 32.7911 2.53063C32.9552 2.60025 33.1039 2.70153 33.2288 2.82868L45.8251 17.2797V12.3342C45.8412 11.957 46.0034 11.6009 46.2775 11.3413C46.5516 11.0816 46.916 10.9389 47.2935 10.9433H54.5576C54.9351 10.9388 55.2995 11.0815 55.5736 11.3412C55.8477 11.6008 56.0099 11.957 56.0259 12.3342V29.0261L61.8991 35.7493C62.0542 35.9188 62.1574 36.1293 62.1964 36.3558C62.2354 36.5822 62.2085 36.8151 62.119 37.0267C62.0295 37.2383 61.8811 37.4198 61.6914 37.5496C61.5018 37.6793 61.2789 37.7519 61.0492 37.7586H56.9532V65.3468C56.9532 65.7362 56.7985 66.1097 56.5232 66.385C56.2478 66.6604 55.8743 66.8151 55.4849 66.8151H34.4771C34.0852 66.8151 33.7094 66.6594 33.4323 66.3823C33.1552 66.1052 32.9995 65.7294 32.9995 65.3375V40.0088C32.9995 39.6169 32.8438 39.241 32.5667 38.9639C32.2896 38.6868 31.9138 38.5312 31.5219 38.5312H18.4029C18.011 38.5312 17.6352 38.6868 17.3581 38.9639C17.081 39.241 16.9253 39.6169 16.9253 40.0088V65.3377C16.9253 65.7296 16.7696 66.1054 16.4925 66.3825C16.2154 66.6596 15.8395 66.8153 15.4477 66.8153H8.57722C8.16766 66.8141 7.77521 66.6508 7.48559 66.3612C7.19598 66.0716 7.03274 65.6792 7.03152 65.2696V37.7586H3.55417C3.32449 37.7519 3.10157 37.6793 2.91192 37.5496C2.72227 37.4198 2.57386 37.2383 2.48434 37.0267C2.39482 36.8151 2.36796 36.5822 2.40694 36.3558C2.44592 36.1293 2.5491 35.9188 2.70423 35.7493L31.374 2.82868C31.4852 2.69976 31.6233 2.59667 31.7785 2.52659C31.9336 2.45652 32.1022 2.42116 32.2725 2.42297H32.2727ZM32.2725 0.490306C31.8235 0.488907 31.3795 0.584783 30.9711 0.771342C30.5627 0.957901 30.1996 1.23072 29.9067 1.57102L1.24676 34.48C0.846732 34.9325 0.585541 35.4906 0.49445 36.0876C0.403359 36.6846 0.486227 37.2952 0.733134 37.8463C0.975049 38.3934 1.37016 38.8587 1.87076 39.1861C2.37136 39.5135 2.95603 39.6889 3.55417 39.6913H5.09886V65.2696C5.09991 66.1918 5.46672 67.0759 6.11881 67.728C6.7709 68.3801 7.65503 68.7469 8.57722 68.7479H15.4474C16.3516 68.7469 17.2184 68.3873 17.8578 67.748C18.4971 67.1086 18.8567 66.2418 18.8578 65.3377V40.4638H31.0666V65.3377C31.0677 66.2418 31.4273 67.1086 32.0666 67.7479C32.7059 68.3873 33.5728 68.7469 34.4769 68.7479H55.4847C56.3864 68.7469 57.2509 68.3883 57.8884 67.7507C58.526 67.1131 58.8847 66.2486 58.8857 65.3469V39.6913H61.049C61.6471 39.6889 62.2318 39.5135 62.7324 39.1861C63.233 38.8587 63.6281 38.3934 63.87 37.8463C64.1177 37.29 64.199 36.6739 64.1041 36.0723C64.0093 35.4708 63.7423 34.9095 63.3355 34.4564L57.9584 28.3009V12.3342C57.947 11.4428 57.5825 10.5924 56.945 9.9693C56.3074 9.34625 55.4488 9.00148 54.5574 9.01061H47.2935C46.4376 9.0027 45.6108 9.32042 44.9805 9.8994C44.3502 10.4784 43.9636 11.2753 43.8989 12.1287L34.6857 1.5588C34.3773 1.22595 34.0042 0.959507 33.5893 0.775775C33.1744 0.592043 32.7263 0.494882 32.2726 0.490234L32.2725 0.490306Z" fill="currentColor"/>
<path d="M49.464 40.0738C49.6485 40.0738 49.8312 40.1101 50.0016 40.1807C50.1721 40.2513 50.327 40.3548 50.4574 40.4853C50.5879 40.6157 50.6914 40.7706 50.762 40.9411C50.8326 41.1115 50.8689 41.2942 50.8689 41.4787V51.3778C50.869 51.5623 50.8326 51.745 50.762 51.9154C50.6914 52.0859 50.5879 52.2408 50.4575 52.3713C50.327 52.5017 50.1721 52.6052 50.0017 52.6758C49.8312 52.7464 49.6485 52.7828 49.464 52.7828H40.3816C40.1971 52.7828 40.0144 52.7464 39.8439 52.6758C39.6734 52.6052 39.5185 52.5017 39.3881 52.3713C39.2576 52.2408 39.1541 52.0859 39.0835 51.9154C39.0129 51.745 38.9766 51.5623 38.9766 51.3778V41.4787C38.9766 41.1061 39.1246 40.7488 39.3881 40.4853C39.6516 40.2218 40.0089 40.0738 40.3816 40.0738H49.464ZM49.464 38.1411H40.3816C39.4967 38.1421 38.6483 38.4941 38.0226 39.1198C37.3969 39.7455 37.045 40.5938 37.0439 41.4787V51.3778C37.0449 52.2627 37.3969 53.111 38.0226 53.7367C38.6483 54.3625 39.4967 54.7144 40.3816 54.7154H49.464C50.3489 54.7144 51.1972 54.3625 51.823 53.7367C52.4487 53.111 52.8006 52.2627 52.8016 51.3778V41.4787C52.8006 40.5938 52.4486 39.7455 51.8229 39.1198C51.1972 38.4941 50.3489 38.1421 49.464 38.1411Z" fill="currentColor"/>
</svg>
