<svg width="87" height="87" viewBox="0 0 87 87" fill="none" xmlns="http://www.w3.org/2000/svg">
<path d="M43.7417 86.5991C35.2234 86.5991 26.8964 84.0731 19.8137 79.3406C12.731 74.6081 7.21065 67.8816 3.95084 60.0117C0.691025 52.1418 -0.161892 43.482 1.49995 35.1274C3.16179 26.7727 7.26374 19.0985 13.2871 13.0752C19.3104 7.05183 26.9847 2.94987 35.3393 1.28803C43.6939 -0.373806 52.3537 0.479111 60.2236 3.73892C68.0935 6.99874 74.82 12.519 79.5525 19.6017C84.285 26.6845 86.811 35.0115 86.811 43.5298C86.7978 54.9484 82.256 65.8956 74.1817 73.9698C66.1075 82.044 55.1603 86.5859 43.7417 86.5991ZM43.7417 2.77291C35.6807 2.77291 27.8008 5.16326 21.0984 9.64168C14.396 14.1201 9.17205 20.4855 6.08726 27.9328C3.00247 35.3801 2.19535 43.575 3.76796 51.481C5.34057 59.3871 9.22229 66.6493 14.9222 72.3492C20.6222 78.0492 27.8844 81.9309 35.7904 83.5035C43.6965 85.0761 51.8913 84.269 59.3387 81.1842C66.786 78.0994 73.1514 72.8755 77.6298 66.1731C82.1082 59.4706 84.4985 51.5907 84.4985 43.5298C84.4866 32.7241 80.1887 22.3643 72.5479 14.7235C64.9071 7.08274 54.5474 2.78489 43.7417 2.77291Z" fill="currentColor"/>
<path d="M11.2233 44.7856H6.499C6.19235 44.7856 5.89826 44.6638 5.68142 44.4469C5.46459 44.2301 5.34277 43.936 5.34277 43.6294C5.34277 43.3227 5.46459 43.0286 5.68142 42.8118C5.89826 42.595 6.19235 42.4731 6.499 42.4731H11.2233C11.53 42.4731 11.8241 42.595 12.0409 42.8118C12.2577 43.0286 12.3795 43.3227 12.3795 43.6294C12.3795 43.936 12.2577 44.2301 12.0409 44.4469C11.8241 44.6638 11.53 44.7856 11.2233 44.7856Z" fill="currentColor"/>
<path d="M11.7353 63.4748C11.4804 63.4752 11.2325 63.3914 11.0302 63.2364C10.8279 63.0814 10.6824 62.8639 10.6165 62.6176C10.5506 62.3714 10.5678 62.1103 10.6657 61.8749C10.7635 61.6395 10.9363 61.4431 11.1573 61.3161L15.2492 58.9584C15.3805 58.8811 15.5259 58.8307 15.6769 58.8102C15.8279 58.7897 15.9815 58.7995 16.1287 58.8391C16.2758 58.8786 16.4137 58.947 16.5341 59.0404C16.6545 59.1338 16.7551 59.2503 16.83 59.383C16.982 59.6492 17.0226 59.9647 16.9431 60.2608C16.8636 60.5568 16.6703 60.8095 16.4054 60.9638L12.3135 63.3212C12.1385 63.4243 11.9385 63.4774 11.7353 63.4748Z" fill="currentColor"/>
<path d="M25.6108 77.0409C25.4083 77.0392 25.2094 76.9864 25.0327 76.8874C24.7683 76.7327 24.5754 76.48 24.4959 76.1841C24.4164 75.8882 24.4568 75.5729 24.6082 75.3066L26.9748 71.2147C27.1292 70.9509 27.3817 70.759 27.6771 70.6807C27.9726 70.6024 28.287 70.6442 28.5517 70.7968C28.8165 70.9495 29.0101 71.2007 29.0904 71.4955C29.1707 71.7904 29.131 72.1051 28.9802 72.3709L26.6135 76.4628C26.5114 76.6383 26.3651 76.784 26.1892 76.8855C26.0133 76.9869 25.8139 77.0405 25.6108 77.0409Z" fill="currentColor"/>
<path d="M44.4189 81.857C44.267 81.8575 44.1164 81.8279 43.9759 81.7699C43.8354 81.712 43.7078 81.6268 43.6003 81.5194C43.4929 81.4119 43.4077 81.2843 43.3498 81.1438C43.2918 81.0033 43.2622 80.8527 43.2627 80.7008V75.9765C43.2627 75.6699 43.3845 75.3758 43.6014 75.159C43.8182 74.9421 44.1123 74.8203 44.4189 74.8203C44.7256 74.8203 45.0197 74.9421 45.2365 75.159C45.4533 75.3758 45.5752 75.6699 45.5752 75.9765V80.7008C45.5756 80.8527 45.546 81.0033 45.4881 81.1438C45.4302 81.2843 45.345 81.412 45.2376 81.5194C45.1301 81.6269 45.0025 81.712 44.862 81.77C44.7215 81.8279 44.5709 81.8575 44.4189 81.857Z" fill="currentColor"/>
<path d="M63.1074 76.6256C62.9043 76.6252 62.7049 76.5716 62.529 76.4701C62.3531 76.3687 62.2068 76.223 62.1047 76.0475L59.738 71.9556C59.5867 71.6892 59.5463 71.3739 59.6258 71.078C59.7053 70.7821 59.8981 70.5295 60.1626 70.3748C60.4297 70.2266 60.7439 70.1881 61.0389 70.2673C61.3338 70.3466 61.5865 70.5373 61.7434 70.7993L64.1101 74.8913C64.2614 75.1576 64.3018 75.4729 64.2223 75.7688C64.1428 76.0647 63.95 76.3174 63.6855 76.4721C63.5088 76.5711 63.3099 76.6239 63.1074 76.6256Z" fill="currentColor"/>
<path d="M76.6748 62.7412C76.4716 62.7439 76.2717 62.6908 76.0967 62.5877L72.0046 60.2301C71.7398 60.0758 71.5465 59.8231 71.467 59.5271C71.3875 59.231 71.4282 58.9155 71.5802 58.6493C71.6545 58.516 71.7548 58.399 71.8751 58.3052C71.9955 58.2114 72.1334 58.1426 72.2808 58.103C72.4282 58.0634 72.582 58.0538 72.7332 58.0747C72.8843 58.0956 73.0298 58.1467 73.1609 58.2248L77.2529 60.5824C77.4739 60.7094 77.6468 60.9059 77.7447 61.1413C77.8425 61.3767 77.8598 61.6379 77.7938 61.8841C77.7279 62.1304 77.5824 62.3479 77.38 62.5029C77.1776 62.6579 76.9297 62.7417 76.6748 62.7412Z" fill="currentColor"/>
<path d="M81.4815 43.9453H76.7573C76.4506 43.9453 76.1566 43.8234 75.9397 43.6066C75.7229 43.3898 75.6011 43.0957 75.6011 42.789C75.6011 42.4824 75.7229 42.1883 75.9397 41.9715C76.1566 41.7546 76.4506 41.6328 76.7573 41.6328H81.4815C81.7882 41.6328 82.0823 41.7546 82.2991 41.9715C82.5159 42.1883 82.6378 42.4824 82.6378 42.789C82.6378 43.0957 82.5159 43.3898 82.2991 43.6066C82.0823 43.8234 81.7882 43.9453 81.4815 43.9453Z" fill="currentColor"/>
<path d="M72.1571 27.6122C71.9022 27.6127 71.6542 27.5289 71.4518 27.3739C71.2493 27.2189 71.1038 27.0013 71.0379 26.755C70.9719 26.5088 70.9892 26.2476 71.0871 26.0122C71.185 25.7767 71.3579 25.5802 71.579 25.4533L75.6709 23.0866C75.938 22.9385 76.2522 22.9 76.5472 22.9793C76.8421 23.0585 77.0947 23.2492 77.2517 23.5112C77.4031 23.7776 77.4434 24.0929 77.364 24.3888C77.2845 24.6846 77.0916 24.9373 76.8271 25.092L72.7352 27.4586C72.5585 27.5576 72.3597 27.6104 72.1571 27.6122Z" fill="currentColor"/>
<path d="M60.0083 15.7704C59.8057 15.7687 59.6069 15.7159 59.4302 15.6169C59.1657 15.4622 58.9729 15.2095 58.8934 14.9136C58.8139 14.6177 58.8542 14.3024 59.0056 14.0361L61.3723 9.94416C61.5267 9.68043 61.7792 9.48848 62.0746 9.4102C62.37 9.33192 62.6844 9.37366 62.9492 9.52631C63.214 9.67897 63.4076 9.93014 63.4879 10.225C63.5681 10.5199 63.5285 10.8346 63.3776 11.1004L61.011 15.1923C60.9089 15.3678 60.7626 15.5135 60.5867 15.6149C60.4108 15.7164 60.2114 15.77 60.0083 15.7704Z" fill="currentColor"/>
<path d="M43.5698 11.5985C43.4178 11.5989 43.2673 11.5694 43.1268 11.5114C42.9863 11.4535 42.8587 11.3683 42.7512 11.2609C42.6437 11.1534 42.5586 11.0258 42.5006 10.8853C42.4427 10.7448 42.4131 10.5942 42.4136 10.4423V5.71775C42.4136 5.4111 42.5354 5.11701 42.7522 4.90017C42.9691 4.68334 43.2632 4.56152 43.5698 4.56152C43.8764 4.56152 44.1705 4.68334 44.3874 4.90017C44.6042 5.11701 44.726 5.4111 44.726 5.71775V10.4423C44.7265 10.5942 44.6969 10.7448 44.639 10.8853C44.581 11.0258 44.4959 11.1534 44.3884 11.2609C44.281 11.3683 44.1533 11.4535 44.0128 11.5114C43.8723 11.5694 43.7218 11.5989 43.5698 11.5985Z" fill="currentColor"/>
<path d="M27.2356 16.1953C27.0326 16.1949 26.8332 16.1413 26.6573 16.0398C26.4814 15.9384 26.3351 15.7927 26.233 15.6172L23.8755 11.5252C23.7246 11.2594 23.685 10.9447 23.7652 10.6498C23.8455 10.3549 24.0391 10.1038 24.3039 9.95112C24.5687 9.79846 24.8831 9.75672 25.1785 9.835C25.4739 9.91328 25.7264 10.1052 25.8808 10.369L28.2384 14.461C28.3904 14.7272 28.431 15.0427 28.3515 15.3388C28.272 15.6348 28.0787 15.8875 27.8138 16.0418C27.6388 16.1448 27.4388 16.198 27.2356 16.1953Z" fill="currentColor"/>
<path d="M15.4045 28.3441C15.2014 28.3468 15.0014 28.2937 14.8264 28.1906L10.7342 25.8326C10.4693 25.6784 10.276 25.4257 10.1965 25.1296C10.117 24.8336 10.1577 24.5181 10.3096 24.2519C10.3839 24.1186 10.4843 24.0016 10.6046 23.9077C10.725 23.8139 10.8629 23.7451 11.0103 23.7056C11.1577 23.666 11.3115 23.6564 11.4627 23.6773C11.6138 23.6982 11.7593 23.7492 11.8904 23.8273L15.9823 26.185C16.2034 26.312 16.3763 26.5084 16.4741 26.7438C16.5719 26.9792 16.5892 27.2404 16.5233 27.4866C16.4573 27.7329 16.3118 27.9505 16.1095 28.1055C15.9071 28.2605 15.6591 28.3443 15.4042 28.3438L15.4045 28.3441Z" fill="currentColor"/>
<path d="M47.2095 45.8889C47.0092 45.8915 46.8122 45.8383 46.6404 45.7353L25.1328 33.5409C25.0006 33.4667 24.8844 33.3671 24.7909 33.2477C24.6974 33.1284 24.6285 32.9916 24.5882 32.8455C24.5479 32.6993 24.5369 32.5466 24.556 32.3962C24.5751 32.2458 24.6238 32.1006 24.6993 31.9692C24.7704 31.8339 24.8685 31.7146 24.9875 31.6188C25.1065 31.5229 25.2439 31.4525 25.3912 31.4118C25.5385 31.3712 25.6926 31.3612 25.8439 31.3825C25.9953 31.4037 26.1406 31.4558 26.271 31.5355L47.7788 43.7301C47.9999 43.8562 48.1733 44.0518 48.2718 44.2865C48.3703 44.5213 48.3886 44.782 48.3237 45.0281C48.2588 45.2743 48.1144 45.4922 47.913 45.6478C47.7115 45.8035 47.4643 45.8883 47.2097 45.889L47.2095 45.8889Z" fill="currentColor"/>
<path d="M41.7886 46.3935C41.6217 46.3944 41.4566 46.3584 41.3051 46.2881C41.1537 46.2178 41.0196 46.115 40.9125 45.987C40.8135 45.8722 40.7382 45.7389 40.691 45.5949C40.6438 45.4509 40.6255 45.2989 40.6372 45.1478C40.649 44.9967 40.6905 44.8494 40.7595 44.7144C40.8284 44.5794 40.9234 44.4594 41.0389 44.3613L69.6554 19.8096C69.7693 19.7087 69.9024 19.6317 70.0467 19.5833C70.191 19.5349 70.3435 19.516 70.4952 19.5278C70.647 19.5396 70.7947 19.5819 70.9298 19.652C71.0649 19.7221 71.1844 19.8187 71.2814 19.9361C71.3804 20.0509 71.4556 20.1842 71.5029 20.3282C71.5501 20.4723 71.5684 20.6242 71.5567 20.7754C71.5449 20.9265 71.5034 21.0739 71.4344 21.2089C71.3655 21.3439 71.2705 21.4639 71.1549 21.5621L42.5384 46.1134C42.3314 46.2957 42.0645 46.3954 41.7886 46.3935Z" fill="currentColor"/>
</svg>
