<svg width="18" height="18" viewBox="0 0 18 18" fill="none" xmlns="http://www.w3.org/2000/svg">
<path fill-rule="evenodd" clip-rule="evenodd" d="M16.9768 9.03455C16.9768 13.4052 13.4337 16.9484 9.06299 16.9484C4.69231 16.9484 1.14917 13.4052 1.14917 9.03455C1.14917 4.66387 4.69231 1.12073 9.06299 1.12073C13.4337 1.12073 16.9768 4.66387 16.9768 9.03455ZM17.9768 9.03455C17.9768 13.9575 13.986 17.9484 9.06299 17.9484C4.14002 17.9484 0.14917 13.9575 0.14917 9.03455C0.14917 4.11158 4.14002 0.120728 9.06299 0.120728C13.986 0.120728 17.9768 4.11158 17.9768 9.03455ZM8.56261 4.92059V9.72034V9.98793L8.78526 10.1364L12.8993 12.8791L13.454 12.047L9.56261 9.45275V4.92059H8.56261Z" fill="currentColor"/>
</svg>
