<svg xmlns="http://www.w3.org/2000/svg" xmlns:xlink="http://www.w3.org/1999/xlink" viewBox="0 0 5262.24 1005.97"><defs><linearGradient id="a" x1="132.5" y1="174.7" x2="395.55" y2="660.92" gradientTransform="matrix(1, 0, 0, -1, 0, 1006.33)" gradientUnits="userSpaceOnUse"><stop offset="0" stop-color="#1b75bc"/><stop offset="0.43" stop-color="#2484c6" stop-opacity="0"/></linearGradient><linearGradient id="b" x1="0.72" y1="143.02" x2="904.05" y2="143.02" gradientTransform="matrix(1, 0, 0, -1, 0, 1006.33)" gradientUnits="userSpaceOnUse"><stop offset="0.4" stop-color="#00aeef" stop-opacity="0"/><stop offset="1" stop-color="#1b75bc"/></linearGradient></defs><title>limomate-header-logo</title><path d="M2198.86,922.57h-20.45V701.22h20.45v89c17.45-21.06,39.1-31.58,64.06-31.58,46.62,0,82.1,38.8,82.1,84.19,0,45.11-36.08,83.9-82.71,83.9-25.86,0-47.21-11.42-63.45-33.66ZM2324,842.29c0-34.6-27.36-64.66-63.15-64.66-32.79,0-63.47,24-63.47,64,0,37,27.38,65.24,63.47,65.24C2297.8,906.92,2324,876.55,2324,842.29Z" fill="#fff"/><path d="M2361.76,762.88h21.65l55,123,53.23-123h22l-95.33,218h-21.67l30.69-70.37Z" fill="#fff"/><path d="M2703.58,750c-11.72-15.35-21.95-26.47-39.7-26.47-18.65,0-29.18,13.24-29.18,27.38,0,11.72,6.92,24,19.25,33.38,40.61,30.07,70.37,50.83,70.37,85.7,0,30.37-25.56,58-60.74,58-29.77,0-49.32-16.53-65.26-45.71l18.35-11.12c12.93,23.75,28.56,35.77,45.11,35.77,22.55,0,40-16.53,40-36.68,0-23.75-22.27-37.29-71.28-77-10.22-8.13-18.35-25.26-18.35-41.49,0-29.79,23.16-50.54,52.33-50.54,26.47,0,42.41,16,56.55,35.19Z" fill="#fff"/><path d="M2923,843.16c0,45.41-35.19,83.3-83.31,83.3s-83.3-37.89-83.3-83.3c0-45.69,35.49-84.49,83.3-84.49S2923,797.48,2923,843.16Zm-145.55.3c0,34.9,26.16,64.06,62.24,64.06,35.79,0,62.26-29.16,62.26-64.06,0-35.48-28.27-65-62.26-65-34.26,0-62.22,29.53-62.22,65Z" fill="#fff"/><path d="M3073.91,762.88h21.65v82.7c0,53.84-24.36,80.89-70.07,80.89s-70.38-27-70.38-80.89v-82.7h21.65v77.9c0,16.83,0,30.67,4.52,40.28,7.51,16.25,24,25.56,44.21,25.56,14.73,0,27.66-5.41,36.09-14.11,12.63-13.54,12.33-28.89,12.33-51.73Z" fill="#fff"/><path d="M3155.92,703.33h20.45v59.55h32.78v18h-32.78V922.53h-20.45V780.92h-28.27v-18h28.27Z" fill="#fff"/><path d="M3236.46,701.22h20.45v90.22c16.54-21.64,36.09-32.76,59.85-32.76,34.58,0,58.94,24.36,58.94,72.16v91.73h-20.44v-86.9c0-37.61-11.44-58-42.41-58-17.15,0-31.27,7.19-42.11,21.33-11.72,15.35-13.83,31-13.83,56.54v67.07h-20.45Z" fill="#fff"/><path d="M3430.35,844.38c.89,36.68,25.86,63.45,60.14,63.45,33.39,0,49.33-19,61.05-38.19l17.15,9c-16.24,31.88-41.22,48.1-76.1,48.1-52.92,0-83.3-40.88-83.3-83.6,0-43.6,32.18-84.49,82.11-84.49,45.4,0,82.09,32.76,82.7,85.7Zm121.19-18c-8.42-33.09-32.18-47.83-59.84-47.83-28.58,0-49.93,15.34-59.25,47.83Z" fill="#fff"/><path d="M3622.72,786c12-17.44,25-27.35,41.2-27.35,9.32,0,14.12,3,18.34,5.41l-10.83,17.44a24.55,24.55,0,0,0-10.82-3c-15,0-28.57,12.93-34.58,34.89-2.72,10.22-3.31,26.77-3.31,48.41v60.76H3601V762.88h21.67Z" fill="#fff"/><path d="M3723.34,791.44c16.53-21.64,36.38-32.76,59.85-32.76,34.88,0,59.24,24.05,59.24,74.27v89.62H3822v-86.9c0-37.61-11.73-58-42.71-58-17.14,0-31.27,7.19-42.1,21.33-12,15.65-13.83,31.28-13.83,56.54v67.07h-20.45V762.88h20.45Z" fill="#fff"/><path d="M4168,885c-22.25,28-55,42.7-94.42,42.7-72.19,0-116.39-50.82-116.39-114.28,0-63.75,49.31-112.18,116.39-112.18,39.69,0,73.07,15.65,94.42,45.41l-17.14,12.93c-18.95-25-46-37.29-77-37.29-51.13,0-94.13,37.9-94.13,92.94,0,53.52,40.9,92.62,95.34,92.62,30.07,0,55.64-12.33,75.78-35.78Z" fill="#fff"/><path d="M4218.39,786c12-17.44,25-27.35,41.2-27.35,9.32,0,14.12,3,18.34,5.41l-10.83,17.44a24.55,24.55,0,0,0-10.82-3c-15,0-28.57,12.93-34.58,34.89-2.72,10.22-3.31,26.77-3.31,48.41v60.76h-21.66V762.88h21.66Z" fill="#fff"/><path d="M4450.24,843.16c0,45.41-35.19,83.3-83.31,83.3s-83.3-37.89-83.3-83.3c0-45.69,35.49-84.49,83.3-84.49S4450.24,797.48,4450.24,843.16Zm-145.55.3c0,34.9,26.16,64.06,62.24,64.06,35.79,0,62.26-29.16,62.26-64.06,0-35.48-28.27-65-62.26-65-34.28,0-62.24,29.53-62.24,65Z" fill="#fff"/><path d="M4482.93,889.16c10.22,11.43,21.35,18.35,33.37,18.35,15.64,0,29.48-12,29.48-27a25.71,25.71,0,0,0-13.23-22.27c-36.7-20.45-55.34-29.16-55.34-57.13,0-25.27,19.55-42.4,43.91-42.4,17.44,0,30.67,8.4,44.21,21.64l-13.24,13.53c-9.62-9.3-19.24-16.22-32.17-16.22-13.24,0-24.07,10.21-24.07,22.24,0,8.12,5.12,17.13,12.34,21.36,36.68,21.33,57.14,29.46,57.14,58.34,0,25-19.25,46.9-48.12,46.9-17.75,0-35.79-7.8-47.21-22.54Z" fill="#fff"/><path d="M4596.54,889.16c10.21,11.43,21.35,18.35,33.37,18.35,15.64,0,29.48-12,29.48-27a25.69,25.69,0,0,0-13.24-22.27c-36.68-20.45-55.33-29.16-55.33-57.13,0-25.27,19.54-42.4,43.91-42.4,17.44,0,30.67,8.4,44.21,21.64l-13.24,13.53c-9.62-9.3-19.24-16.22-32.18-16.22-13.23,0-24.05,10.21-24.05,22.24,0,8.12,5.11,17.13,12.33,21.36,36.68,21.33,57.14,29.46,57.14,58.34,0,25-19.25,46.9-48.12,46.9-17.75,0-35.79-7.8-47.21-22.54Z" fill="#fff"/><polygon points="1677.73 37.85 1626.33 37.85 1626.33 550.43 1874.77 550.43 1874.77 500.46 1677.73 500.46 1677.73 37.85" fill="#fff"/><rect x="1968.29" y="37.85" width="51.4" height="512.58" fill="#fff"/><polygon points="2629.36 37.85 2423.03 458.35 2214.57 37.85 2206.01 37.85 2133.18 550.43 2183.16 550.43 2232.41 180.63 2416.61 550.43 2429.46 550.43 2610.79 183.47 2660.76 550.43 2710.74 550.43 2637.91 37.85 2629.36 37.85" fill="#fff"/><path d="M3075.54,25c-147.79,0-266.29,118.5-266.29,271.3,0,143.48,112.79,267,270.57,267,152.06,0,269.86-118.5,269.86-269.16C3349.68,141.36,3231.17,25,3075.54,25Zm2.86,488.33c-115.66,0-215.61-90.68-215.61-217C2862.79,164.94,2965.59,75,3078.4,75c113.51,0,217.74,88.54,217.74,218.47,0,128.48-97.81,219.87-217.74,219.87Z" fill="#fff"/><polygon points="3938.5 28.47 3737.98 437.11 3535.38 28.47 3512.85 28.47 3437.35 559.83 3506.36 559.83 3552.66 212.27 3725.78 559.83 3750.29 559.83 3920.6 215.15 3967.57 559.83 4036.56 559.83 3961.06 28.47 3938.5 28.47" fill="#fff"/><path d="M4338.16,28.47,4086.55,559.83h77.88l80-168.51h209.46l80.67,168.51h75.65l-248-531.36Zm84,294.12h-146l73.57-154.27Z" fill="#fff"/><polygon points="4575.97 97.2 4691.63 97.2 4691.63 559.83 4761.81 559.83 4761.81 97.2 4876.03 97.2 4876.03 28.47 4575.97 28.47 4575.97 97.2" fill="#fff"/><polygon points="5262.24 97.2 5262.24 28.47 4950.76 28.47 4950.76 559.83 5262.24 559.83 5262.24 491.09 5020.94 491.09 5020.94 307.83 5262.24 307.83 5262.24 239.06 5020.94 239.06 5020.94 97.2 5262.24 97.2" fill="#fff"/><path d="M1051,1005.94H50.75c-38.39,0-62.84-41-44.58-74.78L509.62,0l72.54,130.88L179.67,878.14H836.2l-89-173.94,72.72-124Z" fill="#00aeef"/><polygon points="179.69 878.14 580.58 130.88 509.62 3.15 34.78 878.53 179.69 878.14" fill="url(#a)"/><path d="M836.22,878.14H181.63c-138.77,0-61.5-157.5-61.5-157.5L6.74,932.17C-11.16,965.55,13,1006,50.91,1006H904.05Z" fill="url(#b)"/><path d="M836.22,878.14H181.63c-138.77,0-61.5-157.5-61.5-157.5L6.74,932.17C-11.16,965.55,13,1006,50.91,1006H896.36Z" fill="#00aeef"/></svg>