<svg xmlns="http://www.w3.org/2000/svg" viewBox="0 0 867.29 1352.16"><title>content-bg</title><g id="bf95ae8a-7867-4c04-81be-07c43dc28ea4" data-name="Layer 2"><g id="b88bbb9a-1b15-422b-9583-f3c30aae8cf9" data-name="Layer 1"><path d="M75.76,1254c.85,3.81,1.2,7.8,2.27,11.61,1.33,4.77,2.69,9.54,4.38,14.19,1.36,3.75,3.21,7.33,4.89,11,2.58,5.56,6.24,10.44,9.55,15.55,4.85,7.48,11.23,13.66,17.74,19.6,5.12,4.67,11,8.44,17,12,8,4.84,16.86,7.55,25.55,10.72,1.82.67,0,0,5.47,1.29,3.19.33,6.38.69,9.58,1,21.5,2.06,43.06.72,64.59,1s43.33,0,65,0H756.24c2.34,0,4.73.32,7-.09s4.73-.69,7.07-1.06c2.05-.33,4.43-.29,6.2-1.85,4.11.34,7.56-1.77,11.27-3,7.13-2.28,13.66-5.69,20.15-9.34a81.9,81.9,0,0,0,11.08-7.08,150.7,150.7,0,0,0,13.63-11.73c1.37-1.38,4.25-4.69,5.71-6l7-8c4.08-4.61,0,0,10.13-12.55C862,1282.19,863,1274,863,1274c5.42-21.64,4.27-34.33,4-40.25-.28-6.11-1.26-24.8-1.26-24.8s.19-20.31-4.51-36.39c-5.75-12.71-5.3-11.83-5.3-11.83s-4.06-8-6.55-11.77a162.37,162.37,0,0,0-16.26-20.25,140.18,140.18,0,0,0-10.87-9.92,57.65,57.65,0,0,0-5.42-3.79c-3.38-2.29-6.79-4.54-10.16-6.85-4.5-3.09-9.8-4.53-14.56-7.11a22.35,22.35,0,0,0-5.65-2c-4.26-1-8.22-3.23-12.75-3-1.84-1.94-4.53-.67-6.76-1.83-1.85-1-4.67.12-6.73-.63-2.49-.92-4.87-.49-7.27-.5Q536.47,1093,320,1093a40.6,40.6,0,0,1-11-1.15c-1.9-.54-3.81-.35-5.58-1-4.79-1.68-9.62-3.31-14.29-5.31a94.59,94.59,0,0,1-27-18,78.34,78.34,0,0,1-7.86-8.71c-3.27-4.1-6.75-8.16-9.08-12.77-4.93-9.77-10.94-19.19-12.12-30.47-2-3.66-2.14-7.83-2.89-11.78a69.54,69.54,0,0,1-1-13.06c0-5.2-.25-10.37.73-15.62.84-4.49,1.25-9.11,2.15-13.64a96.28,96.28,0,0,1,7.55-22.38c3.41-7.19,6.57-14.59,12.31-20.41.83-2.88,3.95-4,5.23-6.34,2.73-5.11,8-7.5,11.73-11.51,1.47-1.58,3.55-2.6,5.38-3.84a94.67,94.67,0,0,1,18-9.69,80,80,0,0,1,27.38-6.22c12.16-.38,24.33-.09,36.5-.09H465c12.16,0,24.33-.16,36.49,0s24.1-1,36.08,1q100.5,0,201,0c5,0,10.06-.63,15.09-1a2.67,2.67,0,0,0,1-.11c2.6-1.23,5.48-1.25,8.21-1.9,2.12-.5,4.25-1,6.32-1.64,3.23-1,6.4-2.26,9.62-3.34,3.79-1.28,14.52-6.66,17.76-9,4-2.9,8.16-5.47,12-8.68,3.17-2.67,6.78-4.86,9.65-7.94,3.34-3.59,6.73-7.15,9.87-10.92,2.52-3,4.73-6.34,7-9.58,3.94-5.6,6.93-11.75,10-17.83a87.09,87.09,0,0,0,6.56-16.27c1.37-4.95,3-9.87,3.51-15.09a40.75,40.75,0,0,1,1.08-6A29.43,29.43,0,0,0,857,766v-4a11.14,11.14,0,0,0,1-3.06q.15-7.94,0-15.88a11.14,11.14,0,0,0-1-3.06v-3c-.33-3.69-.1-7.56-1.14-11-1.42-4.77-2.23-9.68-3.84-14.39-2.14-6.27-4-12.66-7-18.58-1.93-3.71-4-7.34-6-11-4-7.3-9.13-13.73-14.55-19.94-2.84-3.26-6.1-6.15-9.15-9.23-3.85-3.89-8.49-6.73-12.84-10-5.93-4.41-12.49-7.59-19-10.81a110,110,0,0,0-24.67-8c-1.87-1.94-4.55-.16-6.45-1.3-2.39-1.43-4.84-.64-7.21-.65q-56.49-.1-113,0H627V79l113,1h3c4.26-.44,4.26-.44,7.08-.88,5.2-.83,10.17-1.88,15.22-3.06a102.72,102.72,0,0,0,20-7.18A157.68,157.68,0,0,0,814,51c6.51-5.27,22-22,22-22s12.66-16,14-20c1-2,2-9,2-9H809l-1,1-5,8.57c-3.79,3.68-7.51,7.43-11.22,11.19l-18.59,12.6c-2.81,1.18-5.44,2.7-8.34,3.8a79.09,79.09,0,0,1-11.33,3.59c-3.48.75-7,1.91-10.61,1.84l-52.51-.33L631.76,42h-2.49c-2.15,0-2.15,0-2.27-3V0H589V41.82c-15.62.67-60.8.41-65-.34V0H487V42H399.08c-1.75,0-3.58-.33-5.08,1h-3l-5.27,1.77c-1.77-1.73-3.34.36-5.07.3-5.43-.2-10.49,1.8-15.55,3.41-4.24,1.35-8.22,3.59-12.38,5-5.66,2-10.62,5.14-15.62,8.09C327.7,67.17,319.4,74.35,311.57,82c-2.43,2.37-4.5,5.12-6.74,7.68-2.47,2.81-5,5.56-7.39,8.44-1.29,1.57-2.26,3.39-3.45,5.06a118.17,118.17,0,0,0-8.59,14.92,185.47,185.47,0,0,0-9.46,21.57c-1.64,4.54-2.57,9.25-3.91,13.86-1.39,4.82-2,9.84-2.91,14.76A89.94,89.94,0,0,0,268,182.33c-.17,5,0,10,0,15,0,5.83-.13,11.66,0,17.48s.43,11.41,1,17.06c.27,2.53,1.17,5,.91,7.59,1.82,1.39.19,3.76,1.14,5,1.35,1.74.39,3.52,1,5.15s1.54,3.08,1.85,4.71c1.22,6.44,3.94,12.38,6.4,18.35,1.51,3.65,3.59,7.2,5.35,10.78,4.45,9,10.46,16.9,16.85,24.44a123.31,123.31,0,0,0,17.14,16.34,57.35,57.35,0,0,0,5.63,4.54c4.77,2.89,9.64,5.63,14.57,8.23,4.09,2.15,8.16,4.55,12.52,5.92,7.55,2.36,14.79,6,23,6.11,1.44,1.61,3.37.75,5.08,1a45,45,0,0,0,5.09.93c3.82.15,7.65.05,11.48.05,3.67,0,7.46.6,11-.17s7.21-.58,10.73-1.74,7.48-1.18,11-2.41c10.78-3.76,16.85-6.08,27.84-12.45a152.5,152.5,0,0,0,18.51-13c5.31-4.23,9.78-9.51,14.55-14.39.37-.37.27-1.2.39-1.82,1.22-1.05,2.72-1.91,3.62-3.2,4.71-6.75,9.48-13.48,13-21,2.75-5.82,5.84-11.48,7.76-17.69,1.37-4.43,2.52-8.93,3.82-13.36A103.64,103.64,0,0,0,521.76,239c.7-3.88,2-7.88,1.24-12v-3c2.18-1,.93-2.89.94-4.28Q524,149.36,524,79h65V653.83c0,.84,0,1.67,0,2.5.07,3.31.37,3.6,3.71,3.67h2.5q72.72,0,145.46-.06a58.35,58.35,0,0,1,18.73,3.11c6,2,12,4,17.27,7.85,3.57,2.63,7.19,5.19,10.78,7.8,5.49,4,9.4,9.25,13.56,14.39,3.86,4.78,6.27,10.48,9.9,15.41,1.35,1.84,2.77,4.06,3,6.21.51,5.87,4.56,10.79,4.16,16.82,1.78,3.88,2.08,8,2,12.18a27.08,27.08,0,0,0,0,3.49c0,.3.62.54,1,.8v5c-1.38,0-.94,1.07-1,1.79-.28,3.87-.16,7.7-.8,11.62a118.26,118.26,0,0,1-4.24,18.3c-1.17,3.5-2,7.33-4.14,10.22a92.13,92.13,0,0,0-4.9,8.43,62.94,62.94,0,0,1-7,10.08,123.26,123.26,0,0,1-12.37,12.35,60.26,60.26,0,0,1-14.08,9.36c-5.23,2.37-10.28,4.93-16,6.06-2.73.53-5.38,1.49-8.22,1.89a62.79,62.79,0,0,1-9.1.94c-15.49-.09-31,0-46.49,0h-186c-15.5,0-31,.18-46.49,0s-30.76,1.11-46.08-1c-31.5,0-63,0-94.49,0-4.19,0-8.39.63-12.58,1-.17,0-.43-.07-.49,0-1.42,2-3.83.17-5.43,1.39-1.79,1.35-3.86.12-5.71.71s-3.46,1.32-5.22,1.88c-3.68,1.17-7.54,1.93-11.05,3.48-6.81,3-13.7,5.87-19.66,10.49-1.07.83-2.54,1.14-3.74,1.82-8.07,4.58-14.28,11.47-21.26,17.39a68.85,68.85,0,0,0-8.86,9.79c-2.45,3.07-4.44,6.5-6.78,9.67-3,4-5.28,8.51-8,12.62-3.68,5.52-5.27,11.92-8.8,17.4-1,6.17-3.83,11.77-5.28,17.85-1.27,5.29-2.43,10.64-3.55,16s-.86,10.69-1.16,16c-.08,1.5,0,3,0,4.5v6c-.74,6.25,1.05,12.37,1,18.58a2.19,2.19,0,0,0,.07,1c1.41,2.38,1.15,5.17,1.9,7.71a72.08,72.08,0,0,1,2,8.17c1.46,8.65,5.09,16.54,8.51,24.48,2.57,6,6.15,11.48,9.46,17.09a95.59,95.59,0,0,0,12.75,17.22,21.13,21.13,0,0,1,3.68,4.45,12.54,12.54,0,0,0,4.88,4.89c2.46,1.29,3.89,3.45,5.89,5.08a49.82,49.82,0,0,1,5.89,5c2.84,3.19,6.74,4.8,10.06,7.27,2.81,2.1,6.19,3.46,9.36,5.08s6.55,3.5,10,4.87a100.62,100.62,0,0,0,16.38,5.11c3.86.83,7.57,2.54,11.67,2,1.75,2,4.2.29,6,1.08a15.89,15.89,0,0,0,6.62.92q205.25,0,410.49.06c10.86,0,21.75-1,32.6.85a91.7,91.7,0,0,1,15.36,4,112.18,112.18,0,0,1,13,6.13c6.65,3.41,11.69,8.88,17.38,13.5,1.33,1.07,2,2.94,3.26,4.1,5.65,5.12,9.06,11.8,12.73,18.26,3,5.24,4.53,11.1,6.47,16.81,1.85,5.43,1.91,4.58,3.59,16.51.52,24.62,1.23,22.19-1.85,33.21-1.4,5-3.74,14.41-6.73,20.74a91.4,91.4,0,0,1-12.91,20.59c-4.68,5.47-10.44,10-15.73,15a1.53,1.53,0,0,1-.38.29c-7.21,3.51-13.62,8.67-21.57,10.67-5.81,1.47-11.51,3.37-17.63,3.35-17.5-.06-35,0-52.5,0h-421c-17.66,0-35.33.19-53,0-17.36-.24-34.74,1-52.09-.85a64.11,64.11,0,0,1-12.15-2.13c-4.13-1.28-8.54-2.2-12.16-4.39-5.54-3.34-11.5-6.33-15.74-11.53l-4.6-4.64A39.59,39.59,0,0,1,128,1286c-3.79-5.5-7.5-11.07-9.92-17.36-.17-.43-.12-1-.38-1.33L115,1259a78,78,0,0,1-3.9-25.85Q110.94,902,111,570.77a59,59,0,0,0-.73-11.13c-.85-4.49-1.27-9.12-2.25-13.62-.73-3.35-1.44-6.72-2.48-10a116,116,0,0,0-8.8-20.85c-2-3.66-3.83-7.45-6-11L60,471.63,38.74,459.05c-4.24-1.81-8.61-3.36-13-4.76A74.19,74.19,0,0,0,16.16,452,62.6,62.6,0,0,0,2.08,451C1.41,451,.7,450.33,0,450v37a9.47,9.47,0,0,0,1.41,0c1.78-.3,1.61.9,1.59,2H9c3.34-.65,6.27,1.07,9.13,2.12l31,20.5c3.54,3.33,5.92,7.54,8.9,11.3,3.64,4.58,5.83,9.9,8.38,15,2.14,4.31,3.36,8.95,4.64,13.59,2.54,9.12,3,18.38,3,27.77q-.08,327.75,0,655.49ZM389,314a7.66,7.66,0,0,0-2.58-.95c-4.38.15-8.35-2-12.68-2.05-9.48-3.49-18.91-7-26.94-13.51a40.87,40.87,0,0,0-4.84-3.94c-6.28-3.63-10-9.75-14.61-15-3.76-4.29-6.43-9.58-9.29-14.59a91.78,91.78,0,0,1-4.62-10.08c-1.79-4.28-2.75-8.84-4.29-13.21a43.28,43.28,0,0,1-2-11.13c-.37-5.36-1.77-10.63-1.25-16.08.35-3.63.07-7.33.07-11,0-5-.08-10,0-15s-.17-9.71.82-14.62c.74-3.69,1.24-7.45,2.13-11.14A105.77,105.77,0,0,1,316,140.67a121.2,121.2,0,0,1,25-35.14c1.6-1.56,3.61-2.71,5.19-4.29,4.09-4.09,9-7.07,14-9.76,5.94-3.22,11.93-6.5,18.7-8,2.27-.48,4.84-.85,6.68-1.89C388.51,80,391.38,80,394.41,80c1.62,0,3.24.15,4.59-1h88V218a14.63,14.63,0,0,0-1,3.06c-.15,2,0,4,0,5.94v1c-.33.53-1,1.09-.95,1.58.42,4.1-1.15,7.85-2.11,11.66a74.33,74.33,0,0,1-3.87,12.39c-2.35,5.21-4.37,10.56-7.55,15.37-3.32,5-6.32,10.29-10.62,14.6-2.59,2.59-5.13,5.24-7.79,7.76a69.9,69.9,0,0,1-17.36,12.38c-9.71,4.76-19.58,9-30.66,9.3-.71,0-1.39.63-2.09,1Z" style="fill:#ecf5fb"/></g></g></svg>