<svg xmlns="http://www.w3.org/2000/svg" height="90" viewBox="0 0 84.24 86.43"><title>icon-car-seat</title><g id="aa807432-1a19-42fa-b026-d2c9291c8d09"><g id="b1fe7604-5182-4789-a1cc-e030fd6eecd0"><path d="M14.12,80.08l-.57-2.57C2.39,27.75,3.48,26.09,3.84,25.55c2.9-4.44,10.36-3.16,13.36-1.27,11.27,7,12.66,45.78,11.87,48.49l-.28.94-1.05.09h-.3a15.22,15.22,0,0,0-11.62,4.25Zm-8-53.28c-.16,3.27,5.5,30.11,9.47,48a19.1,19.1,0,0,1,11-3.57c.22-6.12-1.8-39.1-10.82-44.73C13.52,25,8.07,24.23,6.13,26.8Z" fill="currentColor"/><path d="M76.16,76.86c-12.54,0-55.45-.08-55.74-.08-.65,0-1,0-4.83-4.76l-.19-.28a4.76,4.76,0,0,1,.22-4,9.58,9.58,0,0,1,3.16-2.88,9.73,9.73,0,0,1,4.11-1.2c1-.18,3.41-.35,6.78-.61,6.34-.46,15.92-1.17,22.56-2.42,2.31-.44,4.52-1,6.67-1.63a22.73,22.73,0,0,1,21.68,1.62,13.37,13.37,0,0,1,3,5.27,13.61,13.61,0,0,1,.45,6.08,5.92,5.92,0,0,1-4.51,4.92ZM20.88,74.18l58.37.11a3.39,3.39,0,0,0,1.56-1.09,3.46,3.46,0,0,0,.72-1.77,11.56,11.56,0,0,0-2.47-8.74,20.41,20.41,0,0,0-19.48-1.22c-2.2.6-4.45,1.22-6.86,1.67A227.57,227.57,0,0,1,29.87,65.6c-3.17.24-5.67.43-6.51.58-3.63.66-4.95,1.83-5.43,2.69a2.23,2.23,0,0,0-.19,1.68C18.91,72,20.29,73.58,20.88,74.18Z" fill="currentColor"/><path d="M7.75,21.64c-2.87,0-6.64-.71-7.55-7.3C-.06,12.39,0,5.52,0,4.89a4.6,4.6,0,0,1,1.24-3.2A6.28,6.28,0,0,1,3.52.34,6.19,6.19,0,0,1,6.15,0a9.78,9.78,0,0,1,9.71,9.66,13.19,13.19,0,0,1-2,9.7,6.5,6.5,0,0,1-5,2.22C8.58,21.62,8.17,21.64,7.75,21.64ZM6,2.63a3.91,3.91,0,0,0-2.81.83,2,2,0,0,0-.54,1.35v.08c0,2,0,7.59.16,9.09.73,5.25,3.18,5.2,5.78,5a4.24,4.24,0,0,0,1.83-.28,4.19,4.19,0,0,0,1.54-1A10.53,10.53,0,0,0,13.28,10a7,7,0,0,0-.51-2.79,7.21,7.21,0,0,0-1.54-2.39A7.41,7.41,0,0,0,8.89,3.21a7.36,7.36,0,0,0-2.78-.58Z" fill="currentColor"/><path d="M54.11,86.43c-4.14,0-9.58,0-15,0l-5.28,0a16.68,16.68,0,0,1-11.13-5.75l-1.74-2.13H75.26l-.14,1.43c-.05.57-.93,5.62-13.81,6.45C60.62,86.41,57.9,86.43,54.11,86.43ZM27,81.09a12.9,12.9,0,0,0,6.8,2.68l5.29,0c7.21,0,20.6.09,22.07,0a18.93,18.93,0,0,0,10.17-2.68Z" fill="currentColor"/><path d="M70.61,68.82c-6.48,0-17.3-.13-35.43-.44l-1,0L20.34,11.25l.05-.28a9.07,9.07,0,0,1,9.53-6.45H30A16.71,16.71,0,0,1,44.7,17.06a108.18,108.18,0,0,1-.59,21.51c-.14,1.91-.28,3.57-.35,4.79-.37,6,1,10,3.56,10.7a26.33,26.33,0,0,0,10-1.23,23.52,23.52,0,0,1,10.85-1.57A16.58,16.58,0,0,1,81,67.27l0,.56-.39.41C80.3,68.55,80.06,68.82,70.61,68.82Zm-34.38-3c15.19.26,36.83.53,42.05.37A14.19,14.19,0,0,0,67.87,53.85a21.84,21.84,0,0,0-9.7,1.44,27.06,27.06,0,0,1-11.54,1.27c-3.93-1.09-5.92-6-5.47-13.36.08-1.22.21-2.91.35-4.83a138.68,138.68,0,0,0,.73-20.48A14.3,14.3,0,0,0,30,7.12H30A6.63,6.63,0,0,0,23,11.22Z" fill="currentColor"/><path d="M36.68,61l-.9-2.52a1.42,1.42,0,0,1-.08-.5,1.19,1.19,0,0,1,.13-.49,1.31,1.31,0,0,1,.3-.41,1.24,1.24,0,0,1,.43-.25,1.1,1.1,0,0,1,.51-.09,1,1,0,0,1,.49.12,1.12,1.12,0,0,1,.41.3,1.24,1.24,0,0,1,.25.45l.26.71a60.46,60.46,0,0,0,6.3-.59c2.21-.46,9.12-1.63,9.12-1.63l.45,2.56s-6.86,1.17-9,1.61a70.67,70.67,0,0,1-7.68.69Z" fill="currentColor"/></g></g></svg>
