<svg xmlns="http://www.w3.org/2000/svg" viewBox="0 0 52 61"><title>Forward facing baby seat</title><path d="M9.16,54.23l-7.49-37,.74-.33a8.06,8.06,0,0,1,2-.54,7.9,7.9,0,0,1,6.2,2.07,12.71,12.71,0,0,1,3,4.65,41.62,41.62,0,0,1,2.2,7.34,111.85,111.85,0,0,1,2.14,18l0,.93-.92.11a11.94,11.94,0,0,0-4.46,1.19h0a7,7,0,0,0-2.15,1.85ZM4,18.5l6.36,31.37a7.51,7.51,0,0,1,1.37-.93h0A12.53,12.53,0,0,1,16,47.63a108.21,108.21,0,0,0-2-16.77,40.62,40.62,0,0,0-2.09-7A10.83,10.83,0,0,0,9.32,20a5.8,5.8,0,0,0-4.64-1.6A6.66,6.66,0,0,0,4,18.5Z" fill="currentColor"/><path d="M47.43,61c-7,0-20.78,0-32.32,0a4.19,4.19,0,0,1-4.2-4.18c-.11-2.22,1.34-4.15,3.78-5a31.25,31.25,0,0,1,5.72-1.21c2.23-.32,4.93-.61,8-.86,5.46-.45,11-.69,13.54-.69a16.31,16.31,0,0,1,6.15.89,5.79,5.79,0,0,1,3.51,3.7,6.31,6.31,0,0,1-.37,5.13A4.32,4.32,0,0,1,47.43,61ZM42,51c-2.45,0-8,.24-13.37.68-3.06.25-5.72.54-7.91.85a30.49,30.49,0,0,0-5.32,1.1c-1.61.59-2.53,1.74-2.46,3.08A2.22,2.22,0,0,0,15.11,59h0c11.55,0,25.33,0,32.32,0a2.35,2.35,0,0,0,2.09-1.29,4.32,4.32,0,0,0,.21-3.51,3.79,3.79,0,0,0-2.37-2.49A14.68,14.68,0,0,0,42,51Z" fill="currentColor"/><path d="M5.18,14.61a5,5,0,0,1-3-.8,5.86,5.86,0,0,1-2-4.16C0,9,0,7.33,0,6.1S0,3.47,0,3.24H0A2.94,2.94,0,0,1,1,.78,4.11,4.11,0,0,1,3.5,0,8.06,8.06,0,0,1,6.39.49a6.39,6.39,0,0,1,2.3,1.37,8.86,8.86,0,0,1,2,7.83C10,12.77,8,14.61,5.18,14.61ZM3.68,2H3.56a2.11,2.11,0,0,0-1.27.34c-.08.06-.29.23-.28.87v0c0,.21,0,1.46,0,2.83,0,1.63.06,2.83.12,3.29a4,4,0,0,0,1.22,2.8,3,3,0,0,0,1.84.43c2.48,0,3.3-2.1,3.57-3.34a6.87,6.87,0,0,0-1.49-6,4.2,4.2,0,0,0-1.54-.89A6.06,6.06,0,0,0,3.68,2Z" fill="currentColor"/><path d="M21.06,46.4l-7.65-31,.48-.4a7.86,7.86,0,0,1,8.24-1.54A8.11,8.11,0,0,1,27.07,20a43,43,0,0,1,0,9.13l-.08,1a13.06,13.06,0,0,0,0,3.07,2.61,2.61,0,0,0,1.18,1.87,4.69,4.69,0,0,0,3,.61,18.58,18.58,0,0,0,3.48-.76l.44-.13a32.64,32.64,0,0,1,3.2-.81,7.22,7.22,0,0,1,3.44.09c2.46.75,4.14,3,4.84,6.56a19.82,19.82,0,0,1,.36,3.6h0c0,.23,0,.43,0,.62v.95l-3,.09-7.16.18c-6.74.17-11.76.27-14.9.32Zm-5.4-30.25,7,28.22c3.15,0,7.89-.15,14.08-.3l7.16-.18,1.08,0A17.09,17.09,0,0,0,44.64,41c-.56-2.81-1.73-4.51-3.47-5a5.45,5.45,0,0,0-2.51,0c-.94.17-1.93.46-3,.76l-.45.13a19.93,19.93,0,0,1-3.87.83,6.5,6.5,0,0,1-4.25-.92,4.62,4.62,0,0,1-2.07-3.18A14.32,14.32,0,0,1,25,30l.08-1a41.36,41.36,0,0,0,0-8.74,6.18,6.18,0,0,0-3.71-4.94A5.7,5.7,0,0,0,15.66,16.15Z" fill="currentColor"/><rect x="19.76" y="47.28" width="5.22" height="2" transform="matrix(0.16, -0.99, 0.99, 0.16, -28.87, 62.63)" fill="currentColor"/><rect x="42.19" y="45.07" width="2" height="4.38" transform="translate(-8.26 9.15) rotate(-11.05)" fill="currentColor"/></svg>
