<svg xmlns="http://www.w3.org/2000/svg" viewBox="0 0 28.25 28.25"><title>icon-pillow</title><path d="M25.31,28.25a2.74,2.74,0,0,1-1.95-.81A1.5,1.5,0,0,0,22.3,27,63.63,63.63,0,0,1,5.87,27a1.46,1.46,0,0,0-1,.44,2.75,2.75,0,0,1-3.9,0l-.18-.18a2.75,2.75,0,0,1,0-3.9,1.5,1.5,0,0,0,.44-1.06,63.63,63.63,0,0,1,0-16.43,1.46,1.46,0,0,0-.44-1A2.75,2.75,0,0,1,.81,1L1,.81a2.75,2.75,0,0,1,3.9,0A1.5,1.5,0,0,0,6,1.25a63.63,63.63,0,0,1,16.43,0,1.46,1.46,0,0,0,1-.44,2.75,2.75,0,0,1,3.9,0l.18.18a2.75,2.75,0,0,1,0,3.9A1.5,1.5,0,0,0,27,6a63.25,63.25,0,0,1,0,16.38,1.51,1.51,0,0,0,.44,1,2.75,2.75,0,0,1,0,3.9l-.18.18A2.74,2.74,0,0,1,25.31,28.25Zm-3.07-2.49a2.75,2.75,0,0,1,2,.8,1.49,1.49,0,0,0,2.12,0l.19-.18a1.5,1.5,0,0,0,0-2.13,2.76,2.76,0,0,1-.81-1.95.19.19,0,0,1,0-.08A62.67,62.67,0,0,0,25.76,6a2.74,2.74,0,0,1,.8-2,1.51,1.51,0,0,0,0-2.13l-.19-.18a1.49,1.49,0,0,0-2.12,0,2.76,2.76,0,0,1-1.95.81A62.85,62.85,0,0,0,6,2.49a2.94,2.94,0,0,1-2-.8,1.5,1.5,0,0,0-2.13,0l-.18.18A1.5,1.5,0,0,0,1.69,4,2.74,2.74,0,0,1,2.5,6a62.85,62.85,0,0,0,0,16.27,2.76,2.76,0,0,1-.8,2,1.5,1.5,0,0,0,0,2.13l.18.18a1.5,1.5,0,0,0,2.13,0,2.74,2.74,0,0,1,2-.81,62.85,62.85,0,0,0,16.27,0Z" fill="currentColor"/><path d="M19.62,24.25h-9a.63.63,0,0,1,0-1.25h9A3.38,3.38,0,0,0,23,19.62a.63.63,0,0,1,1.25,0A4.64,4.64,0,0,1,19.62,24.25Z" fill="currentColor"/><path d="M23.62,9.25A.63.63,0,0,1,23,8.62a3.37,3.37,0,0,0-3.38-3.37.63.63,0,0,1,0-1.25,4.63,4.63,0,0,1,4.63,4.62A.63.63,0,0,1,23.62,9.25Z" fill="currentColor"/></svg>
