<svg xmlns="http://www.w3.org/2000/svg" viewBox="0 0 73.33 80" fill="currentColor"><title>icon-calendar</title><g id="Layer_2"><g id="Capa_1"><path d="M65.33,2.67h-4V1.33a1.33,1.33,0,1,0-2.66,0V2.67H56V1.33a1.34,1.34,0,0,0-2.67,0V2.67H50.67V1.33a1.34,1.34,0,0,0-2.67,0V2.67H45.33V1.33a1.33,1.33,0,1,0-2.66,0V2.67H24V1.33a1.34,1.34,0,0,0-2.67,0V2.67H18.67V1.33a1.34,1.34,0,0,0-2.67,0V2.67H13.33V1.33a1.33,1.33,0,1,0-2.66,0V2.67H8V1.33a1.34,1.34,0,0,0-2.67,0V2.67h-4A1.33,1.33,0,0,0,0,4V66.67A1.34,1.34,0,0,0,1.33,68H40.07a1.33,1.33,0,0,0,1.33-1.33v-.25c0-.36-.06-.72-.06-1.09a17.29,17.29,0,0,1,.47-3.92,16.93,16.93,0,0,1,1.32-3.69c.06-.12.11-.24.17-.35.18-.34.37-.67.57-1,.06-.1.12-.2.19-.3.21-.34.44-.67.68-1l.15-.2c.27-.35.54-.68.83-1l0,0a17.58,17.58,0,0,1,7-4.74L53,49c.36-.13.72-.24,1.09-.34l.51-.14c.31-.07.62-.15.94-.21l.82-.12.72-.1c.54,0,1.08-.08,1.63-.08.36,0,.71,0,1.06,0l.17,0h0a17,17,0,0,1,4.92,1.1,1.35,1.35,0,0,0,1.73-.76,1.37,1.37,0,0,0,.09-.49V4A1.33,1.33,0,0,0,65.33,2.67ZM41.41,55.28c0,.08-.1.15-.14.23-.2.34-.37.68-.54,1l-.28.58c-.14.32-.28.65-.4,1,0,0,0,.07,0,.1V52h3.81A19.71,19.71,0,0,0,41.41,55.28ZM48,48.45c-.46.29-.9.6-1.33.92v0H40v-8h8Zm0-9.78H40v-8h8ZM48,28H40V20h8Zm10.67,2.67v8h-8v-8Zm-8-2.67V20h8v8Zm8,17.33c-.62,0-1.24,0-1.85.1-.27,0-.52.06-.78.1s-.65.08-1,.14l-1,.22-.61.16c-.4.11-.8.22-1.2.36l-.15.05c-.48.17-1,.35-1.43.55V41.33h8v4Zm5.33.74a18.88,18.88,0,0,0-2.67-.55V18.67A1.33,1.33,0,0,0,60,17.33H6.67a1.34,1.34,0,0,0-1.34,1.34V61.33a1.34,1.34,0,0,0,1.34,1.34h32.2a18.22,18.22,0,0,0-.2,2.66h-36V14.67H64ZM29.33,49.33v-8h8v8Zm8,2.67v8h-8V52Zm-8-13.33v-8h8v8Zm0-10.67V20h8v8ZM18.67,49.33v-8h8v8Zm8,2.67v8h-8V52Zm-8-13.33v-8h8v8Zm0-10.67V20h8v8ZM8,49.33v-8h8v8ZM16,52v8H8V52ZM8,38.67v-8h8v8ZM8,28V20h8v8ZM64,12H2.67V5.33H5.33V6.67A1.34,1.34,0,0,0,8,6.67V5.33h2.67V6.67a1.33,1.33,0,1,0,2.66,0V5.33H16V6.67a1.34,1.34,0,0,0,2.67,0V5.33h2.66V6.67a1.34,1.34,0,0,0,2.67,0V5.33H42.67V6.67a1.33,1.33,0,1,0,2.66,0V5.33H48V6.67a1.34,1.34,0,0,0,2.67,0V5.33h2.66V6.67a1.34,1.34,0,0,0,2.67,0V5.33h2.67V6.67a1.33,1.33,0,0,0,2.66,0V5.33H64Z"/><path d="M58.67,50.67A14.67,14.67,0,1,0,73.33,65.33,14.66,14.66,0,0,0,58.67,50.67Zm0,26.66a12,12,0,1,1,12-12A12,12,0,0,1,58.67,77.33Z"/><path d="M66.24,57.72a1.33,1.33,0,0,0-1.85,0l-5.72,5.73-3.06-3.06a1.34,1.34,0,0,0-1.89,1.89l4,4a1.34,1.34,0,0,0,1.89,0l6.67-6.67A1.34,1.34,0,0,0,66.24,57.72Z"/></g></g></svg>
