<svg viewBox="0 0 18 25" fill="none" xmlns="http://www.w3.org/2000/svg">
<path fill-rule="evenodd" clip-rule="evenodd" d="M8.80104 0.87207C6.5919 0.87207 4.80104 2.66293 4.80104 4.87207V7.07207C4.80104 9.28121 6.5919 11.0721 8.80104 11.0721H9.20104C11.4102 11.0721 13.201 9.28121 13.201 7.07207V4.87207C13.201 2.66293 11.4102 0.87207 9.20104 0.87207H8.80104ZM8.40495 15.4296C8.75888 15.6923 9.24309 15.6923 9.59702 15.4296L12.2341 13.4721H14.001C16.2101 13.4721 18.001 15.2629 18.001 17.4721V19.3984C18.001 20.1754 17.5509 20.8821 16.8467 21.2107L10.2696 24.28C9.46549 24.6553 8.53646 24.6553 7.73232 24.28L1.15521 21.2107C0.451058 20.8821 0.000976562 20.1754 0.000976562 19.3984V17.4721C0.000976562 15.2629 1.79184 13.4721 4.00098 13.4721H5.76787L8.40495 15.4296Z" fill="currentColor"/>
</svg>
