<svg width="91" height="68" viewBox="0 0 91 68" fill="none" xmlns="http://www.w3.org/2000/svg">
<path d="M15.0768 23.1018C14.8756 23.1019 14.6779 23.0494 14.5031 22.9496C14.3284 22.8498 14.1828 22.7061 14.0806 22.5328C13.9784 22.3594 13.9232 22.1624 13.9205 21.9613C13.9178 21.7601 13.9676 21.5616 14.0651 21.3856L17.895 14.403C17.9663 14.268 18.064 14.1486 18.1823 14.052C18.3006 13.9554 18.437 13.8835 18.5836 13.8405C18.7301 13.7976 18.8838 13.7845 19.0355 13.802C19.1873 13.8195 19.3339 13.8672 19.4668 13.9424C19.7341 14.092 19.9314 14.341 20.016 14.6354C20.1006 14.9297 20.0655 15.2455 19.9184 15.5141L16.0885 22.4966C15.9905 22.6797 15.8447 22.8328 15.6665 22.9394C15.4883 23.046 15.2845 23.1021 15.0768 23.1018Z" fill="currentColor"/>
<path d="M23.868 7.43999C23.5878 7.44285 23.3168 7.33959 23.1096 7.15093C22.9951 7.05169 22.9014 6.93075 22.8339 6.79509C22.7664 6.65943 22.7265 6.51174 22.7164 6.36057C22.7063 6.20939 22.7263 6.05771 22.7752 5.9143C22.824 5.77088 22.9008 5.63857 23.0011 5.52501C24.079 4.18053 25.4218 3.07214 26.9463 2.26875C28.4707 1.46535 30.1441 0.984121 31.8624 0.85498H59.991C61.6611 0.968477 63.2906 1.42111 64.78 2.18526C66.2693 2.94941 67.5874 4.00905 68.6536 5.2995C68.8597 5.52709 68.9669 5.82723 68.9517 6.13387C68.9365 6.44052 68.8001 6.72856 68.5725 6.93463C68.3449 7.1407 68.0447 7.24791 67.7381 7.23269C67.4314 7.21747 67.1434 7.08105 66.9373 6.85346C66.0831 5.80769 65.0286 4.94301 63.8357 4.31015C62.6429 3.67729 61.3357 3.28897 59.9907 3.16798H31.8622C30.4733 3.29595 29.125 3.70556 27.8997 4.37182C26.6743 5.03808 25.5976 5.94702 24.7351 7.04317C24.6279 7.16815 24.4949 7.26835 24.3452 7.33686C24.1955 7.40537 24.0327 7.44056 23.868 7.43999Z" fill="currentColor"/>
<path d="M76.1572 23.0312C75.9438 23.0316 75.7345 22.9727 75.5527 22.861C75.3708 22.7494 75.2236 22.5894 75.1274 22.3989L71.3426 14.9557C71.2737 14.8204 71.2322 14.673 71.2203 14.5217C71.2085 14.3703 71.2266 14.2182 71.2735 14.0739C71.3205 13.9296 71.3955 13.7959 71.4941 13.6806C71.5928 13.5653 71.7132 13.4705 71.8485 13.4017C71.9833 13.3308 72.131 13.2875 72.2828 13.2746C72.4346 13.2617 72.5874 13.2793 72.7323 13.3265C72.8771 13.3736 73.0111 13.4493 73.1262 13.5491C73.2413 13.6489 73.3352 13.7708 73.4024 13.9075L77.1873 21.3507C77.2562 21.4859 77.2977 21.6334 77.3096 21.7847C77.3214 21.936 77.3033 22.0882 77.2564 22.2325C77.2094 22.3768 77.1344 22.5105 77.0358 22.6258C76.9371 22.7411 76.8167 22.8359 76.6814 22.9047C76.52 22.9899 76.3398 23.0334 76.1572 23.0312Z" fill="currentColor"/>
<path d="M57.2606 23.4013H33.7026C33.396 23.4013 33.1019 23.2795 32.885 23.0627C32.6682 22.8458 32.5464 22.5517 32.5464 22.2451C32.5464 21.9384 32.6682 21.6444 32.885 21.4275C33.1019 21.2107 33.396 21.0889 33.7026 21.0889H57.2606C57.5673 21.0889 57.8613 21.2107 58.0782 21.4275C58.295 21.6444 58.4168 21.9384 58.4168 22.2451C58.4168 22.5517 58.295 22.8458 58.0782 23.0627C57.8613 23.2795 57.5673 23.4013 57.2606 23.4013Z" fill="currentColor"/>
<path d="M26.7575 42.1809H26.6943C5.6022 41.0339 3.78656 38.658 3.19985 37.8812C3.01558 37.6539 2.88427 37.3885 2.81547 37.1041C2.74667 36.8197 2.7421 36.5236 2.80211 36.2372C2.91051 35.8759 2.91051 35.8759 14.0571 21.5315L14.4007 21.0889H22.8375C23.1442 21.0889 23.4382 21.2107 23.6551 21.4275C23.8719 21.6444 23.9937 21.9384 23.9937 22.2451C23.9937 22.5517 23.8719 22.8458 23.6551 23.0627C23.4382 23.2795 23.1442 23.4013 22.8375 23.4013H15.5384C12.7292 27.0055 6.80347 34.6474 5.24988 36.6617C12.1564 39.1499 19.4887 40.2399 26.8204 39.8684C27.1215 39.8846 27.4045 40.0177 27.609 40.2395C27.8134 40.4612 27.9232 40.754 27.915 41.0555C27.9067 41.357 27.7811 41.6433 27.5648 41.8535C27.3485 42.0637 27.0587 42.1812 26.7571 42.1809H26.7575Z" fill="currentColor"/>
<path d="M66.8015 42.0996C66.5007 42.0997 66.2117 41.9828 65.9956 41.7735C65.7796 41.5642 65.6535 41.279 65.6441 40.9784C65.6347 40.6777 65.7428 40.3852 65.9453 40.1629C66.1479 39.9405 66.429 39.8057 66.7292 39.7871C73.5823 40.0772 80.4257 39.0215 86.8728 36.6798C85.1746 34.6203 78.8334 26.9875 75.8526 23.4013H68.8881C68.5815 23.4013 68.2874 23.2795 68.0706 23.0627C67.8537 22.8458 67.7319 22.5517 67.7319 22.2451C67.7319 21.9384 67.8537 21.6444 68.0706 21.4275C68.2874 21.2107 68.5815 21.0889 68.8881 21.0889H76.9366L77.2798 21.5044C89.2575 35.912 89.2575 35.912 89.3298 36.2011C89.3951 36.4917 89.395 36.7933 89.3294 37.0839C89.2638 37.3744 89.1344 37.6468 88.9505 37.8812C88.3815 38.6309 86.6381 40.9163 66.874 42.0996H66.8015Z" fill="currentColor"/>
<path d="M45.5904 67.6712C43.1154 67.6712 40.7488 67.617 38.5357 67.4996C30.5956 67.0926 4.66194 64.9523 4.30065 54.4112C4.29311 54.1051 4.40641 53.8083 4.61604 53.5852C4.82566 53.362 5.11474 53.2304 5.4207 53.2188H5.45687C5.75775 53.2173 6.04724 53.3338 6.26335 53.5431C6.47945 53.7525 6.605 54.0381 6.61309 54.3389C6.80271 59.8581 19.6748 64.221 38.653 65.1965C60.5219 66.2895 84.8834 62.4325 86.013 54.2214C86.06 53.9201 86.2215 53.6485 86.4639 53.4634C86.7062 53.2783 87.0107 53.1939 87.3138 53.2278C87.6172 53.2704 87.8917 53.4307 88.0777 53.6742C88.2636 53.9177 88.3462 54.2246 88.3074 54.5285C86.9527 64.4103 63.7014 67.6712 45.5904 67.6712Z" fill="currentColor"/>
<path d="M47.0737 62.4875C27.4272 62.4875 7.26533 58.1606 3.52574 49.0464C3.40835 48.7637 3.40808 48.4459 3.52497 48.163C3.64186 47.8801 3.86634 47.6552 4.14904 47.5379C4.43173 47.4205 4.74948 47.4202 5.03237 47.5371C5.31527 47.654 5.54015 47.8785 5.65754 48.1612C9.31592 57.0857 34.0483 61.2229 54.9506 59.9311C72.8088 58.8381 84.9401 54.3397 86.6202 48.1883C86.6542 48.0386 86.719 47.8977 86.8105 47.7745C86.902 47.6514 87.0182 47.5487 87.1517 47.473C87.2852 47.3973 87.433 47.3503 87.5857 47.3351C87.7384 47.3198 87.8926 47.3365 88.0384 47.3843C88.1847 47.4239 88.3217 47.4922 88.4415 47.5851C88.5613 47.678 88.6615 47.7938 88.7362 47.9257C88.811 48.0575 88.8589 48.2029 88.8771 48.3534C88.8953 48.5039 88.8835 48.6565 88.8424 48.8024C86.8731 56.0379 74.2541 61.0603 55.0951 62.2436C52.4574 62.4062 49.7746 62.4875 47.0737 62.4875Z" fill="currentColor"/>
<path d="M47.5163 53.7899H46.496C38.6311 53.7967 30.78 53.1318 23.0283 51.8026C22.8781 51.7761 22.7347 51.7201 22.6063 51.6379C22.4778 51.5558 22.3669 51.449 22.2798 51.3238C22.1928 51.1987 22.1313 51.0575 22.099 50.9085C22.0667 50.7595 22.0642 50.6056 22.0916 50.4556C22.1189 50.3056 22.1757 50.1625 22.2586 50.0345C22.3414 49.9065 22.4488 49.7961 22.5745 49.7098C22.7001 49.6234 22.8416 49.5628 22.9908 49.5313C23.14 49.4998 23.2939 49.4981 23.4438 49.5263C31.0646 50.83 38.7825 51.4828 46.514 51.4775C53.3524 51.5125 60.1852 51.0809 66.9648 50.1857C67.1167 50.1614 67.272 50.1676 67.4215 50.204C67.5711 50.2403 67.7119 50.3061 67.8357 50.3975C67.9596 50.4888 68.064 50.6039 68.1428 50.7361C68.2217 50.8683 68.2734 51.0148 68.295 51.1672C68.3166 51.3195 68.3077 51.4747 68.2686 51.6236C68.2296 51.7724 68.1613 51.912 68.0678 52.0342C67.9742 52.1564 67.8572 52.2587 67.7237 52.3352C67.5901 52.4117 67.4427 52.4608 67.29 52.4797C60.7375 53.3777 54.1301 53.8155 47.5163 53.7899Z" fill="currentColor"/>
<path d="M5.5734 56.055C5.31221 56.054 5.05891 55.9653 4.85416 55.8031C4.6494 55.641 4.50506 55.4147 4.44428 55.1607C3.15054 49.1761 2.48468 43.0729 2.45752 36.9502C2.45996 36.6452 2.58285 36.3534 2.79942 36.1386C3.01599 35.9238 3.30869 35.8032 3.61374 35.8032H3.62299C3.77496 35.804 3.92528 35.8348 4.0653 35.8938C4.20533 35.9529 4.33229 36.0391 4.43888 36.1474C4.54548 36.2557 4.62961 36.384 4.68643 36.525C4.74325 36.6659 4.77164 36.8167 4.76996 36.9687C4.81236 42.9086 5.46011 48.8287 6.70317 54.6372C6.77135 54.9365 6.71847 55.2507 6.55605 55.5113C6.39362 55.7718 6.13481 55.9577 5.836 56.0282C5.74962 56.0462 5.66162 56.0551 5.5734 56.055Z" fill="currentColor"/>
<path d="M86.9735 56.3538C86.8915 56.3537 86.8097 56.3446 86.7296 56.3267C86.4301 56.262 86.1687 56.081 86.0027 55.8235C85.8367 55.566 85.7797 55.2531 85.8444 54.9537C87.0016 49.0942 87.4324 43.1145 87.1271 37.1497C87.1062 36.8432 87.2076 36.5409 87.409 36.309C87.6105 36.0771 87.8956 35.9344 88.202 35.9122C88.5056 35.903 88.8015 36.0085 89.0309 36.2077C89.2602 36.4069 89.4061 36.6852 89.4395 36.9871C89.763 43.1702 89.3139 49.3696 88.1026 55.4415C88.0468 55.6996 87.9044 55.9308 87.699 56.0968C87.4936 56.2627 87.2376 56.3534 86.9735 56.3538Z" fill="currentColor"/>
<path d="M8.37691 23.1121H4.76395C3.65576 23.1069 2.59473 22.663 1.81295 21.8776C1.03118 21.0921 0.592285 20.029 0.592285 18.9208C0.592285 17.8126 1.03118 16.7495 1.81295 15.964C2.59473 15.1786 3.65576 14.7347 4.76395 14.7295H8.37691C9.4851 14.7347 10.5461 15.1786 11.3279 15.964C12.1097 16.7495 12.5486 17.8126 12.5486 18.9208C12.5486 20.029 12.1097 21.0921 11.3279 21.8776C10.5461 22.663 9.4851 23.1069 8.37691 23.1121ZM4.76395 17.0419C4.26793 17.0454 3.79341 17.2449 3.44389 17.5969C3.09437 17.9489 2.89822 18.4248 2.89822 18.9208C2.89822 19.4168 3.09437 19.8927 3.44389 20.2447C3.79341 20.5967 4.26793 20.7962 4.76395 20.7997H8.37691C8.87373 20.7949 9.34886 20.5954 9.70019 20.2441C10.0515 19.8928 10.251 19.4177 10.2557 18.9208C10.2559 18.6741 10.2074 18.4297 10.113 18.2017C10.0187 17.9736 9.88029 17.7664 9.70579 17.5919C9.5313 17.4174 9.32412 17.279 9.0961 17.1847C8.86808 17.0903 8.62369 17.0418 8.37691 17.0419H4.76395Z" fill="currentColor"/>
<path d="M14.0046 24.1147C13.7908 24.1154 13.5811 24.0559 13.3995 23.9431L10.2108 21.9829C9.95012 21.822 9.76382 21.5644 9.69273 21.2664C9.62165 20.9684 9.67158 20.6543 9.83159 20.3931C9.90978 20.2624 10.0133 20.1487 10.1361 20.0586C10.2589 19.9685 10.3985 19.9039 10.5466 19.8686C10.6948 19.8332 10.8485 19.8279 10.9987 19.8528C11.1489 19.8778 11.2927 19.9325 11.4214 20.0138L14.61 21.974C14.8243 22.1059 14.9898 22.3041 15.0812 22.5386C15.1726 22.7731 15.185 23.031 15.1166 23.2731C15.0481 23.5153 14.9025 23.7285 14.7018 23.8804C14.5012 24.0323 14.2565 24.1146 14.0048 24.1148L14.0046 24.1147Z" fill="currentColor"/>
<path d="M86.5217 23.1121H82.9085C81.8003 23.1069 80.7393 22.663 79.9575 21.8776C79.1757 21.0921 78.7368 20.029 78.7368 18.9208C78.7368 17.8126 79.1757 16.7495 79.9575 15.964C80.7393 15.1786 81.8003 14.7347 82.9085 14.7295H86.5217C87.6299 14.7347 88.6909 15.1786 89.4727 15.964C90.2545 16.7495 90.6934 17.8126 90.6934 18.9208C90.6934 20.029 90.2545 21.0921 89.4727 21.8776C88.6909 22.663 87.6299 23.1069 86.5217 23.1121ZM82.9085 17.0419C82.6617 17.0418 82.4173 17.0903 82.1893 17.1847C81.9613 17.279 81.7541 17.4174 81.5796 17.5919C81.4051 17.7664 81.2667 17.9736 81.1724 18.2017C81.078 18.4297 81.0295 18.6741 81.0297 18.9208C81.0385 19.4164 81.2393 19.8891 81.5897 20.2396C81.9402 20.59 82.4129 20.7908 82.9085 20.7997H86.5217C87.0177 20.7962 87.4923 20.5967 87.8418 20.2447C88.1913 19.8927 88.3875 19.4168 88.3875 18.9208C88.3875 18.4248 88.1913 17.9489 87.8418 17.5969C87.4923 17.2449 87.0177 17.0454 86.5217 17.0419H82.9085Z" fill="currentColor"/>
<path d="M77.2813 24.1141C77.0297 24.1139 76.7849 24.0316 76.5843 23.8797C76.3836 23.7278 76.238 23.5146 76.1696 23.2724C76.1011 23.0302 76.1135 22.7723 76.205 22.5379C76.2964 22.3034 76.4618 22.1052 76.6761 21.9732L79.8647 20.0131C79.994 19.9323 80.1381 19.8778 80.2885 19.8529C80.439 19.828 80.5929 19.8331 80.7414 19.868C80.8898 19.9028 81.0299 19.9667 81.1536 20.0559C81.2773 20.1452 81.3821 20.258 81.4619 20.3879C81.5418 20.5179 81.5951 20.6623 81.6189 20.8129C81.6427 20.9636 81.6364 21.1174 81.6005 21.2657C81.5645 21.4139 81.4996 21.5535 81.4094 21.6765C81.3193 21.7995 81.2056 21.9034 81.0751 21.9823L77.8865 23.9424C77.7048 24.0553 77.4951 24.1148 77.2813 24.1141Z" fill="currentColor"/>
<path d="M14.4173 53.5173C13.2739 53.5173 12.1562 53.1783 11.2055 52.543C10.2548 51.9078 9.51385 51.0049 9.07629 49.9485C8.63874 48.8922 8.52425 47.7298 8.74732 46.6084C8.97038 45.4869 9.52098 44.4568 10.3295 43.6483C11.138 42.8398 12.1681 42.2892 13.2895 42.0662C14.4109 41.8431 15.5733 41.9576 16.6297 42.3951C17.686 42.8327 18.5889 43.5737 19.2242 44.5244C19.8594 45.4751 20.1985 46.5928 20.1985 47.7362C20.1971 49.269 19.5875 50.7387 18.5037 51.8225C17.4198 52.9064 15.9502 53.5159 14.4173 53.5173ZM14.4173 44.2675C13.7313 44.2675 13.0607 44.471 12.4903 44.8521C11.9198 45.2333 11.4752 45.775 11.2127 46.4088C10.9502 47.0426 10.8815 47.74 11.0153 48.4129C11.1492 49.0858 11.4795 49.7038 11.9646 50.1889C12.4497 50.674 13.0678 51.0044 13.7406 51.1382C14.4135 51.2721 15.1109 51.2034 15.7447 50.9408C16.3786 50.6783 16.9203 50.2337 17.3014 49.6633C17.6826 49.0929 17.886 48.4222 17.886 47.7362C17.8858 46.8163 17.5202 45.9342 16.8698 45.2838C16.2193 44.6333 15.3372 44.2678 14.4173 44.2675Z" fill="currentColor"/>
<path d="M76.8534 53.5173C75.71 53.5173 74.5923 53.1783 73.6416 52.543C72.6909 51.9078 71.9499 51.0049 71.5123 49.9485C71.0748 48.8922 70.9603 47.7298 71.1834 46.6084C71.4064 45.4869 71.957 44.4568 72.7655 43.6483C73.574 42.8398 74.6041 42.2892 75.7255 42.0662C76.847 41.8431 78.0094 41.9576 79.0657 42.3951C80.1221 42.8327 81.025 43.5737 81.6602 44.5244C82.2954 45.4751 82.6345 46.5928 82.6345 47.7362C82.6331 49.269 82.0236 50.7387 80.9397 51.8225C79.8558 52.9064 78.3862 53.5159 76.8534 53.5173ZM76.8534 44.2675C76.1673 44.2675 75.4967 44.471 74.9263 44.8521C74.3559 45.2333 73.9113 45.775 73.6488 46.4088C73.3862 47.0426 73.3175 47.74 73.4514 48.4129C73.5852 49.0858 73.9156 49.7038 74.4007 50.1889C74.8858 50.674 75.5038 51.0044 76.1767 51.1382C76.8495 51.2721 77.547 51.2034 78.1808 50.9408C78.8146 50.6783 79.3563 50.2337 79.7375 49.6633C80.1186 49.0929 80.3221 48.4222 80.3221 47.7362C80.3218 46.8163 79.9563 45.9342 79.3058 45.2838C78.6554 44.6333 77.7733 44.2678 76.8534 44.2675Z" fill="currentColor"/>
<path d="M34.9863 48.6292C33.9406 48.6394 32.9177 48.3237 32.0596 47.7259C31.33 47.1725 30.7457 46.4501 30.357 45.6208C29.9684 44.7916 29.787 43.8803 29.8285 42.9655V38.2323C29.7005 37.3446 29.8395 36.4388 30.2277 35.6303C30.616 34.8218 31.2359 34.147 32.0087 33.6919C32.7815 33.2367 33.6723 33.0217 34.5676 33.0742C35.463 33.1266 36.3225 33.4443 37.0368 33.9866L44.7058 38.2502C44.8387 38.3238 44.9558 38.4228 45.0504 38.5415C45.145 38.6603 45.2152 38.7966 45.2572 38.9425C45.2991 39.0885 45.3119 39.2413 45.2948 39.3922C45.2777 39.543 45.231 39.6891 45.1575 39.8219C45.084 39.9548 44.985 40.0719 44.8662 40.1665C44.7474 40.2611 44.6111 40.3314 44.4652 40.3733C44.3192 40.4152 44.1664 40.428 44.0156 40.4109C43.8647 40.3938 43.7186 40.3472 43.5858 40.2736L35.9168 36.01C35.5288 35.7249 35.0737 35.5451 34.5956 35.4881C34.1175 35.4311 33.6328 35.4989 33.1887 35.6849C32.8112 35.9848 32.5167 36.3763 32.3333 36.8222C32.1499 37.2681 32.0837 37.7535 32.1409 38.2322V42.9654C32.063 43.5117 32.1378 44.069 32.357 44.5754C32.5763 45.0818 32.9314 45.5177 33.3831 45.8348C33.8348 46.1518 34.3655 46.3376 34.9163 46.3717C35.4671 46.4057 36.0166 46.2866 36.5039 46.0276L43.7574 43.39C43.8995 43.3352 44.0512 43.3096 44.2034 43.3147C44.3557 43.3197 44.5053 43.3553 44.6435 43.4194C44.7817 43.4834 44.9056 43.5746 45.0079 43.6875C45.1102 43.8004 45.1887 43.9326 45.2388 44.0765C45.344 44.364 45.3308 44.6815 45.2021 44.9592C45.0734 45.237 44.8396 45.4523 44.5523 45.5579L37.2988 48.1955C36.5592 48.4738 35.7766 48.6206 34.9863 48.6292Z" fill="currentColor"/>
<path d="M58.7898 48.6308C57.9996 48.6222 57.217 48.4754 56.4773 48.1971L48.4018 45.2614C48.1145 45.1559 47.8808 44.9405 47.7521 44.6628C47.6234 44.385 47.6102 44.0676 47.7154 43.7801C47.764 43.6352 47.8416 43.5017 47.9435 43.3878C48.0455 43.274 48.1696 43.1821 48.3082 43.1178C48.4469 43.0536 48.5972 43.0183 48.75 43.0141C48.9028 43.0099 49.0548 43.037 49.1967 43.0936L57.2723 46.0293C57.7596 46.2883 58.3091 46.4073 58.8599 46.3733C59.4107 46.3393 59.9413 46.1534 60.393 45.8364C60.8447 45.5194 61.1999 45.0835 61.4191 44.577C61.6384 44.0706 61.7132 43.5134 61.6352 42.967V38.2338C61.6917 37.756 61.6261 37.2717 61.4444 36.8262C61.2627 36.3806 60.9709 35.9885 60.5964 35.6865C60.15 35.5021 59.6635 35.4359 59.1841 35.4944C58.7046 35.553 58.2484 35.7343 57.8594 36.0207L49.6664 40.5823C49.3981 40.7309 49.0818 40.7667 48.787 40.682C48.4923 40.5973 48.2433 40.399 48.0947 40.1307C47.9462 39.8624 47.9103 39.546 47.995 39.2513C48.0797 38.9565 48.2781 38.7075 48.5464 38.5589L56.7393 33.9973C57.4523 33.4529 58.3114 33.1332 59.2068 33.079C60.1023 33.0249 60.9936 33.2387 61.7671 33.6933C62.5405 34.1478 63.161 34.8225 63.5494 35.6312C63.9377 36.4398 64.0764 37.3459 63.9477 38.2337V42.9669C63.9892 43.8818 63.8078 44.793 63.4191 45.6223C63.0305 46.4515 62.4462 47.1739 61.7165 47.7273C60.8585 48.3252 59.8355 48.641 58.7898 48.6308Z" fill="currentColor"/>
<path d="M46.8549 45.6585H46.34C45.2452 45.6585 44.1952 45.2236 43.421 44.4494C42.6468 43.6752 42.2119 42.6253 42.2119 41.5304C42.2119 40.4356 42.6468 39.3856 43.421 38.6114C44.1952 37.8373 45.2452 37.4023 46.34 37.4023H46.8549C47.397 37.4023 47.9338 37.5091 48.4346 37.7166C48.9354 37.924 49.3905 38.2281 49.7739 38.6114C50.1572 38.9948 50.4613 39.4498 50.6687 39.9507C50.8762 40.4515 50.9829 40.9883 50.9829 41.5304C50.9829 42.0725 50.8762 42.6093 50.6687 43.1102C50.4613 43.611 50.1572 44.0661 49.7739 44.4494C49.3905 44.8327 48.9354 45.1368 48.4346 45.3443C47.9338 45.5517 47.397 45.6585 46.8549 45.6585ZM46.34 39.7148C45.8585 39.7148 45.3967 39.9061 45.0562 40.2466C44.7157 40.5871 44.5244 41.0489 44.5244 41.5304C44.5244 42.012 44.7157 42.4738 45.0562 42.8143C45.3967 43.1548 45.8585 43.3461 46.34 43.3461H46.8549C47.3364 43.3461 47.7982 43.1548 48.1387 42.8143C48.4792 42.4738 48.6705 42.012 48.6705 41.5304C48.6705 41.0489 48.4792 40.5871 48.1387 40.2466C47.7982 39.9061 47.3364 39.7148 46.8549 39.7148H46.34Z" fill="currentColor"/>
<path d="M24.029 66.0999H12.8275C11.4289 66.0982 10.0881 65.5419 9.0992 64.553C8.11026 63.5641 7.55394 62.2233 7.55225 60.8247V60.2646C7.55225 59.958 7.67406 59.6639 7.8909 59.447C8.10773 59.2302 8.40182 59.1084 8.70847 59.1084C9.01512 59.1084 9.30921 59.2302 9.52604 59.447C9.74288 59.6639 9.86469 59.958 9.86469 60.2646V60.8247C9.86513 61.6103 10.1774 62.3637 10.733 62.9192C11.2885 63.4748 12.0418 63.7871 12.8275 63.7875H24.029C24.3356 63.7875 24.6297 63.9093 24.8466 64.1261C25.0634 64.343 25.1852 64.6371 25.1852 64.9437C25.1852 65.2504 25.0634 65.5445 24.8466 65.7613C24.6297 65.9781 24.3356 66.0999 24.029 66.0999Z" fill="currentColor"/>
<path d="M79.5451 66.0999H68.3442C68.0376 66.0999 67.7435 65.9781 67.5266 65.7613C67.3098 65.5445 67.188 65.2504 67.188 64.9437C67.188 64.6371 67.3098 64.343 67.5266 64.1261C67.7435 63.9093 68.0376 63.7875 68.3442 63.7875H79.5451C80.3308 63.7871 81.0841 63.4748 81.6397 62.9192C82.1952 62.3637 82.5075 61.6103 82.5079 60.8247V60.2646C82.5079 59.958 82.6298 59.6639 82.8466 59.447C83.0634 59.2302 83.3575 59.1084 83.6642 59.1084C83.9708 59.1084 84.2649 59.2302 84.4817 59.447C84.6986 59.6639 84.8204 59.958 84.8204 60.2646V60.8247C84.8187 62.2233 84.2624 63.5641 83.2734 64.553C82.2845 65.542 80.9436 66.0983 79.5451 66.0999Z" fill="currentColor"/>
<path d="M40.038 37.9715C39.844 37.9706 39.6532 37.9214 39.4829 37.8284C39.3126 37.7353 39.1682 37.6014 39.0626 37.4385L20.9423 9.04781L20.2378 10.1227C20.2161 10.1708 20.2041 10.2227 20.2026 10.2754C20.201 10.3281 20.2098 10.3806 20.2285 10.4299L34.6362 33.6717C34.7165 33.8008 34.7704 33.9445 34.7948 34.0945C34.8192 34.2446 34.8136 34.3979 34.7783 34.5458C34.7431 34.6936 34.6788 34.833 34.5893 34.9559C34.4999 35.0788 34.3869 35.1827 34.257 35.2616C34.1285 35.3439 33.9848 35.3995 33.8343 35.425C33.6839 35.4506 33.5299 35.4455 33.3814 35.41C33.233 35.3746 33.0933 35.3097 32.9705 35.219C32.8478 35.1283 32.7446 35.0138 32.6672 34.8824L18.2599 11.6403C18.0089 11.2126 17.8811 10.7238 17.8906 10.228C17.9002 9.7322 18.0468 9.24869 18.3141 8.83099L19.4796 7.06058C19.6363 6.81048 19.8531 6.60347 20.1102 6.45834C20.3672 6.31321 20.6564 6.23455 20.9516 6.22949H20.9608C21.2586 6.23715 21.5497 6.31981 21.807 6.46982C22.0644 6.61983 22.2798 6.83235 22.4332 7.08769L41.0136 36.1919C41.1775 36.4511 41.2325 36.7644 41.1665 37.0639C41.1005 37.3633 40.9189 37.6245 40.6613 37.7908C40.4761 37.9117 40.2591 37.9746 40.038 37.9715Z" fill="currentColor"/>
<path d="M49.3956 40.4374C49.1751 40.4362 48.9592 40.3736 48.7722 40.2568C48.6438 40.1752 48.5328 40.069 48.4456 39.9444C48.3583 39.8197 48.2966 39.6791 48.2639 39.5305C48.2311 39.382 48.2281 39.2284 48.2549 39.0786C48.2817 38.9289 48.3378 38.7859 48.42 38.6579L68.9159 6.64503C69.0677 6.39094 69.2816 6.17967 69.5376 6.03112C69.7936 5.88257 70.0832 5.80162 70.3792 5.7959H70.3884C70.6847 5.80075 70.975 5.88028 71.2323 6.02713C71.4897 6.17397 71.7059 6.38338 71.8608 6.63596L73.0351 8.3974C73.2989 8.81838 73.4426 9.30351 73.4505 9.80027C73.4585 10.297 73.3304 10.7865 73.0802 11.2157L57.6969 35.677C57.6182 35.8074 57.5141 35.9205 57.3907 36.0096C57.2673 36.0988 57.1272 36.1621 56.9788 36.1959C56.8304 36.2296 56.6766 36.233 56.5269 36.206C56.3771 36.1789 56.2343 36.1219 56.107 36.0383C55.9781 35.9584 55.8663 35.8537 55.7783 35.7302C55.6902 35.6067 55.6275 35.4669 55.5939 35.319C55.5603 35.1711 55.5564 35.018 55.5824 34.8686C55.6085 34.7191 55.664 34.5764 55.7457 34.4486L71.1199 9.98716C71.1484 9.88324 71.1452 9.77317 71.1106 9.67109L70.4061 8.61422L50.371 39.9045C50.2655 40.0673 50.121 40.2013 49.9507 40.2943C49.7804 40.3874 49.5896 40.4366 49.3956 40.4374Z" fill="currentColor"/>
</svg>
