<svg id="bb782b63-8c32-4faf-861d-cc0567807efe" xmlns="http://www.w3.org/2000/svg" viewBox="0 0 87 69"><path d="M62,69.08H4a4,4,0,0,1-4-4v-45a4,4,0,0,1,4-4H62a4,4,0,0,1,4,4v45A4,4,0,0,1,62,69.08Zm-58-51a2,2,0,0,0-2,2v45a2,2,0,0,0,2,2H62a2,2,0,0,0,2-2v-45a2,2,0,0,0-2-2Z" transform="translate(0 -0.08)" fill="currentColor"/><rect x="8" y="34" width="7" height="6" rx="2" fill="currentColor"/><path d="M13,41.08H10a3,3,0,0,1-3-3v-2a3,3,0,0,1,3-3h3a3,3,0,0,1,3,3v2A3,3,0,0,1,13,41.08Zm-3-6a1,1,0,0,0-1,1v2a1,1,0,0,0,1,1h3a1,1,0,0,0,1-1v-2a1,1,0,0,0-1-1Z" transform="translate(0 -0.08)" fill="currentColor"/><path d="M27,41.08H24a3,3,0,0,1-3-3v-2a3,3,0,0,1,3-3h3a3,3,0,0,1,3,3v2A3,3,0,0,1,27,41.08Zm-3-6a1,1,0,0,0-1,1v2a1,1,0,0,0,1,1h3a1,1,0,0,0,1-1v-2a1,1,0,0,0-1-1Z" transform="translate(0 -0.08)" fill="currentColor"/><path d="M41,41.08H38a3,3,0,0,1-3-3v-2a3,3,0,0,1,3-3h3a3,3,0,0,1,3,3v2A3,3,0,0,1,41,41.08Zm-3-6a1,1,0,0,0-1,1v2a1,1,0,0,0,1,1h3a1,1,0,0,0,1-1v-2a1,1,0,0,0-1-1Z" transform="translate(0 -0.08)" fill="currentColor"/><path d="M55,63.08H52a3,3,0,0,1-3-3v-2a3,3,0,0,1,3-3h3a3,3,0,0,1,3,3v2A3,3,0,0,1,55,63.08Zm-3-6a1,1,0,0,0-1,1v2a1,1,0,0,0,1,1h3a1,1,0,0,0,1-1v-2a1,1,0,0,0-1-1Z" transform="translate(0 -0.08)" fill="currentColor"/><path d="M13,52.08H10a3,3,0,0,1-3-3v-2a3,3,0,0,1,3-3h3a3,3,0,0,1,3,3v2A3,3,0,0,1,13,52.08Zm-3-6a1,1,0,0,0-1,1v2a1,1,0,0,0,1,1h3a1,1,0,0,0,1-1v-2a1,1,0,0,0-1-1Z" transform="translate(0 -0.08)" fill="currentColor"/><path d="M27,52.08H24a3,3,0,0,1-3-3v-2a3,3,0,0,1,3-3h3a3,3,0,0,1,3,3v2A3,3,0,0,1,27,52.08Zm-3-6a1,1,0,0,0-1,1v2a1,1,0,0,0,1,1h3a1,1,0,0,0,1-1v-2a1,1,0,0,0-1-1Z" transform="translate(0 -0.08)" fill="currentColor"/><path d="M41,52.08H38a3,3,0,0,1-3-3v-2a3,3,0,0,1,3-3h3a3,3,0,0,1,3,3v2A3,3,0,0,1,41,52.08Zm-3-6a1,1,0,0,0-1,1v2a1,1,0,0,0,1,1h3a1,1,0,0,0,1-1v-2a1,1,0,0,0-1-1Z" transform="translate(0 -0.08)" fill="currentColor"/><path d="M55,52.08H52a3,3,0,0,1-3-3v-2a3,3,0,0,1,3-3h3a3,3,0,0,1,3,3v2A3,3,0,0,1,55,52.08Zm-3-6a1,1,0,0,0-1,1v2a1,1,0,0,0,1,1h3a1,1,0,0,0,1-1v-2a1,1,0,0,0-1-1Z" transform="translate(0 -0.08)" fill="currentColor"/><path d="M13,63.08H10a3,3,0,0,1-3-3v-2a3,3,0,0,1,3-3h3a3,3,0,0,1,3,3v2A3,3,0,0,1,13,63.08Zm-3-6a1,1,0,0,0-1,1v2a1,1,0,0,0,1,1h3a1,1,0,0,0,1-1v-2a1,1,0,0,0-1-1Z" transform="translate(0 -0.08)" fill="currentColor"/><path d="M27,63.08H24a3,3,0,0,1-3-3v-2a3,3,0,0,1,3-3h3a3,3,0,0,1,3,3v2A3,3,0,0,1,27,63.08Zm-3-6a1,1,0,0,0-1,1v2a1,1,0,0,0,1,1h3a1,1,0,0,0,1-1v-2a1,1,0,0,0-1-1Z" transform="translate(0 -0.08)" fill="currentColor"/><path d="M41,63.08H38a3,3,0,0,1-3-3v-2a3,3,0,0,1,3-3h3a3,3,0,0,1,3,3v2A3,3,0,0,1,41,63.08Zm-3-6a1,1,0,0,0-1,1v2a1,1,0,0,0,1,1h3a1,1,0,0,0,1-1v-2a1,1,0,0,0-1-1Z" transform="translate(0 -0.08)" fill="currentColor"/><path d="M38,24.08H24a1,1,0,0,1,0-2H38a1,1,0,0,1,0,2Z" transform="translate(0 -0.08)" fill="currentColor"/><circle cx="65.5" cy="21.5" r="20.5" fill="#fff"/><path d="M65.5,43.08A21.5,21.5,0,1,1,87,21.58,21.52,21.52,0,0,1,65.5,43.08Zm0-41A19.5,19.5,0,1,0,85,21.58,19.53,19.53,0,0,0,65.5,2.08Z" transform="translate(0 -0.08)" fill="currentColor"/><path d="M75,30.08a1.06,1.06,0,0,1-.45-.11l-10-5a1,1,0,0,1-.55-.89v-16a1,1,0,1,1,2,0V23.46l9.45,4.72a1,1,0,0,1,.44,1.34A1,1,0,0,1,75,30.08Z" transform="translate(0 -0.08)" fill="currentColor"/></svg>
