<svg id="Layer_2"  xmlns="http://www.w3.org/2000/svg" viewBox="0 0 1038.47 1111"><defs><style>.cls-1{fill:#00adee;}</style></defs><path class="cls-1" d="M680.29,846.26a83.6,83.6,0,1,0-83.6-83.6A83.71,83.71,0,0,0,680.29,846.26Zm0-124.25a40.65,40.65,0,1,1-40.64,40.65A40.69,40.69,0,0,1,680.29,722Z" transform="translate(-430.02 -524.5)"/><path class="cls-1" d="M513.62,821.49a83.6,83.6,0,1,0,83.6,83.6A83.69,83.69,0,0,0,513.62,821.49Zm0,124.25a40.65,40.65,0,1,1,40.65-40.65A40.7,40.7,0,0,1,513.62,945.74Z" transform="translate(-430.02 -524.5)"/><path class="cls-1" d="M675.75,997.26A97.24,97.24,0,1,0,773,1094.49,97.35,97.35,0,0,0,675.75,997.26Zm0,151.52A54.29,54.29,0,1,1,730,1094.49,54.35,54.35,0,0,1,675.75,1148.78Z" transform="translate(-430.02 -524.5)"/><path class="cls-1" d="M1344.24,878.18V758.11a21.48,21.48,0,0,0-21.48-21.47h-54.19V546a21.47,21.47,0,0,0-21.47-21.48H1074.16a21.58,21.58,0,0,0-5.25.67,21.72,21.72,0,0,0-5.26-.67h-203a21.47,21.47,0,0,0-15.19,6.29l-78.79,78.79A21.47,21.47,0,1,0,797,640l72.51-72.5h183.17V736.64H998.5A21.48,21.48,0,0,0,977,758.11V877.28c-73.49,21.76-127.28,89.85-127.28,170.3v410.31c0,97.94,79.67,177.61,177.61,177.61h263.53c97.93,0,177.61-79.67,177.61-177.61V1047.58C1468.49,968.23,1416.18,900.89,1344.24,878.18ZM1095.63,567.45h130V736.64h-130ZM1020,779.59h281.31V870.3c-3.44-.2-6.91-.32-10.4-.32H1027.35c-2.48,0-4.93.08-7.38.18Zm405.56,678.3c0,74.25-60.4,134.66-134.65,134.66H1027.35c-74.25,0-134.66-60.41-134.66-134.66V1047.58c0-74.25,60.41-134.65,134.66-134.65h263.53c74.25,0,134.65,60.4,134.65,134.65Z" transform="translate(-430.02 -524.5)"/><path class="cls-1" d="M981.12,1067a21.47,21.47,0,0,0-21.47,21.47v330.91a21.48,21.48,0,1,0,43,0V1088.43A21.48,21.48,0,0,0,981.12,1067Z" transform="translate(-430.02 -524.5)"/></svg>
