<svg xmlns="http://www.w3.org/2000/svg" viewBox="0 0 54.15 61"><title>Rear facing child seat</title><path d="M1.72,17.29l0-.08.81-.3a7.85,7.85,0,0,1,2-.53,8.24,8.24,0,0,1,6.36,2.07A12.75,12.75,0,0,1,14,23.1a41.32,41.32,0,0,1,2.25,7.34,109.2,109.2,0,0,1,2.19,18l.05.93-.93.11A12.41,12.41,0,0,0,13,50.69a7.19,7.19,0,0,0-2.24,1.9L9.39,54.25,2.17,19.46ZM4,18.51l6.52,31.41a9.18,9.18,0,0,1,1.49-1h0a12.78,12.78,0,0,1,4.37-1.3,105.22,105.22,0,0,0-2.1-16.76,38.23,38.23,0,0,0-2.14-7A11,11,0,0,0,9.6,20a6.12,6.12,0,0,0-4.82-1.61A5.31,5.31,0,0,0,4,18.51Z" fill="currentColor"/><path d="M48.6,61c-7.16,0-21.29,0-33.12,0a4.25,4.25,0,0,1-4.3-4.18c-.11-2.22,1.37-4.16,3.87-5a32.13,32.13,0,0,1,5.86-1.21c2.28-.31,5-.6,8.22-.86C34.72,49.21,40.45,49,43,49a17,17,0,0,1,6.29.89,5.85,5.85,0,0,1,3.6,3.7,6.2,6.2,0,0,1-.37,5.13A4.48,4.48,0,0,1,48.6,61ZM43,51c-2.52,0-8.18.24-13.72.69-3.14.25-5.87.53-8.11.84a31.94,31.94,0,0,0-5.46,1.11c-1.66.59-2.61,1.74-2.55,3.06A2.28,2.28,0,0,0,15.48,59h0c11.83,0,26,0,33.12,0a2.48,2.48,0,0,0,2.2-1.31A4.21,4.21,0,0,0,51,54.21a3.88,3.88,0,0,0-2.45-2.5A15.55,15.55,0,0,0,43,51Z" fill="currentColor"/><path d="M5.31,14.61a5.23,5.23,0,0,1-3.09-.8A5.81,5.81,0,0,1,.14,9.65C.06,9.09,0,7.9,0,6.1,0,4.73,0,3.47,0,3.24H0A2.9,2.9,0,0,1,1.06.78,4.25,4.25,0,0,1,3.59,0a8.43,8.43,0,0,1,3,.49A6.46,6.46,0,0,1,8.9,1.86,8.72,8.72,0,0,1,11,9.69C10.29,12.77,8.17,14.61,5.31,14.61ZM3.77,2H3.64a2.36,2.36,0,0,0-1.34.35c-.09.07-.3.23-.29.85v.06c0,.21,0,1.46,0,2.83,0,1.64.06,2.83.12,3.28a4,4,0,0,0,1.25,2.8,3.31,3.31,0,0,0,1.94.44A3.77,3.77,0,0,0,9,9.26a6.72,6.72,0,0,0-1.51-6,4.64,4.64,0,0,0-1.61-.9A6.51,6.51,0,0,0,3.77,2Z" fill="currentColor"/><path d="M46.31,46.4h-.79c-3.23,0-8.37-.15-15.3-.32l-7.33-.18-3.11-.08v-1c0-.18,0-.38,0-.61h0a20,20,0,0,1,.37-3.6c.72-3.54,2.44-5.81,5-6.56A7.6,7.6,0,0,1,28.63,34a33.15,33.15,0,0,1,3.27.81l.45.13a19.65,19.65,0,0,0,3.57.76A4.86,4.86,0,0,0,39,35.07a2.64,2.64,0,0,0,1.21-1.87,12.53,12.53,0,0,0,0-3.07l-.08-1a42,42,0,0,1,0-9.15,8.12,8.12,0,0,1,5.05-6.56A8.22,8.22,0,0,1,53.65,15l.5.41ZM21.78,43.86l1.16,0,7.33.18c6.38.15,11.24.26,14.48.3l7.14-28.21A6.06,6.06,0,0,0,46,15.31a6.21,6.21,0,0,0-3.82,5,40.61,40.61,0,0,0,0,8.73l.09,1a13.94,13.94,0,0,1-.06,3.6,4.62,4.62,0,0,1-2.11,3.19,6.84,6.84,0,0,1-4.3.9,19.83,19.83,0,0,1-3.95-.83l-.45-.12c-1.09-.31-2.1-.6-3.06-.77a6,6,0,0,0-2.63,0c-1.79.54-3,2.24-3.57,5.05A17.11,17.11,0,0,0,21.78,43.86Z" fill="currentColor"/><rect x="20.29" y="47.28" width="5.23" height="2" transform="translate(-28.48 62.95) rotate(-80.56)" fill="currentColor"/><rect x="43.26" y="45.06" width="2" height="4.38" transform="translate(-8.41 9.6) rotate(-11.31)" fill="currentColor"/></svg>
