<svg xmlns="http://www.w3.org/2000/svg" viewBox="0 0 53 61"><title>icon-booster-seat</title><path d="M9.34,54.24,1.82,17.83l-.28-.39.16-.17h0l.81-.36a8.33,8.33,0,0,1,2-.52,8.15,8.15,0,0,1,6.32,2.07,12.5,12.5,0,0,1,3.08,4.65,41.32,41.32,0,0,1,2.25,7.34,111.49,111.49,0,0,1,2.18,18l0,.93-.93.11a12.42,12.42,0,0,0-4.56,1.19h0a7.2,7.2,0,0,0-2.22,1.89ZM4,18.51l6.49,31.4a8.47,8.47,0,0,1,1.46-1,12.67,12.67,0,0,1,4.34-1.3,107.77,107.77,0,0,0-2.08-16.76,40.35,40.35,0,0,0-2.13-7A10.93,10.93,0,0,0,9.54,20a6,6,0,0,0-4.78-1.61A5.16,5.16,0,0,0,4,18.51Z" fill="currentColor"/><path d="M48.34,61c-7.12,0-21.17,0-32.94,0a4.24,4.24,0,0,1-4.28-4.18c-.11-2.22,1.36-4.16,3.85-5a32.55,32.55,0,0,1,5.83-1.21c2.26-.31,5-.6,8.18-.86,5.56-.45,11.26-.69,13.8-.69a16.85,16.85,0,0,1,6.26.89,5.82,5.82,0,0,1,3.58,3.7,6.23,6.23,0,0,1-.37,5.13A4.44,4.44,0,0,1,48.34,61ZM42.78,51c-2.5,0-8.13.24-13.64.69-3.12.25-5.84.53-8.06.84a31.83,31.83,0,0,0-5.44,1.11c-1.65.59-2.59,1.73-2.52,3.06A2.26,2.26,0,0,0,15.4,59h0c11.77,0,25.82,0,32.94,0a2.45,2.45,0,0,0,2.18-1.31,4.21,4.21,0,0,0,.21-3.48,3.85,3.85,0,0,0-2.43-2.5A15.4,15.4,0,0,0,42.78,51Z" fill="currentColor"/><path d="M5.28,14.61a5.19,5.19,0,0,1-3.07-.8A5.81,5.81,0,0,1,.14,9.65C.06,9.09,0,7.9,0,6.1,0,4.72,0,3.44,0,3.23v0a2.91,2.91,0,0,1,1-2.42A4.24,4.24,0,0,1,3.57,0,8.38,8.38,0,0,1,6.52.49,6.36,6.36,0,0,1,8.85,1.86a8.71,8.71,0,0,1,2.06,7.83C10.23,12.77,8.13,14.61,5.28,14.61ZM3.75,2H3.62a2.29,2.29,0,0,0-1.33.35c-.08.07-.29.23-.28.85v.06c0,.21,0,1.46,0,2.83,0,1.64.06,2.83.12,3.29a3.94,3.94,0,0,0,1.24,2.79,3.26,3.26,0,0,0,1.92.44A3.76,3.76,0,0,0,9,9.26a6.75,6.75,0,0,0-1.5-6,4.58,4.58,0,0,0-1.6-.9A6.39,6.39,0,0,0,3.75,2Z" fill="currentColor"/><path d="M20.52,48.74l-.12-1c-1.7-13.86-3.09-20.16-4.1-24.11-.27-1-.52-1.93-.75-2.77a52.94,52.94,0,0,1-1.77-8.29l-.11-.84.81-.25a6.33,6.33,0,0,1,6.46,1.37,12.74,12.74,0,0,1,3.42,7.71,59.93,59.93,0,0,1,.13,10c0,.72,0,1.43-.08,2.13a36.9,36.9,0,0,0,.09,5,7.4,7.4,0,0,0,.39,1.7,1.89,1.89,0,0,0,.76,1,1.87,1.87,0,0,0,.9.21,6.41,6.41,0,0,0,1.26-.12c.68-.12,1.51-.32,2.38-.54l1.09-.26A26.06,26.06,0,0,1,41,38.86a7.9,7.9,0,0,1,4.24,1.76,6.28,6.28,0,0,1,1.83,2.85,8.75,8.75,0,0,1,.39,2.65l0,1.17h-1a226.68,226.68,0,0,0-25,1.36Zm-4.63-35.5a51.74,51.74,0,0,0,1.57,7.07c.25.9.5,1.81.77,2.85,1,3.91,2.38,10.1,4,23.39,8.66-.86,16-1.27,23-1.27h.22a6.22,6.22,0,0,0-.24-1.2A4.31,4.31,0,0,0,44,42.13a6,6,0,0,0-3.19-1.29,24.14,24.14,0,0,0-9,.74l-1.07.26c-.91.23-1.77.44-2.51.57a8.85,8.85,0,0,1-1.66.15A3.58,3.58,0,0,1,23,40.13a8.46,8.46,0,0,1-.52-2.21,36.51,36.51,0,0,1-.11-5.29c0-.7.05-1.41.08-2.14a59,59,0,0,0-.11-9.64,10.88,10.88,0,0,0-2.8-6.5A4.11,4.11,0,0,0,15.89,13.24Z" fill="currentColor"/></svg>
