<svg xmlns="http://www.w3.org/2000/svg" xmlns:xlink="http://www.w3.org/1999/xlink" viewBox="0 0 5322.22 1369.6"><defs><linearGradient id="a" x1="180.4" y1="1132.28" x2="538.54" y2="470.28" gradientUnits="userSpaceOnUse"><stop offset="0" stop-color="#1b75bc"/><stop offset="0.43" stop-color="#2484c6" stop-opacity="0"/></linearGradient><linearGradient id="b" x1="0.98" y1="1175.38" x2="1230.87" y2="1175.38" gradientUnits="userSpaceOnUse"><stop offset="0.4" stop-color="#00aeef" stop-opacity="0"/><stop offset="1" stop-color="#1b75bc"/></linearGradient></defs><title>limomate-logo</title><g style="isolation:isolate"><path d="M2258.84,1104.41h-20.45V883.06h20.45v89c17.45-21.06,39.1-31.58,64.06-31.58,46.62,0,82.1,38.8,82.1,84.19,0,45.11-36.08,83.9-82.71,83.9-25.86,0-47.21-11.42-63.45-33.66ZM2384,1024.13c0-34.6-27.36-64.66-63.15-64.66-32.79,0-63.47,24-63.47,64,0,37,27.38,65.24,63.47,65.24C2357.78,1088.76,2384,1058.39,2384,1024.13Z" fill="#fff"/><path d="M2421.74,944.72h21.65l55,123,53.23-123h22l-95.33,218h-21.67l30.69-70.37Z" fill="#fff"/><path d="M2763.56,931.79c-11.72-15.35-21.95-26.47-39.7-26.47-18.65,0-29.18,13.24-29.18,27.38,0,11.72,6.92,24,19.25,33.38,40.61,30.07,70.37,50.83,70.37,85.7,0,30.37-25.56,58-60.74,58-29.77,0-49.32-16.53-65.26-45.71l18.35-11.12c12.93,23.75,28.56,35.77,45.11,35.77,22.55,0,40-16.53,40-36.68,0-23.75-22.27-37.29-71.28-77-10.22-8.13-18.35-25.26-18.35-41.49,0-29.79,23.16-50.54,52.33-50.54,26.47,0,42.41,16,56.55,35.19Z" fill="#fff"/><path d="M2983,1025c0,45.41-35.19,83.3-83.31,83.3s-83.3-37.89-83.3-83.3c0-45.69,35.49-84.49,83.3-84.49S2983,979.32,2983,1025Zm-145.55.3c0,34.9,26.16,64.06,62.24,64.06,35.79,0,62.26-29.16,62.26-64.06,0-35.48-28.27-65-62.26-65C2865.43,960.35,2837.47,989.83,2837.47,1025.31Z" fill="#fff"/><path d="M3133.89,944.72h21.65v82.7c0,53.84-24.36,80.89-70.07,80.89s-70.38-27-70.38-80.89v-82.7h21.65v77.9c0,16.83,0,30.67,4.52,40.28,7.51,16.25,24,25.56,44.21,25.56,14.73,0,27.66-5.41,36.09-14.11,12.63-13.54,12.33-28.89,12.33-51.73Z" fill="#fff"/><path d="M3215.9,885.17h20.45v59.55h32.78v18h-32.78v141.65H3215.9V962.76h-28.27v-18h28.27Z" fill="#fff"/><path d="M3296.44,883.06h20.45v90.22c16.54-21.64,36.09-32.76,59.85-32.76,34.58,0,58.94,24.36,58.94,72.16v91.73h-20.44v-86.9c0-37.61-11.44-58-42.41-58-17.15,0-31.27,7.19-42.11,21.33-11.72,15.35-13.83,31-13.83,56.54v67.07h-20.45Z" fill="#fff"/><path d="M3490.33,1026.22c.89,36.68,25.86,63.45,60.14,63.45,33.39,0,49.33-19,61.05-38.19l17.15,9c-16.24,31.88-41.22,48.1-76.1,48.1-52.92,0-83.3-40.88-83.3-83.6,0-43.6,32.18-84.49,82.11-84.49,45.4,0,82.09,32.76,82.7,85.7Zm121.19-18c-8.42-33.09-32.18-47.83-59.84-47.83-28.58,0-49.93,15.34-59.25,47.83Z" fill="#fff"/><path d="M3682.7,967.87c12-17.44,25-27.35,41.2-27.35,9.32,0,14.12,3,18.34,5.41l-10.83,17.44a24.38,24.38,0,0,0-10.82-3c-15,0-28.57,12.93-34.58,34.89-2.72,10.22-3.31,26.77-3.31,48.41v60.76H3661V944.72h21.67Z" fill="#fff"/><path d="M3783.32,973.28c16.53-21.64,36.38-32.76,59.85-32.76,34.88,0,59.24,24.05,59.24,74.27v89.62H3882v-86.9c0-37.61-11.73-58-42.71-58-17.14,0-31.27,7.19-42.1,21.33-12,15.65-13.83,31.28-13.83,56.54v67.07h-20.45V944.72h20.45Z" fill="#fff"/><path d="M4228,1066.82c-22.25,28-55,42.7-94.42,42.7-72.19,0-116.39-50.82-116.39-114.28,0-63.75,49.31-112.18,116.39-112.18,39.69,0,73.07,15.65,94.42,45.41l-17.14,12.93c-18.95-25-46-37.29-77-37.29-51.13,0-94.13,37.9-94.13,92.94,0,53.52,40.9,92.62,95.34,92.62,30.07,0,55.64-12.33,75.78-35.78Z" fill="#fff"/><path d="M4278.37,967.87c12-17.44,25-27.35,41.2-27.35,9.32,0,14.12,3,18.34,5.41l-10.83,17.44a24.38,24.38,0,0,0-10.82-3c-15,0-28.57,12.93-34.58,34.89-2.72,10.22-3.31,26.77-3.31,48.41v60.76h-21.66V944.72h21.66Z" fill="#fff"/><path d="M4510.22,1025c0,45.41-35.19,83.3-83.31,83.3s-83.3-37.89-83.3-83.3c0-45.69,35.49-84.49,83.3-84.49S4510.22,979.32,4510.22,1025Zm-145.55.3c0,34.9,26.16,64.06,62.24,64.06,35.79,0,62.26-29.16,62.26-64.06,0-35.48-28.27-65-62.26-65C4392.63,960.35,4364.67,989.83,4364.67,1025.31Z" fill="#fff"/><path d="M4542.91,1071c10.22,11.43,21.35,18.35,33.37,18.35,15.64,0,29.48-12,29.48-27a25.69,25.69,0,0,0-13.23-22.27c-36.7-20.45-55.34-29.16-55.34-57.13,0-25.27,19.55-42.4,43.91-42.4,17.44,0,30.67,8.4,44.21,21.64l-13.24,13.53c-9.62-9.3-19.24-16.22-32.17-16.22-13.24,0-24.07,10.21-24.07,22.24,0,8.12,5.12,17.13,12.34,21.36,36.68,21.33,57.14,29.46,57.14,58.34,0,25-19.25,46.9-48.12,46.9-17.75,0-35.79-7.8-47.21-22.54Z" fill="#fff"/><path d="M4656.52,1071c10.21,11.43,21.35,18.35,33.37,18.35,15.64,0,29.48-12,29.48-27a25.68,25.68,0,0,0-13.24-22.27c-36.68-20.45-55.33-29.16-55.33-57.13,0-25.27,19.54-42.4,43.91-42.4,17.44,0,30.67,8.4,44.21,21.64l-13.24,13.53c-9.62-9.3-19.24-16.22-32.18-16.22-13.23,0-24.05,10.21-24.05,22.24,0,8.12,5.11,17.13,12.33,21.36,36.68,21.33,57.14,29.46,57.14,58.34,0,25-19.25,46.9-48.12,46.9-17.75,0-35.79-7.8-47.21-22.54Z" fill="#fff"/><polygon points="1737.71 219.69 1686.31 219.69 1686.31 732.27 1934.75 732.27 1934.75 682.3 1737.71 682.3 1737.71 219.69" fill="#fff"/><rect x="2028.27" y="219.69" width="51.4" height="512.58" fill="#fff"/><polygon points="2689.34 219.69 2483.01 640.19 2274.55 219.69 2265.99 219.69 2193.16 732.27 2243.14 732.27 2292.39 362.47 2476.59 732.27 2489.44 732.27 2670.77 365.31 2720.74 732.27 2770.72 732.27 2697.89 219.69 2689.34 219.69" fill="#fff"/><path d="M3135.52,206.84c-147.79,0-266.29,118.5-266.29,271.3,0,143.48,112.79,267,270.57,267,152.06,0,269.86-118.5,269.86-269.16C3409.66,323.2,3291.15,206.84,3135.52,206.84Zm2.86,488.33c-115.66,0-215.61-90.68-215.61-217,0-131.39,102.8-221.34,215.61-221.34,113.51,0,217.74,88.54,217.74,218.47C3356.12,603.78,3258.31,695.17,3138.38,695.17Z" fill="#fff"/><polygon points="3998.48 210.31 3797.96 618.95 3595.36 210.31 3572.83 210.31 3497.33 741.67 3566.34 741.67 3612.64 394.11 3785.76 741.67 3810.27 741.67 3980.58 396.99 4027.55 741.67 4096.54 741.67 4021.04 210.31 3998.48 210.31" fill="#fff"/><path d="M4398.14,210.31,4146.53,741.67h77.88l80-168.51h209.46l80.67,168.51h75.65L4422.23,210.31Zm84,294.12H4336.16l73.57-154.27Z" fill="#fff"/><polygon points="4635.95 279.04 4751.61 279.04 4751.61 741.67 4821.79 741.67 4821.79 279.04 4936.01 279.04 4936.01 210.31 4635.95 210.31 4635.95 279.04" fill="#fff"/><polygon points="5322.22 279.04 5322.22 210.31 5010.74 210.31 5010.74 741.67 5322.22 741.67 5322.22 672.93 5080.92 672.93 5080.92 489.67 5322.22 489.67 5322.22 420.9 5080.92 420.9 5080.92 279.04 5322.22 279.04" fill="#fff"/><path d="M1431,1369.6H69.09c-52.26,0-85.55-55.85-60.69-101.81L693.85,0l98.77,178.2-548,1017.4h893.87L1017.3,958.78l99-168.79Z" fill="#00aeef"/><polygon points="244.65 1195.6 790.47 178.2 693.85 4.29 47.35 1196.13 244.65 1195.6" fill="url(#a)" style="mix-blend-mode:multiply"/><path d="M1138.52,1195.6H247.29c-188.94,0-83.74-214.44-83.74-214.44l-154.38,288c-24.37,45.45,8.56,100.48,60.14,100.48H1220.4Z" fill="#00aeef"/><path d="M1138.52,1195.6H247.29c-188.94,0-83.74-214.44-83.74-214.44l-154.38,288c-24.37,45.45,8.56,100.48,60.14,100.48H1230.87Z" fill="url(#b)" style="mix-blend-mode:multiply"/></g></svg>
