<svg xmlns="http://www.w3.org/2000/svg" xmlns:xlink="http://www.w3.org/1999/xlink" viewBox="0 0 559.09 423.27"><defs><linearGradient id="a" x1="193.77" y1="174.09" x2="248.83" y2="72.3" gradientUnits="userSpaceOnUse"><stop offset="0" stop-color="#1b75bc"/><stop offset="0.43" stop-color="#2484c6" stop-opacity="0"/></linearGradient><linearGradient id="b" x1="166.18" y1="180.71" x2="355.27" y2="180.71" gradientUnits="userSpaceOnUse"><stop offset="0.4" stop-color="#00aeef" stop-opacity="0"/><stop offset="1" stop-color="#1b75bc"/></linearGradient></defs><title>limomate-logo-vertical</title><g style="isolation:isolate"><path d="M0,278.25H7.88v71.23H38.21v7.61H0Z" fill="#231f20"/><path d="M52.54,278.25h7.88v78.84H52.54Z" fill="#231f20"/><path d="M77.85,357.09l11.29-78.84h1.28l32.05,64.69,31.74-64.69h1.26l11.34,78.84h-7.72l-7.79-56.38-27.88,56.38h-2L93.2,300.28l-7.74,56.81Z" fill="#231f20"/><path d="M222.81,276.27q17.91,0,30,12t12.06,29.42a41.14,41.14,0,0,1-41.4,41.43q-17.53,0-29.6-12a39.47,39.47,0,0,1-12.07-29,42.08,42.08,0,0,1,5.5-21.07,40.6,40.6,0,0,1,35.53-20.68Zm.35,7.66a32.45,32.45,0,0,0-16.59,4.56,32.79,32.79,0,0,0-12.24,12.28,34.21,34.21,0,0,0-4.4,17.22,33.17,33.17,0,0,0,33.23,33.42,33.72,33.72,0,0,0,17-4.46,31.79,31.79,0,0,0,12.18-12.17,34.18,34.18,0,0,0,4.38-17.16,33.35,33.35,0,0,0-4.38-17A32.6,32.6,0,0,0,240,288.49,33.3,33.3,0,0,0,223.16,283.93Z" fill="#231f20"/><polygon points="355.49 276.81 324.65 339.67 293.5 276.81 290.07 276.81 278.37 358.53 288.91 358.53 296.19 305.13 322.7 358.53 326.51 358.53 352.7 305.56 360.02 358.53 370.67 358.53 358.91 276.81 355.49 276.81" fill="#231f20"/><path d="M416.82,276.81l-38.61,81.72h12l12.28-25.94h32.14L447,358.53H458.7l-38.12-81.72Zm13,45.28h-22.4l11.23-23.71Z" fill="#231f20"/><polygon points="453.45 287.41 471.02 287.41 471.02 358.53 481.95 358.53 481.95 287.41 499.53 287.41 499.53 276.81 453.45 276.81 453.45 287.41" fill="#231f20"/><polygon points="559.09 287.41 559.09 276.81 511.02 276.81 511.02 358.53 558.77 358.53 558.77 347.93 521.79 347.93 521.79 319.84 558.77 319.84 558.77 309.23 521.79 309.23 521.79 287.41 559.09 287.41" fill="#231f20"/><path d="M88,414.3H84.88v-34H88V394a12.41,12.41,0,0,1,9.84-4.85A12.92,12.92,0,0,1,97.77,415,11.62,11.62,0,0,1,88,409.77ZM107.24,402a9.84,9.84,0,0,0-9.7-9.94,9.57,9.57,0,0,0-9.75,9.85,9.73,9.73,0,1,0,19.45.09Z" fill="#808285"/><path d="M113.06,389.76h3.33l8.46,18.9,8.18-18.9h3.38l-14.66,33.51h-3.32l4.71-10.82Z" fill="#808285"/><path d="M165.61,387.77c-1.8-2.36-3.37-4.07-6.1-4.07a4.2,4.2,0,0,0-4.48,4.21,6.69,6.69,0,0,0,3,5.13c6.23,4.62,10.81,7.81,10.81,13.17a9.14,9.14,0,0,1-9.34,8.92c-4.57,0-7.58-2.54-10-7l2.82-1.71c2,3.65,4.39,5.5,6.94,5.5a5.87,5.87,0,0,0,6.14-5.64c0-3.65-3.42-5.73-11-11.83a8.71,8.71,0,0,1-2.82-6.38,7.71,7.71,0,0,1,8-7.77c4.07,0,6.52,2.45,8.69,5.41Z" fill="#808285"/><path d="M199.35,402.1a12.81,12.81,0,0,1-25.61,0,12.81,12.81,0,1,1,25.61,0Zm-22.37,0a9.57,9.57,0,1,0,19.13,0,9.57,9.57,0,1,0-19.13,0Z" fill="#808285"/><path d="M222.55,389.76h3.33v12.71c0,8.27-3.75,12.43-10.77,12.43s-10.82-4.16-10.82-12.43V389.76h3.33v12c0,2.59,0,4.71.69,6.19a7.14,7.14,0,0,0,6.8,3.93,7.65,7.65,0,0,0,5.54-2.17c1.94-2.08,1.9-4.44,1.9-7.95Z" fill="#808285"/><path d="M235.16,380.61h3.14v9.15h5v2.77h-5V414.3h-3.14V392.53h-4.34v-2.77h4.34Z" fill="#808285"/><path d="M247.55,380.28h3.14v13.87c2.54-3.33,5.55-5,9.2-5,5.31,0,9.06,3.75,9.06,11.09v14.1H265.8V400.94c0-5.77-1.75-8.92-6.51-8.92a7.82,7.82,0,0,0-6.47,3.28c-1.81,2.36-2.13,4.77-2.13,8.69V414.3h-3.14Z" fill="#808285"/><path d="M277.36,402.28c.13,5.64,4,9.76,9.24,9.76s7.58-2.92,9.38-5.87l2.64,1.38c-2.5,4.9-6.34,7.4-11.7,7.4-8.13,0-12.8-6.29-12.8-12.85s4.95-13,12.62-13c7,0,12.62,5,12.71,13.17ZM296,399.51c-1.29-5.08-4.94-7.35-9.2-7.35s-7.67,2.36-9.1,7.35Z" fill="#808285"/><path d="M306.93,393.32c1.85-2.68,3.84-4.21,6.33-4.21a4.93,4.93,0,0,1,2.82.83l-1.66,2.68a3.82,3.82,0,0,0-1.66-.46c-2.31,0-4.39,2-5.32,5.36a33.49,33.49,0,0,0-.51,7.44v9.34H303.6V389.76h3.33Z" fill="#808285"/><path d="M322.4,394.15c2.54-3.33,5.6-5,9.2-5,5.36,0,9.11,3.7,9.11,11.42V414.3h-3.15V400.94c0-5.77-1.8-8.92-6.56-8.92a7.83,7.83,0,0,0-6.47,3.28c-1.85,2.41-2.13,4.81-2.13,8.69V414.3h-3.14V389.76h3.14Z" fill="#808285"/><path d="M390.75,408.52c-3.42,4.3-8.45,6.57-14.51,6.57-11.09,0-17.88-7.81-17.88-17.57s7.58-17.24,17.88-17.24c6.1,0,11.23,2.41,14.51,7l-2.63,2a14.31,14.31,0,0,0-11.83-5.73c-7.86,0-14.47,5.82-14.47,14.28,0,8.23,6.29,14.24,14.65,14.24a14.9,14.9,0,0,0,11.65-5.5Z" fill="#808285"/><path d="M398.52,393.32c1.85-2.68,3.83-4.21,6.33-4.21a5,5,0,0,1,2.82.83L406,392.62a3.82,3.82,0,0,0-1.66-.46c-2.31,0-4.39,2-5.32,5.36a34.26,34.26,0,0,0-.5,7.44v9.34h-3.33V389.76h3.33Z" fill="#808285"/><path d="M434.15,402.1a12.8,12.8,0,1,1-25.6,0,12.8,12.8,0,1,1,25.6,0Zm-22.37,0a9.57,9.57,0,1,0,19.14,0,9.58,9.58,0,1,0-19.14,0Z" fill="#808285"/><path d="M439.19,409.17c1.57,1.76,3.28,2.82,5.13,2.82a4.41,4.41,0,0,0,4.53-4.16,3.94,3.94,0,0,0-2-3.42c-5.63-3.14-8.5-4.48-8.5-8.78a6.45,6.45,0,0,1,6.75-6.52c2.68,0,4.71,1.3,6.79,3.33l-2,2.08c-1.48-1.43-3-2.5-4.95-2.5a3.59,3.59,0,0,0-3.69,3.42,4,4,0,0,0,1.89,3.28c5.64,3.29,8.78,4.53,8.78,9a7.17,7.17,0,0,1-7.39,7.21,9.23,9.23,0,0,1-7.26-3.46Z" fill="#808285"/><path d="M456.66,409.17c1.57,1.76,3.28,2.82,5.13,2.82a4.41,4.41,0,0,0,4.53-4.16,4,4,0,0,0-2-3.42c-5.64-3.14-8.5-4.48-8.5-8.78a6.45,6.45,0,0,1,6.75-6.52c2.68,0,4.71,1.3,6.79,3.33l-2,2.08c-1.48-1.43-3-2.5-5-2.5a3.6,3.6,0,0,0-3.7,3.42,4,4,0,0,0,1.9,3.28c5.64,3.29,8.78,4.53,8.78,9a7.17,7.17,0,0,1-7.39,7.21,9.23,9.23,0,0,1-7.26-3.46Z" fill="#808285"/><path d="M386,210.57H176.65a10.61,10.61,0,0,1-9.33-15.65L272.71,0l15.18,27.4L203.65,183.82H341.08l-18.64-36.41,15.22-25.95Z" fill="#00aeef"/><polygon points="203.65 183.82 287.56 27.4 272.71 0.66 173.31 183.9 203.65 183.82" fill="url(#a)" style="mix-blend-mode:multiply"/><path d="M341.08,183.82h-137c-29.05,0-12.87-33-12.87-33l-23.74,44.27a10.49,10.49,0,0,0,9.25,15.45h177Z" fill="#00aeef"/><path d="M341.08,183.82h-137c-29.05,0-12.87-33-12.87-33l-23.74,44.27a10.49,10.49,0,0,0,9.25,15.45H355.27Z" fill="url(#b)" style="mix-blend-mode:multiply"/></g></svg>