<?xml version="1.0" encoding="utf-8"?>
<!-- Generator: Adobe Illustrator 19.1.0, SVG Export Plug-In . SVG Version: 6.00 Build 0)  -->
<svg version="1.1" xmlns="http://www.w3.org/2000/svg" xmlns:xlink="http://www.w3.org/1999/xlink" x="0px" y="0px"
	 viewBox="0 0 115.5 109" enable-background="new 0 0 115.5 109" xml:space="preserve">
<symbol  id="alliance_logo_2" viewBox="-268.2 -252.8 532.1 502.5">
	<g display="none">
		<linearGradient id="SVGID_1_" gradientUnits="userSpaceOnUse" x1="-176.6629" y1="-107.8865" x2="-40.5229" y2="-131.711">
			<stop  offset="0" style="stop-color:#000000;stop-opacity:0.4"/>
			<stop  offset="1" style="stop-color:#010101;stop-opacity:0"/>
		</linearGradient>
		<path display="inline" fill="url(#SVGID_1_)" d="M19.7-57.5c-34.1-0.1-68.4-2.2-102.7-8.5c-48.7-60.8-86.3-125.9-73.4-186.8l0,0
			c105.7,70.7,194.9,65.7,274.5,69.1c42.5,1.8,66.2,8.1,86.1,20.4c29.4,18.2,46.1,82.2,59.9,119.7C215.5-78.5,132-57.2,19.7-57.5z"
			/>
		<linearGradient id="SVGID_2_" gradientUnits="userSpaceOnUse" x1="194.5195" y1="-116.8988" x2="156.458" y2="-6.0727">
			<stop  offset="0" style="stop-color:#000000;stop-opacity:0.4"/>
			<stop  offset="1" style="stop-color:#010101;stop-opacity:0"/>
		</linearGradient>
		<path display="inline" fill="url(#SVGID_2_)" d="M74.4,51.4c10.8-38.9,23.7-78.1,44.4-112.7c63.2-3.8,112.3-5.9,145.1,17.7v0
			c-26.1,24-49.1,60.2-62.6,92.5c-20.9,50-31,89.5-56.7,140.7c-13.2,26.2-26.9,44.6-48,54.5c-10.4,4.9-26.9,6.3-43,5.3
			c-21.8-1.4-58.1-8.8-74.3-14.8C32,223.8,50.1,138.7,74.4,51.4z"/>
		<linearGradient id="SVGID_3_" gradientUnits="userSpaceOnUse" x1="57.3923" y1="286.1672" x2="-59.2098" y2="87.3241">
			<stop  offset="0" style="stop-color:#000000;stop-opacity:0.4"/>
			<stop  offset="1" style="stop-color:#010101;stop-opacity:0"/>
		</linearGradient>
		<path display="inline" fill="url(#SVGID_3_)" d="M59.4,104.9c-19.6,67.2-38.8,122-80.1,129.6c-8.8-53.9-43.9-89.4-79.8-127.3
			C-138.5,67.2-180.7,32-217-9.8c-13.4-15.4-30.6-34.2-40.3-59.5c-3.5-9.2-17.8-45,7.8-94.1c8.2-15.7,22.3-32.2,37.9-48
			c15.3-15.5,36-31,55.1-41.5C-175.6-162.7-84.1-63.2-9.6,17.5C17.4,46.8,41.7,74,59.4,104.9z"/>
	</g>
	<linearGradient id="SVGID_4_" gradientUnits="userSpaceOnUse" x1="-254.3779" y1="-158.394" x2="76.6221" y2="139.606">
		<stop  offset="0" style="stop-color:#FFCF84"/>
		<stop  offset="9.760424e-02" style="stop-color:#FDBE6C"/>
		<stop  offset="0.3366" style="stop-color:#F89933"/>
		<stop  offset="0.45" style="stop-color:#F68B1F"/>
		<stop  offset="0.68" style="stop-color:#F58220"/>
		<stop  offset="1" style="stop-color:#D23427"/>
	</linearGradient>
	<path fill="url(#SVGID_4_)" d="M59.6,105.1C41,171,21,226.1-20.7,234.5h0c-8.8-53.9-43.9-89.4-79.8-127.3
		C-138.5,67.2-180.7,32-217-9.8c-13.4-15.4-35.4-41.6-45.5-66.8c-7.3-18.3-11.3-46,12.9-86.8c9-15.2,22.3-32.2,37.9-48
		c15.3-15.5,36-31,55.1-41.5C-175.6-162.7-84.1-63.2-9.6,17.5C17.4,46.9,41.9,74.1,59.6,105.1z"/>
	<linearGradient id="SVGID_5_" gradientUnits="userSpaceOnUse" x1="88.4389" y1="254.5786" x2="153.4389" y2="-57.4214">
		<stop  offset="0" style="stop-color:#FFCF84"/>
		<stop  offset="9.760424e-02" style="stop-color:#FDBE6C"/>
		<stop  offset="0.3366" style="stop-color:#F89933"/>
		<stop  offset="0.45" style="stop-color:#F68B1F"/>
		<stop  offset="0.68" style="stop-color:#F58220"/>
		<stop  offset="1" style="stop-color:#D23427"/>
	</linearGradient>
	<path fill="url(#SVGID_5_)" d="M74.4,51.4c10.7-38.5,22.9-77.8,42.7-112.6c64-3.8,113.7-6.3,146.8,17.6l0,0
		c-26.1,24-49.1,60.2-62.6,92.5c-20.9,50-31,89.5-56.7,140.7c-13.2,26.2-26.9,44.6-48,54.5c-10.4,4.9-26.9,6.3-43,5.3
		c-21.8-1.4-58.1-8.8-74.3-14.8C32,223.8,50.1,138.7,74.4,51.4z"/>
	<linearGradient id="SVGID_6_" gradientUnits="userSpaceOnUse" x1="199.6287" y1="-188.287" x2="-134.357" y2="-96.5366">
		<stop  offset="0" style="stop-color:#FFCF84"/>
		<stop  offset="9.760424e-02" style="stop-color:#FDBE6C"/>
		<stop  offset="0.3366" style="stop-color:#F89933"/>
		<stop  offset="0.45" style="stop-color:#F68B1F"/>
		<stop  offset="0.68" style="stop-color:#F58220"/>
		<stop  offset="1" style="stop-color:#D23427"/>
	</linearGradient>
	<path fill="url(#SVGID_6_)" d="M19.7-57.5c-71.7-0.8-107-13.8-107-13.8c-46.6-59.3-81.7-122.4-69.2-181.5l0,0
		c105.7,70.7,194.9,65.7,274.5,69.1c42.5,1.8,66.2,8.1,86.1,20.4c29.4,18.2,46.1,82.2,59.9,119.7C215.5-78.5,132-56.3,19.7-57.5z"/>
</symbol>
<g id="Layer_3">
</g>
<g id="Layer_4">
</g>
<g id="Layer_2">
	
		<use xlink:href="#alliance_logo_2"  width="532.1" height="502.5" id="XMLID_25_" x="-268.2" y="-252.8" transform="matrix(0.217 0 0 -0.217 58.1847 54.1652)" overflow="visible"/>
</g>
</svg>
