<?xml version="1.0" standalone="no"?>
<!DOCTYPE svg PUBLIC "-//W3C//DTD SVG 20010904//EN"
 "http://www.w3.org/TR/2001/REC-SVG-20010904/DTD/svg10.dtd">
<svg version="1.0" xmlns="http://www.w3.org/2000/svg"
 width="260.000000pt" height="260.000000pt" viewBox="0 0 260.000000 260.000000"
 preserveAspectRatio="xMidYMid meet">
<metadata>
Created by potrace 1.11, written by Peter Selinger 2001-2013
</metadata>
<g transform="translate(0.000000,260.000000) scale(0.100000,-0.100000)"
fill="#000000" stroke="none">
<path d="M1184 2283 c-48 -98 -138 -284 -201 -413 -129 -263 -285 -581 -438
-895 -56 -116 -155 -317 -219 -448 -75 -154 -116 -249 -116 -270 0 -36 30 -91
58 -106 12 -6 393 -10 1080 -10 1004 -1 1061 0 1052 17 -11 19 -343 696 -422
860 -27 56 -51 102 -53 102 -2 0 -21 -30 -42 -67 -21 -38 -36 -68 -34 -68 1 0
-16 -32 -38 -72 l-41 -72 29 -63 c16 -35 57 -123 91 -196 34 -74 59 -136 56
-139 -6 -6 -1345 -8 -1351 -2 -2 2 29 72 69 154 78 160 181 371 346 710 189
388 292 599 355 730 l63 130 -74 147 c-41 82 -76 148 -79 148 -3 0 -44 -80
-91 -177z"/>
</g>
</svg>
