<svg viewBox="0 0 87 87" fill="none" xmlns="http://www.w3.org/2000/svg">
<path d="M43.4755 86.5404C34.9572 86.5404 26.6302 84.0144 19.5475 79.2819C12.4648 74.5494 6.94453 67.8229 3.68472 59.953C0.424912 52.0831 -0.428004 43.4233 1.23383 35.0687C2.89567 26.714 6.99762 19.0398 13.021 13.0165C19.0443 6.99311 26.7185 2.89116 35.0731 1.22932C43.4278 -0.432522 52.0876 0.420395 59.9574 3.68021C67.8273 6.94003 74.5538 12.4603 79.2863 19.543C84.0188 26.6258 86.5448 34.9528 86.5448 43.4711C86.5316 54.8897 81.9898 65.8369 73.9156 73.9111C65.8414 81.9854 54.8942 86.5272 43.4755 86.5404ZM43.4755 2.7142C35.4146 2.7142 27.5347 5.10455 20.8323 9.58297C14.1298 14.0614 8.90593 20.4268 5.82114 27.8741C2.73635 35.3214 1.92923 43.5163 3.50184 51.4224C5.07445 59.3284 8.95617 66.5906 14.6561 72.2905C20.3561 77.9905 27.6182 81.8722 35.5243 83.4448C43.4303 85.0174 51.6252 84.2103 59.0725 81.1255C66.5198 78.0407 72.8852 72.8168 77.3636 66.1144C81.842 59.412 84.2324 51.532 84.2324 43.4711C84.2204 32.6654 79.9225 22.3056 72.2817 14.6648C64.6409 7.02403 54.2812 2.72617 43.4755 2.7142Z" fill="currentColor"/>
<path d="M10.9569 44.7267H6.23263C5.92599 44.7267 5.6319 44.6049 5.41507 44.388C5.19823 44.1712 5.07642 43.8771 5.07642 43.5705C5.07642 43.2639 5.19823 42.9698 5.41507 42.7529C5.6319 42.5361 5.92599 42.4143 6.23263 42.4143H10.9569C11.2636 42.4143 11.5577 42.5361 11.7745 42.7529C11.9913 42.9698 12.1132 43.2639 12.1132 43.5705C12.1132 43.8771 11.9913 44.1712 11.7745 44.388C11.5577 44.6049 11.2636 44.7267 10.9569 44.7267Z" fill="currentColor"/>
<path d="M11.4692 63.4163C11.2143 63.4167 10.9664 63.3329 10.7641 63.1779C10.5618 63.0229 10.4163 62.8053 10.3504 62.5591C10.2845 62.3129 10.3017 62.0518 10.3995 61.8164C10.4973 61.581 10.6702 61.3846 10.8912 61.2576L14.9831 58.8999C15.1144 58.8226 15.2598 58.7722 15.4109 58.7517C15.5619 58.7313 15.7154 58.7411 15.8626 58.7806C16.0098 58.8201 16.1476 58.8886 16.268 58.982C16.3884 59.0754 16.489 59.1918 16.5639 59.3245C16.7159 59.5907 16.7565 59.9062 16.677 60.2023C16.5975 60.4983 16.4043 60.751 16.1394 60.9053L12.0474 63.2626C11.8724 63.3658 11.6724 63.4189 11.4692 63.4163Z" fill="currentColor"/>
<path d="M25.3446 76.9823C25.1421 76.9806 24.9432 76.9278 24.7665 76.8288C24.502 76.6741 24.3092 76.4214 24.2297 76.1255C24.1502 75.8296 24.1905 75.5143 24.3419 75.248L26.7086 71.1561C26.863 70.8923 27.1155 70.7004 27.4109 70.6221C27.7063 70.5438 28.0207 70.5856 28.2855 70.7382C28.5503 70.8909 28.7439 71.1421 28.8242 71.4369C28.9044 71.7318 28.8648 72.0465 28.7139 72.3123L26.3473 76.4042C26.2452 76.5797 26.0989 76.7254 25.923 76.8268C25.7471 76.9283 25.5477 76.9819 25.3446 76.9823Z" fill="currentColor"/>
<path d="M44.153 81.7981C44.001 81.7986 43.8504 81.769 43.7099 81.711C43.5694 81.6531 43.4418 81.5679 43.3343 81.4605C43.2269 81.353 43.1417 81.2254 43.0838 81.0849C43.0258 80.9444 42.9962 80.7938 42.9967 80.6419V75.9177C42.9967 75.611 43.1185 75.317 43.3354 75.1001C43.5522 74.8833 43.8463 74.7615 44.153 74.7615C44.4596 74.7615 44.7537 74.8833 44.9705 75.1001C45.1874 75.317 45.3092 75.611 45.3092 75.9177V80.6419C45.3097 80.7938 45.2801 80.9444 45.2222 81.0849C45.1642 81.2254 45.0791 81.3531 44.9716 81.4605C44.8641 81.568 44.7365 81.6531 44.596 81.7111C44.4555 81.769 44.3049 81.7986 44.153 81.7981Z" fill="currentColor"/>
<path d="M62.8411 76.5668C62.638 76.5663 62.4386 76.5127 62.2627 76.4113C62.0868 76.3099 61.9405 76.1642 61.8384 75.9887L59.4717 71.8967C59.3203 71.6304 59.28 71.3151 59.3594 71.0192C59.4389 70.7233 59.6318 70.4706 59.8963 70.3159C60.1634 70.1678 60.4776 70.1293 60.7725 70.2085C61.0675 70.2877 61.3201 70.4785 61.4771 70.7405L63.8437 74.8324C63.9951 75.0988 64.0355 75.4141 63.956 75.71C63.8765 76.0059 63.6836 76.2586 63.4192 76.4132C63.2425 76.5122 63.0436 76.565 62.8411 76.5668Z" fill="currentColor"/>
<path d="M76.4087 62.6826C76.2055 62.6853 76.0056 62.6322 75.8305 62.5291L71.7385 60.1715C71.4736 60.0172 71.2804 59.7646 71.2009 59.4685C71.1214 59.1724 71.1621 58.8569 71.3141 58.5907C71.3884 58.4574 71.4887 58.3404 71.609 58.2466C71.7294 58.1528 71.8673 58.084 72.0147 58.0444C72.1621 58.0049 72.3159 57.9952 72.4671 58.0161C72.6182 58.037 72.7637 58.0881 72.8948 58.1662L76.9868 60.5238C77.2078 60.6508 77.3807 60.8473 77.4785 61.0827C77.5764 61.3181 77.5937 61.5793 77.5277 61.8255C77.4618 62.0718 77.3163 62.2893 77.1139 62.4443C76.9115 62.5993 76.6636 62.6831 76.4087 62.6826Z" fill="currentColor"/>
<path d="M81.2153 43.8867H76.4911C76.1844 43.8867 75.8903 43.7649 75.6735 43.5481C75.4567 43.3312 75.3348 43.0371 75.3348 42.7305C75.3348 42.4238 75.4567 42.1297 75.6735 41.9129C75.8903 41.696 76.1844 41.5742 76.4911 41.5742H81.2153C81.5219 41.5742 81.816 41.696 82.0329 41.9129C82.2497 42.1297 82.3715 42.4238 82.3715 42.7305C82.3715 43.0371 82.2497 43.3312 82.0329 43.5481C81.816 43.7649 81.5219 43.8867 81.2153 43.8867Z" fill="currentColor"/>
<path d="M71.8908 27.5536C71.6358 27.5541 71.3878 27.4703 71.1854 27.3153C70.983 27.1603 70.8375 26.9427 70.7715 26.6964C70.7056 26.4502 70.7229 26.189 70.8207 25.9536C70.9186 25.7181 71.0915 25.5216 71.3126 25.3947L75.4046 23.028C75.6717 22.8799 75.9859 22.8415 76.2808 22.9207C76.5758 22.9999 76.8284 23.1906 76.9853 23.4526C77.1367 23.719 77.1771 24.0343 77.0976 24.3302C77.0181 24.6261 76.8252 24.8787 76.5608 25.0334L72.4689 27.4C72.2921 27.499 72.0933 27.5518 71.8908 27.5536Z" fill="currentColor"/>
<path d="M59.742 15.7115C59.5394 15.7098 59.3406 15.657 59.1638 15.558C58.8994 15.4033 58.7065 15.1507 58.627 14.8548C58.5476 14.5589 58.5879 14.2436 58.7393 13.9772L61.106 9.88532C61.2604 9.62159 61.5129 9.42964 61.8083 9.35136C62.1037 9.27308 62.4181 9.31482 62.6829 9.46747C62.9477 9.62013 63.1413 9.8713 63.2216 10.1662C63.3018 10.4611 63.2622 10.7758 63.1113 11.0415L60.7446 15.1334C60.6425 15.3089 60.4962 15.4547 60.3203 15.5561C60.1444 15.6575 59.945 15.7111 59.742 15.7115Z" fill="currentColor"/>
<path d="M43.3034 11.5399C43.1515 11.5404 43.0009 11.5108 42.8604 11.4528C42.7199 11.3949 42.5923 11.3098 42.4848 11.2023C42.3774 11.0948 42.2922 10.9672 42.2343 10.8267C42.1764 10.6862 42.1468 10.5357 42.1472 10.3837V5.65916C42.1472 5.35251 42.269 5.05841 42.4859 4.84158C42.7027 4.62475 42.9968 4.50293 43.3034 4.50293C43.6101 4.50293 43.9042 4.62475 44.121 4.84158C44.3378 5.05841 44.4597 5.35251 44.4597 5.65916V10.3837C44.4601 10.5357 44.4305 10.6862 44.3726 10.8267C44.3146 10.9672 44.2295 11.0948 44.122 11.2023C44.0146 11.3098 43.8869 11.3949 43.7465 11.4528C43.606 11.5108 43.4554 11.5404 43.3034 11.5399Z" fill="currentColor"/>
<path d="M26.9696 16.1364C26.7666 16.1359 26.5672 16.0823 26.3913 15.9809C26.2154 15.8795 26.0691 15.7338 25.967 15.5583L23.6095 11.4663C23.4586 11.2005 23.419 10.8859 23.4992 10.591C23.5795 10.2961 23.7732 10.0449 24.0379 9.89228C24.3027 9.73962 24.6171 9.69788 24.9125 9.77616C25.2079 9.85444 25.4604 10.0464 25.6148 10.3101L27.9724 14.4021C28.1243 14.6683 28.165 14.9838 28.0855 15.2798C28.0059 15.5759 27.8127 15.8286 27.5478 15.9828C27.3727 16.0859 27.1728 16.139 26.9696 16.1364Z" fill="currentColor"/>
<path d="M15.1381 28.2856C14.935 28.2882 14.735 28.2351 14.56 28.132L10.4678 25.7741C10.2029 25.6198 10.0097 25.3671 9.93017 25.071C9.85066 24.775 9.8913 24.4595 10.0433 24.1933C10.1176 24.06 10.2179 23.943 10.3382 23.8491C10.4586 23.7553 10.5966 23.6866 10.7439 23.647C10.8913 23.6074 11.0451 23.5978 11.1963 23.6187C11.3475 23.6396 11.4929 23.6906 11.624 23.7687L15.716 26.1264C15.937 26.2534 16.1099 26.4498 16.2077 26.6852C16.3056 26.9207 16.3229 27.1818 16.2569 27.428C16.191 27.6743 16.0455 27.8919 15.8431 28.0469C15.6407 28.2019 15.3928 28.2857 15.1378 28.2852L15.1381 28.2856Z" fill="currentColor"/>
<path d="M46.9433 45.8301C46.743 45.8327 46.546 45.7796 46.3742 45.6766L24.8667 33.4822C24.7345 33.408 24.6182 33.3084 24.5248 33.189C24.4313 33.0696 24.3624 32.9329 24.3221 32.7868C24.2817 32.6406 24.2708 32.4879 24.2899 32.3375C24.3089 32.1871 24.3577 32.0419 24.4332 31.9105C24.5043 31.7752 24.6023 31.6559 24.7213 31.56C24.8404 31.4642 24.9778 31.3937 25.1251 31.3531C25.2724 31.3125 25.4265 31.3025 25.5778 31.3238C25.7291 31.345 25.8745 31.3971 26.0049 31.4768L47.5126 43.6713C47.7338 43.7974 47.9071 43.993 48.0056 44.2278C48.1041 44.4625 48.1224 44.7232 48.0575 44.9694C47.9926 45.2155 47.8482 45.4334 47.6468 45.589C47.4454 45.7447 47.1981 45.8295 46.9436 45.8302L46.9433 45.8301Z" fill="currentColor"/>
<path d="M41.5225 46.3349C41.3556 46.3358 41.1905 46.2998 41.039 46.2296C40.8876 46.1593 40.7535 46.0565 40.6464 45.9284C40.5474 45.8136 40.4721 45.6804 40.4249 45.5363C40.3777 45.3923 40.3594 45.2404 40.3711 45.0893C40.3829 44.9381 40.4244 44.7909 40.4934 44.6559C40.5623 44.5209 40.6573 44.4009 40.7728 44.3028L69.3894 19.7511C69.5033 19.6502 69.6363 19.5732 69.7806 19.5248C69.9249 19.4764 70.0774 19.4576 70.2292 19.4694C70.3809 19.4812 70.5287 19.5234 70.6638 19.5935C70.7988 19.6636 70.9184 19.7603 71.0153 19.8776C71.1143 19.9924 71.1896 20.1257 71.2368 20.2697C71.2841 20.4138 71.3024 20.5658 71.2906 20.7169C71.2789 20.8681 71.2373 21.0154 71.1684 21.1504C71.0994 21.2854 71.0044 21.4055 70.8889 21.5036L42.2723 46.0548C42.0653 46.2372 41.7984 46.3369 41.5225 46.3349Z" fill="currentColor"/>
</svg>
