<svg xmlns="http://www.w3.org/2000/svg" fill="currentColor" width="3em" height="3em" viewBox="0 0 73.77 68.21"><title>icon-building</title><g id="fb981719-ec9f-4a78-a383-dcf69985dcce" ><g id="bd93b923-9019-49a9-b683-75d0db978748" data-name="Layer 1"><path d="M45.79,28.74a.9.9,0,0,1-.65-.28,1,1,0,0,1-.27-.68V2.3a.4.4,0,0,0,0-.15L44.75,2a.41.41,0,0,0-.33-.09L21.09,5.35a.35.35,0,0,0-.22.12.39.39,0,0,0-.1.25v9a1,1,0,0,1-.27.68.91.91,0,0,1-1.31,0,1,1,0,0,1-.27-.68v-9a2.36,2.36,0,0,1,.55-1.51,2.17,2.17,0,0,1,1.37-.77L44.17,0a2.19,2.19,0,0,1,.95.08A2.25,2.25,0,0,1,46,.57a2.29,2.29,0,0,1,.56.78,2.42,2.42,0,0,1,.2.95V27.78a1,1,0,0,1-.27.68A.91.91,0,0,1,45.79,28.74Z"/><path d="M45.35,16.83H26.29a.71.71,0,0,1-.35-.07.92.92,0,0,1-.31-.2,1,1,0,0,1-.2-1.06,1,1,0,0,1,.2-.31.81.81,0,0,1,.31-.21.71.71,0,0,1,.35-.07H45.35a.77.77,0,0,1,.36.07.86.86,0,0,1,.3.21.83.83,0,0,1,.2.31,1,1,0,0,1,0,.74,1,1,0,0,1-.2.32,1,1,0,0,1-.3.2A.77.77,0,0,1,45.35,16.83Z"/><path d="M67.75,39.82a.93.93,0,0,1-.66-.29,1,1,0,0,1-.27-.68V18.94a1,1,0,0,1,.28-.68.88.88,0,0,1,.65-.28.9.9,0,0,1,.65.28,1,1,0,0,1,.27.68V38.85a1,1,0,0,1-.27.68A.91.91,0,0,1,67.75,39.82Z"/><path d="M61.73,32.63a.92.92,0,0,1-.66-.28,1,1,0,0,1-.27-.69V18.94a1,1,0,0,1,.28-.68.88.88,0,0,1,.65-.28.9.9,0,0,1,.65.28,1,1,0,0,1,.28.68V31.66a1,1,0,0,1-.28.69A.88.88,0,0,1,61.73,32.63Z"/><path d="M55.54,25.44a.91.91,0,0,1-.66-.28,1,1,0,0,1-.27-.68V18.94a1,1,0,0,1,.27-.68.91.91,0,0,1,1.31,0,1,1,0,0,1,.27.68v5.54a1,1,0,0,1-.27.68A.9.9,0,0,1,55.54,25.44Z"/><path d="M45.35,26.82H26.29a1,1,0,0,1-.35-.07,1,1,0,0,1-.31-.21,1,1,0,0,1-.2-1.06,1.1,1.1,0,0,1,.2-.31,1,1,0,0,1,.31-.21.84.84,0,0,1,.35-.07H45.35a.92.92,0,0,1,.36.07,1,1,0,0,1,.3.21.92.92,0,0,1,.2.31,1,1,0,0,1,0,.74,1,1,0,0,1-.2.32,1,1,0,0,1-.3.21A1.15,1.15,0,0,1,45.35,26.82Z"/><path d="M68.05,55.55H28.35a.92.92,0,0,1-.65-.28,1,1,0,0,1-.26-.68,1,1,0,0,1,.26-.69.92.92,0,0,1,.65-.28h39.7a.92.92,0,0,1,.36.07,1,1,0,0,1,.3.21.87.87,0,0,1,.2.31,1,1,0,0,1,.07.38,1,1,0,0,1-.07.37.79.79,0,0,1-.2.31.86.86,0,0,1-.3.21A.77.77,0,0,1,68.05,55.55Z"/><path d="M36.41,36.88H26.29a1.15,1.15,0,0,1-.36-.07,1,1,0,0,1-.3-.21,1,1,0,0,1-.2-.32.94.94,0,0,1-.07-.37.9.9,0,0,1,.07-.37,1,1,0,0,1,.2-.32,1,1,0,0,1,.3-.21.92.92,0,0,1,.36-.07H36.41a.92.92,0,0,1,.36.07,1,1,0,0,1,.3.21.83.83,0,0,1,.2.32.9.9,0,0,1,.07.37.94.94,0,0,1-.07.37.83.83,0,0,1-.2.32,1,1,0,0,1-.3.21A1.15,1.15,0,0,1,36.41,36.88Z"/><path d="M21.89,68.21H10.06a.84.84,0,0,1-.35-.07,1,1,0,0,1-.31-.21,1.27,1.27,0,0,1-.2-.31,1,1,0,0,1-.07-.38,1,1,0,0,1,.07-.37,1.1,1.1,0,0,1,.2-.31.81.81,0,0,1,.31-.21.85.85,0,0,1,.35-.08H21.89a.15.15,0,0,0,.11,0,.2.2,0,0,0,.09-.07.26.26,0,0,0,.07-.1.36.36,0,0,0,0-.11V19.24a.41.41,0,0,0-.09-.22A.24.24,0,0,0,22,19l-.11,0H2.14A.23.23,0,0,0,2,19a.18.18,0,0,0-.09.06.41.41,0,0,0-.09.22V56a1,1,0,0,1-.27.69A.9.9,0,0,1,.93,57a.92.92,0,0,1-.66-.28A1,1,0,0,1,0,56V19.24a2.3,2.3,0,0,1,.63-1.58A2.1,2.1,0,0,1,2.14,17H21.89a2.1,2.1,0,0,1,1.51.66A2.3,2.3,0,0,1,24,19.24V66a2.3,2.3,0,0,1-.63,1.58A2.08,2.08,0,0,1,21.89,68.21Z"/><path d="M72.84,54.87a.92.92,0,0,1-.66-.28,1,1,0,0,1-.27-.68V20.12c0-.08-.19-.29-.57-.29H48.45a.84.84,0,0,1-.35-.07.9.9,0,0,1-.3-.21,1,1,0,0,1-.21-.31,1.21,1.21,0,0,1-.07-.37,1.11,1.11,0,0,1,.07-.37,1,1,0,0,1,.21-.32.9.9,0,0,1,.3-.21,1,1,0,0,1,.35-.07H71.34a2.21,2.21,0,0,1,1.65.59,2.47,2.47,0,0,1,.78,1.63V53.91a1,1,0,0,1-.27.68A.92.92,0,0,1,72.84,54.87Z"/><path d="M8.79,24.94A.29.29,0,0,1,9,25a.39.39,0,0,1,.23.23.47.47,0,0,1,0,.17V28a.51.51,0,0,1,0,.17.39.39,0,0,1-.23.23.41.41,0,0,1-.16,0H6.33a.41.41,0,0,1-.16,0A.42.42,0,0,1,6,28.26a.67.67,0,0,1-.09-.14.51.51,0,0,1,0-.17V25.38a.47.47,0,0,1,0-.17A.67.67,0,0,1,6,25.07.42.42,0,0,1,6.17,25a.29.29,0,0,1,.16,0Zm0-1.93H6.33a2.22,2.22,0,0,0-1.6.69,2.43,2.43,0,0,0-.67,1.68V28a2.39,2.39,0,0,0,.67,1.67,2.19,2.19,0,0,0,1.6.7H8.79a2.19,2.19,0,0,0,1.6-.7A2.39,2.39,0,0,0,11.06,28V25.38a2.43,2.43,0,0,0-.67-1.68A2.22,2.22,0,0,0,8.79,23Z"/><path d="M17.66,24.94a.34.34,0,0,1,.16,0,.38.38,0,0,1,.13.09.42.42,0,0,1,.09.14.47.47,0,0,1,0,.17V28a.51.51,0,0,1,0,.17.42.42,0,0,1-.09.14.38.38,0,0,1-.13.09l-.16,0H15.19a.4.4,0,0,1-.29-.12.45.45,0,0,1-.12-.31V25.38a.43.43,0,0,1,.12-.31.41.41,0,0,1,.29-.13Zm0-1.93H15.19a2.24,2.24,0,0,0-1.6.69,2.46,2.46,0,0,0-.66,1.68V28a2.42,2.42,0,0,0,.66,1.67,2.21,2.21,0,0,0,1.6.7h2.47a2.21,2.21,0,0,0,1.6-.7A2.42,2.42,0,0,0,19.92,28V25.38a2.46,2.46,0,0,0-.66-1.68A2.24,2.24,0,0,0,17.66,23Z"/><path d="M8.79,34.28a.41.41,0,0,1,.16,0,.71.71,0,0,1,.14.1.42.42,0,0,1,.09.14.47.47,0,0,1,0,.17v2.57a.51.51,0,0,1,0,.17.39.39,0,0,1-.23.23.41.41,0,0,1-.16,0H6.33a.41.41,0,0,1-.16,0A.42.42,0,0,1,6,37.6a.67.67,0,0,1-.09-.14.51.51,0,0,1,0-.17V34.72a.47.47,0,0,1,0-.17A.67.67,0,0,1,6,34.41a.71.71,0,0,1,.14-.1.41.41,0,0,1,.16,0Zm0-1.93H6.33a2.22,2.22,0,0,0-1.6.69,2.43,2.43,0,0,0-.67,1.68v2.57A2.39,2.39,0,0,0,4.73,39a2.19,2.19,0,0,0,1.6.7H8.79a2.19,2.19,0,0,0,1.6-.7,2.39,2.39,0,0,0,.67-1.67V34.72A2.43,2.43,0,0,0,10.39,33,2.22,2.22,0,0,0,8.79,32.35Z"/><path d="M17.66,34.28l.16,0,.13.1a.42.42,0,0,1,.09.14.47.47,0,0,1,0,.17v2.57a.51.51,0,0,1,0,.17.42.42,0,0,1-.09.14.38.38,0,0,1-.13.09l-.16,0H15.19a.4.4,0,0,1-.29-.12.47.47,0,0,1-.12-.31V34.72a.43.43,0,0,1,.12-.31.41.41,0,0,1,.29-.13Zm0-1.93H15.19a2.24,2.24,0,0,0-1.6.69,2.46,2.46,0,0,0-.66,1.68v2.57A2.42,2.42,0,0,0,13.59,39a2.21,2.21,0,0,0,1.6.7h2.47a2.21,2.21,0,0,0,1.6-.7,2.42,2.42,0,0,0,.66-1.67V34.72A2.46,2.46,0,0,0,19.26,33,2.24,2.24,0,0,0,17.66,32.35Z"/><path d="M8.79,44.34a.41.41,0,0,1,.16,0,.71.71,0,0,1,.14.1.42.42,0,0,1,.09.14.47.47,0,0,1,0,.17v2.57a.51.51,0,0,1,0,.17.39.39,0,0,1-.23.23.41.41,0,0,1-.16,0H6.33a.41.41,0,0,1-.16,0A.42.42,0,0,1,6,47.66a.54.54,0,0,1-.09-.15.41.41,0,0,1,0-.16V44.78a.47.47,0,0,1,0-.17A.67.67,0,0,1,6,44.47a.71.71,0,0,1,.14-.1.41.41,0,0,1,.16,0Zm0-1.93H6.33a2.22,2.22,0,0,0-1.6.69,2.43,2.43,0,0,0-.67,1.68v2.57A2.39,2.39,0,0,0,4.73,49a2.19,2.19,0,0,0,1.6.7H8.79a2.19,2.19,0,0,0,1.6-.7,2.39,2.39,0,0,0,.67-1.67V44.78a2.43,2.43,0,0,0-.67-1.68A2.22,2.22,0,0,0,8.79,42.41Z"/><path d="M17.66,44.34l.16,0,.13.1a.42.42,0,0,1,.09.14.47.47,0,0,1,0,.17v2.57a.51.51,0,0,1,0,.17.42.42,0,0,1-.09.14.34.34,0,0,1-.14.09.4.4,0,0,1-.15,0H15.19a.4.4,0,0,1-.29-.12.47.47,0,0,1-.12-.31V44.78a.43.43,0,0,1,.12-.31.41.41,0,0,1,.29-.13Zm0-1.93H15.19a2.24,2.24,0,0,0-1.6.69,2.46,2.46,0,0,0-.66,1.68v2.57A2.42,2.42,0,0,0,13.59,49a2.21,2.21,0,0,0,1.6.7h2.47a2.21,2.21,0,0,0,1.6-.7,2.42,2.42,0,0,0,.66-1.67V44.78a2.46,2.46,0,0,0-.66-1.68A2.24,2.24,0,0,0,17.66,42.41Z"/><path d="M8.79,54.4a.41.41,0,0,1,.16,0,.45.45,0,0,1,.14.1.42.42,0,0,1,.09.14.45.45,0,0,1,0,.16v2.58a.47.47,0,0,1-.12.3.39.39,0,0,1-.3.13H6.33a.39.39,0,0,1-.3-.13.47.47,0,0,1-.12-.3V54.83a.47.47,0,0,1,.12-.3.43.43,0,0,1,.3-.13Zm0-1.93H6.33a2.22,2.22,0,0,0-1.6.69,2.42,2.42,0,0,0-.67,1.67v2.58a2.4,2.4,0,0,0,.67,1.67,2.22,2.22,0,0,0,1.6.69H8.79a2.22,2.22,0,0,0,1.6-.69,2.4,2.4,0,0,0,.67-1.67V54.83a2.42,2.42,0,0,0-.67-1.67A2.22,2.22,0,0,0,8.79,52.47Z"/><path d="M17.66,54.4l.16,0a.41.41,0,0,1,.13.1.42.42,0,0,1,.09.14.45.45,0,0,1,0,.16v2.58a.42.42,0,0,1-.12.3.37.37,0,0,1-.29.13H15.19a.37.37,0,0,1-.29-.13.42.42,0,0,1-.12-.3V54.83a.42.42,0,0,1,.12-.3.41.41,0,0,1,.29-.13Zm0-1.93H15.19a2.24,2.24,0,0,0-1.6.69,2.46,2.46,0,0,0-.66,1.67v2.58a2.42,2.42,0,0,0,.66,1.67,2.24,2.24,0,0,0,1.6.69h2.47a2.24,2.24,0,0,0,1.6-.69,2.42,2.42,0,0,0,.66-1.67V54.83a2.46,2.46,0,0,0-.66-1.67A2.24,2.24,0,0,0,17.66,52.47Z"/><path d="M54.22,68.11H29.93v-23H67.26v17a.94.94,0,0,1-.07.37,1,1,0,0,1-.2.32,1,1,0,0,1-.3.21A1,1,0,0,1,66,63a1,1,0,0,1-.3-.21,1,1,0,0,1-.27-.69V47H31.79V66.17H54.22a.92.92,0,0,1,.36.07,1,1,0,0,1,.3.21.83.83,0,0,1,.2.32.9.9,0,0,1,.07.37.94.94,0,0,1-.07.37.83.83,0,0,1-.2.32,1,1,0,0,1-.3.21,1.15,1.15,0,0,1-.36.07Z"/><path d="M60,46.55a.92.92,0,0,1-.62-.25,1,1,0,0,1-.3-.62l-.36-3.81a11.11,11.11,0,0,0-3.17-7.17,10.26,10.26,0,0,0-7-3.07,10.3,10.3,0,0,0-7,3.07,11.21,11.21,0,0,0-3.17,7.17l-.36,3.81c0,.53-.51,1-1,.87a.94.94,0,0,1-.63-.35,1,1,0,0,1-.21-.71l.36-3.81a13.09,13.09,0,0,1,3.77-8.41,12.07,12.07,0,0,1,8.21-3.58,12.07,12.07,0,0,1,8.22,3.58,13.13,13.13,0,0,1,3.76,8.41l.36,3.81a.78.78,0,0,1,0,.37.91.91,0,0,1-.17.34.94.94,0,0,1-.28.24,1,1,0,0,1-.34.11Z"/><path d="M52.46,67.73a.89.89,0,0,1-.66-.29,1,1,0,0,1-.27-.68V62.57a3.08,3.08,0,0,0-.87-2.16,2.84,2.84,0,0,0-4.15,0,3.12,3.12,0,0,0-.86,2.16v4.19a1,1,0,0,1-.27.69,1,1,0,0,1-.3.21.85.85,0,0,1-.72,0,1,1,0,0,1-.3-.21,1,1,0,0,1-.2-.32.94.94,0,0,1-.07-.37V62.57A5.16,5.16,0,0,1,45.2,59,4.65,4.65,0,0,1,52,59a5.17,5.17,0,0,1,1.42,3.53v4.19a1,1,0,0,1-.28.68A.87.87,0,0,1,52.46,67.73Z"/></g></g></svg>
